<svg width="67" height="61" viewBox="0 0 67 61" fill="none" xmlns="http://www.w3.org/2000/svg">
<g clip-path="url(#clip0_2314_8539)" filter="url(#filter0_d_2314_8539)">
<path d="M61.8371 51.8285V51.9465H61.9471C61.9678 51.9469 61.9881 51.9417 62.0061 51.9315C62.0133 51.9264 62.0191 51.9196 62.0229 51.9118C62.0268 51.9039 62.0286 51.8951 62.0282 51.8864C62.0286 51.8778 62.0268 51.8692 62.0229 51.8615C62.019 51.8538 62.0132 51.8472 62.0061 51.8424C61.9883 51.8317 61.9678 51.8265 61.9471 51.8274H61.8371V51.8285ZM61.9483 51.7451C61.9955 51.7422 62.0422 51.7557 62.0804 51.7834C62.0958 51.796 62.108 51.812 62.116 51.8301C62.1241 51.8483 62.1278 51.868 62.1268 51.8878C62.1275 51.9049 62.1245 51.9219 62.1181 51.9377C62.1117 51.9536 62.102 51.9678 62.0896 51.9796C62.0601 52.0053 62.023 52.0207 61.984 52.0235L62.1315 52.1917H62.0179L61.8822 52.0247H61.8383V52.1917H61.7433V51.7454H61.9498L61.9483 51.7451ZM61.9188 52.3457C61.9686 52.3461 62.018 52.3361 62.0636 52.3162C62.1077 52.2972 62.1477 52.2701 62.1816 52.2362C62.2156 52.2024 62.2428 52.1623 62.2616 52.1182C62.3003 52.0247 62.3003 51.9197 62.2616 51.8262C62.2425 51.7822 62.2154 51.7422 62.1816 51.7082C62.1477 51.6743 62.1077 51.6472 62.0636 51.6282C62.0177 51.6094 61.9684 51.6 61.9188 51.6005C61.8683 51.6 61.8182 51.6095 61.7713 51.6282C61.7263 51.6468 61.6853 51.674 61.6506 51.7082C61.5984 51.7617 61.5632 51.8294 61.5492 51.9028C61.5351 51.9763 61.543 52.0522 61.5719 52.1212C61.5898 52.1655 61.6166 52.2056 61.6506 52.2392C61.6853 52.2734 61.7263 52.3005 61.7713 52.3191C61.8179 52.339 61.8681 52.3491 61.9188 52.3486M61.9188 51.4931C62.0484 51.493 62.1729 51.5439 62.2654 51.6347C62.31 51.6784 62.3455 51.7304 62.3698 51.7878C62.3951 51.8468 62.4081 51.9103 62.4081 51.9744C62.4081 52.0386 62.3951 52.102 62.3698 52.161C62.3449 52.2181 62.3095 52.2701 62.2654 52.3141C62.2202 52.3575 62.1675 52.3925 62.1099 52.4174C62.0495 52.443 61.9845 52.4561 61.9188 52.4557C61.8523 52.4562 61.7865 52.4431 61.7253 52.4174C61.667 52.3931 61.6139 52.358 61.5686 52.3141C61.5245 52.2684 61.4896 52.2148 61.4657 52.156C61.4405 52.097 61.4275 52.0335 61.4275 51.9694C61.4275 51.9053 61.4405 51.8418 61.4657 51.7828C61.49 51.7254 61.5255 51.6733 61.5701 51.6297C61.6148 51.585 61.6681 51.5499 61.7267 51.5265C61.788 51.5007 61.8538 51.4876 61.9203 51.4881M16.7484 49.7694C16.7484 48.9184 17.3059 48.2192 18.2172 48.2192C19.088 48.2192 19.6757 48.8883 19.6757 49.7694C19.6757 50.6506 19.088 51.3197 18.2172 51.3197C17.3059 51.3197 16.7484 50.6205 16.7484 49.7694ZM20.6683 49.7694V47.3475H19.6155V47.9375C19.2816 47.5015 18.775 47.228 18.0862 47.228C16.7292 47.228 15.6643 48.2924 15.6643 49.7706C15.6643 51.2489 16.7286 52.3132 18.0862 52.3132C18.7747 52.3132 19.2816 52.0395 19.6155 51.6038V52.1917H20.6672V49.7694H20.6683ZM56.243 49.7694C56.243 48.9184 56.8005 48.2192 57.7121 48.2192C58.5838 48.2192 59.1706 48.8883 59.1706 49.7694C59.1706 50.6506 58.5838 51.3197 57.7121 51.3197C56.8008 51.3197 56.243 50.6205 56.243 49.7694ZM60.1641 49.7694V45.4034H59.1104V47.9375C58.7765 47.5015 58.2699 47.228 57.5811 47.228C56.2241 47.228 55.1592 48.2924 55.1592 49.7706C55.1592 51.2489 56.2235 52.3132 57.5811 52.3132C58.2699 52.3132 58.7765 52.0395 59.1104 51.6038V52.1917H60.1641V49.7694ZM33.7357 48.1694C34.4142 48.1694 34.8499 48.5948 34.9611 49.3438H32.4489C32.5613 48.6446 32.9858 48.1694 33.736 48.1694M33.7569 47.2254C32.338 47.2254 31.3453 48.2579 31.3453 49.768C31.3453 51.3076 32.3778 52.3106 33.8274 52.3106C34.5567 52.3106 35.2245 52.1286 35.8122 51.6321L35.2962 50.8518C34.8903 51.1763 34.3735 51.3583 33.8876 51.3583C33.2091 51.3583 32.5914 51.0441 32.4394 50.1724H36.0346C36.0449 50.0414 36.0555 49.9093 36.0555 49.7677C36.0449 48.2582 35.1115 47.2251 33.7563 47.2251M46.4679 49.7677C46.4679 48.9166 47.0254 48.2174 47.9367 48.2174C48.8075 48.2174 49.3952 48.8865 49.3952 49.7677C49.3952 50.6488 48.8075 51.3179 47.9367 51.3179C47.0254 51.3179 46.4676 50.6187 46.4676 49.7677M50.3875 49.7677V47.3475H49.3353V47.9375C49.0001 47.5015 48.4948 47.228 47.806 47.228C46.449 47.228 45.384 48.2924 45.384 49.7706C45.384 51.2489 46.4484 52.3132 47.806 52.3132C48.4948 52.3132 49.0001 52.0395 49.3353 51.6038V52.1917H50.3878V49.7694L50.3875 49.7677ZM40.5221 49.7677C40.5221 51.2365 41.5446 52.3103 43.1052 52.3103C43.8344 52.3103 44.3203 52.148 44.8457 51.733L44.34 50.8819C43.9447 51.166 43.5297 51.3179 43.0715 51.3179C42.2311 51.3076 41.6131 50.6999 41.6131 49.7677C41.6131 48.8355 42.2311 48.2281 43.0715 48.2174C43.5285 48.2174 43.9436 48.3694 44.34 48.6535L44.8457 47.8024C44.3194 47.3873 43.8335 47.2251 43.1052 47.2251C41.5446 47.2251 40.5221 48.2986 40.5221 49.7677ZM54.0951 47.2251C53.4877 47.2251 53.0921 47.5092 52.8186 47.9345V47.3475H51.7752V52.189H52.8292V49.475C52.8292 48.6738 53.1735 48.2287 53.8617 48.2287C54.0871 48.2254 54.3109 48.2668 54.5202 48.3505L54.8447 47.3581C54.6116 47.2664 54.3078 47.226 54.0945 47.226M25.8736 47.7325C25.3671 47.3985 24.6691 47.226 23.8992 47.226C22.6726 47.226 21.8829 47.8139 21.8829 48.7759C21.8829 49.5653 22.4708 50.0523 23.5534 50.2043L24.0508 50.2751C24.6281 50.3562 24.9007 50.5081 24.9007 50.7816C24.9007 51.1559 24.5172 51.3695 23.7971 51.3695C23.0679 51.3695 22.5416 51.1365 22.1867 50.863L21.692 51.684C22.2693 52.1094 22.9986 52.3123 23.7883 52.3123C25.1866 52.3123 25.9969 51.6539 25.9969 50.732C25.9969 49.881 25.3591 49.4358 24.3054 49.2839L23.8092 49.2119C23.3534 49.1529 22.9882 49.0611 22.9882 48.7366C22.9882 48.3826 23.3325 48.1697 23.9101 48.1697C24.5281 48.1697 25.1264 48.4027 25.4196 48.5847L25.8754 47.7336L25.8736 47.7325ZM39.4587 47.2268C38.8513 47.2268 38.4557 47.5109 38.1834 47.9363V47.3475H37.14V52.189H38.1928V49.475C38.1928 48.6738 38.5371 48.2287 39.2253 48.2287C39.4507 48.2254 39.6745 48.2668 39.8838 48.3505L40.2083 47.3581C39.9752 47.2664 39.6714 47.226 39.4581 47.226M30.4741 47.3475H28.7525V45.8787H27.6882V47.3475H26.7061V48.3098H27.6882V50.5184C27.6882 51.6418 28.1242 52.3109 29.3697 52.3109C29.8266 52.3109 30.3529 52.1693 30.6868 51.9365L30.3827 51.035C30.0685 51.217 29.7243 51.3088 29.4505 51.3088C28.9242 51.3088 28.7525 50.9843 28.7525 50.4984V48.3107H30.4741V47.3475ZM14.7332 52.1902V49.1517C14.7332 48.0074 14.004 47.2375 12.8284 47.2271C12.2104 47.2168 11.5729 47.4091 11.1266 48.0885C10.7926 47.5516 10.2664 47.2271 9.52649 47.2271C9.00936 47.2271 8.50402 47.3791 8.10843 47.946V47.3475H7.05469V52.189H8.11669V49.5045C8.11669 48.6641 8.58279 48.2174 9.30259 48.2174C10.0017 48.2174 10.3554 48.6732 10.3554 49.4939V52.1884H11.4198V49.5039C11.4198 48.6635 11.9057 48.2169 12.6045 48.2169C13.3234 48.2169 13.6665 48.6726 13.6665 49.4933V52.1879L14.7332 52.1902Z" fill="#484E51"/>
<path d="M26.538 24.785C26.538 18.9685 29.2614 13.7871 33.5024 10.448C30.2922 7.91673 26.3217 6.54293 22.2337 6.54897C12.1632 6.54897 4 14.7134 4 24.785C4 34.8566 12.1632 43.021 22.2337 43.021C26.3218 43.0271 30.2924 41.6533 33.5027 39.122C29.262 35.7835 26.538 30.6018 26.538 24.785Z" fill="#484E51"/>
<path d="M63.008 24.785C63.008 34.8566 54.8448 43.021 44.7744 43.021C40.6858 43.027 36.7148 41.6532 33.5039 39.122C37.746 35.7829 40.4694 30.6018 40.4694 24.785C40.4694 18.9682 37.746 13.7871 33.5039 10.448C36.7147 7.91681 40.6856 6.54304 44.7741 6.54897C54.8445 6.54897 63.0077 14.7134 63.0077 24.785" fill="#484E51"/>
<path fill-rule="evenodd" clip-rule="evenodd" d="M34.288 11.1022L34.2879 11.1023L34.289 11.1033C38.0784 14.4449 40.4683 19.336 40.4683 24.785C40.4683 30.234 38.0784 35.1251 34.289 38.4668L34.288 38.4676L34.2882 38.4677C38.0782 35.1261 40.4686 30.2345 40.4686 24.785C40.4686 19.3355 38.0781 14.4439 34.288 11.1022ZM26.5371 24.785C26.5371 19.3357 28.9276 14.4438 32.7168 11.1021L32.7173 11.1024L32.7163 11.1033C28.9279 14.445 26.538 19.3364 26.538 24.785C26.538 30.2339 28.9284 35.1255 32.7165 38.4668L32.7174 38.4676L32.717 38.4679C28.928 35.1267 26.5371 30.2346 26.5371 24.785ZM33.5028 37.8258C29.8485 34.6643 27.538 29.9943 27.538 24.785C27.538 19.576 29.848 14.9061 33.5026 11.7442C37.1582 14.9061 39.4683 19.5757 39.4683 24.785C39.4683 29.9943 37.1583 34.6639 33.5028 37.8258Z" fill="#484E51"/>
</g>
<defs>
<filter id="filter0_d_2314_8539" x="0" y="0" width="67" height="67" filterUnits="userSpaceOnUse" color-interpolation-filters="sRGB">
<feFlood flood-opacity="0" result="BackgroundImageFix"/>
<feColorMatrix in="SourceAlpha" type="matrix" values="0 0 0 0 0 0 0 0 0 0 0 0 0 0 0 0 0 0 127 0" result="hardAlpha"/>
<feOffset dy="4"/>
<feGaussianBlur stdDeviation="2"/>
<feComposite in2="hardAlpha" operator="out"/>
<feColorMatrix type="matrix" values="0 0 0 0 0 0 0 0 0 0 0 0 0 0 0 0 0 0 0.25 0"/>
<feBlend mode="normal" in2="BackgroundImageFix" result="effect1_dropShadow_2314_8539"/>
<feBlend mode="normal" in="SourceGraphic" in2="effect1_dropShadow_2314_8539" result="shape"/>
</filter>
<clipPath id="clip0_2314_8539">
<rect width="59" height="59" fill="white" transform="translate(4)"/>
</clipPath>
</defs>
</svg>
