<svg xmlns="http://www.w3.org/2000/svg"  viewBox="0 0 128 128" width="128px" height="128px"><path fill="#fff" d="M57.05,111.28L8.98,64.82c-3-2.9-3.88-7.35-2.22-11.18l14.62-33.63c1.59-3.65,5.19-6.01,9.17-6.01h66.89 c3.98,0,7.58,2.36,9.17,6.01l14.62,33.63c1.66,3.82,0.78,8.28-2.22,11.18l-48.06,46.46C67.07,115.03,60.93,115.03,57.05,111.28z"/><path fill="#71c2ff" d="M102,58.5c0-5.32-8.67-8.7-25.77-10.04c-1.66-0.14-3.1,1.11-3.22,2.76c-0.13,1.65,1.11,3.1,2.76,3.22 c11.46,0.9,17.54,2.84,19.63,4.07c-2.85,1.7-12.53,4.18-28.4,4.46V37h22c1.66,0,3-1.34,3-3s-1.34-3-3-3H39c-1.66,0-3,1.34-3,3 s1.34,3,3,3h22v25.97c-15.86-0.28-25.55-2.76-28.4-4.46c2.09-1.22,8.17-3.17,19.63-4.07c1.65-0.13,2.89-1.57,2.76-3.22 c-0.13-1.65-1.57-2.89-3.22-2.76C34.67,49.8,26,53.18,26,58.5c0,8.88,24.98,10.27,35,10.47V94c0,1.66,1.34,3,3,3s3-1.34,3-3V68.97 C77.02,68.77,102,67.38,102,58.5z"/><path fill="#444b54" d="M64,117.11c-3.25,0-6.5-1.22-9.04-3.67L6.9,66.98c-3.88-3.75-5.04-9.59-2.89-14.53l14.62-33.63 C20.7,14.07,25.38,11,30.56,11h66.89c5.18,0,9.86,3.07,11.92,7.82l14.62,33.63c2.15,4.94,0.99,10.78-2.89,14.53l-48.06,46.46 C70.5,115.89,67.25,117.11,64,117.11z M30.56,17c-2.79,0-5.31,1.65-6.42,4.21L9.52,54.84c-1.16,2.66-0.53,5.81,1.55,7.82 l48.06,46.46l0,0c2.73,2.64,7,2.64,9.73,0l48.06-46.46c2.09-2.02,2.71-5.16,1.55-7.82l-14.62-33.63 c-1.11-2.56-3.63-4.21-6.42-4.21H30.56z"/></svg>