<svg width="28" height="28" viewBox="0 0 28 28" fill="none" xmlns="http://www.w3.org/2000/svg">
<path d="M12.8333 8.45559L7.40019 13.8887C7.18141 14.1074 6.88468 14.2304 6.57532 14.2304C6.26596 14.2304 5.96923 14.1074 5.75045 13.8887C5.53173 13.67 5.40894 13.3734 5.40894 13.064C5.40894 12.7546 5.53173 12.4579 5.75045 12.2391L12.8462 5.14343C13.1524 4.8378 13.5674 4.6662 14 4.6662C14.4326 4.6662 14.8476 4.8378 15.1538 5.14343L22.2496 12.2391C22.4683 12.4579 22.5911 12.7546 22.5911 13.064C22.5911 13.3734 22.4683 13.67 22.2496 13.8887C22.0308 14.1074 21.734 14.2304 21.4247 14.2304C21.1153 14.2304 20.8186 14.1074 20.5998 13.8887L15.1667 8.45559V21.4896C15.1667 21.799 15.0438 22.0958 14.825 22.3146C14.6062 22.5334 14.3094 22.6562 14 22.6562C13.6906 22.6562 13.3938 22.5334 13.175 22.3146C12.9562 22.0958 12.8333 21.799 12.8333 21.4896V8.45559Z" fill="#171717"/>
</svg>
