<svg width="19" height="20" viewBox="0 0 19 20" fill="none" xmlns="http://www.w3.org/2000/svg">
<path d="M18.3753 8.70331C18.9094 8.09581 19.1186 7.26248 18.9344 6.47414L18.8653 6.18831C18.6178 5.21581 17.7819 4.47414 16.7844 4.34247C16.1011 4.25247 15.4069 4.17581 14.7053 4.11331C14.7219 3.98831 14.7303 3.86164 14.7303 3.73414C14.7303 2.15414 13.4453 0.869141 11.8653 0.869141C11.0719 0.869141 10.3536 1.19331 9.83361 1.71581C9.31444 1.19331 8.59527 0.869141 7.80194 0.869141C6.22194 0.869141 4.93694 2.15414 4.93694 3.73414C4.93694 3.86247 4.94611 3.98997 4.96278 4.11581C4.26028 4.17914 3.56528 4.25581 2.88111 4.34664C1.88361 4.47914 1.04778 5.22164 0.801942 6.19331L0.732775 6.47831C0.549442 7.26747 0.758609 8.10081 1.29278 8.70831C1.39778 8.82831 1.51194 8.93581 1.63361 9.03081C1.12778 11.5908 1.21944 14.5166 1.88444 16.9033C2.14944 17.8508 2.94944 18.5566 3.92444 18.7C5.88444 18.9883 7.85861 19.1316 9.83194 19.1316C11.8053 19.1316 13.7803 18.9875 15.7403 18.7C16.7144 18.5566 17.5153 17.8508 17.7794 16.9033C18.4453 14.5158 18.5361 11.5891 18.0311 9.02664C18.1528 8.93164 18.2678 8.82331 18.3728 8.70331H18.3753ZM16.5661 5.99414C16.8944 6.03747 17.1686 6.27997 17.2494 6.60164L17.3111 6.85081C17.3736 7.12164 17.3053 7.39581 17.1228 7.60331C16.9444 7.80497 16.7003 7.90747 16.4211 7.87914C14.5361 7.68914 12.6044 7.58331 10.6669 7.55997V5.57247C12.6678 5.60247 14.6594 5.74331 16.5653 5.99497L16.5661 5.99414ZM11.8661 2.53664C12.5269 2.53664 13.0644 3.07414 13.0644 3.73497C13.0644 3.80914 13.0636 3.91247 13.0519 3.99247C12.2669 3.94747 11.4761 3.91831 10.6828 3.90664C10.6761 3.85081 10.6686 3.78081 10.6686 3.73497C10.6686 3.07497 11.2053 2.53664 11.8661 2.53664ZM7.80361 2.53664C8.46361 2.53664 9.00194 3.07414 9.00194 3.73497C9.00194 3.78081 8.99444 3.85164 8.98777 3.90747C8.19527 3.91997 7.40361 3.94914 6.61861 3.99497C6.60694 3.91331 6.60611 3.80914 6.60611 3.73497C6.60611 3.07497 7.14277 2.53664 7.80361 2.53664ZM2.35694 6.85664L2.41861 6.60331C2.49944 6.28581 2.77361 6.04247 3.10111 5.99914C5.00778 5.74664 6.99944 5.60414 9.00111 5.57247V7.55997C7.06278 7.58414 5.13027 7.69247 3.24611 7.88331C2.97361 7.91414 2.72278 7.80914 2.54528 7.60747C2.36278 7.39997 2.29444 7.12664 2.35694 6.85664ZM3.49194 16.4558C2.91944 14.4025 2.82528 11.795 3.23278 9.55247C3.29278 9.55081 3.35361 9.54747 3.41444 9.54164C5.24444 9.35581 7.12028 9.25164 9.00194 9.22664V17.4558C7.38694 17.4208 5.77361 17.2866 4.16944 17.0508C3.84611 17.0033 3.58028 16.7691 3.49277 16.455L3.49194 16.4558ZM16.1769 16.4558C16.0903 16.7658 15.8178 17.005 15.5003 17.0516C13.8969 17.2875 12.2828 17.4216 10.6678 17.4566V9.22581C12.5494 9.24914 14.4253 9.35248 16.2553 9.53664C16.3153 9.54248 16.3753 9.54581 16.4353 9.54747C16.8436 11.7916 16.7503 14.4008 16.1778 16.4541L16.1769 16.4558Z" fill="#171717"/>
</svg>
