<svg width="22" height="22" viewBox="0 0 22 22" fill="none" xmlns="http://www.w3.org/2000/svg">
<path fill-rule="evenodd" clip-rule="evenodd" d="M1.14584 7.79199C1.14584 7.4123 1.45365 7.10449 1.83334 7.10449H13.2917C13.6714 7.10449 13.9792 7.4123 13.9792 7.79199C13.9792 8.17168 13.6714 8.47949 13.2917 8.47949H1.83334C1.45365 8.47949 1.14584 8.17168 1.14584 7.79199Z" fill="#171717"/>
<path fill-rule="evenodd" clip-rule="evenodd" d="M4.8125 15.125C4.8125 14.7453 5.12031 14.4375 5.5 14.4375H7.33333C7.71303 14.4375 8.02083 14.7453 8.02083 15.125C8.02083 15.5047 7.71303 15.8125 7.33333 15.8125H5.5C5.12031 15.8125 4.8125 15.5047 4.8125 15.125Z" fill="#171717"/>
<path fill-rule="evenodd" clip-rule="evenodd" d="M8.9375 15.125C8.9375 14.7453 9.24532 14.4375 9.625 14.4375H13.2917C13.6714 14.4375 13.9792 14.7453 13.9792 15.125C13.9792 15.5047 13.6714 15.8125 13.2917 15.8125H9.625C9.24532 15.8125 8.9375 15.5047 8.9375 15.125Z" fill="#171717"/>
<path fill-rule="evenodd" clip-rule="evenodd" d="M3.13141 4.50289C2.74177 4.88815 2.52084 5.6204 2.52084 7.23266V14.7677C2.52084 16.3799 2.74177 17.1121 3.13141 17.4974C3.52376 17.8853 4.27076 18.1043 5.90334 18.1043H16.0967C17.7293 18.1043 18.4763 17.8853 18.8686 17.4974C19.2583 17.1121 19.4792 16.3799 19.4792 14.7677V12.861C19.4792 12.4813 19.787 12.1735 20.1667 12.1735C20.5464 12.1735 20.8542 12.4813 20.8542 12.861V14.7677C20.8542 16.3729 20.6672 17.6528 19.8354 18.4752C19.0063 19.295 17.7183 19.4793 16.0967 19.4793H5.90334C4.28176 19.4793 2.99376 19.295 2.16465 18.4752C1.33283 17.6528 1.14584 16.3729 1.14584 14.7677V7.23266C1.14584 5.62742 1.33283 4.34759 2.16465 3.52514C2.99376 2.70537 4.28176 2.521 5.90334 2.521H13.2917C13.6714 2.521 13.9792 2.8288 13.9792 3.2085C13.9792 3.58819 13.6714 3.896 13.2917 3.896H5.90334C4.27076 3.896 3.52376 4.11496 3.13141 4.50289Z" fill="#171717"/>
<path fill-rule="evenodd" clip-rule="evenodd" d="M18.0703 2.57335C18.3271 2.46694 18.6228 2.52575 18.8195 2.72238L20.6528 4.55571C20.9213 4.8242 20.9213 5.2595 20.6528 5.52798C20.3843 5.79648 19.9491 5.79648 19.6806 5.52798L19.0208 4.86829V8.70851C19.0208 9.08822 18.713 9.396 18.3333 9.396C17.9537 9.396 17.6458 9.08822 17.6458 8.70851V3.20851C17.6458 2.93045 17.8133 2.67976 18.0703 2.57335Z" fill="#171717"/>
<path fill-rule="evenodd" clip-rule="evenodd" d="M18.8194 2.72236C19.0879 2.99084 19.0879 3.42615 18.8194 3.69463L16.9861 5.52796C16.7176 5.79645 16.2824 5.79645 16.0139 5.52796C15.7454 5.25948 15.7454 4.82417 16.0139 4.55569L17.8472 2.72236C18.1157 2.45388 18.551 2.45388 18.8194 2.72236Z" fill="#171717"/>
</svg>
