<svg width="345px" height="252px" viewBox="0 0 345 252" fill="none" xmlns="http://www.w3.org/2000/svg" transform="rotate(0) scale(1, 1)">
<g clip-path="url(#clip0_490_14178)">
<g filter="url(#filter0_f_490_14178)">
<circle cx="185.5" cy="126.5" r="90.5" fill="#55b2c2" fill-opacity="0.1"/>
</g>
<path d="M137.715 110.097V107.614C140.883 106.873 143.272 104.039 143.272 100.649C143.272 96.7219 140.049 93.4986 136.103 93.4986C132.176 93.4986 128.953 96.7219 128.953 100.649C128.953 103.909 131.139 106.632 134.121 107.485V110.097C134.121 111.875 132.658 113.338 130.88 113.338H110.873V116.932H130.88C134.64 116.932 137.715 113.857 137.715 110.097Z" fill="#55b2c2"/>
<path d="M124.062 93.3319V90.8496C127.23 90.1086 129.62 87.2744 129.62 83.8844C129.62 79.9572 126.397 76.7524 122.451 76.7524C118.524 76.7524 115.3 79.9572 115.3 83.8844C115.3 87.1447 117.486 89.8678 120.469 90.7199V93.3319C120.469 95.1102 119.005 96.5737 117.227 96.5737H110.873V100.167H117.227C120.987 100.167 124.062 97.0924 124.062 93.3319Z" fill="#55b2c2"/>
<path d="M137.714 155.111V152.629C137.714 148.868 134.639 145.812 130.897 145.812H110.891V149.406H130.897C132.675 149.406 134.139 150.869 134.139 152.647V155.259C131.156 156.13 128.971 158.853 128.971 162.095C128.971 166.022 132.194 169.245 136.121 169.245C140.067 169.245 143.29 166.022 143.29 162.095C143.253 158.686 140.863 155.852 137.714 155.111Z" fill="#55b2c2"/>
<path d="M121.042 167.078V164.596C121.042 160.817 117.986 157.779 114.225 157.779H110.891V161.372H114.225C116.003 161.372 117.467 162.817 117.467 164.614V167.208C114.503 168.097 112.317 170.801 112.317 174.062C112.317 177.989 115.522 181.194 119.449 181.194C123.395 181.194 126.618 177.989 126.618 174.062C126.581 170.653 124.21 167.819 121.042 167.078Z" fill="#55b2c2"/>
<path d="M135.899 138.513C139.844 138.513 143.068 135.29 143.068 131.344C143.068 127.417 139.844 124.212 135.899 124.212C132.601 124.212 129.804 126.491 129.026 129.566H110.891V133.16H129.026C129.823 136.235 132.583 138.513 135.899 138.513Z" fill="#55b2c2"/>
<path d="M91.6259 71.8064C83.0675 71.8064 76.1208 78.7531 76.1208 87.4596C76.1208 88.3488 76.269 89.238 76.4172 90.1086C74.7871 89.5158 73.0273 89.2194 71.1007 89.2194C62.5424 89.2194 55.5957 96.1661 55.5957 104.873C55.5957 105.799 55.6883 106.688 55.855 107.577C55.8736 107.596 55.9106 107.614 55.9291 107.633C58.5596 110.411 62.1348 111.93 65.9879 111.93C66.9883 111.93 67.7848 112.727 67.7848 113.727C67.7848 114.728 66.9883 115.524 65.9879 115.524C61.9867 115.524 58.2262 114.19 55.1511 111.764C49.7419 114.172 46 119.581 46 125.861C46 133.104 51.0201 139.291 57.8186 140.921C56.3367 143.292 55.5957 145.941 55.5957 148.887C55.5957 157.297 62.5424 164.392 71.1007 164.392C71.8787 164.392 72.6568 164.318 73.4348 164.207C75.2317 158.76 79.5849 154.574 85.1238 153.036C82.9193 150.925 81.2892 148.22 80.4556 145.182C78.844 146.516 76.8804 147.479 74.6574 147.905C74.5463 147.924 74.4351 147.942 74.324 147.942C73.4718 147.942 72.7309 147.349 72.5641 146.479C72.3789 145.497 73.0087 144.571 73.9905 144.367C76.5284 143.885 78.6031 142.403 79.9369 140.421C80.011 140.143 80.1407 139.902 80.3444 139.699C81.3262 137.92 81.7523 135.809 81.3818 133.604C81.2151 132.622 81.882 131.696 82.8638 131.529C83.8456 131.363 84.7718 132.03 84.9385 133.011C85.4572 136.086 84.8829 139.05 83.4936 141.551C83.9938 148.72 89.9216 154.24 97.2573 154.24C98.2576 154.24 99.0542 155.037 99.0542 156.037C99.0542 157.038 98.2576 157.834 97.2573 157.834C94.4045 157.834 91.7185 157.167 89.3473 155.982C82.8267 156.204 77.5843 160.891 76.3987 167.115C77.6954 174.377 84.0123 179.897 91.6444 179.897C100.203 179.897 107.298 172.95 107.298 164.392V124.824C106.853 124.861 106.408 124.916 105.982 124.916C103.611 124.916 101.277 124.286 99.1653 123.082C96.6831 121.637 94.7565 119.488 93.5895 116.895C91.5147 118.099 89.1806 118.729 86.7354 118.729C86.4946 118.729 86.2538 118.729 86.0129 118.71C85.0126 118.655 84.2531 117.821 84.3087 116.821C84.3643 115.821 85.2164 115.08 86.1982 115.117C88.8842 115.246 91.4777 114.339 93.4783 112.56C95.4975 110.763 96.6831 108.263 96.8127 105.54C96.8683 104.539 97.7389 103.78 98.7022 103.835C99.684 103.891 100.462 104.724 100.406 105.725C100.24 109.096 98.8689 112.19 96.5719 114.561C97.3685 116.839 98.8875 118.747 100.981 119.952C102.907 121.063 105.112 121.471 107.316 121.174V87.4596C107.279 78.7346 100.184 71.8064 91.6259 71.8064Z" fill="#55b2c2"/>
<path d="M319.625 109.936C319.076 103.066 315.98 96.6497 310.944 91.9457C305.908 87.2416 299.295 84.5897 292.404 84.5104H242.596C235.705 84.5897 229.092 87.2416 224.056 91.9457C219.02 96.6497 215.923 103.066 215.375 109.936L212.132 149.667C211.946 152.069 212.262 154.483 213.06 156.756C213.858 159.03 215.119 161.112 216.765 162.872C218.758 165.04 221.269 166.666 224.062 167.598C226.856 168.529 229.84 168.735 232.736 168.197C235.631 167.658 238.341 166.393 240.613 164.519C242.885 162.646 244.644 160.225 245.723 157.485L251.225 143.875C251.759 142.528 252.684 141.371 253.882 140.555C255.08 139.74 256.495 139.302 257.944 139.3H277.056C278.505 139.302 279.92 139.74 281.118 140.555C282.316 141.371 283.241 142.528 283.775 143.875L289.103 157.254C290.432 161.381 293.257 164.861 297.022 167.012C300.787 169.163 305.22 169.828 309.45 168.878C313.68 167.927 317.402 165.429 319.885 161.875C322.368 158.32 323.432 153.966 322.868 149.667L319.625 109.936ZM253.021 116.365H248.677V120.708C248.677 121.86 248.219 122.965 247.405 123.78C246.59 124.594 245.485 125.052 244.333 125.052C243.181 125.052 242.076 124.594 241.262 123.78C240.447 122.965 239.99 121.86 239.99 120.708V116.365H235.646C234.494 116.365 233.389 115.907 232.574 115.092C231.76 114.278 231.302 113.173 231.302 112.021C231.302 110.869 231.76 109.764 232.574 108.949C233.389 108.135 234.494 107.677 235.646 107.677H239.99V103.333C239.99 102.181 240.447 101.076 241.262 100.262C242.076 99.4472 243.181 98.9896 244.333 98.9896C245.485 98.9896 246.59 99.4472 247.405 100.262C248.219 101.076 248.677 102.181 248.677 103.333V107.677H253.021C254.173 107.677 255.278 108.135 256.092 108.949C256.907 109.764 257.365 110.869 257.365 112.021C257.365 113.173 256.907 114.278 256.092 115.092C255.278 115.907 254.173 116.365 253.021 116.365ZM290.667 98.9896C291.526 98.9896 292.366 99.2443 293.08 99.7216C293.794 100.199 294.351 100.877 294.68 101.671C295.008 102.465 295.094 103.338 294.927 104.181C294.759 105.023 294.346 105.797 293.738 106.405C293.131 107.012 292.357 107.426 291.514 107.594C290.671 107.761 289.798 107.675 289.004 107.346C288.211 107.018 287.532 106.461 287.055 105.747C286.578 105.032 286.323 104.192 286.323 103.333C286.338 102.186 286.8 101.09 287.612 100.278C288.423 99.467 289.519 99.0046 290.667 98.9896ZM281.979 116.365C281.12 116.365 280.28 116.11 279.566 115.633C278.852 115.155 278.295 114.477 277.966 113.683C277.637 112.889 277.551 112.016 277.719 111.173C277.886 110.331 278.3 109.557 278.908 108.949C279.515 108.342 280.289 107.928 281.132 107.761C281.974 107.593 282.848 107.679 283.641 108.008C284.435 108.336 285.113 108.893 285.591 109.608C286.068 110.322 286.323 111.162 286.323 112.021C286.308 113.168 285.845 114.264 285.034 115.076C284.223 115.887 283.126 116.35 281.979 116.365ZM290.667 125.052C289.807 125.052 288.968 124.797 288.253 124.32C287.539 123.843 286.982 123.164 286.653 122.371C286.325 121.577 286.239 120.704 286.406 119.861C286.574 119.018 286.988 118.244 287.595 117.637C288.203 117.029 288.977 116.616 289.819 116.448C290.662 116.28 291.535 116.366 292.329 116.695C293.123 117.024 293.801 117.581 294.278 118.295C294.756 119.009 295.01 119.849 295.01 120.708C294.995 121.856 294.533 122.952 293.721 123.763C292.91 124.575 291.814 125.037 290.667 125.052ZM299.354 116.365C298.495 116.365 297.655 116.11 296.941 115.633C296.227 115.155 295.67 114.477 295.341 113.683C295.012 112.889 294.926 112.016 295.094 111.173C295.261 110.331 295.675 109.557 296.283 108.949C296.89 108.342 297.664 107.928 298.507 107.761C299.349 107.593 300.223 107.679 301.016 108.008C301.81 108.336 302.488 108.893 302.966 109.608C303.443 110.322 303.698 111.162 303.698 112.021C303.683 113.168 303.22 114.264 302.409 115.076C301.598 115.887 300.501 116.35 299.354 116.365Z" fill="#55b2c2"/>
</g>
<defs>
<filter id="filter0_f_490_14178" x="-105" y="-164" width="581" height="581" filterUnits="userSpaceOnUse" color-interpolation-filters="sRGB">
<feFlood flood-opacity="0" result="BackgroundImageFix"/>
<feBlend mode="normal" in="SourceGraphic" in2="BackgroundImageFix" result="shape"/>
<feGaussianBlur stdDeviation="100" result="effect1_foregroundBlur_490_14178"/>
</filter>
<clipPath id="clip0_490_14178">
<rect width="345" height="252" fill="#ffffff"/>
</clipPath>
</defs>
</svg>