<svg width="486px" height="252px" viewBox="0 0 486 252" fill="none" xmlns="http://www.w3.org/2000/svg" transform="rotate(0) scale(1, 1)">
<g clip-path="url(#clip0_474_10109)">
<g filter="url(#filter0_f_474_10109)">
<circle cx="243.5" cy="126.5" r="104.5" fill="#55b2c2" fill-opacity="0.1"/>
</g>
<path d="M188.582 107.616V104.759C192.229 103.906 194.98 100.643 194.98 96.7403C194.98 92.2193 191.269 88.5087 186.727 88.5087C182.206 88.5087 178.495 92.2193 178.495 96.7403C178.495 100.494 181.012 103.628 184.445 104.609V107.616C184.445 109.664 182.76 111.348 180.713 111.348H157.682V115.485H180.713C185.042 115.485 188.582 111.945 188.582 107.616Z" fill="#55b2c2"/>
<path d="M172.865 88.3168V85.4591C176.512 84.6061 179.263 81.3433 179.263 77.4408C179.263 72.9198 175.552 69.2305 171.01 69.2305C166.489 69.2305 162.778 72.9198 162.778 77.4408C162.778 81.1941 165.295 84.3289 168.728 85.3099V88.3168C168.728 90.364 167.044 92.0487 164.996 92.0487H157.682V96.1859H164.996C169.325 96.1859 172.865 92.6458 172.865 88.3168Z" fill="#55b2c2"/>
<path d="M188.582 159.437V156.58C188.582 152.25 185.042 148.732 180.735 148.732H157.703V152.869H180.735C182.782 152.869 184.467 154.554 184.467 156.601V159.608C181.033 160.61 178.517 163.745 178.517 167.477C178.517 171.998 182.227 175.708 186.748 175.708C191.291 175.708 195.001 171.998 195.001 167.477C194.959 163.553 192.208 160.29 188.582 159.437Z" fill="#55b2c2"/>
<path d="M169.389 173.213V170.356C169.389 166.005 165.871 162.508 161.542 162.508H157.703V166.645H161.542C163.589 166.645 165.274 168.309 165.274 170.377V173.363C161.862 174.386 159.345 177.5 159.345 181.253C159.345 185.774 163.034 189.463 167.555 189.463C172.098 189.463 175.808 185.774 175.808 181.253C175.766 177.329 173.036 174.066 169.389 173.213Z" fill="#55b2c2"/>
<path d="M186.493 140.33C191.035 140.33 194.745 136.619 194.745 132.077C194.745 127.556 191.035 123.866 186.493 123.866C182.697 123.866 179.476 126.489 178.581 130.029H157.703V134.166H178.581C179.498 137.706 182.675 140.33 186.493 140.33Z" fill="#55b2c2"/>
<path d="M135.525 63.5366C125.672 63.5366 117.675 71.5336 117.675 81.5566C117.675 82.5802 117.846 83.6038 118.016 84.6061C116.14 83.9237 114.114 83.5825 111.896 83.5825C102.044 83.5825 94.0466 91.5795 94.0466 101.603C94.0466 102.669 94.1532 103.692 94.3451 104.716C94.3665 104.737 94.4091 104.759 94.4304 104.78C97.4587 107.979 101.574 109.728 106.01 109.728C107.162 109.728 108.079 110.645 108.079 111.796C108.079 112.948 107.162 113.865 106.01 113.865C101.404 113.865 97.0748 112.329 93.5348 109.536C87.3077 112.308 83 118.535 83 125.764C83 134.103 88.7792 141.225 96.6056 143.102C94.8996 145.832 94.0466 148.881 94.0466 152.272C94.0466 161.954 102.044 170.121 111.896 170.121C112.792 170.121 113.687 170.036 114.583 169.908C116.652 163.638 121.663 158.819 128.039 157.049C125.502 154.618 123.625 151.504 122.665 148.007C120.81 149.542 118.55 150.651 115.99 151.142C115.863 151.163 115.735 151.184 115.607 151.184C114.626 151.184 113.773 150.502 113.581 149.5C113.367 148.369 114.093 147.303 115.223 147.068C118.144 146.514 120.533 144.808 122.068 142.526C122.154 142.206 122.303 141.929 122.537 141.694C123.668 139.647 124.158 137.216 123.732 134.678C123.54 133.548 124.307 132.482 125.438 132.29C126.568 132.098 127.634 132.866 127.826 133.996C128.423 137.536 127.762 140.948 126.163 143.827C126.739 152.08 133.563 158.435 142.008 158.435C143.159 158.435 144.076 159.352 144.076 160.503C144.076 161.655 143.159 162.572 142.008 162.572C138.723 162.572 135.631 161.804 132.902 160.439C125.395 160.695 119.36 166.091 117.995 173.256C119.488 181.616 126.76 187.971 135.546 187.971C145.398 187.971 153.566 179.974 153.566 170.121V124.57C153.054 124.613 152.542 124.677 152.052 124.677C149.322 124.677 146.635 123.952 144.204 122.565C141.346 120.902 139.129 118.428 137.785 115.443C135.397 116.829 132.71 117.554 129.895 117.554C129.617 117.554 129.34 117.554 129.063 117.533C127.911 117.469 127.037 116.509 127.101 115.357C127.165 114.206 128.146 113.353 129.276 113.395C132.368 113.545 135.354 112.5 137.657 110.453C139.982 108.384 141.346 105.505 141.496 102.37C141.56 101.219 142.562 100.344 143.671 100.408C144.801 100.472 145.697 101.432 145.633 102.583C145.441 106.465 143.863 110.026 141.219 112.756C142.136 115.379 143.884 117.575 146.294 118.961C148.512 120.241 151.05 120.71 153.587 120.369V81.5566C153.545 71.5123 145.377 63.5366 135.525 63.5366Z" fill="#55b2c2"/>
<path d="M398 106.933C397.368 99.0259 393.804 91.64 388.007 86.2252C382.21 80.8105 374.598 77.7579 366.666 77.6667H309.333C301.401 77.7579 293.789 80.8105 287.992 86.2252C282.195 91.64 278.631 99.0259 278 106.933L274.266 152.667C274.053 155.432 274.417 158.211 275.335 160.827C276.253 163.444 277.705 165.841 279.6 167.867C281.893 170.363 284.784 172.235 287.999 173.307C291.215 174.379 294.65 174.616 297.983 173.996C301.316 173.377 304.436 171.92 307.051 169.763C309.666 167.606 311.69 164.82 312.933 161.667L319.266 146C319.88 144.449 320.945 143.118 322.324 142.179C323.703 141.24 325.332 140.736 327 140.733H349C350.668 140.736 352.297 141.24 353.675 142.179C355.054 143.118 356.119 144.449 356.733 146L362.866 161.4C364.397 166.15 367.648 170.157 371.982 172.633C376.315 175.109 381.418 175.875 386.287 174.78C391.157 173.686 395.441 170.811 398.299 166.719C401.157 162.628 402.382 157.615 401.733 152.667L398 106.933ZM321.333 114.333H316.333V119.333C316.333 120.659 315.806 121.931 314.869 122.869C313.931 123.807 312.659 124.333 311.333 124.333C310.007 124.333 308.735 123.807 307.797 122.869C306.86 121.931 306.333 120.659 306.333 119.333V114.333H301.333C300.007 114.333 298.735 113.807 297.797 112.869C296.86 111.931 296.333 110.659 296.333 109.333C296.333 108.007 296.86 106.736 297.797 105.798C298.735 104.86 300.007 104.333 301.333 104.333H306.333V99.3334C306.333 98.0073 306.86 96.7355 307.797 95.7978C308.735 94.8601 310.007 94.3334 311.333 94.3334C312.659 94.3334 313.931 94.8601 314.869 95.7978C315.806 96.7355 316.333 98.0073 316.333 99.3334V104.333H321.333C322.659 104.333 323.931 104.86 324.869 105.798C325.806 106.736 326.333 108.007 326.333 109.333C326.333 110.659 325.806 111.931 324.869 112.869C323.931 113.807 322.659 114.333 321.333 114.333ZM364.666 94.3334C365.655 94.3334 366.622 94.6266 367.444 95.176C368.266 95.7254 368.907 96.5063 369.286 97.4199C369.664 98.3336 369.763 99.3389 369.57 100.309C369.377 101.279 368.901 102.17 368.202 102.869C367.503 103.568 366.612 104.044 365.642 104.237C364.672 104.43 363.667 104.331 362.753 103.953C361.839 103.574 361.058 102.933 360.509 102.111C359.96 101.289 359.666 100.322 359.666 99.3334C359.684 98.0126 360.216 96.7509 361.15 95.8169C362.084 94.8829 363.346 94.3506 364.666 94.3334ZM354.666 114.333C353.677 114.333 352.711 114.04 351.888 113.491C351.066 112.941 350.425 112.16 350.047 111.247C349.668 110.333 349.569 109.328 349.762 108.358C349.955 107.388 350.432 106.497 351.131 105.798C351.83 105.099 352.721 104.622 353.691 104.429C354.661 104.236 355.666 104.336 356.58 104.714C357.493 105.092 358.274 105.733 358.824 106.556C359.373 107.378 359.666 108.344 359.666 109.333C359.649 110.654 359.117 111.916 358.183 112.85C357.249 113.784 355.987 114.316 354.666 114.333ZM364.666 124.333C363.677 124.333 362.711 124.04 361.888 123.491C361.066 122.941 360.425 122.16 360.047 121.247C359.668 120.333 359.569 119.328 359.762 118.358C359.955 117.388 360.432 116.497 361.131 115.798C361.83 115.099 362.721 114.622 363.691 114.429C364.661 114.236 365.666 114.336 366.58 114.714C367.493 115.092 368.274 115.733 368.824 116.556C369.373 117.378 369.666 118.344 369.666 119.333C369.649 120.654 369.117 121.916 368.183 122.85C367.249 123.784 365.987 124.316 364.666 124.333ZM374.666 114.333C373.677 114.333 372.711 114.04 371.888 113.491C371.066 112.941 370.425 112.16 370.047 111.247C369.668 110.333 369.569 109.328 369.762 108.358C369.955 107.388 370.432 106.497 371.131 105.798C371.83 105.099 372.721 104.622 373.691 104.429C374.661 104.236 375.666 104.336 376.58 104.714C377.493 105.092 378.274 105.733 378.824 106.556C379.373 107.378 379.666 108.344 379.666 109.333C379.649 110.654 379.117 111.916 378.183 112.85C377.249 113.784 375.987 114.316 374.666 114.333Z" fill="#55b2c2"/>
</g>
<defs>
<filter id="filter0_f_474_10109" x="-61" y="-178" width="609" height="609" filterUnits="userSpaceOnUse" color-interpolation-filters="sRGB">
<feFlood flood-opacity="0" result="BackgroundImageFix"/>
<feBlend mode="normal" in="SourceGraphic" in2="BackgroundImageFix" result="shape"/>
<feGaussianBlur stdDeviation="100" result="effect1_foregroundBlur_474_10109"/>
</filter>
<clipPath id="clip0_474_10109">
<rect width="486" height="252" fill="#ffffff"/>
</clipPath>
</defs>
</svg>