<svg width="345px" height="252px" viewBox="0 0 345 252" fill="none" xmlns="http://www.w3.org/2000/svg" transform="rotate(0) scale(1, 1)">
<g clip-path="url(#clip0_490_14092)">
<circle cx="173.319" cy="127.319" r="162.239" fill="#55b2c2" fill-opacity="0.02"/>
<circle cx="173.319" cy="127.319" r="161.739" stroke="url(#paint0_linear_490_14092)" stroke-opacity="0.1"/>
<circle cx="172" cy="126" r="201.15" fill="#55b2c2" fill-opacity="0.02"/>
<circle cx="172" cy="126" r="200.65" stroke="url(#paint1_linear_490_14092)" stroke-opacity="0.1"/>
<circle cx="172.66" cy="126.66" r="123.328" fill="#55b2c2" fill-opacity="0.02"/>
<circle cx="172.66" cy="126.66" r="122.828" stroke="url(#paint2_linear_490_14092)" stroke-opacity="0.1"/>
<circle cx="172.329" cy="126.33" r="94.6396" fill="#55b2c2" fill-opacity="0.04"/>
<circle cx="172.329" cy="126.33" r="94.1396" stroke="url(#paint3_linear_490_14092)" stroke-opacity="0.1"/>
<circle cx="174.307" cy="128.308" r="68.9187" fill="#55b2c2" fill-opacity="0.04"/>
<circle cx="174.307" cy="128.308" r="68.4187" stroke="url(#paint4_linear_490_14092)" stroke-opacity="0.4"/>
<path d="M215.083 117.094V135.129C215.083 136.045 214.341 136.786 213.426 136.786C212.429 136.786 211.734 136.009 211.734 135.129V117.094C211.734 116.179 212.476 115.437 213.391 115.437C214.389 115.437 215.083 116.214 215.083 117.094Z" fill="#55b2c2" fill-opacity="0.4"/>
<path d="M132.197 117.094V135.129C132.197 136.045 131.455 136.786 130.54 136.786C129.542 136.786 128.848 136.009 128.848 135.129V117.094C128.848 116.179 129.59 115.437 130.505 115.437C131.502 115.437 132.197 116.214 132.197 117.094Z" fill="#55b2c2" fill-opacity="0.4"/>
<path d="M161.13 90.7276L142.904 100.209C142.036 100.66 140.967 100.266 140.604 99.3585C140.253 98.4829 140.64 97.6126 141.361 97.2375L159.588 87.756C160.455 87.3048 161.524 87.6987 161.888 88.6067C162.238 89.482 161.851 90.3525 161.13 90.7276Z" fill="#55b2c2" fill-opacity="0.4"/>
<path d="M161.9 163.585C161.498 164.577 160.417 164.899 159.587 164.467L141.361 154.986C140.603 154.592 140.27 153.687 140.59 152.896C140.992 151.904 142.073 151.582 142.903 152.014L161.129 161.496C161.887 161.889 162.22 162.794 161.9 163.585Z" fill="#55b2c2" fill-opacity="0.4"/>
<path d="M203.343 99.3271C202.941 100.319 201.861 100.641 201.03 100.209L182.804 90.7276C182.047 90.3337 181.713 89.4293 182.033 88.6381C182.435 87.6464 183.516 87.3243 184.346 87.7561L202.573 97.2376C203.33 97.6315 203.664 98.5359 203.343 99.3271Z" fill="#55b2c2" fill-opacity="0.4"/>
<path d="M202.573 154.986L184.347 164.467C183.479 164.918 182.411 164.524 182.047 163.616C181.696 162.741 182.084 161.871 182.805 161.495L201.031 152.014C201.899 151.563 202.967 151.957 203.331 152.865C203.682 153.74 203.294 154.61 202.573 154.986Z" fill="#55b2c2" fill-opacity="0.4"/>
<path d="M171.982 93.8779C172.898 93.8779 173.64 94.6201 173.64 95.5357V97.0176C173.64 99.2337 170.291 99.2331 170.291 97.0176V95.5357C170.291 94.6622 170.979 93.8779 171.982 93.8779Z" fill="#55b2c2" fill-opacity="0.4"/>
<path d="M173.64 155.206V156.687C173.64 157.603 172.898 158.345 171.982 158.345C170.98 158.345 170.291 157.562 170.291 156.687V155.206C170.291 152.989 173.64 152.99 173.64 155.206Z" fill="#55b2c2" fill-opacity="0.4"/>
<path d="M145.027 114.2L141.361 112.28C140.607 111.885 140.274 110.983 140.593 110.194C140.996 109.199 142.08 108.876 142.911 109.311L146.58 111.232C148.548 112.261 146.985 115.228 145.027 114.2Z" fill="#55b2c2" fill-opacity="0.4"/>
<path d="M203.341 110.194C203.661 110.983 203.328 111.885 202.574 112.28L198.908 114.2C196.96 115.223 195.373 112.268 197.355 111.232L201.024 109.311C201.854 108.877 202.938 109.197 203.341 110.194Z" fill="#55b2c2" fill-opacity="0.4"/>
<path d="M146.577 140.991L142.908 142.912C142.039 143.367 140.967 142.972 140.603 142.061C140.254 141.189 140.639 140.32 141.358 139.944L145.024 138.023C146.986 136.995 148.543 139.963 146.577 140.991Z" fill="#55b2c2" fill-opacity="0.4"/>
<path d="M203.34 142.029C202.938 143.024 201.854 143.347 201.022 142.912L197.353 140.991C195.392 139.966 196.942 136.993 198.906 138.023L202.572 139.944C203.327 140.339 203.659 141.24 203.34 142.029Z" fill="#55b2c2" fill-opacity="0.4"/>
<path d="M174.269 161.694H169.664C166.894 161.694 164.641 163.948 164.641 166.718V171.322C164.641 174.092 166.894 176.346 169.664 176.346H174.269C177.039 176.346 179.292 174.092 179.292 171.322V166.718C179.292 163.948 177.039 161.694 174.269 161.694Z" fill="#55b2c2"/>
<path d="M174.269 75.8773H169.664C166.894 75.8773 164.641 78.131 164.641 80.9007V85.5055C164.641 88.2753 166.894 90.529 169.664 90.529H174.269C177.039 90.529 179.292 88.2753 179.292 85.5055V80.9007C179.292 78.131 177.039 75.8773 174.269 75.8773Z" fill="#55b2c2"/>
<path d="M132.825 140.135H128.221C125.451 140.135 123.197 142.389 123.197 145.159V149.763C123.197 152.533 125.451 154.787 128.221 154.787H132.825C135.595 154.787 137.849 152.533 137.849 149.763V145.159C137.849 142.389 135.595 140.135 132.825 140.135Z" fill="#55b2c2"/>
<path d="M215.71 97.4362H211.105C208.335 97.4362 206.082 99.6899 206.082 102.46V107.064C206.082 109.834 208.335 112.088 211.105 112.088H215.71C218.48 112.088 220.734 109.834 220.734 107.064V102.46C220.734 99.6899 218.48 97.4362 215.71 97.4362Z" fill="#55b2c2"/>
<path d="M215.71 140.135H211.105C208.335 140.135 206.082 142.389 206.082 145.159V149.763C206.082 152.533 208.335 154.787 211.105 154.787H215.71C218.48 154.787 220.734 152.533 220.734 149.763V145.159C220.734 142.389 218.48 140.135 215.71 140.135Z" fill="#55b2c2"/>
<path d="M132.825 97.4362H128.221C125.451 97.4362 123.197 99.6899 123.197 102.46V107.064C123.197 109.834 125.451 112.088 128.221 112.088H132.825C135.595 112.088 137.849 109.834 137.849 107.064V102.46C137.849 99.6899 135.595 97.4362 132.825 97.4362Z" fill="#55b2c2"/>
<path d="M169.856 126.031L152.693 116.687C152.135 116.383 151.455 116.787 151.455 117.422V137.414C151.455 138.028 151.79 138.592 152.329 138.885L169.055 147.991C169.613 148.295 170.293 147.891 170.293 147.256V126.767C170.293 126.46 170.125 126.178 169.856 126.031Z" fill="#55b2c2"/>
<path d="M172.367 123.15L189.454 113.847C190.037 113.53 190.037 112.693 189.454 112.376L172.768 103.291C172.268 103.019 171.665 103.019 171.166 103.291L154.48 112.376C153.897 112.693 153.897 113.53 154.48 113.847L171.567 123.15C171.816 123.286 172.118 123.286 172.367 123.15Z" fill="#55b2c2"/>
<path d="M173.641 126.767V147.256C173.641 147.891 174.32 148.295 174.878 147.991L191.605 138.885C192.143 138.592 192.478 138.028 192.478 137.414V117.422C192.478 116.787 191.799 116.383 191.241 116.687L174.077 126.031C173.808 126.178 173.641 126.46 173.641 126.767Z" fill="#55b2c2"/>
<circle cx="266.97" cy="104.896" r="12.5307" fill="#001810" fill-opacity="0.4"/>
<circle cx="266.97" cy="104.896" r="12.0307" stroke="url(#paint5_linear_490_14092)" stroke-opacity="0.2"/>
<g clip-path="url(#clip1_490_14092)">
<path d="M270.886 100.588H263.055C262.847 100.588 262.648 100.671 262.501 100.818C262.354 100.965 262.271 101.164 262.271 101.371V103.721C262.271 103.929 262.354 104.128 262.501 104.275C262.648 104.422 262.847 104.504 263.055 104.504H270.886C271.094 104.504 271.293 104.422 271.44 104.275C271.587 104.128 271.669 103.929 271.669 103.721V101.371C271.669 101.164 271.587 100.965 271.44 100.818C271.293 100.671 271.094 100.588 270.886 100.588ZM269.516 103.134C269.4 103.134 269.286 103.099 269.189 103.035C269.093 102.97 269.018 102.878 268.973 102.771C268.929 102.664 268.917 102.546 268.94 102.432C268.962 102.318 269.018 102.213 269.1 102.131C269.183 102.049 269.287 101.993 269.401 101.97C269.515 101.947 269.633 101.959 269.741 102.004C269.848 102.048 269.94 102.123 270.004 102.22C270.069 102.316 270.103 102.43 270.103 102.546C270.103 102.702 270.041 102.851 269.931 102.962C269.821 103.072 269.672 103.134 269.516 103.134ZM270.886 105.287H263.055C262.847 105.287 262.648 105.37 262.501 105.517C262.354 105.664 262.271 105.863 262.271 106.07V108.42C262.271 108.628 262.354 108.827 262.501 108.974C262.648 109.121 262.847 109.203 263.055 109.203H270.886C271.094 109.203 271.293 109.121 271.44 108.974C271.587 108.827 271.669 108.628 271.669 108.42V106.07C271.669 105.863 271.587 105.664 271.44 105.517C271.293 105.37 271.094 105.287 270.886 105.287ZM269.516 107.833C269.4 107.833 269.286 107.798 269.189 107.734C269.093 107.669 269.018 107.577 268.973 107.47C268.929 107.363 268.917 107.245 268.94 107.131C268.962 107.017 269.018 106.912 269.1 106.83C269.183 106.748 269.287 106.692 269.401 106.669C269.515 106.646 269.633 106.658 269.741 106.703C269.848 106.747 269.94 106.822 270.004 106.919C270.069 107.015 270.103 107.129 270.103 107.245C270.103 107.401 270.041 107.55 269.931 107.661C269.821 107.771 269.672 107.833 269.516 107.833Z" fill="#ffffff"/>
</g>
<circle cx="81.6479" cy="112.15" r="12.5307" fill="#001810" fill-opacity="0.4"/>
<circle cx="81.6479" cy="112.15" r="12.0307" stroke="url(#paint6_linear_490_14092)" stroke-opacity="0.2"/>
<g clip-path="url(#clip2_490_14092)">
<path d="M85.5641 107.843H77.7324C77.5247 107.843 77.3255 107.925 77.1786 108.072C77.0317 108.219 76.9492 108.418 76.9492 108.626V110.976C76.9492 111.183 77.0317 111.382 77.1786 111.529C77.3255 111.676 77.5247 111.759 77.7324 111.759H85.5641C85.7718 111.759 85.971 111.676 86.1178 111.529C86.2647 111.382 86.3472 111.183 86.3472 110.976V108.626C86.3472 108.418 86.2647 108.219 86.1178 108.072C85.971 107.925 85.7718 107.843 85.5641 107.843ZM84.1935 110.388C84.0773 110.388 83.9638 110.354 83.8672 110.289C83.7706 110.225 83.6953 110.133 83.6508 110.026C83.6064 109.918 83.5948 109.8 83.6174 109.686C83.6401 109.572 83.696 109.468 83.7782 109.385C83.8603 109.303 83.965 109.247 84.0789 109.225C84.1929 109.202 84.311 109.214 84.4183 109.258C84.5256 109.303 84.6174 109.378 84.6819 109.474C84.7464 109.571 84.7809 109.685 84.7809 109.801C84.7809 109.957 84.719 110.106 84.6088 110.216C84.4987 110.326 84.3493 110.388 84.1935 110.388ZM85.5641 112.542H77.7324C77.5247 112.542 77.3255 112.624 77.1786 112.771C77.0317 112.918 76.9492 113.117 76.9492 113.325V115.675C76.9492 115.882 77.0317 116.081 77.1786 116.228C77.3255 116.375 77.5247 116.458 77.7324 116.458H85.5641C85.7718 116.458 85.971 116.375 86.1178 116.228C86.2647 116.081 86.3472 115.882 86.3472 115.675V113.325C86.3472 113.117 86.2647 112.918 86.1178 112.771C85.971 112.624 85.7718 112.542 85.5641 112.542ZM84.1935 115.087C84.0773 115.087 83.9638 115.053 83.8672 114.988C83.7706 114.924 83.6953 114.832 83.6508 114.725C83.6064 114.617 83.5948 114.499 83.6174 114.385C83.6401 114.271 83.696 114.167 83.7782 114.084C83.8603 114.002 83.965 113.946 84.0789 113.924C84.1929 113.901 84.311 113.913 84.4183 113.957C84.5256 114.002 84.6174 114.077 84.6819 114.173C84.7464 114.27 84.7809 114.384 84.7809 114.5C84.7809 114.656 84.719 114.805 84.6088 114.915C84.4987 115.025 84.3493 115.087 84.1935 115.087Z" fill="#ffffff"/>
</g>
<circle cx="285.436" cy="172.825" r="19.1258" fill="#001810" fill-opacity="0.4"/>
<circle cx="285.436" cy="172.825" r="18.6258" stroke="url(#paint7_linear_490_14092)" stroke-opacity="0.2"/>
<g clip-path="url(#clip3_490_14092)">
<path d="M291.413 166.251H279.459C279.142 166.251 278.838 166.377 278.614 166.601C278.39 166.825 278.264 167.129 278.264 167.446V171.032C278.264 171.349 278.39 171.653 278.614 171.877C278.838 172.102 279.142 172.228 279.459 172.228H291.413C291.73 172.228 292.034 172.102 292.258 171.877C292.482 171.653 292.608 171.349 292.608 171.032V167.446C292.608 167.129 292.482 166.825 292.258 166.601C292.034 166.377 291.73 166.251 291.413 166.251ZM289.321 170.136C289.143 170.136 288.97 170.083 288.823 169.985C288.675 169.886 288.56 169.746 288.492 169.582C288.425 169.418 288.407 169.238 288.441 169.064C288.476 168.89 288.561 168.731 288.687 168.605C288.812 168.48 288.972 168.394 289.146 168.36C289.32 168.325 289.5 168.343 289.664 168.411C289.828 168.479 289.968 168.594 290.066 168.741C290.165 168.888 290.217 169.062 290.217 169.239C290.217 169.477 290.123 169.705 289.955 169.873C289.787 170.041 289.559 170.136 289.321 170.136ZM291.413 173.423H279.459C279.142 173.423 278.838 173.549 278.614 173.773C278.39 173.997 278.264 174.301 278.264 174.618V178.204C278.264 178.521 278.39 178.825 278.614 179.05C278.838 179.274 279.142 179.4 279.459 179.4H291.413C291.73 179.4 292.034 179.274 292.258 179.05C292.482 178.825 292.608 178.521 292.608 178.204V174.618C292.608 174.301 292.482 173.997 292.258 173.773C292.034 173.549 291.73 173.423 291.413 173.423ZM289.321 177.308C289.143 177.308 288.97 177.255 288.823 177.157C288.675 177.058 288.56 176.918 288.492 176.754C288.425 176.591 288.407 176.41 288.441 176.236C288.476 176.062 288.561 175.903 288.687 175.777C288.812 175.652 288.972 175.567 289.146 175.532C289.32 175.497 289.5 175.515 289.664 175.583C289.828 175.651 289.968 175.766 290.066 175.913C290.165 176.061 290.217 176.234 290.217 176.411C290.217 176.649 290.123 176.877 289.955 177.045C289.787 177.213 289.559 177.308 289.321 177.308Z" fill="#ffffff"/>
</g>
<circle cx="18.3348" cy="81.1534" r="19.1258" fill="#001810" fill-opacity="0.4"/>
<circle cx="18.3348" cy="81.1534" r="18.6258" stroke="url(#paint8_linear_490_14092)" stroke-opacity="0.2"/>
<g clip-path="url(#clip4_490_14092)">
<path d="M24.3111 74.5789H12.3575C12.0404 74.5789 11.7364 74.7048 11.5122 74.929C11.288 75.1531 11.1621 75.4572 11.1621 75.7742V79.3603C11.1621 79.6773 11.288 79.9814 11.5122 80.2055C11.7364 80.4297 12.0404 80.5557 12.3575 80.5557H24.3111C24.6281 80.5557 24.9321 80.4297 25.1563 80.2055C25.3805 79.9814 25.5064 79.6773 25.5064 79.3603V75.7742C25.5064 75.4572 25.3805 75.1531 25.1563 74.929C24.9321 74.7048 24.6281 74.5789 24.3111 74.5789ZM22.2192 78.4638C22.0419 78.4638 21.8685 78.4112 21.7211 78.3127C21.5737 78.2142 21.4588 78.0742 21.3909 77.9103C21.3231 77.7465 21.3053 77.5663 21.3399 77.3924C21.3745 77.2184 21.4599 77.0587 21.5853 76.9333C21.7106 76.8079 21.8704 76.7226 22.0443 76.688C22.2182 76.6534 22.3985 76.6711 22.5623 76.739C22.7261 76.8068 22.8661 76.9217 22.9646 77.0692C23.0631 77.2166 23.1157 77.3899 23.1157 77.5673C23.1157 77.805 23.0213 78.0331 22.8531 78.2012C22.685 78.3693 22.457 78.4638 22.2192 78.4638ZM24.3111 81.751H12.3575C12.0404 81.751 11.7364 81.877 11.5122 82.1011C11.288 82.3253 11.1621 82.6294 11.1621 82.9464V86.5325C11.1621 86.8495 11.288 87.1535 11.5122 87.3777C11.7364 87.6019 12.0404 87.7278 12.3575 87.7278H24.3111C24.6281 87.7278 24.9321 87.6019 25.1563 87.3777C25.3805 87.1535 25.5064 86.8495 25.5064 86.5325V82.9464C25.5064 82.6294 25.3805 82.3253 25.1563 82.1011C24.9321 81.877 24.6281 81.751 24.3111 81.751ZM22.2192 85.6359C22.0419 85.6359 21.8685 85.5834 21.7211 85.4848C21.5737 85.3863 21.4588 85.2463 21.3909 85.0825C21.3231 84.9187 21.3053 84.7384 21.3399 84.5645C21.3745 84.3906 21.4599 84.2309 21.5853 84.1055C21.7106 83.9801 21.8704 83.8947 22.0443 83.8601C22.2182 83.8255 22.3985 83.8433 22.5623 83.9111C22.7261 83.979 22.8661 84.0939 22.9646 84.2413C23.0631 84.3888 23.1157 84.5621 23.1157 84.7394C23.1157 84.9772 23.0213 85.2052 22.8531 85.3734C22.685 85.5415 22.457 85.6359 22.2192 85.6359Z" fill="#ffffff"/>
</g>
<circle cx="327.314" cy="75.5475" r="16.8175" fill="#001810" fill-opacity="0.4"/>
<circle cx="327.314" cy="75.5475" r="16.3175" stroke="url(#paint9_linear_490_14092)" stroke-opacity="0.2"/>
<g clip-path="url(#clip5_490_14092)">
<path d="M332.568 69.7665H322.057C321.778 69.7665 321.511 69.8773 321.314 70.0744C321.117 70.2715 321.006 70.5389 321.006 70.8176V73.9709C321.006 74.2497 321.117 74.517 321.314 74.7141C321.511 74.9113 321.778 75.022 322.057 75.022H332.568C332.847 75.022 333.114 74.9113 333.311 74.7141C333.508 74.517 333.619 74.2497 333.619 73.9709V70.8176C333.619 70.5389 333.508 70.2715 333.311 70.0744C333.114 69.8773 332.847 69.7665 332.568 69.7665ZM330.728 73.1826C330.573 73.1826 330.42 73.1364 330.29 73.0497C330.161 72.9631 330.06 72.84 330 72.6959C329.94 72.5519 329.925 72.3934 329.955 72.2405C329.986 72.0876 330.061 71.9471 330.171 71.8368C330.281 71.7266 330.422 71.6515 330.575 71.6211C330.728 71.5907 330.886 71.6063 331.03 71.666C331.174 71.7256 331.297 71.8267 331.384 71.9563C331.471 72.0859 331.517 72.2384 331.517 72.3943C331.517 72.6033 331.434 72.8039 331.286 72.9517C331.138 73.0995 330.938 73.1826 330.728 73.1826ZM332.568 76.0731H322.057C321.778 76.0731 321.511 76.1838 321.314 76.381C321.117 76.5781 321.006 76.8454 321.006 77.1242V80.2775C321.006 80.5562 321.117 80.8236 321.314 81.0207C321.511 81.2178 321.778 81.3286 322.057 81.3286H332.568C332.847 81.3286 333.114 81.2178 333.311 81.0207C333.508 80.8236 333.619 80.5562 333.619 80.2775V77.1242C333.619 76.8454 333.508 76.5781 333.311 76.381C333.114 76.1838 332.847 76.0731 332.568 76.0731ZM330.728 79.4891C330.573 79.4891 330.42 79.4429 330.29 79.3563C330.161 79.2697 330.06 79.1466 330 79.0025C329.94 78.8585 329.925 78.7 329.955 78.547C329.986 78.3941 330.061 78.2537 330.171 78.1434C330.281 78.0332 330.422 77.9581 330.575 77.9277C330.728 77.8972 330.886 77.9129 331.03 77.9725C331.174 78.0322 331.297 78.1332 331.384 78.2629C331.471 78.3925 331.517 78.5449 331.517 78.7008C331.517 78.9099 331.434 79.1104 331.286 79.2583C331.138 79.4061 330.938 79.4891 330.728 79.4891Z" fill="#ffffff"/>
</g>
<circle cx="64.8292" cy="175.133" r="16.8175" fill="#001810" fill-opacity="0.4"/>
<circle cx="64.8292" cy="175.133" r="16.3175" stroke="url(#paint10_linear_490_14092)" stroke-opacity="0.2"/>
<g clip-path="url(#clip6_490_14092)">
<path d="M70.0835 169.352H59.5726C59.2938 169.352 59.0265 169.463 58.8293 169.66C58.6322 169.857 58.5215 170.125 58.5215 170.404V173.557C58.5215 173.836 58.6322 174.103 58.8293 174.3C59.0265 174.497 59.2938 174.608 59.5726 174.608H70.0835C70.3623 174.608 70.6296 174.497 70.8267 174.3C71.0238 174.103 71.1346 173.836 71.1346 173.557V170.404C71.1346 170.125 71.0238 169.857 70.8267 169.66C70.6296 169.463 70.3623 169.352 70.0835 169.352ZM68.2441 172.768C68.0882 172.768 67.9358 172.722 67.8061 172.636C67.6765 172.549 67.5754 172.426 67.5158 172.282C67.4561 172.138 67.4405 171.979 67.4709 171.826C67.5013 171.673 67.5764 171.533 67.6867 171.423C67.7969 171.313 67.9374 171.237 68.0903 171.207C68.2432 171.177 68.4017 171.192 68.5458 171.252C68.6898 171.312 68.8129 171.413 68.8995 171.542C68.9862 171.672 69.0324 171.824 69.0324 171.98C69.0324 172.189 68.9493 172.39 68.8015 172.538C68.6537 172.685 68.4532 172.768 68.2441 172.768ZM70.0835 175.659H59.5726C59.2938 175.659 59.0265 175.77 58.8293 175.967C58.6322 176.164 58.5215 176.431 58.5215 176.71V179.863C58.5215 180.142 58.6322 180.409 58.8293 180.607C59.0265 180.804 59.2938 180.914 59.5726 180.914H70.0835C70.3623 180.914 70.6296 180.804 70.8267 180.607C71.0238 180.409 71.1346 180.142 71.1346 179.863V176.71C71.1346 176.431 71.0238 176.164 70.8267 175.967C70.6296 175.77 70.3623 175.659 70.0835 175.659ZM68.2441 179.075C68.0882 179.075 67.9358 179.029 67.8061 178.942C67.6765 178.856 67.5754 178.732 67.5158 178.588C67.4561 178.444 67.4405 178.286 67.4709 178.133C67.5013 177.98 67.5764 177.84 67.6867 177.729C67.7969 177.619 67.9374 177.544 68.0903 177.514C68.2432 177.483 68.4017 177.499 68.5458 177.558C68.6898 177.618 68.8129 177.719 68.8995 177.849C68.9862 177.978 69.0324 178.131 69.0324 178.287C69.0324 178.496 68.9493 178.696 68.8015 178.844C68.6537 178.992 68.4532 179.075 68.2441 179.075Z" fill="#ffffff"/>
</g>
</g>
<defs>
<linearGradient id="paint0_linear_490_14092" x1="36.43" y1="289.558" x2="311.476" y2="289.558" gradientUnits="userSpaceOnUse">
<stop stop-color="#22d3ee" stop-opacity="0" data-originalstopcolor="#22d3ee"/>
<stop offset="0.515" stop-color="#22d3ee" stop-opacity="0.52" data-originalstopcolor="#22d3ee"/>
<stop offset="1" stop-color="#22d3ee" stop-opacity="0" data-originalstopcolor="#22d3ee"/>
</linearGradient>
<linearGradient id="paint1_linear_490_14092" x1="2.27934" y1="327.15" x2="343.292" y2="327.15" gradientUnits="userSpaceOnUse">
<stop stop-color="#22d3ee" stop-opacity="0" data-originalstopcolor="#22d3ee"/>
<stop offset="0.515" stop-color="#22d3ee" stop-opacity="0.52" data-originalstopcolor="#22d3ee"/>
<stop offset="1" stop-color="#22d3ee" stop-opacity="0" data-originalstopcolor="#22d3ee"/>
</linearGradient>
<linearGradient id="paint2_linear_490_14092" x1="68.6021" y1="249.988" x2="277.682" y2="249.988" gradientUnits="userSpaceOnUse">
<stop stop-color="#22d3ee" stop-opacity="0" data-originalstopcolor="#22d3ee"/>
<stop offset="0.515" stop-color="#22d3ee" stop-opacity="0.52" data-originalstopcolor="#22d3ee"/>
<stop offset="1" stop-color="#22d3ee" stop-opacity="0" data-originalstopcolor="#22d3ee"/>
</linearGradient>
<linearGradient id="paint3_linear_490_14092" x1="92.4769" y1="220.969" x2="252.921" y2="220.969" gradientUnits="userSpaceOnUse">
<stop stop-color="#22d3ee" stop-opacity="0" data-originalstopcolor="#22d3ee"/>
<stop offset="0.515" stop-color="#22d3ee" stop-opacity="0.52" data-originalstopcolor="#22d3ee"/>
<stop offset="1" stop-color="#22d3ee" stop-opacity="0" data-originalstopcolor="#22d3ee"/>
</linearGradient>
<linearGradient id="paint4_linear_490_14092" x1="116.157" y1="197.227" x2="232.996" y2="197.227" gradientUnits="userSpaceOnUse">
<stop stop-color="#22d3ee" stop-opacity="0" data-originalstopcolor="#22d3ee"/>
<stop offset="0.515" stop-color="#22d3ee" stop-opacity="0.52" data-originalstopcolor="#22d3ee"/>
<stop offset="1" stop-color="#22d3ee" stop-opacity="0" data-originalstopcolor="#22d3ee"/>
</linearGradient>
<linearGradient id="paint5_linear_490_14092" x1="270.166" y1="122.738" x2="289.003" y2="107.806" gradientUnits="userSpaceOnUse">
<stop stop-color="#55b2c2" stop-opacity="0" data-originalstopcolor="#55b2c2"/>
<stop offset="0.515" stop-color="#55b2c2" stop-opacity="0.52" data-originalstopcolor="#55b2c2"/>
<stop offset="1" stop-color="#55b2c2" stop-opacity="0" data-originalstopcolor="#55b2c2"/>
</linearGradient>
<linearGradient id="paint6_linear_490_14092" x1="84.8441" y1="129.992" x2="103.68" y2="115.061" gradientUnits="userSpaceOnUse">
<stop stop-color="#55b2c2" stop-opacity="0" data-originalstopcolor="#55b2c2"/>
<stop offset="0.515" stop-color="#55b2c2" stop-opacity="0.52" data-originalstopcolor="#55b2c2"/>
<stop offset="1" stop-color="#55b2c2" stop-opacity="0" data-originalstopcolor="#55b2c2"/>
</linearGradient>
<linearGradient id="paint7_linear_490_14092" x1="290.315" y1="200.058" x2="319.065" y2="177.268" gradientUnits="userSpaceOnUse">
<stop stop-color="#55b2c2" stop-opacity="0" data-originalstopcolor="#55b2c2"/>
<stop offset="0.515" stop-color="#55b2c2" stop-opacity="0.52" data-originalstopcolor="#55b2c2"/>
<stop offset="1" stop-color="#55b2c2" stop-opacity="0" data-originalstopcolor="#55b2c2"/>
</linearGradient>
<linearGradient id="paint8_linear_490_14092" x1="23.2132" y1="108.386" x2="51.9633" y2="85.5958" gradientUnits="userSpaceOnUse">
<stop stop-color="#55b2c2" stop-opacity="0" data-originalstopcolor="#55b2c2"/>
<stop offset="0.515" stop-color="#55b2c2" stop-opacity="0.52" data-originalstopcolor="#55b2c2"/>
<stop offset="1" stop-color="#55b2c2" stop-opacity="0" data-originalstopcolor="#55b2c2"/>
</linearGradient>
<linearGradient id="paint9_linear_490_14092" x1="331.603" y1="99.4932" x2="356.883" y2="79.4538" gradientUnits="userSpaceOnUse">
<stop stop-color="#55b2c2" stop-opacity="0" data-originalstopcolor="#55b2c2"/>
<stop offset="0.515" stop-color="#55b2c2" stop-opacity="0.52" data-originalstopcolor="#55b2c2"/>
<stop offset="1" stop-color="#55b2c2" stop-opacity="0" data-originalstopcolor="#55b2c2"/>
</linearGradient>
<linearGradient id="paint10_linear_490_14092" x1="69.1189" y1="199.079" x2="94.3991" y2="179.04" gradientUnits="userSpaceOnUse">
<stop stop-color="#55b2c2" stop-opacity="0" data-originalstopcolor="#55b2c2"/>
<stop offset="0.515" stop-color="#55b2c2" stop-opacity="0.52" data-originalstopcolor="#55b2c2"/>
<stop offset="1" stop-color="#55b2c2" stop-opacity="0" data-originalstopcolor="#55b2c2"/>
</linearGradient>
<clipPath id="clip0_490_14092">
<rect width="345" height="252" fill="#ffffff"/>
</clipPath>
<clipPath id="clip1_490_14092">
<rect width="12.5307" height="12.5307" fill="#ffffff" transform="translate(260.705 98.6304)"/>
</clipPath>
<clipPath id="clip2_490_14092">
<rect width="12.5307" height="12.5307" fill="#ffffff" transform="translate(75.3828 105.885)"/>
</clipPath>
<clipPath id="clip3_490_14092">
<rect width="19.1258" height="19.1258" fill="#ffffff" transform="translate(275.873 163.262)"/>
</clipPath>
<clipPath id="clip4_490_14092">
<rect width="19.1258" height="19.1258" fill="#ffffff" transform="translate(8.77148 71.5905)"/>
</clipPath>
<clipPath id="clip5_490_14092">
<rect width="16.8175" height="16.8175" fill="#ffffff" transform="translate(318.904 67.1388)"/>
</clipPath>
<clipPath id="clip6_490_14092">
<rect width="16.8175" height="16.8175" fill="#ffffff" transform="translate(56.4199 166.725)"/>
</clipPath>
</defs>
</svg>