<svg width="690px" height="252px" viewBox="0 0 690 252" fill="none" xmlns="http://www.w3.org/2000/svg" transform="rotate(0) scale(1, 1)">
<g clip-path="url(#clip0_471_9830)">
<circle cx="347" cy="128" r="246" fill="#55b2c2" fill-opacity="0.02"/>
<circle cx="347" cy="128" r="245.5" stroke="url(#paint0_linear_471_9830)" stroke-opacity="0.1"/>
<circle cx="345" cy="126" r="305" fill="#55b2c2" fill-opacity="0.02"/>
<circle cx="345" cy="126" r="304.5" stroke="url(#paint1_linear_471_9830)" stroke-opacity="0.1"/>
<circle cx="346" cy="127" r="187" fill="#55b2c2" fill-opacity="0.02"/>
<circle cx="346" cy="127" r="186.5" stroke="url(#paint2_linear_471_9830)" stroke-opacity="0.1"/>
<circle cx="345.5" cy="126.5" r="143.5" fill="#55b2c2" fill-opacity="0.04"/>
<circle cx="345.5" cy="126.5" r="143" stroke="url(#paint3_linear_471_9830)" stroke-opacity="0.1"/>
<circle cx="348.5" cy="129.5" r="104.5" fill="#55b2c2" fill-opacity="0.04"/>
<circle cx="348.5" cy="129.5" r="104" stroke="url(#paint4_linear_471_9830)" stroke-opacity="0.4"/>
<path d="M410.326 112.496V139.842C410.326 141.23 409.201 142.355 407.813 142.355C406.301 142.355 405.248 141.177 405.248 139.842V112.496C405.248 111.108 406.373 109.983 407.761 109.983C409.273 109.983 410.326 111.162 410.326 112.496Z" fill="#55b2c2" fill-opacity="0.4"/>
<path d="M284.646 112.496V139.842C284.646 141.23 283.521 142.355 282.134 142.355C280.621 142.355 279.568 141.177 279.568 139.842V112.496C279.568 111.108 280.693 109.983 282.081 109.983C283.594 109.983 284.646 111.162 284.646 112.496Z" fill="#55b2c2" fill-opacity="0.4"/>
<path d="M328.516 72.5172L300.879 86.8938C299.564 87.578 297.943 86.9807 297.392 85.604C296.86 84.2764 297.447 82.9568 298.541 82.3881L326.177 68.0114C327.493 67.3272 329.113 67.9245 329.664 69.3012C330.196 70.6285 329.609 71.9484 328.516 72.5172Z" fill="#55b2c2" fill-opacity="0.4"/>
<path d="M329.683 182.989C329.073 184.493 327.435 184.982 326.176 184.327L298.54 169.95C297.392 169.353 296.886 167.982 297.372 166.782C297.981 165.278 299.619 164.79 300.878 165.444L328.515 179.821C329.663 180.418 330.169 181.79 329.683 182.989Z" fill="#55b2c2" fill-opacity="0.4"/>
<path d="M392.523 85.5564C391.913 87.0601 390.275 87.5486 389.016 86.8938L361.38 72.5172C360.231 71.9199 359.725 70.5486 360.211 69.3489C360.821 67.8452 362.459 67.3568 363.718 68.0115L391.354 82.3881C392.503 82.9854 393.009 84.3568 392.523 85.5564Z" fill="#55b2c2" fill-opacity="0.4"/>
<path d="M391.355 169.95L363.719 184.327C362.404 185.011 360.783 184.414 360.232 183.037C359.7 181.709 360.287 180.39 361.381 179.821L389.017 165.444C390.333 164.76 391.953 165.357 392.504 166.734C393.036 168.061 392.449 169.381 391.355 169.95Z" fill="#55b2c2" fill-opacity="0.4"/>
<path d="M344.973 77.2939C346.361 77.2939 347.486 78.4193 347.486 79.8075V82.0545C347.486 85.4148 342.408 85.4139 342.408 82.0545V79.8075C342.408 78.4831 343.451 77.2939 344.973 77.2939Z" fill="#55b2c2" fill-opacity="0.4"/>
<path d="M347.486 170.284V172.531C347.486 173.919 346.361 175.044 344.973 175.044C343.453 175.044 342.408 173.857 342.408 172.531V170.284C342.408 166.923 347.486 166.924 347.486 170.284Z" fill="#55b2c2" fill-opacity="0.4"/>
<path d="M304.099 108.108L298.54 105.196C297.397 104.597 296.893 103.23 297.377 102.033C297.987 100.525 299.63 100.035 300.891 100.695L306.454 103.607C309.439 105.168 307.067 109.667 304.099 108.108Z" fill="#55b2c2" fill-opacity="0.4"/>
<path d="M392.52 102.033C393.004 103.23 392.5 104.597 391.356 105.196L385.797 108.108C382.844 109.659 380.438 105.178 383.442 103.607L389.005 100.695C390.264 100.036 391.909 100.523 392.52 102.033Z" fill="#55b2c2" fill-opacity="0.4"/>
<path d="M306.452 148.731L300.889 151.643C299.571 152.333 297.945 151.734 297.393 150.353C296.864 149.03 297.447 147.714 298.538 147.142L304.097 144.231C307.071 142.671 309.432 147.172 306.452 148.731Z" fill="#55b2c2" fill-opacity="0.4"/>
<path d="M392.52 150.305C391.909 151.813 390.266 152.303 389.005 151.643L383.442 148.731C380.468 147.176 382.818 142.669 385.797 144.231L391.356 147.142C392.499 147.741 393.004 149.108 392.52 150.305Z" fill="#55b2c2" fill-opacity="0.4"/>
<path d="M348.439 180.122H341.457C337.257 180.122 333.84 183.539 333.84 187.739V194.721C333.84 198.921 337.257 202.338 341.457 202.338H348.439C352.639 202.338 356.056 198.921 356.056 194.721V187.739C356.056 183.539 352.639 180.122 348.439 180.122Z" fill="#55b2c2"/>
<path d="M348.439 50H341.457C337.257 50 333.84 53.4171 333.84 57.6169V64.5991C333.84 68.7989 337.257 72.216 341.457 72.216H348.439C352.639 72.216 356.056 68.7989 356.056 64.5991V57.6169C356.056 53.4171 352.639 50 348.439 50Z" fill="#55b2c2"/>
<path d="M285.599 147.433H278.617C274.417 147.433 271 150.85 271 155.05V162.032C271 166.232 274.417 169.649 278.617 169.649H285.599C289.799 169.649 293.216 166.232 293.216 162.032V155.05C293.216 150.85 289.799 147.433 285.599 147.433Z" fill="#55b2c2"/>
<path d="M411.277 82.6893H404.295C400.095 82.6893 396.678 86.1064 396.678 90.3062V97.2884C396.678 101.488 400.095 104.905 404.295 104.905H411.277C415.477 104.905 418.894 101.488 418.894 97.2884V90.3062C418.894 86.1064 415.477 82.6893 411.277 82.6893Z" fill="#55b2c2"/>
<path d="M411.277 147.433H404.295C400.095 147.433 396.678 150.85 396.678 155.05V162.032C396.678 166.232 400.095 169.649 404.295 169.649H411.277C415.477 169.649 418.894 166.232 418.894 162.032V155.05C418.894 150.85 415.477 147.433 411.277 147.433Z" fill="#55b2c2"/>
<path d="M285.599 82.6893H278.617C274.417 82.6893 271 86.1064 271 90.3062V97.2884C271 101.488 274.417 104.905 278.617 104.905H285.599C289.799 104.905 293.216 101.488 293.216 97.2884V90.3062C293.216 86.1064 289.799 82.6893 285.599 82.6893Z" fill="#55b2c2"/>
<path d="M341.747 126.048L315.722 111.879C314.877 111.418 313.846 112.031 313.846 112.994V143.307C313.846 144.237 314.354 145.092 315.171 145.537L340.533 159.345C341.379 159.806 342.409 159.194 342.409 158.23V127.163C342.409 126.698 342.155 126.27 341.747 126.048Z" fill="#55b2c2"/>
<path d="M345.554 121.678L371.463 107.572C372.346 107.092 372.346 105.823 371.463 105.343L346.161 91.5674C345.404 91.1551 344.49 91.1551 343.733 91.5674L318.432 105.343C317.549 105.823 317.549 107.092 318.432 107.572L344.341 121.678C344.719 121.884 345.176 121.884 345.554 121.678Z" fill="#55b2c2"/>
<path d="M347.486 127.163V158.23C347.486 159.194 348.517 159.806 349.363 159.345L374.725 145.537C375.541 145.092 376.05 144.237 376.05 143.307V112.994C376.05 112.031 375.019 111.418 374.173 111.879L348.149 126.048C347.741 126.27 347.486 126.698 347.486 127.163Z" fill="#55b2c2"/>
<circle cx="489" cy="94" r="19" fill="#001810" fill-opacity="0.4"/>
<circle cx="489" cy="94" r="18.5" stroke="url(#paint5_linear_471_9830)" stroke-opacity="0.2"/>
<g clip-path="url(#clip1_471_9830)">
<path d="M494.937 87.4688H483.062C482.748 87.4688 482.446 87.5939 482.223 87.8166C482 88.0393 481.875 88.3413 481.875 88.6563V92.2188C481.875 92.5337 482 92.8357 482.223 93.0584C482.446 93.2811 482.748 93.4063 483.062 93.4063H494.937C495.252 93.4063 495.554 93.2811 495.777 93.0584C496 92.8357 496.125 92.5337 496.125 92.2188V88.6563C496.125 88.3413 496 88.0393 495.777 87.8166C495.554 87.5939 495.252 87.4688 494.937 87.4688ZM492.859 91.3281C492.683 91.3281 492.511 91.2759 492.365 91.178C492.218 91.0802 492.104 90.9411 492.037 90.7783C491.969 90.6156 491.951 90.4365 491.986 90.2637C492.02 90.091 492.105 89.9323 492.23 89.8077C492.354 89.6832 492.513 89.5984 492.686 89.564C492.858 89.5296 493.037 89.5473 493.2 89.6147C493.363 89.6821 493.502 89.7962 493.6 89.9427C493.698 90.0892 493.75 90.2614 493.75 90.4375C493.75 90.6737 493.656 90.9002 493.489 91.0673C493.322 91.2343 493.096 91.3281 492.859 91.3281ZM494.937 94.5938H483.062C482.748 94.5938 482.446 94.7189 482.223 94.9416C482 95.1643 481.875 95.4663 481.875 95.7813V99.3438C481.875 99.6587 482 99.9607 482.223 100.183C482.446 100.406 482.748 100.531 483.062 100.531H494.937C495.252 100.531 495.554 100.406 495.777 100.183C496 99.9607 496.125 99.6587 496.125 99.3438V95.7813C496.125 95.4663 496 95.1643 495.777 94.9416C495.554 94.7189 495.252 94.5938 494.937 94.5938ZM492.859 98.4531C492.683 98.4531 492.511 98.4009 492.365 98.303C492.218 98.2052 492.104 98.0661 492.037 97.9033C491.969 97.7406 491.951 97.5615 491.986 97.3887C492.02 97.216 492.105 97.0573 492.23 96.9327C492.354 96.8082 492.513 96.7234 492.686 96.689C492.858 96.6546 493.037 96.6723 493.2 96.7397C493.363 96.8071 493.502 96.9212 493.6 97.0677C493.698 97.2142 493.75 97.3864 493.75 97.5625C493.75 97.7987 493.656 98.0252 493.489 98.1923C493.322 98.3593 493.096 98.4531 492.859 98.4531Z" fill="#ffffff"/>
</g>
<circle cx="208" cy="105" r="19" fill="#001810" fill-opacity="0.4"/>
<circle cx="208" cy="105" r="18.5" stroke="url(#paint6_linear_471_9830)" stroke-opacity="0.2"/>
<g clip-path="url(#clip2_471_9830)">
<path d="M213.937 98.4688H202.062C201.748 98.4688 201.446 98.5939 201.223 98.8166C201 99.0393 200.875 99.3413 200.875 99.6563V103.219C200.875 103.534 201 103.836 201.223 104.058C201.446 104.281 201.748 104.406 202.062 104.406H213.937C214.252 104.406 214.554 104.281 214.777 104.058C215 103.836 215.125 103.534 215.125 103.219V99.6563C215.125 99.3413 215 99.0393 214.777 98.8166C214.554 98.5939 214.252 98.4688 213.937 98.4688ZM211.859 102.328C211.683 102.328 211.511 102.276 211.365 102.178C211.218 102.08 211.104 101.941 211.037 101.778C210.969 101.616 210.951 101.437 210.986 101.264C211.02 101.091 211.105 100.932 211.23 100.808C211.354 100.683 211.513 100.598 211.686 100.564C211.858 100.53 212.037 100.547 212.2 100.615C212.363 100.682 212.502 100.796 212.6 100.943C212.698 101.089 212.75 101.261 212.75 101.438C212.75 101.674 212.656 101.9 212.489 102.067C212.322 102.234 212.096 102.328 211.859 102.328ZM213.937 105.594H202.062C201.748 105.594 201.446 105.719 201.223 105.942C201 106.164 200.875 106.466 200.875 106.781V110.344C200.875 110.659 201 110.961 201.223 111.183C201.446 111.406 201.748 111.531 202.062 111.531H213.937C214.252 111.531 214.554 111.406 214.777 111.183C215 110.961 215.125 110.659 215.125 110.344V106.781C215.125 106.466 215 106.164 214.777 105.942C214.554 105.719 214.252 105.594 213.937 105.594ZM211.859 109.453C211.683 109.453 211.511 109.401 211.365 109.303C211.218 109.205 211.104 109.066 211.037 108.903C210.969 108.741 210.951 108.562 210.986 108.389C211.02 108.216 211.105 108.057 211.23 107.933C211.354 107.808 211.513 107.723 211.686 107.689C211.858 107.655 212.037 107.672 212.2 107.74C212.363 107.807 212.502 107.921 212.6 108.068C212.698 108.214 212.75 108.386 212.75 108.563C212.75 108.799 212.656 109.025 212.489 109.192C212.322 109.359 212.096 109.453 211.859 109.453Z" fill="#ffffff"/>
</g>
<circle cx="517" cy="197" r="29" fill="#001810" fill-opacity="0.4"/>
<circle cx="517" cy="197" r="28.5" stroke="url(#paint7_linear_471_9830)" stroke-opacity="0.2"/>
<g clip-path="url(#clip3_471_9830)">
<path d="M526.062 187.031H507.937C507.457 187.031 506.996 187.222 506.656 187.562C506.316 187.902 506.125 188.363 506.125 188.844V194.281C506.125 194.762 506.316 195.223 506.656 195.563C506.996 195.903 507.457 196.094 507.937 196.094H526.062C526.543 196.094 527.004 195.903 527.344 195.563C527.684 195.223 527.875 194.762 527.875 194.281V188.844C527.875 188.363 527.684 187.902 527.344 187.562C527.004 187.222 526.543 187.031 526.062 187.031ZM522.891 192.922C522.622 192.922 522.359 192.842 522.135 192.693C521.912 192.543 521.738 192.331 521.635 192.083C521.532 191.834 521.505 191.561 521.557 191.297C521.61 191.034 521.739 190.791 521.929 190.601C522.12 190.411 522.362 190.282 522.625 190.229C522.889 190.177 523.162 190.204 523.411 190.307C523.659 190.409 523.872 190.584 524.021 190.807C524.17 191.031 524.25 191.294 524.25 191.562C524.25 191.923 524.107 192.269 523.852 192.524C523.597 192.779 523.251 192.922 522.891 192.922ZM526.062 197.906H507.937C507.457 197.906 506.996 198.097 506.656 198.437C506.316 198.777 506.125 199.238 506.125 199.719V205.156C506.125 205.637 506.316 206.098 506.656 206.438C506.996 206.778 507.457 206.969 507.937 206.969H526.062C526.543 206.969 527.004 206.778 527.344 206.438C527.684 206.098 527.875 205.637 527.875 205.156V199.719C527.875 199.238 527.684 198.777 527.344 198.437C527.004 198.097 526.543 197.906 526.062 197.906ZM522.891 203.797C522.622 203.797 522.359 203.717 522.135 203.568C521.912 203.418 521.738 203.206 521.635 202.958C521.532 202.709 521.505 202.436 521.557 202.172C521.61 201.909 521.739 201.666 521.929 201.476C522.12 201.286 522.362 201.157 522.625 201.104C522.889 201.052 523.162 201.079 523.411 201.182C523.659 201.284 523.872 201.459 524.021 201.682C524.17 201.906 524.25 202.169 524.25 202.438C524.25 202.798 524.107 203.144 523.852 203.399C523.597 203.654 523.251 203.797 522.891 203.797Z" fill="#ffffff"/>
</g>
<circle cx="48" cy="185" r="29" fill="#001810" fill-opacity="0.4"/>
<circle cx="48" cy="185" r="28.5" stroke="url(#paint8_linear_471_9830)" stroke-opacity="0.2"/>
<g clip-path="url(#clip4_471_9830)">
<path d="M57.0625 175.031H38.9375C38.4568 175.031 37.9958 175.222 37.6559 175.562C37.316 175.902 37.125 176.363 37.125 176.844V182.281C37.125 182.762 37.316 183.223 37.6559 183.563C37.9958 183.903 38.4568 184.094 38.9375 184.094H57.0625C57.5432 184.094 58.0042 183.903 58.3441 183.563C58.684 183.223 58.875 182.762 58.875 182.281V176.844C58.875 176.363 58.684 175.902 58.3441 175.562C58.0042 175.222 57.5432 175.031 57.0625 175.031ZM53.8906 180.922C53.6218 180.922 53.3589 180.842 53.1354 180.693C52.9118 180.543 52.7376 180.331 52.6347 180.083C52.5318 179.834 52.5049 179.561 52.5574 179.297C52.6098 179.034 52.7393 178.791 52.9294 178.601C53.1195 178.411 53.3617 178.282 53.6254 178.229C53.8891 178.177 54.1624 178.204 54.4108 178.307C54.6592 178.409 54.8715 178.584 55.0209 178.807C55.1703 179.031 55.25 179.294 55.25 179.562C55.25 179.923 55.1068 180.269 54.8518 180.524C54.5969 180.779 54.2511 180.922 53.8906 180.922ZM57.0625 185.906H38.9375C38.4568 185.906 37.9958 186.097 37.6559 186.437C37.316 186.777 37.125 187.238 37.125 187.719V193.156C37.125 193.637 37.316 194.098 37.6559 194.438C37.9958 194.778 38.4568 194.969 38.9375 194.969H57.0625C57.5432 194.969 58.0042 194.778 58.3441 194.438C58.684 194.098 58.875 193.637 58.875 193.156V187.719C58.875 187.238 58.684 186.777 58.3441 186.437C58.0042 186.097 57.5432 185.906 57.0625 185.906ZM53.8906 191.797C53.6218 191.797 53.3589 191.717 53.1354 191.568C52.9118 191.418 52.7376 191.206 52.6347 190.958C52.5318 190.709 52.5049 190.436 52.5574 190.172C52.6098 189.909 52.7393 189.666 52.9294 189.476C53.1195 189.286 53.3617 189.157 53.6254 189.104C53.8891 189.052 54.1624 189.079 54.4108 189.182C54.6592 189.284 54.8715 189.459 55.0209 189.682C55.1703 189.906 55.25 190.169 55.25 190.438C55.25 190.798 55.1068 191.144 54.8518 191.399C54.5969 191.654 54.2511 191.797 53.8906 191.797Z" fill="#ffffff"/>
</g>
<circle cx="112" cy="58" r="29" fill="#001810" fill-opacity="0.4"/>
<circle cx="112" cy="58" r="28.5" stroke="url(#paint9_linear_471_9830)" stroke-opacity="0.2"/>
<g clip-path="url(#clip5_471_9830)">
<path d="M121.062 48.0312H102.937C102.457 48.0312 101.996 48.2222 101.656 48.5621C101.316 48.902 101.125 49.363 101.125 49.8438V55.2812C101.125 55.762 101.316 56.223 101.656 56.5629C101.996 56.9028 102.457 57.0938 102.937 57.0938H121.062C121.543 57.0938 122.004 56.9028 122.344 56.5629C122.684 56.223 122.875 55.762 122.875 55.2812V49.8438C122.875 49.363 122.684 48.902 122.344 48.5621C122.004 48.2222 121.543 48.0312 121.062 48.0312ZM117.891 53.9219C117.622 53.9219 117.359 53.8421 117.135 53.6928C116.912 53.5434 116.738 53.3311 116.635 53.0827C116.532 52.8343 116.505 52.561 116.557 52.2973C116.61 52.0336 116.739 51.7914 116.929 51.6013C117.12 51.4112 117.362 51.2817 117.625 51.2292C117.889 51.1768 118.162 51.2037 118.411 51.3066C118.659 51.4095 118.872 51.5837 119.021 51.8073C119.17 52.0308 119.25 52.2936 119.25 52.5625C119.25 52.923 119.107 53.2688 118.852 53.5237C118.597 53.7787 118.251 53.9219 117.891 53.9219ZM121.062 58.9062H102.937C102.457 58.9062 101.996 59.0972 101.656 59.4371C101.316 59.777 101.125 60.238 101.125 60.7188V66.1562C101.125 66.637 101.316 67.098 101.656 67.4379C101.996 67.7778 102.457 67.9688 102.937 67.9688H121.062C121.543 67.9688 122.004 67.7778 122.344 67.4379C122.684 67.098 122.875 66.637 122.875 66.1562V60.7188C122.875 60.238 122.684 59.777 122.344 59.4371C122.004 59.0972 121.543 58.9062 121.062 58.9062ZM117.891 64.7969C117.622 64.7969 117.359 64.7171 117.135 64.5678C116.912 64.4184 116.738 64.2061 116.635 63.9577C116.532 63.7093 116.505 63.436 116.557 63.1723C116.61 62.9086 116.739 62.6664 116.929 62.4763C117.12 62.2862 117.362 62.1567 117.625 62.1042C117.889 62.0518 118.162 62.0787 118.411 62.1816C118.659 62.2845 118.872 62.4587 119.021 62.6823C119.17 62.9058 119.25 63.1686 119.25 63.4375C119.25 63.798 119.107 64.1438 118.852 64.3987C118.597 64.6537 118.251 64.7969 117.891 64.7969Z" fill="#ffffff"/>
</g>
<circle cx="580.5" cy="49.5" r="25.5" fill="#001810" fill-opacity="0.4"/>
<circle cx="580.5" cy="49.5" r="25" stroke="url(#paint10_linear_471_9830)" stroke-opacity="0.2"/>
<g clip-path="url(#clip6_471_9830)">
<path d="M588.469 40.7344H572.531C572.109 40.7344 571.703 40.9023 571.404 41.2012C571.105 41.5001 570.938 41.9054 570.938 42.3281V47.1094C570.938 47.5321 571.105 47.9374 571.404 48.2363C571.703 48.5352 572.109 48.7031 572.531 48.7031H588.469C588.891 48.7031 589.297 48.5352 589.596 48.2363C589.895 47.9374 590.062 47.5321 590.062 47.1094V42.3281C590.062 41.9054 589.895 41.5001 589.596 41.2012C589.297 40.9023 588.891 40.7344 588.469 40.7344ZM585.68 45.9141C585.443 45.9141 585.212 45.844 585.016 45.7126C584.819 45.5813 584.666 45.3946 584.575 45.1762C584.485 44.9578 584.461 44.7174 584.507 44.4856C584.553 44.2537 584.667 44.0407 584.834 43.8735C585.002 43.7064 585.215 43.5925 585.446 43.5464C585.678 43.5003 585.919 43.524 586.137 43.6144C586.356 43.7049 586.542 43.8581 586.674 44.0547C586.805 44.2512 586.875 44.4823 586.875 44.7188C586.875 45.0358 586.749 45.3398 586.525 45.564C586.301 45.7881 585.997 45.9141 585.68 45.9141ZM588.469 50.2969H572.531C572.109 50.2969 571.703 50.4648 571.404 50.7637C571.105 51.0626 570.938 51.4679 570.938 51.8906V56.6719C570.938 57.0946 571.105 57.4999 571.404 57.7988C571.703 58.0977 572.109 58.2656 572.531 58.2656H588.469C588.891 58.2656 589.297 58.0977 589.596 57.7988C589.895 57.4999 590.062 57.0946 590.062 56.6719V51.8906C590.062 51.4679 589.895 51.0626 589.596 50.7637C589.297 50.4648 588.891 50.2969 588.469 50.2969ZM585.68 55.4766C585.443 55.4766 585.212 55.4065 585.016 55.2751C584.819 55.1438 584.666 54.9571 584.575 54.7387C584.485 54.5203 584.461 54.2799 584.507 54.0481C584.553 53.8162 584.667 53.6032 584.834 53.436C585.002 53.2689 585.215 53.155 585.446 53.1089C585.678 53.0628 585.919 53.0865 586.137 53.1769C586.356 53.2674 586.542 53.4206 586.674 53.6172C586.805 53.8137 586.875 54.0448 586.875 54.2812C586.875 54.5983 586.749 54.9023 586.525 55.1265C586.301 55.3506 585.997 55.4766 585.68 55.4766Z" fill="#ffffff"/>
</g>
<circle cx="645.5" cy="151.5" r="25.5" fill="#001810" fill-opacity="0.4"/>
<circle cx="645.5" cy="151.5" r="25" stroke="url(#paint11_linear_471_9830)" stroke-opacity="0.2"/>
<g clip-path="url(#clip7_471_9830)">
<path d="M653.469 142.734H637.531C637.109 142.734 636.703 142.902 636.404 143.201C636.105 143.5 635.938 143.905 635.938 144.328V149.109C635.938 149.532 636.105 149.937 636.404 150.236C636.703 150.535 637.109 150.703 637.531 150.703H653.469C653.891 150.703 654.297 150.535 654.596 150.236C654.895 149.937 655.062 149.532 655.062 149.109V144.328C655.062 143.905 654.895 143.5 654.596 143.201C654.297 142.902 653.891 142.734 653.469 142.734ZM650.68 147.914C650.443 147.914 650.212 147.844 650.016 147.713C649.819 147.581 649.666 147.395 649.575 147.176C649.485 146.958 649.461 146.717 649.507 146.486C649.553 146.254 649.667 146.041 649.834 145.874C650.002 145.706 650.215 145.593 650.446 145.546C650.678 145.5 650.919 145.524 651.137 145.614C651.356 145.705 651.542 145.858 651.674 146.055C651.805 146.251 651.875 146.482 651.875 146.719C651.875 147.036 651.749 147.34 651.525 147.564C651.301 147.788 650.997 147.914 650.68 147.914ZM653.469 152.297H637.531C637.109 152.297 636.703 152.465 636.404 152.764C636.105 153.063 635.938 153.468 635.938 153.891V158.672C635.938 159.095 636.105 159.5 636.404 159.799C636.703 160.098 637.109 160.266 637.531 160.266H653.469C653.891 160.266 654.297 160.098 654.596 159.799C654.895 159.5 655.062 159.095 655.062 158.672V153.891C655.062 153.468 654.895 153.063 654.596 152.764C654.297 152.465 653.891 152.297 653.469 152.297ZM650.68 157.477C650.443 157.477 650.212 157.406 650.016 157.275C649.819 157.144 649.666 156.957 649.575 156.739C649.485 156.52 649.461 156.28 649.507 156.048C649.553 155.816 649.667 155.603 649.834 155.436C650.002 155.269 650.215 155.155 650.446 155.109C650.678 155.063 650.919 155.086 651.137 155.177C651.356 155.267 651.542 155.421 651.674 155.617C651.805 155.814 651.875 156.045 651.875 156.281C651.875 156.598 651.749 156.902 651.525 157.126C651.301 157.351 650.997 157.477 650.68 157.477Z" fill="#ffffff"/>
</g>
<circle cx="182.5" cy="200.5" r="25.5" fill="#001810" fill-opacity="0.4"/>
<circle cx="182.5" cy="200.5" r="25" stroke="url(#paint12_linear_471_9830)" stroke-opacity="0.2"/>
<g clip-path="url(#clip8_471_9830)">
<path d="M190.469 191.734H174.531C174.109 191.734 173.703 191.902 173.404 192.201C173.105 192.5 172.938 192.905 172.938 193.328V198.109C172.938 198.532 173.105 198.937 173.404 199.236C173.703 199.535 174.109 199.703 174.531 199.703H190.469C190.891 199.703 191.297 199.535 191.596 199.236C191.895 198.937 192.062 198.532 192.062 198.109V193.328C192.062 192.905 191.895 192.5 191.596 192.201C191.297 191.902 190.891 191.734 190.469 191.734ZM187.68 196.914C187.443 196.914 187.212 196.844 187.016 196.713C186.819 196.581 186.666 196.395 186.575 196.176C186.485 195.958 186.461 195.717 186.507 195.486C186.553 195.254 186.667 195.041 186.834 194.874C187.002 194.706 187.215 194.593 187.446 194.546C187.678 194.5 187.919 194.524 188.137 194.614C188.356 194.705 188.542 194.858 188.674 195.055C188.805 195.251 188.875 195.482 188.875 195.719C188.875 196.036 188.749 196.34 188.525 196.564C188.301 196.788 187.997 196.914 187.68 196.914ZM190.469 201.297H174.531C174.109 201.297 173.703 201.465 173.404 201.764C173.105 202.063 172.938 202.468 172.938 202.891V207.672C172.938 208.095 173.105 208.5 173.404 208.799C173.703 209.098 174.109 209.266 174.531 209.266H190.469C190.891 209.266 191.297 209.098 191.596 208.799C191.895 208.5 192.062 208.095 192.062 207.672V202.891C192.062 202.468 191.895 202.063 191.596 201.764C191.297 201.465 190.891 201.297 190.469 201.297ZM187.68 206.477C187.443 206.477 187.212 206.406 187.016 206.275C186.819 206.144 186.666 205.957 186.575 205.739C186.485 205.52 186.461 205.28 186.507 205.048C186.553 204.816 186.667 204.603 186.834 204.436C187.002 204.269 187.215 204.155 187.446 204.109C187.678 204.063 187.919 204.086 188.137 204.177C188.356 204.267 188.542 204.421 188.674 204.617C188.805 204.814 188.875 205.045 188.875 205.281C188.875 205.598 188.749 205.902 188.525 206.126C188.301 206.351 187.997 206.477 187.68 206.477Z" fill="#ffffff"/>
</g>
</g>
<defs>
<linearGradient id="paint0_linear_471_9830" x1="139.437" y1="374" x2="556.484" y2="374" gradientUnits="userSpaceOnUse">
<stop stop-color="#22d3ee" stop-opacity="0" data-originalstopcolor="#22d3ee"/>
<stop offset="0.515" stop-color="#22d3ee" stop-opacity="0.52" data-originalstopcolor="#22d3ee"/>
<stop offset="1" stop-color="#22d3ee" stop-opacity="0" data-originalstopcolor="#22d3ee"/>
</linearGradient>
<linearGradient id="paint1_linear_471_9830" x1="87.6562" y1="431" x2="604.727" y2="431" gradientUnits="userSpaceOnUse">
<stop stop-color="#22d3ee" stop-opacity="0" data-originalstopcolor="#22d3ee"/>
<stop offset="0.515" stop-color="#22d3ee" stop-opacity="0.52" data-originalstopcolor="#22d3ee"/>
<stop offset="1" stop-color="#22d3ee" stop-opacity="0" data-originalstopcolor="#22d3ee"/>
</linearGradient>
<linearGradient id="paint2_linear_471_9830" x1="188.219" y1="314" x2="505.242" y2="314" gradientUnits="userSpaceOnUse">
<stop stop-color="#22d3ee" stop-opacity="0" data-originalstopcolor="#22d3ee"/>
<stop offset="0.515" stop-color="#22d3ee" stop-opacity="0.52" data-originalstopcolor="#22d3ee"/>
<stop offset="1" stop-color="#22d3ee" stop-opacity="0" data-originalstopcolor="#22d3ee"/>
</linearGradient>
<linearGradient id="paint3_linear_471_9830" x1="224.422" y1="270" x2="467.699" y2="270" gradientUnits="userSpaceOnUse">
<stop stop-color="#22d3ee" stop-opacity="0" data-originalstopcolor="#22d3ee"/>
<stop offset="0.515" stop-color="#22d3ee" stop-opacity="0.52" data-originalstopcolor="#22d3ee"/>
<stop offset="1" stop-color="#22d3ee" stop-opacity="0" data-originalstopcolor="#22d3ee"/>
</linearGradient>
<linearGradient id="paint4_linear_471_9830" x1="260.328" y1="234" x2="437.488" y2="234" gradientUnits="userSpaceOnUse">
<stop stop-color="#22d3ee" stop-opacity="0" data-originalstopcolor="#22d3ee"/>
<stop offset="0.515" stop-color="#22d3ee" stop-opacity="0.52" data-originalstopcolor="#22d3ee"/>
<stop offset="1" stop-color="#22d3ee" stop-opacity="0" data-originalstopcolor="#22d3ee"/>
</linearGradient>
<linearGradient id="paint5_linear_471_9830" x1="493.846" y1="121.053" x2="522.407" y2="98.4132" gradientUnits="userSpaceOnUse">
<stop stop-color="#55b2c2" stop-opacity="0" data-originalstopcolor="#55b2c2"/>
<stop offset="0.515" stop-color="#55b2c2" stop-opacity="0.52" data-originalstopcolor="#55b2c2"/>
<stop offset="1" stop-color="#55b2c2" stop-opacity="0" data-originalstopcolor="#55b2c2"/>
</linearGradient>
<linearGradient id="paint6_linear_471_9830" x1="212.846" y1="132.053" x2="241.407" y2="109.413" gradientUnits="userSpaceOnUse">
<stop stop-color="#55b2c2" stop-opacity="0" data-originalstopcolor="#55b2c2"/>
<stop offset="0.515" stop-color="#55b2c2" stop-opacity="0.52" data-originalstopcolor="#55b2c2"/>
<stop offset="1" stop-color="#55b2c2" stop-opacity="0" data-originalstopcolor="#55b2c2"/>
</linearGradient>
<linearGradient id="paint7_linear_471_9830" x1="524.397" y1="238.292" x2="567.99" y2="203.736" gradientUnits="userSpaceOnUse">
<stop stop-color="#55b2c2" stop-opacity="0" data-originalstopcolor="#55b2c2"/>
<stop offset="0.515" stop-color="#55b2c2" stop-opacity="0.52" data-originalstopcolor="#55b2c2"/>
<stop offset="1" stop-color="#55b2c2" stop-opacity="0" data-originalstopcolor="#55b2c2"/>
</linearGradient>
<linearGradient id="paint8_linear_471_9830" x1="55.3971" y1="226.292" x2="98.9902" y2="191.736" gradientUnits="userSpaceOnUse">
<stop stop-color="#55b2c2" stop-opacity="0" data-originalstopcolor="#55b2c2"/>
<stop offset="0.515" stop-color="#55b2c2" stop-opacity="0.52" data-originalstopcolor="#55b2c2"/>
<stop offset="1" stop-color="#55b2c2" stop-opacity="0" data-originalstopcolor="#55b2c2"/>
</linearGradient>
<linearGradient id="paint9_linear_471_9830" x1="119.397" y1="99.2919" x2="162.99" y2="64.736" gradientUnits="userSpaceOnUse">
<stop stop-color="#55b2c2" stop-opacity="0" data-originalstopcolor="#55b2c2"/>
<stop offset="0.515" stop-color="#55b2c2" stop-opacity="0.52" data-originalstopcolor="#55b2c2"/>
<stop offset="1" stop-color="#55b2c2" stop-opacity="0" data-originalstopcolor="#55b2c2"/>
</linearGradient>
<linearGradient id="paint10_linear_471_9830" x1="587.004" y1="85.8084" x2="625.336" y2="55.423" gradientUnits="userSpaceOnUse">
<stop stop-color="#55b2c2" stop-opacity="0" data-originalstopcolor="#55b2c2"/>
<stop offset="0.515" stop-color="#55b2c2" stop-opacity="0.52" data-originalstopcolor="#55b2c2"/>
<stop offset="1" stop-color="#55b2c2" stop-opacity="0" data-originalstopcolor="#55b2c2"/>
</linearGradient>
<linearGradient id="paint11_linear_471_9830" x1="652.004" y1="187.808" x2="690.336" y2="157.423" gradientUnits="userSpaceOnUse">
<stop stop-color="#55b2c2" stop-opacity="0" data-originalstopcolor="#55b2c2"/>
<stop offset="0.515" stop-color="#55b2c2" stop-opacity="0.52" data-originalstopcolor="#55b2c2"/>
<stop offset="1" stop-color="#55b2c2" stop-opacity="0" data-originalstopcolor="#55b2c2"/>
</linearGradient>
<linearGradient id="paint12_linear_471_9830" x1="189.004" y1="236.808" x2="227.336" y2="206.423" gradientUnits="userSpaceOnUse">
<stop stop-color="#55b2c2" stop-opacity="0" data-originalstopcolor="#55b2c2"/>
<stop offset="0.515" stop-color="#55b2c2" stop-opacity="0.52" data-originalstopcolor="#55b2c2"/>
<stop offset="1" stop-color="#55b2c2" stop-opacity="0" data-originalstopcolor="#55b2c2"/>
</linearGradient>
<clipPath id="clip0_471_9830">
<rect width="690" height="252" fill="#ffffff"/>
</clipPath>
<clipPath id="clip1_471_9830">
<rect width="19" height="19" fill="#ffffff" transform="translate(479.5 84.5)"/>
</clipPath>
<clipPath id="clip2_471_9830">
<rect width="19" height="19" fill="#ffffff" transform="translate(198.5 95.5)"/>
</clipPath>
<clipPath id="clip3_471_9830">
<rect width="29" height="29" fill="#ffffff" transform="translate(502.5 182.5)"/>
</clipPath>
<clipPath id="clip4_471_9830">
<rect width="29" height="29" fill="#ffffff" transform="translate(33.5 170.5)"/>
</clipPath>
<clipPath id="clip5_471_9830">
<rect width="29" height="29" fill="#ffffff" transform="translate(97.5 43.5)"/>
</clipPath>
<clipPath id="clip6_471_9830">
<rect width="25.5" height="25.5" fill="#ffffff" transform="translate(567.75 36.75)"/>
</clipPath>
<clipPath id="clip7_471_9830">
<rect width="25.5" height="25.5" fill="#ffffff" transform="translate(632.75 138.75)"/>
</clipPath>
<clipPath id="clip8_471_9830">
<rect width="25.5" height="25.5" fill="#ffffff" transform="translate(169.75 187.75)"/>
</clipPath>
</defs>
</svg>