<svg width="486px" height="252px" viewBox="0 0 486 252" fill="none" xmlns="http://www.w3.org/2000/svg" transform="rotate(0) scale(1, 1)">
<g clip-path="url(#clip0_471_9992)">
<g filter="url(#filter0_f_471_9992)">
<circle cx="243.5" cy="126.5" r="104.5" fill="#55b2c2" fill-opacity="0.1"/>
</g>
<path d="M206.704 171.955H129.591C127.623 171.955 126.006 173.572 126.006 175.54V183.572C126.006 185.539 127.623 187.157 129.591 187.157H206.677C208.644 187.157 210.261 185.539 210.261 183.572H210.288V175.54C210.288 173.572 208.671 171.955 206.704 171.955ZM154.792 179.071H133.095C132.205 179.071 131.531 178.397 131.531 177.507C131.531 176.618 132.259 175.944 133.095 175.944H154.792C155.627 175.944 156.355 176.618 156.355 177.507C156.355 178.37 155.627 179.071 154.792 179.071ZM186.057 179.071H184.845C183.955 179.071 183.281 178.397 183.281 177.507C183.281 176.618 184.009 175.944 184.845 175.944H186.057C186.947 175.944 187.621 176.618 187.621 177.507C187.648 178.37 186.92 179.071 186.057 179.071ZM191.745 179.071H190.532C189.642 179.071 188.968 178.397 188.968 177.507C188.968 176.618 189.696 175.944 190.532 175.944H191.745C192.634 175.944 193.308 176.618 193.308 177.507C193.308 178.37 192.607 179.071 191.745 179.071ZM197.432 179.071H196.219C195.329 179.071 194.655 178.397 194.655 177.507C194.655 176.618 195.383 175.944 196.219 175.944H197.432C198.321 175.944 198.995 176.618 198.995 177.507C198.995 178.37 198.267 179.071 197.432 179.071ZM203.146 179.071H201.933C201.043 179.071 200.37 178.397 200.37 177.507C200.37 176.618 201.097 175.944 201.933 175.944H203.146C203.981 175.944 204.709 176.618 204.709 177.507C204.736 178.37 204.008 179.071 203.146 179.071Z" fill="#55b2c2"/>
<path d="M206.704 136.323H129.591C127.623 136.323 126.006 137.94 126.006 139.908V147.94C126.006 149.907 127.623 151.525 129.591 151.525H206.677C208.644 151.525 210.261 149.907 210.261 147.94H210.288V139.908C210.288 137.94 208.671 136.323 206.704 136.323ZM154.792 143.385H133.095C132.205 143.385 131.531 142.657 131.531 141.822C131.531 140.932 132.259 140.258 133.095 140.258H154.792C155.627 140.258 156.355 140.986 156.355 141.822C156.355 142.684 155.627 143.385 154.792 143.385ZM186.057 143.385H184.845C183.955 143.385 183.281 142.657 183.281 141.822C183.281 140.932 184.009 140.258 184.845 140.258H186.057C186.947 140.258 187.621 140.986 187.621 141.822C187.648 142.684 186.92 143.385 186.057 143.385ZM191.745 143.385H190.532C189.642 143.385 188.968 142.657 188.968 141.822C188.968 140.932 189.696 140.258 190.532 140.258H191.745C192.634 140.258 193.308 140.986 193.308 141.822C193.308 142.684 192.607 143.385 191.745 143.385ZM197.432 143.385H196.219C195.329 143.385 194.655 142.657 194.655 141.822C194.655 140.932 195.383 140.258 196.219 140.258H197.432C198.321 140.258 198.995 140.986 198.995 141.822C198.995 142.684 198.267 143.385 197.432 143.385ZM203.146 143.385H201.933C201.043 143.385 200.37 142.657 200.37 141.822C200.37 140.932 201.097 140.258 201.933 140.258H203.146C203.981 140.258 204.682 140.986 204.709 141.822C204.736 142.684 204.008 143.385 203.146 143.385Z" fill="#55b2c2"/>
<path d="M206.704 118.453H129.591C127.623 118.453 126.006 120.07 126.006 122.038V130.07C126.006 132.038 127.623 133.655 129.591 133.655H206.677C208.644 133.655 210.261 132.038 210.261 130.07H210.288V122.038C210.288 120.07 208.671 118.453 206.704 118.453ZM154.792 125.569H133.095C132.205 125.569 131.531 124.841 131.531 124.005C131.531 123.116 132.259 122.442 133.095 122.442H154.792C155.627 122.442 156.355 123.17 156.355 124.005C156.355 124.868 155.627 125.569 154.792 125.569ZM186.057 125.569H184.845C183.955 125.569 183.281 124.841 183.281 124.005C183.281 123.116 184.009 122.442 184.845 122.442H186.057C186.947 122.442 187.621 123.17 187.621 124.005C187.648 124.868 186.92 125.569 186.057 125.569ZM191.745 125.569H190.532C189.642 125.569 188.968 124.841 188.968 124.005C188.968 123.116 189.696 122.442 190.532 122.442H191.745C192.634 122.442 193.308 123.17 193.308 124.005C193.308 124.868 192.607 125.569 191.745 125.569ZM197.432 125.569H196.219C195.329 125.569 194.655 124.841 194.655 124.005C194.655 123.116 195.383 122.442 196.219 122.442H197.432C198.321 122.442 198.995 123.17 198.995 124.005C198.995 124.868 198.267 125.569 197.432 125.569ZM203.146 125.569H201.933C201.043 125.569 200.37 124.841 200.37 124.005C200.37 123.116 201.097 122.442 201.933 122.442H203.146C203.981 122.442 204.682 123.17 204.709 124.005C204.736 124.868 204.008 125.569 203.146 125.569Z" fill="#55b2c2"/>
<path d="M206.704 82.8211H129.591C127.623 82.8211 126.006 84.4383 126.006 86.4059V94.4379C126.006 96.4055 127.623 98.0227 129.591 98.0227H206.677C208.644 98.0227 210.261 96.4055 210.261 94.4379H210.288V86.4059C210.288 84.4383 208.671 82.8211 206.704 82.8211ZM154.792 89.9098H133.095C132.205 89.9098 131.531 89.2359 131.531 88.3465C131.531 87.457 132.259 86.7832 133.095 86.7832H154.792C155.627 86.7832 156.355 87.457 156.355 88.3465C156.355 89.2359 155.627 89.9098 154.792 89.9098ZM186.057 89.9098H184.845C183.955 89.9098 183.281 89.2359 183.281 88.3465C183.281 87.457 184.009 86.7832 184.845 86.7832H186.057C186.947 86.7832 187.621 87.457 187.621 88.3465C187.648 89.2359 186.92 89.9098 186.057 89.9098ZM191.745 89.9098H190.532C189.642 89.9098 188.968 89.2359 188.968 88.3465C188.968 87.457 189.696 86.7832 190.532 86.7832H191.745C192.634 86.7832 193.308 87.457 193.308 88.3465C193.308 89.2359 192.607 89.9098 191.745 89.9098ZM197.432 89.9098H196.219C195.329 89.9098 194.655 89.2359 194.655 88.3465C194.655 87.457 195.383 86.7832 196.219 86.7832H197.432C198.321 86.7832 198.995 87.457 198.995 88.3465C198.995 89.2359 198.267 89.9098 197.432 89.9098ZM203.146 89.9098H201.933C201.043 89.9098 200.37 89.2359 200.37 88.3465C200.37 87.457 201.097 86.7832 201.933 86.7832H203.146C203.981 86.7832 204.709 87.457 204.709 88.3465C204.736 89.2359 204.008 89.9098 203.146 89.9098Z" fill="#55b2c2"/>
<path d="M206.704 100.637H129.591C127.623 100.637 126.006 102.254 126.006 104.222V112.254C126.006 114.221 127.623 115.839 129.591 115.839H206.677C208.644 115.839 210.261 114.221 210.261 112.254H210.288V104.222C210.288 102.254 208.671 100.637 206.704 100.637ZM154.792 107.726H133.095C132.205 107.726 131.531 107.052 131.531 106.162C131.531 105.273 132.259 104.599 133.095 104.599H154.792C155.627 104.599 156.355 105.273 156.355 106.162C156.355 107.052 155.627 107.726 154.792 107.726ZM186.057 107.726H184.845C183.955 107.726 183.281 107.052 183.281 106.162C183.281 105.273 184.009 104.599 184.845 104.599H186.057C186.947 104.599 187.621 105.273 187.621 106.162C187.648 107.052 186.92 107.726 186.057 107.726ZM191.745 107.726H190.532C189.642 107.726 188.968 107.052 188.968 106.162C188.968 105.273 189.696 104.599 190.532 104.599H191.745C192.634 104.599 193.308 105.273 193.308 106.162C193.308 107.052 192.607 107.726 191.745 107.726ZM197.432 107.726H196.219C195.329 107.726 194.655 107.052 194.655 106.162C194.655 105.273 195.383 104.599 196.219 104.599H197.432C198.321 104.599 198.995 105.273 198.995 106.162C198.995 107.052 198.267 107.726 197.432 107.726ZM203.146 107.726H201.933C201.043 107.726 200.37 107.052 200.37 106.162C200.37 105.273 201.097 104.599 201.933 104.599H203.146C203.981 104.599 204.709 105.273 204.709 106.162C204.736 107.052 204.008 107.726 203.146 107.726Z" fill="#55b2c2"/>
<path d="M206.704 154.139H129.591C127.623 154.139 126.006 155.756 126.006 157.724V165.756C126.006 167.723 127.623 169.341 129.591 169.341H206.677C208.644 169.341 210.261 167.723 210.261 165.756H210.288V157.724C210.288 155.756 208.671 154.139 206.704 154.139ZM154.792 161.228H133.095C132.205 161.228 131.531 160.5 131.531 159.664C131.531 158.775 132.259 158.101 133.095 158.101H154.792C155.627 158.101 156.355 158.775 156.355 159.664C156.355 160.554 155.627 161.228 154.792 161.228ZM186.057 161.228H184.845C183.955 161.228 183.281 160.5 183.281 159.664C183.281 158.775 184.009 158.101 184.845 158.101H186.057C186.947 158.101 187.621 158.775 187.621 159.664C187.648 160.554 186.92 161.228 186.057 161.228ZM191.745 161.228H190.532C189.642 161.228 188.968 160.5 188.968 159.664C188.968 158.775 189.696 158.101 190.532 158.101H191.745C192.634 158.101 193.308 158.775 193.308 159.664C193.308 160.554 192.607 161.228 191.745 161.228ZM197.432 161.228H196.219C195.329 161.228 194.655 160.5 194.655 159.664C194.655 158.775 195.383 158.101 196.219 158.101H197.432C198.321 158.101 198.995 158.775 198.995 159.664C198.995 160.554 198.267 161.228 197.432 161.228ZM203.146 161.228H201.933C201.043 161.228 200.37 160.5 200.37 159.664C200.37 158.775 201.097 158.101 201.933 158.101H203.146C203.981 158.101 204.682 158.775 204.709 159.664C204.736 160.554 204.008 161.228 203.146 161.228Z" fill="#55b2c2"/>
<path d="M208.643 57H127.568C122.286 57 118 61.2855 118 66.5684V185.432C118 190.714 122.286 195 127.568 195H208.643C213.926 195 218.212 190.714 218.212 185.432V66.5684C218.212 61.2855 213.926 57 208.643 57ZM213.306 184.111C213.306 187.453 210.557 190.202 207.215 190.202H128.97C125.628 190.202 122.879 187.453 122.879 184.111V67.8891C122.879 64.5469 125.628 61.7977 128.97 61.7977H207.215C210.611 61.7977 213.333 64.5469 213.306 67.8891V184.111Z" fill="#55b2c2"/>
<path d="M206.704 64.9512H129.591C127.623 64.9512 126.006 66.5684 126.006 68.5359V76.568C126.006 78.5355 127.623 80.1527 129.591 80.1527H206.677C208.644 80.1527 210.261 78.5355 210.261 76.568H210.288V68.5359C210.288 66.5684 208.671 64.9512 206.704 64.9512ZM154.792 72.0398H133.095C132.205 72.0398 131.531 71.366 131.531 70.4766C131.531 69.5871 132.259 68.9133 133.095 68.9133H154.792C155.627 68.9133 156.355 69.5871 156.355 70.4766C156.355 71.366 155.627 72.0398 154.792 72.0398ZM186.057 72.0398H184.845C183.955 72.0398 183.281 71.366 183.281 70.4766C183.281 69.5871 184.009 68.9133 184.845 68.9133H186.057C186.947 68.9133 187.621 69.5871 187.621 70.4766C187.648 71.366 186.92 72.0398 186.057 72.0398ZM191.745 72.0398H190.532C189.642 72.0398 188.968 71.366 188.968 70.4766C188.968 69.5871 189.696 68.9133 190.532 68.9133H191.745C192.634 68.9133 193.308 69.5871 193.308 70.4766C193.308 71.366 192.607 72.0398 191.745 72.0398ZM197.432 72.0398H196.219C195.329 72.0398 194.655 71.366 194.655 70.4766C194.655 69.5871 195.383 68.9133 196.219 68.9133H197.432C198.321 68.9133 198.995 69.5871 198.995 70.4766C198.995 71.366 198.267 72.0398 197.432 72.0398ZM203.146 72.0398H201.933C201.043 72.0398 200.37 71.366 200.37 70.4766C200.37 69.5871 201.097 68.9133 201.933 68.9133H203.146C203.981 68.9133 204.709 69.5871 204.709 70.4766C204.736 71.366 204.008 72.0398 203.146 72.0398Z" fill="#55b2c2"/>
<path d="M360.534 35.9519C360.387 36.0999 360.212 36.2173 360.019 36.2974C359.826 36.3775 359.619 36.4187 359.41 36.4187C359.202 36.4187 358.995 36.3775 358.802 36.2974C358.609 36.2173 358.434 36.0999 358.287 35.9519L356.76 34.4275V41.1887C356.76 41.6105 356.593 42.0149 356.295 42.3131C355.996 42.6113 355.592 42.7789 355.17 42.7789C354.749 42.7789 354.344 42.6113 354.046 42.3131C353.748 42.0149 353.58 41.6105 353.58 41.1887V34.4275L352.054 35.9519C351.752 36.2328 351.354 36.3857 350.942 36.3784C350.53 36.3712 350.137 36.2043 349.845 35.9129C349.554 35.6216 349.387 35.2286 349.38 34.8166C349.373 34.4046 349.526 34.006 349.806 33.7045L354.047 29.4642C354.345 29.1669 354.749 29 355.17 29C355.591 29 355.996 29.1669 356.294 29.4642L360.534 33.7045C360.682 33.852 360.799 34.0272 360.879 34.22C360.959 34.4128 361 34.6195 361 34.8282C361 35.0369 360.959 35.2436 360.879 35.4364C360.799 35.6293 360.682 35.8044 360.534 35.9519ZM359.41 51.7896C359.412 54.6255 358.844 57.4327 357.741 60.0452C356.638 62.6577 355.022 65.0224 352.989 66.9993C350.956 68.9762 348.547 70.525 345.904 71.5543C343.262 72.5835 340.44 73.0722 337.605 72.9914C332.209 72.7844 327.089 70.5478 323.271 66.729C319.452 62.9102 317.216 57.7905 317.009 52.3939C316.928 49.5592 317.416 46.7371 318.446 44.0946C319.475 41.4522 321.024 39.043 323 37.0098C324.977 34.9766 327.342 33.3606 329.954 32.2575C332.567 31.1545 335.374 30.5867 338.21 30.5879C340.934 30.5779 343.634 31.1061 346.154 32.1419C346.233 32.1771 346.305 32.2279 346.364 32.2914C346.424 32.3549 346.47 32.4298 346.5 32.5116C346.53 32.5934 346.543 32.6803 346.538 32.7673C346.534 32.8542 346.512 32.9394 346.474 33.0176C345.851 34.3927 345.564 35.8959 345.636 37.4036C345.707 38.9113 346.136 40.3805 346.885 41.6905C347.635 43.0005 348.685 44.114 349.949 44.9393C351.212 45.7647 352.654 46.2784 354.155 46.4383C355.423 46.5703 356.706 46.4514 357.929 46.0885C358.01 46.0613 358.095 46.0509 358.181 46.0576C358.266 46.0644 358.349 46.0883 358.425 46.1279C358.5 46.1675 358.567 46.2219 358.622 46.288C358.676 46.3541 358.716 46.4304 358.741 46.5125C359.187 48.2359 359.413 50.0092 359.41 51.7896ZM344.51 56.066C344.51 54.826 344.096 53.6216 343.333 52.644C342.57 51.6664 341.503 50.9717 340.3 50.6702L336.891 49.8221C336.37 49.6919 335.909 49.3892 335.583 48.9634C335.259 48.5489 335.085 48.0371 335.089 47.5111C335.09 46.8807 335.341 46.2765 335.787 45.831C336.233 45.3855 336.837 45.1349 337.467 45.1344H338.952C339.538 45.1354 340.103 45.3522 340.539 45.7432C340.975 46.1342 341.252 46.6722 341.318 47.2546C341.335 47.4667 341.395 47.6731 341.493 47.8617C341.592 48.0503 341.727 48.2172 341.892 48.3524C342.056 48.4877 342.246 48.5886 342.45 48.6492C342.654 48.7097 342.868 48.7287 343.079 48.705C343.291 48.6813 343.496 48.6154 343.681 48.5112C343.867 48.4069 344.029 48.2665 344.16 48.0982C344.29 47.93 344.385 47.7372 344.44 47.5315C344.494 47.3258 344.507 47.1112 344.477 46.9005C344.34 45.6794 343.802 44.538 342.948 43.6555C342.093 42.7729 340.969 42.1991 339.753 42.0241V41.1887C339.753 40.767 339.585 40.3626 339.287 40.0643C338.989 39.7661 338.585 39.5986 338.163 39.5986C337.741 39.5986 337.337 39.7661 337.039 40.0643C336.74 40.3626 336.573 40.767 336.573 41.1887V42.0368C335.312 42.242 334.16 42.8761 333.312 43.832C332.464 44.7879 331.972 46.0071 331.919 47.2838C331.865 48.5605 332.254 49.8165 333.019 50.8398C333.785 51.8631 334.879 52.591 336.119 52.9006L339.528 53.7487C340.091 53.8904 340.583 54.2327 340.911 54.7114C341.239 55.1901 341.381 55.7721 341.31 56.3481C341.239 56.9241 340.96 57.4544 340.526 57.8393C340.092 58.2243 339.532 58.4373 338.952 58.4385H337.467C336.882 58.4374 336.317 58.2207 335.88 57.8297C335.444 57.4386 335.167 56.9007 335.101 56.3183C335.084 56.1062 335.024 55.8997 334.926 55.7112C334.827 55.5226 334.692 55.3557 334.527 55.2204C334.363 55.0852 334.173 54.9843 333.969 54.9237C333.765 54.8632 333.551 54.8442 333.34 54.8679C333.128 54.8916 332.924 54.9575 332.738 55.0617C332.552 55.1659 332.39 55.3064 332.259 55.4746C332.129 55.6429 332.034 55.8356 331.98 56.0414C331.925 56.2471 331.913 56.4617 331.943 56.6724C332.076 57.8786 332.601 59.0079 333.437 59.8874C334.274 60.7669 335.375 61.3482 336.573 61.5424V62.3905C336.573 62.8122 336.74 63.2167 337.039 63.5149C337.337 63.8131 337.741 63.9806 338.163 63.9806C338.585 63.9806 338.989 63.8131 339.287 63.5149C339.585 63.2167 339.753 62.8122 339.753 62.3905V61.5424C341.074 61.3563 342.282 60.6991 343.157 59.6919C344.031 58.6847 344.512 57.3955 344.51 56.0618V56.066Z" fill="#55b2c2"/>
<path d="M360.534 110.952C360.387 111.1 360.212 111.217 360.019 111.297C359.826 111.377 359.619 111.419 359.41 111.419C359.202 111.419 358.995 111.377 358.802 111.297C358.609 111.217 358.434 111.1 358.287 110.952L356.76 109.427V116.189C356.76 116.61 356.593 117.015 356.295 117.313C355.996 117.611 355.592 117.779 355.17 117.779C354.749 117.779 354.344 117.611 354.046 117.313C353.748 117.015 353.58 116.61 353.58 116.189V109.427L352.054 110.952C351.752 111.233 351.354 111.386 350.942 111.378C350.53 111.371 350.137 111.204 349.845 110.913C349.554 110.622 349.387 110.229 349.38 109.817C349.373 109.405 349.526 109.006 349.806 108.705L354.047 104.464C354.345 104.167 354.749 104 355.17 104C355.591 104 355.996 104.167 356.294 104.464L360.534 108.705C360.682 108.852 360.799 109.027 360.879 109.22C360.959 109.413 361 109.619 361 109.828C361 110.037 360.959 110.244 360.879 110.436C360.799 110.629 360.682 110.804 360.534 110.952ZM359.41 126.79C359.412 129.625 358.844 132.433 357.741 135.045C356.638 137.658 355.022 140.022 352.989 141.999C350.956 143.976 348.547 145.525 345.904 146.554C343.262 147.584 340.44 148.072 337.605 147.991C332.209 147.784 327.089 145.548 323.271 141.729C319.452 137.91 317.216 132.791 317.009 127.394C316.928 124.559 317.416 121.737 318.446 119.095C319.475 116.452 321.024 114.043 323 112.01C324.977 109.977 327.342 108.361 329.954 107.258C332.567 106.154 335.374 105.587 338.21 105.588C340.934 105.578 343.634 106.106 346.154 107.142C346.233 107.177 346.305 107.228 346.364 107.291C346.424 107.355 346.47 107.43 346.5 107.512C346.53 107.593 346.543 107.68 346.538 107.767C346.534 107.854 346.512 107.939 346.474 108.018C345.851 109.393 345.564 110.896 345.636 112.404C345.707 113.911 346.136 115.381 346.885 116.691C347.635 118.001 348.685 119.114 349.949 119.939C351.212 120.765 352.654 121.278 354.155 121.438C355.423 121.57 356.706 121.451 357.929 121.088C358.01 121.061 358.095 121.051 358.181 121.058C358.266 121.064 358.349 121.088 358.425 121.128C358.5 121.167 358.567 121.222 358.622 121.288C358.676 121.354 358.716 121.43 358.741 121.513C359.187 123.236 359.413 125.009 359.41 126.79ZM344.51 131.066C344.51 129.826 344.096 128.622 343.333 127.644C342.57 126.666 341.503 125.972 340.3 125.67L336.891 124.822C336.37 124.692 335.909 124.389 335.583 123.963C335.259 123.549 335.085 123.037 335.089 122.511C335.09 121.881 335.341 121.277 335.787 120.831C336.233 120.385 336.837 120.135 337.467 120.134H338.952C339.538 120.135 340.103 120.352 340.539 120.743C340.975 121.134 341.252 121.672 341.318 122.255C341.335 122.467 341.395 122.673 341.493 122.862C341.592 123.05 341.727 123.217 341.892 123.352C342.056 123.488 342.246 123.589 342.45 123.649C342.654 123.71 342.868 123.729 343.079 123.705C343.291 123.681 343.496 123.615 343.681 123.511C343.867 123.407 344.029 123.267 344.16 123.098C344.29 122.93 344.385 122.737 344.44 122.532C344.494 122.326 344.507 122.111 344.477 121.9C344.34 120.679 343.802 119.538 342.948 118.655C342.093 117.773 340.969 117.199 339.753 117.024V116.189C339.753 115.767 339.585 115.363 339.287 115.064C338.989 114.766 338.585 114.599 338.163 114.599C337.741 114.599 337.337 114.766 337.039 115.064C336.74 115.363 336.573 115.767 336.573 116.189V117.037C335.312 117.242 334.16 117.876 333.312 118.832C332.464 119.788 331.972 121.007 331.919 122.284C331.865 123.56 332.254 124.816 333.019 125.84C333.785 126.863 334.879 127.591 336.119 127.901L339.528 128.749C340.091 128.89 340.583 129.233 340.911 129.711C341.239 130.19 341.381 130.772 341.31 131.348C341.239 131.924 340.96 132.454 340.526 132.839C340.092 133.224 339.532 133.437 338.952 133.438H337.467C336.882 133.437 336.317 133.221 335.88 132.83C335.444 132.439 335.167 131.901 335.101 131.318C335.084 131.106 335.024 130.9 334.926 130.711C334.827 130.523 334.692 130.356 334.527 130.22C334.363 130.085 334.173 129.984 333.969 129.924C333.765 129.863 333.551 129.844 333.34 129.868C333.128 129.892 332.924 129.957 332.738 130.062C332.552 130.166 332.39 130.306 332.259 130.475C332.129 130.643 332.034 130.836 331.98 131.041C331.925 131.247 331.913 131.462 331.943 131.672C332.076 132.879 332.601 134.008 333.437 134.887C334.274 135.767 335.375 136.348 336.573 136.542V137.391C336.573 137.812 336.74 138.217 337.039 138.515C337.337 138.813 337.741 138.981 338.163 138.981C338.585 138.981 338.989 138.813 339.287 138.515C339.585 138.217 339.753 137.812 339.753 137.391V136.542C341.074 136.356 342.282 135.699 343.157 134.692C344.031 133.685 344.512 132.395 344.51 131.062V131.066Z" fill="#55b2c2"/>
<path d="M360.534 186.952C360.387 187.1 360.212 187.217 360.019 187.297C359.826 187.377 359.619 187.419 359.41 187.419C359.202 187.419 358.995 187.377 358.802 187.297C358.609 187.217 358.434 187.1 358.287 186.952L356.76 185.427V192.189C356.76 192.61 356.593 193.015 356.295 193.313C355.996 193.611 355.592 193.779 355.17 193.779C354.749 193.779 354.344 193.611 354.046 193.313C353.748 193.015 353.58 192.61 353.58 192.189V185.427L352.054 186.952C351.752 187.233 351.354 187.386 350.942 187.378C350.53 187.371 350.137 187.204 349.845 186.913C349.554 186.622 349.387 186.229 349.38 185.817C349.373 185.405 349.526 185.006 349.806 184.705L354.047 180.464C354.345 180.167 354.749 180 355.17 180C355.591 180 355.996 180.167 356.294 180.464L360.534 184.705C360.682 184.852 360.799 185.027 360.879 185.22C360.959 185.413 361 185.619 361 185.828C361 186.037 360.959 186.244 360.879 186.436C360.799 186.629 360.682 186.804 360.534 186.952ZM359.41 202.79C359.412 205.625 358.844 208.433 357.741 211.045C356.638 213.658 355.022 216.022 352.989 217.999C350.956 219.976 348.547 221.525 345.904 222.554C343.262 223.584 340.44 224.072 337.605 223.991C332.209 223.784 327.089 221.548 323.271 217.729C319.452 213.91 317.216 208.791 317.009 203.394C316.928 200.559 317.416 197.737 318.446 195.095C319.475 192.452 321.024 190.043 323 188.01C324.977 185.977 327.342 184.361 329.954 183.258C332.567 182.154 335.374 181.587 338.21 181.588C340.934 181.578 343.634 182.106 346.154 183.142C346.233 183.177 346.305 183.228 346.364 183.291C346.424 183.355 346.47 183.43 346.5 183.512C346.53 183.593 346.543 183.68 346.538 183.767C346.534 183.854 346.512 183.939 346.474 184.018C345.851 185.393 345.564 186.896 345.636 188.404C345.707 189.911 346.136 191.381 346.885 192.691C347.635 194.001 348.685 195.114 349.949 195.939C351.212 196.765 352.654 197.278 354.155 197.438C355.423 197.57 356.706 197.451 357.929 197.088C358.01 197.061 358.095 197.051 358.181 197.058C358.266 197.064 358.349 197.088 358.425 197.128C358.5 197.167 358.567 197.222 358.622 197.288C358.676 197.354 358.716 197.43 358.741 197.513C359.187 199.236 359.413 201.009 359.41 202.79ZM344.51 207.066C344.51 205.826 344.096 204.622 343.333 203.644C342.57 202.666 341.503 201.972 340.3 201.67L336.891 200.822C336.37 200.692 335.909 200.389 335.583 199.963C335.259 199.549 335.085 199.037 335.089 198.511C335.09 197.881 335.341 197.277 335.787 196.831C336.233 196.385 336.837 196.135 337.467 196.134H338.952C339.538 196.135 340.103 196.352 340.539 196.743C340.975 197.134 341.252 197.672 341.318 198.255C341.335 198.467 341.395 198.673 341.493 198.862C341.592 199.05 341.727 199.217 341.892 199.352C342.056 199.488 342.246 199.589 342.45 199.649C342.654 199.71 342.868 199.729 343.079 199.705C343.291 199.681 343.496 199.615 343.681 199.511C343.867 199.407 344.029 199.267 344.16 199.098C344.29 198.93 344.385 198.737 344.44 198.532C344.494 198.326 344.507 198.111 344.477 197.9C344.34 196.679 343.802 195.538 342.948 194.655C342.093 193.773 340.969 193.199 339.753 193.024V192.189C339.753 191.767 339.585 191.363 339.287 191.064C338.989 190.766 338.585 190.599 338.163 190.599C337.741 190.599 337.337 190.766 337.039 191.064C336.74 191.363 336.573 191.767 336.573 192.189V193.037C335.312 193.242 334.16 193.876 333.312 194.832C332.464 195.788 331.972 197.007 331.919 198.284C331.865 199.56 332.254 200.816 333.019 201.84C333.785 202.863 334.879 203.591 336.119 203.901L339.528 204.749C340.091 204.89 340.583 205.233 340.911 205.711C341.239 206.19 341.381 206.772 341.31 207.348C341.239 207.924 340.96 208.454 340.526 208.839C340.092 209.224 339.532 209.437 338.952 209.438H337.467C336.882 209.437 336.317 209.221 335.88 208.83C335.444 208.439 335.167 207.901 335.101 207.318C335.084 207.106 335.024 206.9 334.926 206.711C334.827 206.523 334.692 206.356 334.527 206.22C334.363 206.085 334.173 205.984 333.969 205.924C333.765 205.863 333.551 205.844 333.34 205.868C333.128 205.892 332.924 205.957 332.738 206.062C332.552 206.166 332.39 206.306 332.259 206.475C332.129 206.643 332.034 206.836 331.98 207.041C331.925 207.247 331.913 207.462 331.943 207.672C332.076 208.879 332.601 210.008 333.437 210.887C334.274 211.767 335.375 212.348 336.573 212.542V213.391C336.573 213.812 336.74 214.217 337.039 214.515C337.337 214.813 337.741 214.981 338.163 214.981C338.585 214.981 338.989 214.813 339.287 214.515C339.585 214.217 339.753 213.812 339.753 213.391V212.542C341.074 212.356 342.282 211.699 343.157 210.692C344.031 209.685 344.512 208.395 344.51 207.062V207.066Z" fill="#55b2c2"/>
<path d="M221 122H251.292C255.71 122 259.292 118.418 259.292 114V60C259.292 55.5817 262.874 52 267.292 52H313" stroke="url(#paint0_linear_471_9992)" stroke-linejoin="round" stroke-dasharray="4 4"/>
<path d="M221 130H251.292C255.71 130 259.292 133.582 259.292 138V196C259.292 200.418 262.874 204 267.292 204H313" stroke="url(#paint1_linear_471_9992)" stroke-linejoin="round" stroke-dasharray="4 4"/>
<path d="M221 126H313" stroke="url(#paint2_linear_471_9992)" stroke-linejoin="round" stroke-dasharray="4 4"/>
</g>
<defs>
<filter id="filter0_f_471_9992" x="-61" y="-178" width="609" height="609" filterUnits="userSpaceOnUse" color-interpolation-filters="sRGB">
<feFlood flood-opacity="0" result="BackgroundImageFix"/>
<feBlend mode="normal" in="SourceGraphic" in2="BackgroundImageFix" result="shape"/>
<feGaussianBlur stdDeviation="100" result="effect1_foregroundBlur_471_9992"/>
</filter>
<linearGradient id="paint0_linear_471_9992" x1="307.091" y1="117.042" x2="262.936" y2="115.658" gradientUnits="userSpaceOnUse">
<stop stop-color="#ffffff" stop-opacity="0.12" data-originalstopcolor="#ffffff"/>
<stop offset="0.527508" stop-color="#ffffff" stop-opacity="0.17" data-originalstopcolor="#ffffff"/>
<stop offset="1" stop-color="#ffffff" stop-opacity="0.2" data-originalstopcolor="#ffffff"/>
</linearGradient>
<linearGradient id="paint1_linear_471_9992" x1="307.091" y1="135.241" x2="262.932" y2="136.55" gradientUnits="userSpaceOnUse">
<stop stop-color="#ffffff" stop-opacity="0.12" data-originalstopcolor="#ffffff"/>
<stop offset="0.527508" stop-color="#ffffff" stop-opacity="0.17" data-originalstopcolor="#ffffff"/>
<stop offset="1" stop-color="#ffffff" stop-opacity="0.2" data-originalstopcolor="#ffffff"/>
</linearGradient>
<linearGradient id="paint2_linear_471_9992" x1="226.909" y1="126.071" x2="234.511" y2="142.75" gradientUnits="userSpaceOnUse">
<stop stop-color="#ffffff" stop-opacity="0.12" data-originalstopcolor="#ffffff"/>
<stop offset="0.527508" stop-color="#ffffff" stop-opacity="0.17" data-originalstopcolor="#ffffff"/>
<stop offset="1" stop-color="#ffffff" stop-opacity="0.2" data-originalstopcolor="#ffffff"/>
</linearGradient>
<clipPath id="clip0_471_9992">
<rect width="486" height="252" fill="#ffffff"/>
</clipPath>
</defs>
</svg>