<svg width="345px" height="252px" viewBox="0 0 345 252" fill="none" xmlns="http://www.w3.org/2000/svg" transform="rotate(0) scale(1, 1)">
<g clip-path="url(#clip0_490_14161)">
<g filter="url(#filter0_f_490_14161)">
<circle cx="176.5" cy="126.5" r="104.5" fill="#55b2c2" fill-opacity="0.1"/>
</g>
<path d="M139.704 171.955H62.5906C60.623 171.955 59.0059 173.572 59.0059 175.54V183.572C59.0059 185.539 60.623 187.157 62.5906 187.157H139.677C141.644 187.157 143.261 185.539 143.261 183.572H143.288V175.54C143.288 173.572 141.671 171.955 139.704 171.955ZM87.7918 179.071H66.0945C65.2051 179.071 64.5312 178.397 64.5312 177.507C64.5312 176.618 65.259 175.944 66.0945 175.944H87.7918C88.6273 175.944 89.3551 176.618 89.3551 177.507C89.3551 178.37 88.6273 179.071 87.7918 179.071ZM119.057 179.071H117.845C116.955 179.071 116.281 178.397 116.281 177.507C116.281 176.618 117.009 175.944 117.845 175.944H119.057C119.947 175.944 120.621 176.618 120.621 177.507C120.648 178.37 119.92 179.071 119.057 179.071ZM124.745 179.071H123.532C122.642 179.071 121.968 178.397 121.968 177.507C121.968 176.618 122.696 175.944 123.532 175.944H124.745C125.634 175.944 126.308 176.618 126.308 177.507C126.308 178.37 125.607 179.071 124.745 179.071ZM130.432 179.071H129.219C128.329 179.071 127.655 178.397 127.655 177.507C127.655 176.618 128.383 175.944 129.219 175.944H130.432C131.321 175.944 131.995 176.618 131.995 177.507C131.995 178.37 131.267 179.071 130.432 179.071ZM136.146 179.071H134.933C134.043 179.071 133.37 178.397 133.37 177.507C133.37 176.618 134.097 175.944 134.933 175.944H136.146C136.981 175.944 137.709 176.618 137.709 177.507C137.736 178.37 137.008 179.071 136.146 179.071Z" fill="#55b2c2"/>
<path d="M139.704 136.323H62.5906C60.623 136.323 59.0059 137.94 59.0059 139.908V147.94C59.0059 149.907 60.623 151.525 62.5906 151.525H139.677C141.644 151.525 143.261 149.907 143.261 147.94H143.288V139.908C143.288 137.94 141.671 136.323 139.704 136.323ZM87.7918 143.385H66.0945C65.2051 143.385 64.5312 142.657 64.5312 141.821C64.5312 140.932 65.259 140.258 66.0945 140.258H87.7918C88.6273 140.258 89.3551 140.986 89.3551 141.821C89.3551 142.684 88.6273 143.385 87.7918 143.385ZM119.057 143.385H117.845C116.955 143.385 116.281 142.657 116.281 141.821C116.281 140.932 117.009 140.258 117.845 140.258H119.057C119.947 140.258 120.621 140.986 120.621 141.821C120.648 142.684 119.92 143.385 119.057 143.385ZM124.745 143.385H123.532C122.642 143.385 121.968 142.657 121.968 141.821C121.968 140.932 122.696 140.258 123.532 140.258H124.745C125.634 140.258 126.308 140.986 126.308 141.821C126.308 142.684 125.607 143.385 124.745 143.385ZM130.432 143.385H129.219C128.329 143.385 127.655 142.657 127.655 141.821C127.655 140.932 128.383 140.258 129.219 140.258H130.432C131.321 140.258 131.995 140.986 131.995 141.821C131.995 142.684 131.267 143.385 130.432 143.385ZM136.146 143.385H134.933C134.043 143.385 133.37 142.657 133.37 141.821C133.37 140.932 134.097 140.258 134.933 140.258H136.146C136.981 140.258 137.682 140.986 137.709 141.821C137.736 142.684 137.008 143.385 136.146 143.385Z" fill="#55b2c2"/>
<path d="M139.704 118.453H62.5906C60.623 118.453 59.0059 120.07 59.0059 122.038V130.07C59.0059 132.038 60.623 133.655 62.5906 133.655H139.677C141.644 133.655 143.261 132.038 143.261 130.07H143.288V122.038C143.288 120.07 141.671 118.453 139.704 118.453ZM87.7918 125.569H66.0945C65.2051 125.569 64.5312 124.841 64.5312 124.005C64.5312 123.116 65.259 122.442 66.0945 122.442H87.7918C88.6273 122.442 89.3551 123.17 89.3551 124.005C89.3551 124.868 88.6273 125.569 87.7918 125.569ZM119.057 125.569H117.845C116.955 125.569 116.281 124.841 116.281 124.005C116.281 123.116 117.009 122.442 117.845 122.442H119.057C119.947 122.442 120.621 123.17 120.621 124.005C120.648 124.868 119.92 125.569 119.057 125.569ZM124.745 125.569H123.532C122.642 125.569 121.968 124.841 121.968 124.005C121.968 123.116 122.696 122.442 123.532 122.442H124.745C125.634 122.442 126.308 123.17 126.308 124.005C126.308 124.868 125.607 125.569 124.745 125.569ZM130.432 125.569H129.219C128.329 125.569 127.655 124.841 127.655 124.005C127.655 123.116 128.383 122.442 129.219 122.442H130.432C131.321 122.442 131.995 123.17 131.995 124.005C131.995 124.868 131.267 125.569 130.432 125.569ZM136.146 125.569H134.933C134.043 125.569 133.37 124.841 133.37 124.005C133.37 123.116 134.097 122.442 134.933 122.442H136.146C136.981 122.442 137.682 123.17 137.709 124.005C137.736 124.868 137.008 125.569 136.146 125.569Z" fill="#55b2c2"/>
<path d="M139.704 82.8211H62.5906C60.623 82.8211 59.0059 84.4383 59.0059 86.4059V94.4379C59.0059 96.4055 60.623 98.0227 62.5906 98.0227H139.677C141.644 98.0227 143.261 96.4055 143.261 94.4379H143.288V86.4059C143.288 84.4383 141.671 82.8211 139.704 82.8211ZM87.7918 89.9098H66.0945C65.2051 89.9098 64.5312 89.2359 64.5312 88.3465C64.5312 87.457 65.259 86.7832 66.0945 86.7832H87.7918C88.6273 86.7832 89.3551 87.457 89.3551 88.3465C89.3551 89.2359 88.6273 89.9098 87.7918 89.9098ZM119.057 89.9098H117.845C116.955 89.9098 116.281 89.2359 116.281 88.3465C116.281 87.457 117.009 86.7832 117.845 86.7832H119.057C119.947 86.7832 120.621 87.457 120.621 88.3465C120.648 89.2359 119.92 89.9098 119.057 89.9098ZM124.745 89.9098H123.532C122.642 89.9098 121.968 89.2359 121.968 88.3465C121.968 87.457 122.696 86.7832 123.532 86.7832H124.745C125.634 86.7832 126.308 87.457 126.308 88.3465C126.308 89.2359 125.607 89.9098 124.745 89.9098ZM130.432 89.9098H129.219C128.329 89.9098 127.655 89.2359 127.655 88.3465C127.655 87.457 128.383 86.7832 129.219 86.7832H130.432C131.321 86.7832 131.995 87.457 131.995 88.3465C131.995 89.2359 131.267 89.9098 130.432 89.9098ZM136.146 89.9098H134.933C134.043 89.9098 133.37 89.2359 133.37 88.3465C133.37 87.457 134.097 86.7832 134.933 86.7832H136.146C136.981 86.7832 137.709 87.457 137.709 88.3465C137.736 89.2359 137.008 89.9098 136.146 89.9098Z" fill="#55b2c2"/>
<path d="M139.704 100.637H62.5906C60.623 100.637 59.0059 102.254 59.0059 104.222V112.254C59.0059 114.221 60.623 115.839 62.5906 115.839H139.677C141.644 115.839 143.261 114.221 143.261 112.254H143.288V104.222C143.288 102.254 141.671 100.637 139.704 100.637ZM87.7918 107.726H66.0945C65.2051 107.726 64.5312 107.052 64.5312 106.162C64.5312 105.273 65.259 104.599 66.0945 104.599H87.7918C88.6273 104.599 89.3551 105.273 89.3551 106.162C89.3551 107.052 88.6273 107.726 87.7918 107.726ZM119.057 107.726H117.845C116.955 107.726 116.281 107.052 116.281 106.162C116.281 105.273 117.009 104.599 117.845 104.599H119.057C119.947 104.599 120.621 105.273 120.621 106.162C120.648 107.052 119.92 107.726 119.057 107.726ZM124.745 107.726H123.532C122.642 107.726 121.968 107.052 121.968 106.162C121.968 105.273 122.696 104.599 123.532 104.599H124.745C125.634 104.599 126.308 105.273 126.308 106.162C126.308 107.052 125.607 107.726 124.745 107.726ZM130.432 107.726H129.219C128.329 107.726 127.655 107.052 127.655 106.162C127.655 105.273 128.383 104.599 129.219 104.599H130.432C131.321 104.599 131.995 105.273 131.995 106.162C131.995 107.052 131.267 107.726 130.432 107.726ZM136.146 107.726H134.933C134.043 107.726 133.37 107.052 133.37 106.162C133.37 105.273 134.097 104.599 134.933 104.599H136.146C136.981 104.599 137.709 105.273 137.709 106.162C137.736 107.052 137.008 107.726 136.146 107.726Z" fill="#55b2c2"/>
<path d="M139.704 154.139H62.5906C60.623 154.139 59.0059 155.756 59.0059 157.724V165.756C59.0059 167.723 60.623 169.341 62.5906 169.341H139.677C141.644 169.341 143.261 167.723 143.261 165.756H143.288V157.724C143.288 155.756 141.671 154.139 139.704 154.139ZM87.7918 161.228H66.0945C65.2051 161.228 64.5312 160.5 64.5312 159.664C64.5312 158.775 65.259 158.101 66.0945 158.101H87.7918C88.6273 158.101 89.3551 158.775 89.3551 159.664C89.3551 160.554 88.6273 161.228 87.7918 161.228ZM119.057 161.228H117.845C116.955 161.228 116.281 160.5 116.281 159.664C116.281 158.775 117.009 158.101 117.845 158.101H119.057C119.947 158.101 120.621 158.775 120.621 159.664C120.648 160.554 119.92 161.228 119.057 161.228ZM124.745 161.228H123.532C122.642 161.228 121.968 160.5 121.968 159.664C121.968 158.775 122.696 158.101 123.532 158.101H124.745C125.634 158.101 126.308 158.775 126.308 159.664C126.308 160.554 125.607 161.228 124.745 161.228ZM130.432 161.228H129.219C128.329 161.228 127.655 160.5 127.655 159.664C127.655 158.775 128.383 158.101 129.219 158.101H130.432C131.321 158.101 131.995 158.775 131.995 159.664C131.995 160.554 131.267 161.228 130.432 161.228ZM136.146 161.228H134.933C134.043 161.228 133.37 160.5 133.37 159.664C133.37 158.775 134.097 158.101 134.933 158.101H136.146C136.981 158.101 137.682 158.775 137.709 159.664C137.736 160.554 137.008 161.228 136.146 161.228Z" fill="#55b2c2"/>
<path d="M141.643 57H60.5684C55.2855 57 51 61.2855 51 66.5684V185.432C51 190.714 55.2855 195 60.5684 195H141.643C146.926 195 151.212 190.714 151.212 185.432V66.5684C151.212 61.2855 146.926 57 141.643 57ZM146.306 184.111C146.306 187.453 143.557 190.202 140.215 190.202H61.9699C58.6277 190.202 55.8785 187.453 55.8785 184.111V67.8891C55.8785 64.5469 58.6277 61.7977 61.9699 61.7977H140.215C143.611 61.7977 146.333 64.5469 146.306 67.8891V184.111Z" fill="#55b2c2"/>
<path d="M139.704 64.9512H62.5906C60.623 64.9512 59.0059 66.5684 59.0059 68.5359V76.568C59.0059 78.5355 60.623 80.1527 62.5906 80.1527H139.677C141.644 80.1527 143.261 78.5355 143.261 76.568H143.288V68.5359C143.288 66.5684 141.671 64.9512 139.704 64.9512ZM87.7918 72.0398H66.0945C65.2051 72.0398 64.5312 71.366 64.5312 70.4766C64.5312 69.5871 65.259 68.9133 66.0945 68.9133H87.7918C88.6273 68.9133 89.3551 69.5871 89.3551 70.4766C89.3551 71.366 88.6273 72.0398 87.7918 72.0398ZM119.057 72.0398H117.845C116.955 72.0398 116.281 71.366 116.281 70.4766C116.281 69.5871 117.009 68.9133 117.845 68.9133H119.057C119.947 68.9133 120.621 69.5871 120.621 70.4766C120.648 71.366 119.92 72.0398 119.057 72.0398ZM124.745 72.0398H123.532C122.642 72.0398 121.968 71.366 121.968 70.4766C121.968 69.5871 122.696 68.9133 123.532 68.9133H124.745C125.634 68.9133 126.308 69.5871 126.308 70.4766C126.308 71.366 125.607 72.0398 124.745 72.0398ZM130.432 72.0398H129.219C128.329 72.0398 127.655 71.366 127.655 70.4766C127.655 69.5871 128.383 68.9133 129.219 68.9133H130.432C131.321 68.9133 131.995 69.5871 131.995 70.4766C131.995 71.366 131.267 72.0398 130.432 72.0398ZM136.146 72.0398H134.933C134.043 72.0398 133.37 71.366 133.37 70.4766C133.37 69.5871 134.097 68.9133 134.933 68.9133H136.146C136.981 68.9133 137.709 69.5871 137.709 70.4766C137.736 71.366 137.008 72.0398 136.146 72.0398Z" fill="#55b2c2"/>
<path d="M293.534 35.9519C293.387 36.0999 293.212 36.2173 293.019 36.2974C292.826 36.3775 292.619 36.4187 292.41 36.4187C292.202 36.4187 291.995 36.3775 291.802 36.2974C291.609 36.2173 291.434 36.0999 291.287 35.9519L289.76 34.4275V41.1887C289.76 41.6105 289.593 42.0149 289.295 42.3131C288.996 42.6113 288.592 42.7789 288.17 42.7789C287.749 42.7789 287.344 42.6113 287.046 42.3131C286.748 42.0149 286.58 41.6105 286.58 41.1887V34.4275L285.054 35.9519C284.752 36.2328 284.354 36.3857 283.942 36.3784C283.53 36.3712 283.137 36.2043 282.845 35.9129C282.554 35.6216 282.387 35.2286 282.38 34.8166C282.373 34.4046 282.526 34.006 282.806 33.7045L287.047 29.4642C287.345 29.1669 287.749 29 288.17 29C288.591 29 288.996 29.1669 289.294 29.4642L293.534 33.7045C293.682 33.852 293.799 34.0272 293.879 34.22C293.959 34.4128 294 34.6195 294 34.8282C294 35.0369 293.959 35.2436 293.879 35.4364C293.799 35.6293 293.682 35.8044 293.534 35.9519ZM292.41 51.7896C292.412 54.6255 291.844 57.4327 290.741 60.0452C289.638 62.6577 288.022 65.0224 285.989 66.9993C283.956 68.9762 281.547 70.525 278.904 71.5543C276.262 72.5835 273.44 73.0722 270.605 72.9914C265.209 72.7844 260.089 70.5478 256.271 66.729C252.452 62.9102 250.216 57.7905 250.009 52.3939C249.928 49.5592 250.416 46.7371 251.446 44.0946C252.475 41.4522 254.024 39.043 256 37.0098C257.977 34.9766 260.342 33.3606 262.954 32.2575C265.567 31.1545 268.374 30.5867 271.21 30.5879C273.934 30.5779 276.634 31.1061 279.154 32.1419C279.233 32.1771 279.305 32.2279 279.364 32.2914C279.424 32.3549 279.47 32.4298 279.5 32.5116C279.53 32.5934 279.543 32.6803 279.538 32.7673C279.534 32.8542 279.512 32.9394 279.474 33.0176C278.851 34.3927 278.564 35.8959 278.636 37.4036C278.707 38.9113 279.136 40.3805 279.885 41.6905C280.635 43.0005 281.685 44.114 282.949 44.9393C284.212 45.7647 285.654 46.2784 287.155 46.4383C288.423 46.5703 289.706 46.4514 290.929 46.0885C291.01 46.0613 291.095 46.0509 291.181 46.0576C291.266 46.0644 291.349 46.0883 291.425 46.1279C291.5 46.1675 291.567 46.2219 291.622 46.288C291.676 46.3541 291.716 46.4304 291.741 46.5125C292.187 48.2359 292.413 50.0092 292.41 51.7896ZM277.51 56.066C277.51 54.826 277.096 53.6216 276.333 52.644C275.57 51.6664 274.503 50.9717 273.3 50.6702L269.891 49.8221C269.37 49.6919 268.909 49.3892 268.583 48.9634C268.259 48.5489 268.085 48.0371 268.089 47.5111C268.09 46.8807 268.341 46.2765 268.787 45.831C269.233 45.3855 269.837 45.1349 270.467 45.1344H271.952C272.538 45.1354 273.103 45.3522 273.539 45.7432C273.975 46.1342 274.252 46.6722 274.318 47.2546C274.335 47.4667 274.395 47.6731 274.493 47.8617C274.592 48.0503 274.727 48.2172 274.892 48.3524C275.056 48.4877 275.246 48.5886 275.45 48.6492C275.654 48.7097 275.868 48.7287 276.079 48.705C276.291 48.6813 276.496 48.6154 276.681 48.5112C276.867 48.4069 277.029 48.2665 277.16 48.0982C277.29 47.93 277.385 47.7372 277.44 47.5315C277.494 47.3258 277.507 47.1112 277.477 46.9005C277.34 45.6794 276.802 44.538 275.948 43.6555C275.093 42.7729 273.969 42.1991 272.753 42.0241V41.1887C272.753 40.767 272.585 40.3626 272.287 40.0643C271.989 39.7661 271.585 39.5986 271.163 39.5986C270.741 39.5986 270.337 39.7661 270.039 40.0643C269.74 40.3626 269.573 40.767 269.573 41.1887V42.0368C268.312 42.242 267.16 42.8761 266.312 43.832C265.464 44.7879 264.972 46.0071 264.919 47.2838C264.865 48.5605 265.254 49.8165 266.019 50.8398C266.785 51.8631 267.879 52.591 269.119 52.9006L272.528 53.7487C273.091 53.8904 273.583 54.2327 273.911 54.7114C274.239 55.1901 274.381 55.7721 274.31 56.3481C274.239 56.9241 273.96 57.4544 273.526 57.8393C273.092 58.2243 272.532 58.4373 271.952 58.4385H270.467C269.882 58.4374 269.317 58.2207 268.88 57.8297C268.444 57.4386 268.167 56.9007 268.101 56.3183C268.084 56.1062 268.024 55.8997 267.926 55.7112C267.827 55.5226 267.692 55.3557 267.527 55.2204C267.363 55.0852 267.173 54.9843 266.969 54.9237C266.765 54.8632 266.551 54.8442 266.34 54.8679C266.128 54.8916 265.924 54.9575 265.738 55.0617C265.552 55.1659 265.39 55.3064 265.259 55.4746C265.129 55.6429 265.034 55.8356 264.98 56.0414C264.925 56.2471 264.913 56.4617 264.943 56.6724C265.076 57.8786 265.601 59.0079 266.437 59.8874C267.274 60.7669 268.375 61.3482 269.573 61.5424V62.3905C269.573 62.8122 269.74 63.2167 270.039 63.5149C270.337 63.8131 270.741 63.9806 271.163 63.9806C271.585 63.9806 271.989 63.8131 272.287 63.5149C272.585 63.2167 272.753 62.8122 272.753 62.3905V61.5424C274.074 61.3563 275.282 60.6991 276.157 59.6919C277.031 58.6847 277.512 57.3955 277.51 56.0618V56.066Z" fill="#55b2c2"/>
<path d="M293.534 110.952C293.387 111.1 293.212 111.217 293.019 111.297C292.826 111.377 292.619 111.419 292.41 111.419C292.202 111.419 291.995 111.377 291.802 111.297C291.609 111.217 291.434 111.1 291.287 110.952L289.76 109.427V116.189C289.76 116.61 289.593 117.015 289.295 117.313C288.996 117.611 288.592 117.779 288.17 117.779C287.749 117.779 287.344 117.611 287.046 117.313C286.748 117.015 286.58 116.61 286.58 116.189V109.427L285.054 110.952C284.752 111.233 284.354 111.386 283.942 111.378C283.53 111.371 283.137 111.204 282.845 110.913C282.554 110.622 282.387 110.229 282.38 109.817C282.373 109.405 282.526 109.006 282.806 108.705L287.047 104.464C287.345 104.167 287.749 104 288.17 104C288.591 104 288.996 104.167 289.294 104.464L293.534 108.705C293.682 108.852 293.799 109.027 293.879 109.22C293.959 109.413 294 109.619 294 109.828C294 110.037 293.959 110.244 293.879 110.436C293.799 110.629 293.682 110.804 293.534 110.952ZM292.41 126.79C292.412 129.625 291.844 132.433 290.741 135.045C289.638 137.658 288.022 140.022 285.989 141.999C283.956 143.976 281.547 145.525 278.904 146.554C276.262 147.584 273.44 148.072 270.605 147.991C265.209 147.784 260.089 145.548 256.271 141.729C252.452 137.91 250.216 132.791 250.009 127.394C249.928 124.559 250.416 121.737 251.446 119.095C252.475 116.452 254.024 114.043 256 112.01C257.977 109.977 260.342 108.361 262.954 107.258C265.567 106.154 268.374 105.587 271.21 105.588C273.934 105.578 276.634 106.106 279.154 107.142C279.233 107.177 279.305 107.228 279.364 107.291C279.424 107.355 279.47 107.43 279.5 107.512C279.53 107.593 279.543 107.68 279.538 107.767C279.534 107.854 279.512 107.939 279.474 108.018C278.851 109.393 278.564 110.896 278.636 112.404C278.707 113.911 279.136 115.381 279.885 116.691C280.635 118.001 281.685 119.114 282.949 119.939C284.212 120.765 285.654 121.278 287.155 121.438C288.423 121.57 289.706 121.451 290.929 121.088C291.01 121.061 291.095 121.051 291.181 121.058C291.266 121.064 291.349 121.088 291.425 121.128C291.5 121.167 291.567 121.222 291.622 121.288C291.676 121.354 291.716 121.43 291.741 121.513C292.187 123.236 292.413 125.009 292.41 126.79ZM277.51 131.066C277.51 129.826 277.096 128.622 276.333 127.644C275.57 126.666 274.503 125.972 273.3 125.67L269.891 124.822C269.37 124.692 268.909 124.389 268.583 123.963C268.259 123.549 268.085 123.037 268.089 122.511C268.09 121.881 268.341 121.277 268.787 120.831C269.233 120.385 269.837 120.135 270.467 120.134H271.952C272.538 120.135 273.103 120.352 273.539 120.743C273.975 121.134 274.252 121.672 274.318 122.255C274.335 122.467 274.395 122.673 274.493 122.862C274.592 123.05 274.727 123.217 274.892 123.352C275.056 123.488 275.246 123.589 275.45 123.649C275.654 123.71 275.868 123.729 276.079 123.705C276.291 123.681 276.496 123.615 276.681 123.511C276.867 123.407 277.029 123.267 277.16 123.098C277.29 122.93 277.385 122.737 277.44 122.532C277.494 122.326 277.507 122.111 277.477 121.9C277.34 120.679 276.802 119.538 275.948 118.655C275.093 117.773 273.969 117.199 272.753 117.024V116.189C272.753 115.767 272.585 115.363 272.287 115.064C271.989 114.766 271.585 114.599 271.163 114.599C270.741 114.599 270.337 114.766 270.039 115.064C269.74 115.363 269.573 115.767 269.573 116.189V117.037C268.312 117.242 267.16 117.876 266.312 118.832C265.464 119.788 264.972 121.007 264.919 122.284C264.865 123.56 265.254 124.816 266.019 125.84C266.785 126.863 267.879 127.591 269.119 127.901L272.528 128.749C273.091 128.89 273.583 129.233 273.911 129.711C274.239 130.19 274.381 130.772 274.31 131.348C274.239 131.924 273.96 132.454 273.526 132.839C273.092 133.224 272.532 133.437 271.952 133.438H270.467C269.882 133.437 269.317 133.221 268.88 132.83C268.444 132.439 268.167 131.901 268.101 131.318C268.084 131.106 268.024 130.9 267.926 130.711C267.827 130.523 267.692 130.356 267.527 130.22C267.363 130.085 267.173 129.984 266.969 129.924C266.765 129.863 266.551 129.844 266.34 129.868C266.128 129.892 265.924 129.957 265.738 130.062C265.552 130.166 265.39 130.306 265.259 130.475C265.129 130.643 265.034 130.836 264.98 131.041C264.925 131.247 264.913 131.462 264.943 131.672C265.076 132.879 265.601 134.008 266.437 134.887C267.274 135.767 268.375 136.348 269.573 136.542V137.391C269.573 137.812 269.74 138.217 270.039 138.515C270.337 138.813 270.741 138.981 271.163 138.981C271.585 138.981 271.989 138.813 272.287 138.515C272.585 138.217 272.753 137.812 272.753 137.391V136.542C274.074 136.356 275.282 135.699 276.157 134.692C277.031 133.685 277.512 132.395 277.51 131.062V131.066Z" fill="#55b2c2"/>
<path d="M293.534 186.952C293.387 187.1 293.212 187.217 293.019 187.297C292.826 187.377 292.619 187.419 292.41 187.419C292.202 187.419 291.995 187.377 291.802 187.297C291.609 187.217 291.434 187.1 291.287 186.952L289.76 185.427V192.189C289.76 192.61 289.593 193.015 289.295 193.313C288.996 193.611 288.592 193.779 288.17 193.779C287.749 193.779 287.344 193.611 287.046 193.313C286.748 193.015 286.58 192.61 286.58 192.189V185.427L285.054 186.952C284.752 187.233 284.354 187.386 283.942 187.378C283.53 187.371 283.137 187.204 282.845 186.913C282.554 186.622 282.387 186.229 282.38 185.817C282.373 185.405 282.526 185.006 282.806 184.705L287.047 180.464C287.345 180.167 287.749 180 288.17 180C288.591 180 288.996 180.167 289.294 180.464L293.534 184.705C293.682 184.852 293.799 185.027 293.879 185.22C293.959 185.413 294 185.619 294 185.828C294 186.037 293.959 186.244 293.879 186.436C293.799 186.629 293.682 186.804 293.534 186.952ZM292.41 202.79C292.412 205.625 291.844 208.433 290.741 211.045C289.638 213.658 288.022 216.022 285.989 217.999C283.956 219.976 281.547 221.525 278.904 222.554C276.262 223.584 273.44 224.072 270.605 223.991C265.209 223.784 260.089 221.548 256.271 217.729C252.452 213.91 250.216 208.791 250.009 203.394C249.928 200.559 250.416 197.737 251.446 195.095C252.475 192.452 254.024 190.043 256 188.01C257.977 185.977 260.342 184.361 262.954 183.258C265.567 182.154 268.374 181.587 271.21 181.588C273.934 181.578 276.634 182.106 279.154 183.142C279.233 183.177 279.305 183.228 279.364 183.291C279.424 183.355 279.47 183.43 279.5 183.512C279.53 183.593 279.543 183.68 279.538 183.767C279.534 183.854 279.512 183.939 279.474 184.018C278.851 185.393 278.564 186.896 278.636 188.404C278.707 189.911 279.136 191.381 279.885 192.691C280.635 194.001 281.685 195.114 282.949 195.939C284.212 196.765 285.654 197.278 287.155 197.438C288.423 197.57 289.706 197.451 290.929 197.088C291.01 197.061 291.095 197.051 291.181 197.058C291.266 197.064 291.349 197.088 291.425 197.128C291.5 197.167 291.567 197.222 291.622 197.288C291.676 197.354 291.716 197.43 291.741 197.513C292.187 199.236 292.413 201.009 292.41 202.79ZM277.51 207.066C277.51 205.826 277.096 204.622 276.333 203.644C275.57 202.666 274.503 201.972 273.3 201.67L269.891 200.822C269.37 200.692 268.909 200.389 268.583 199.963C268.259 199.549 268.085 199.037 268.089 198.511C268.09 197.881 268.341 197.277 268.787 196.831C269.233 196.385 269.837 196.135 270.467 196.134H271.952C272.538 196.135 273.103 196.352 273.539 196.743C273.975 197.134 274.252 197.672 274.318 198.255C274.335 198.467 274.395 198.673 274.493 198.862C274.592 199.05 274.727 199.217 274.892 199.352C275.056 199.488 275.246 199.589 275.45 199.649C275.654 199.71 275.868 199.729 276.079 199.705C276.291 199.681 276.496 199.615 276.681 199.511C276.867 199.407 277.029 199.267 277.16 199.098C277.29 198.93 277.385 198.737 277.44 198.532C277.494 198.326 277.507 198.111 277.477 197.9C277.34 196.679 276.802 195.538 275.948 194.655C275.093 193.773 273.969 193.199 272.753 193.024V192.189C272.753 191.767 272.585 191.363 272.287 191.064C271.989 190.766 271.585 190.599 271.163 190.599C270.741 190.599 270.337 190.766 270.039 191.064C269.74 191.363 269.573 191.767 269.573 192.189V193.037C268.312 193.242 267.16 193.876 266.312 194.832C265.464 195.788 264.972 197.007 264.919 198.284C264.865 199.56 265.254 200.816 266.019 201.84C266.785 202.863 267.879 203.591 269.119 203.901L272.528 204.749C273.091 204.89 273.583 205.233 273.911 205.711C274.239 206.19 274.381 206.772 274.31 207.348C274.239 207.924 273.96 208.454 273.526 208.839C273.092 209.224 272.532 209.437 271.952 209.438H270.467C269.882 209.437 269.317 209.221 268.88 208.83C268.444 208.439 268.167 207.901 268.101 207.318C268.084 207.106 268.024 206.9 267.926 206.711C267.827 206.523 267.692 206.356 267.527 206.22C267.363 206.085 267.173 205.984 266.969 205.924C266.765 205.863 266.551 205.844 266.34 205.868C266.128 205.892 265.924 205.957 265.738 206.062C265.552 206.166 265.39 206.306 265.259 206.475C265.129 206.643 265.034 206.836 264.98 207.041C264.925 207.247 264.913 207.462 264.943 207.672C265.076 208.879 265.601 210.008 266.437 210.887C267.274 211.767 268.375 212.348 269.573 212.542V213.391C269.573 213.812 269.74 214.217 270.039 214.515C270.337 214.813 270.741 214.981 271.163 214.981C271.585 214.981 271.989 214.813 272.287 214.515C272.585 214.217 272.753 213.812 272.753 213.391V212.542C274.074 212.356 275.282 211.699 276.157 210.692C277.031 209.685 277.512 208.395 277.51 207.062V207.066Z" fill="#55b2c2"/>
<path d="M154 122H184.292C188.71 122 192.292 118.418 192.292 114V60C192.292 55.5817 195.874 52 200.292 52H246" stroke="url(#paint0_linear_490_14161)" stroke-linejoin="round" stroke-dasharray="4 4"/>
<path d="M154 130H184.292C188.71 130 192.292 133.582 192.292 138V196C192.292 200.418 195.874 204 200.292 204H246" stroke="url(#paint1_linear_490_14161)" stroke-linejoin="round" stroke-dasharray="4 4"/>
<path d="M154 126H246" stroke="url(#paint2_linear_490_14161)" stroke-linejoin="round" stroke-dasharray="4 4"/>
</g>
<defs>
<filter id="filter0_f_490_14161" x="-128" y="-178" width="609" height="609" filterUnits="userSpaceOnUse" color-interpolation-filters="sRGB">
<feFlood flood-opacity="0" result="BackgroundImageFix"/>
<feBlend mode="normal" in="SourceGraphic" in2="BackgroundImageFix" result="shape"/>
<feGaussianBlur stdDeviation="100" result="effect1_foregroundBlur_490_14161"/>
</filter>
<linearGradient id="paint0_linear_490_14161" x1="240.091" y1="117.042" x2="195.936" y2="115.658" gradientUnits="userSpaceOnUse">
<stop stop-color="#ffffff" stop-opacity="0.12" data-originalstopcolor="#ffffff"/>
<stop offset="0.527508" stop-color="#ffffff" stop-opacity="0.17" data-originalstopcolor="#ffffff"/>
<stop offset="1" stop-color="#ffffff" stop-opacity="0.2" data-originalstopcolor="#ffffff"/>
</linearGradient>
<linearGradient id="paint1_linear_490_14161" x1="240.091" y1="135.241" x2="195.932" y2="136.55" gradientUnits="userSpaceOnUse">
<stop stop-color="#ffffff" stop-opacity="0.12" data-originalstopcolor="#ffffff"/>
<stop offset="0.527508" stop-color="#ffffff" stop-opacity="0.17" data-originalstopcolor="#ffffff"/>
<stop offset="1" stop-color="#ffffff" stop-opacity="0.2" data-originalstopcolor="#ffffff"/>
</linearGradient>
<linearGradient id="paint2_linear_490_14161" x1="159.909" y1="126.071" x2="167.511" y2="142.75" gradientUnits="userSpaceOnUse">
<stop stop-color="#ffffff" stop-opacity="0.12" data-originalstopcolor="#ffffff"/>
<stop offset="0.527508" stop-color="#ffffff" stop-opacity="0.17" data-originalstopcolor="#ffffff"/>
<stop offset="1" stop-color="#ffffff" stop-opacity="0.2" data-originalstopcolor="#ffffff"/>
</linearGradient>
<clipPath id="clip0_490_14161">
<rect width="345" height="252" fill="#ffffff"/>
</clipPath>
</defs>
</svg>