<svg width="690px" height="252px" viewBox="0 0 690 252" fill="none" xmlns="http://www.w3.org/2000/svg" transform="rotate(0) scale(1, 1)">
<g clip-path="url(#clip0_474_11237)">
<g filter="url(#filter0_f_474_11237)">
<circle cx="345.5" cy="126.5" r="104.5" fill="#55b2c2" fill-opacity="0.1"/>
</g>
<g clip-path="url(#clip1_474_11237)">
<path d="M316.648 41.415C333.587 40.0707 334.225 40.0707 344.076 40H342.162C334.862 40.2122 325.224 40.7075 317.995 41.2735L316.719 41.415H316.648Z" fill="#55b2c2"/>
<path d="M334.861 40.4245C337.625 40.3537 341.24 40.0707 344.004 40C341.24 40.0707 337.554 40.1415 334.861 40.4245Z" fill="#55b2c2"/>
<path d="M334.791 40.4245C334.791 40.4245 339.398 40.0707 344.004 40C341.099 40.0707 337.201 40.2122 334.295 40.4245C334.437 40.4245 334.649 40.4245 334.791 40.4245Z" fill="#55b2c2"/>
<path d="M335.57 40.4245C339.681 40.1415 342.516 40 344.075 40C339.185 40.1415 339.043 40.1415 335.641 40.4245H335.57Z" fill="#55b2c2"/>
<path d="M335.642 40.4245C338.122 40.283 341.524 40.0707 344.005 40C341.241 40.0707 337.626 40.283 334.862 40.4245C334.72 40.4245 334.65 40.4245 334.508 40.4245C334.791 40.4245 335.217 40.4245 335.5 40.3537H335.571L335.642 40.4245ZM336.067 40.283C338.477 40.1415 341.595 40.0707 344.005 40H340.178L335.713 40.3537C335.854 40.3537 335.996 40.3537 336.067 40.3537V40.283Z" fill="#55b2c2"/>
<path d="M345.35 40.283C345.35 40.283 344.641 40.2122 344.287 40.1415C344.074 40.1415 343.791 40.1415 343.649 40C343.791 40 343.932 40 344.003 40C343.862 40 343.72 40 343.578 40C343.578 40 344.145 40.0943 345.279 40.283H345.35ZM345.137 40.2122C345.137 40.2122 344.358 40.0707 344.074 40C344.429 40 344.854 40.1415 345.137 40.2122Z" fill="#55b2c2"/>
<path d="M345.066 40.1415C345.066 40.1415 344.499 40.0707 344.287 40H344.074C344.074 40 344.854 40.0707 345.137 40.1415C345.137 40.1415 345.137 40.1415 345.066 40.1415Z" fill="#55b2c2"/>
<path d="M344.783 40C344.783 40 344.287 40 344.075 40H344.854H344.783ZM345.138 40.0707H344.004H344.996C344.996 40.0707 345.067 40.0707 345.138 40.0707Z" fill="#55b2c2"/>
<path d="M383.054 50.1877L379.652 48.6312C364.91 42.9714 358.178 40.4245 344.074 40L350.098 40.283C361.863 42.3347 368.383 43.4666 383.054 50.2584C383.054 50.2584 383.054 50.2584 383.054 50.1877Z" fill="#55b2c2"/>
<path d="M360.446 41.2027C355.556 40.7075 348.965 40.1415 344.075 40C348.965 40.2122 355.556 40.566 360.446 41.2027ZM359.737 41.2027C355.556 40.6367 349.957 40.2122 345.776 40.0707H344.004C348.823 40.283 355.272 40.7075 360.021 41.2735C359.879 41.2735 359.808 41.2735 359.666 41.2735L359.737 41.2027Z" fill="#55b2c2"/>
<path d="M362.077 41.415C359.668 41.0612 356.549 40.566 354.14 40.3537C356.549 40.6367 359.738 40.9197 362.077 41.415ZM364.203 41.7687C363.282 41.2735 362.077 40.566 352.722 40.2122C357.754 40.4245 362.715 40.7782 364.133 41.7687H364.203ZM345.352 40C349.108 40 354.848 40.1415 359.526 40.6367C357.187 40.4245 353.644 40.0707 345.352 40Z" fill="#55b2c2"/>
<path d="M354.138 40.3537C351.091 40.2122 347.051 40 344.074 40C355.201 40.3537 355.839 40.3537 361.509 41.3442C361.721 41.3442 361.934 41.3442 362.076 41.415C359.666 41.0612 356.548 40.566 354.138 40.3537ZM360.446 41.2027C355.555 40.7075 348.964 40.1415 344.074 40C348.893 40.2122 355.272 40.4952 360.02 41.132C360.162 41.132 360.304 41.132 360.446 41.132V41.2027Z" fill="#55b2c2"/>
<path d="M176.109 102.682C177.81 100.914 179.653 98.2254 181.354 96.5274C179.724 98.3669 177.527 100.702 176.109 102.682ZM180.149 99.7111C203.466 80.1847 222.034 66.2474 266.612 51.5319C235.5 62.2855 212.679 71.4827 180.149 99.7111Z" fill="#55b2c2"/>
<path d="M180.857 99.3574C205.662 80.0432 251.871 44.2449 333.444 40.2122C301.977 42.8299 243.366 47.57 180.857 99.3574ZM333.444 40.2122C309.347 41.2027 294.252 44.7401 278.306 48.5605C306.087 42.3347 307.717 41.9809 333.444 40.2122ZM312.962 41.7687C326.498 40.4952 327.561 40.3537 336.987 40.0707C337.271 40.0707 337.554 40.0707 337.909 40.0707C324.301 40.6367 323.167 40.7075 314.167 41.6979L313.033 41.8394L312.962 41.7687Z" fill="#55b2c2"/>
<path d="M177.952 102.824C190.213 97.8717 201.411 93.6976 234.153 85.7739C210.411 91.5752 193.615 96.2445 177.952 102.824ZM177.314 103.39C190.142 98.1547 206.372 92.2827 250.241 82.4487C232.169 86.5521 198.576 94.1221 177.314 103.39ZM179.653 101.126C196.804 89.8065 220.263 74.3835 264.77 57.8992C245.847 65.1863 214.168 77.3549 179.653 101.126ZM258.321 77.4256C279.369 59.8094 295.528 47.7823 327.491 41.3443C304.812 46.5796 287.732 51.8857 258.321 77.4256ZM230.822 71.9073C269.802 54.5741 298.221 45.6599 328.979 41.0613C305.096 44.8109 276.747 51.1782 230.893 71.8366L230.822 71.9073Z" fill="#55b2c2"/>
<path d="M264.769 57.8992C280.007 52.5931 303.111 44.6693 328.483 41.132C296.166 46.2258 267.888 55.14 230.822 71.8365C207.576 83.2269 200.631 86.9765 180.078 100.631C195.245 90.8676 223.451 72.6147 264.769 57.8992ZM180.999 99.2866C208.143 78.2038 231.035 62.2148 278.306 48.5605C302.048 43.2544 307.718 41.9809 333.444 40.2122C301.977 42.8299 243.437 47.57 180.858 99.3574H180.999V99.2866ZM332.593 40.6367C332.593 40.6367 332.593 40.6367 332.664 40.6367C332.806 40.4952 333.019 40.3537 334.79 40.283C336.987 40.1415 339.681 40.0707 341.24 40.0707H341.098C335.216 40.0707 332.168 40.3537 332.026 40.7075C332.239 40.7075 332.381 40.7075 332.593 40.7075V40.6367Z" fill="#55b2c2"/>
<path d="M258.675 77.4963C279.653 59.8801 295.741 47.853 327.562 41.4149C304.883 46.5795 287.803 51.8856 258.321 77.4963C258.321 77.4963 258.534 77.4963 258.675 77.4963Z" fill="#55b2c2"/>
<path d="M257.046 88.3915C274.905 66.3889 291.489 48.9142 327.705 41.3442C304.601 46.7918 283.339 54.1496 256.691 88.3915C256.833 88.3915 256.975 88.3915 257.117 88.3915H257.046ZM290.284 62.4978C309.42 49.9754 324.515 40.9905 344.076 40C332.311 41.132 320.121 42.2639 290.284 62.4978ZM257.967 88.533C274.055 74.2419 311.688 40.7782 344.005 40C332.878 41.0612 306.868 43.4666 257.967 88.533ZM334.012 40.566C340.036 40.1415 340.816 40.0707 344.076 40C339.115 40.1415 339.044 40.1415 335.571 40.4245H334.579C334.579 40.4245 334.225 40.566 334.012 40.566Z" fill="#55b2c2"/>
<path d="M258.393 91.1507C274.48 86.2691 275.402 85.9861 294.254 80.5385C275.118 86.1276 273.488 86.6228 258.393 91.1507ZM258.676 89.8065C275.685 80.4678 276.677 79.9018 293.474 70.9876C276.465 80.0433 271.362 82.8024 258.676 89.8065ZM336.28 60.3754C348.187 45.0939 347.974 43.7497 346.486 40.7075C346.982 42.1932 346.982 44.5279 346.273 45.8721C344.005 50.2585 343.509 51.2489 336.28 60.3754Z" fill="#55b2c2"/>
<path d="M258.675 90.2309C283.126 76.7181 308.143 64.3372 332.452 50.6122C345.422 43.2544 346.343 41.6979 346.13 40.6367C344.5 44.1741 339.681 46.721 293.544 71.0583C276.535 80.114 271.432 82.8731 258.746 89.8772C258.746 90.0187 258.746 90.1602 258.746 90.3017L258.675 90.2309ZM290.284 62.4978C309.419 49.9754 324.515 40.9905 344.075 40C332.948 41.0612 306.938 43.4666 258.037 88.533C268.03 79.9725 280.432 69.2896 290.284 62.4978ZM345.28 40.2122C345.28 40.2122 344.571 40.1415 344.288 40.0707C344.146 40.0707 343.933 40.0707 343.792 40C343.792 40 343.933 40 344.004 40C343.862 40 343.721 40 343.65 40C343.65 40 344.217 40.0943 345.351 40.283C345.351 40.283 345.351 40.283 345.28 40.283V40.2122Z" fill="#55b2c2"/>
<path d="M429.616 91.8581C396.519 84.9956 363.281 78.9113 330.184 72.1195C363.281 78.8405 396.519 84.9956 429.616 91.8581ZM336.279 60.3753C345.137 49.0557 348.256 44.3863 346.484 40.7075C347.618 44.9523 345.35 49.2679 329.191 68.0868C329.262 68.0868 329.404 68.2283 329.475 68.2283C331.53 65.8937 334.365 62.7808 336.279 60.3046V60.3753ZM346.98 40.6367C348.185 41.4149 350.028 41.8394 351.303 42.3347C352.65 42.8299 365.478 48.136 399.921 69.6433C386.668 61.4366 362.076 46.2258 346.909 40.6367H346.98Z" fill="#55b2c2"/>
<path d="M429.759 88.1085C415.513 72.9685 409.631 66.7427 391.346 54.7155C406.3 64.974 412.466 69.2188 429.759 88.1085ZM428.837 88.8867C417.262 80.963 407.647 74.5485 399.993 69.6433C386.74 61.4366 362.147 46.2258 346.981 40.6367C359.454 45.7306 383.763 58.2529 428.766 89.2404C428.766 89.1697 428.766 89.0282 428.837 88.9574V88.8867ZM383.692 51.1074C383.692 51.1074 361.864 44.1034 346.697 40.4952C360.942 44.1741 371.998 47.57 383.905 51.3196C383.834 51.3196 383.692 51.1781 383.621 51.1074H383.692Z" fill="#55b2c2"/>
<path d="M475.684 94.5466C465.407 94.0513 464.982 94.0513 458.108 93.6976C468.809 94.1928 469.943 94.2636 475.684 94.5466ZM475.046 93.9806L468.526 93.6268L475.117 93.9806H475.046ZM472.495 90.3724C472.495 90.3724 455.485 76.8596 415.231 58.0407C438.335 69.0066 446.201 72.9685 472.495 90.3724ZM472.565 90.6554C452.225 77.2841 429.121 62.1441 392.552 49.268C412.396 56.6965 434.862 65.1155 472.565 90.6554ZM430.68 88.1085C419.766 73.4637 403.253 51.2489 368.668 42.83C384.614 47.7823 408.781 55.2816 430.68 88.1085Z" fill="#55b2c2"/>
<path d="M430.113 88.1085C415.939 73.0392 410.128 66.8134 391.559 54.7155C391.559 54.7155 391.417 54.7155 391.347 54.7155C406.3 64.974 412.466 69.2188 429.759 88.1085C429.83 88.1085 430.042 88.1085 430.113 88.1085ZM431.176 88.1792C420.191 73.4637 403.607 51.3196 368.809 42.8299C384.756 47.853 408.781 55.423 430.609 88.1085C430.68 88.1085 430.822 88.1085 430.964 88.1085C430.964 88.1085 431.105 88.1085 431.176 88.1085V88.1792ZM384.826 50.2584C378.117 46.4381 372.471 43.9147 367.888 42.6884C367.888 42.6884 367.605 42.6884 367.463 42.6177C375.637 45.4004 381.425 47.9945 384.826 50.3999C384.826 50.3999 385.181 50.4707 385.322 50.5414C385.181 50.4707 385.039 50.3292 384.897 50.2584H384.826Z" fill="#55b2c2"/>
<path d="M502.473 104.168C498.859 101.692 493.118 100.136 489.079 98.5083C493.118 100.206 498.504 102.399 502.473 104.168ZM501.127 102.541C481.495 89.3819 480.716 88.8159 465.124 79.9724C484.897 91.5043 486.527 92.424 501.127 102.541ZM472.495 90.4431C450.099 75.7276 441.736 70.4922 415.231 58.1114C399.214 51.5318 387.662 46.7917 368.597 42.6884C375.826 44.4571 385.394 47.0747 392.481 49.2679C411.333 56.3427 434.791 65.1154 472.495 90.6553C472.495 90.5846 472.495 90.5138 472.495 90.3724V90.4431ZM500.914 102.116C500.56 101.692 437.626 56.4134 368.172 42.5469C385.181 46.2965 436.846 57.7576 500.914 102.116Z" fill="#55b2c2"/>
<path d="M500.914 102.187C498.434 99.4989 435.004 55.9182 368.101 42.5469C402.19 50.2584 427.562 60.0924 465.053 79.9725C483.197 90.5139 486.457 92.4241 501.056 102.541C501.056 102.4 500.914 102.258 500.844 102.187H500.914ZM495.386 95.4662C473.771 77.4256 433.587 43.8204 352.084 40.1415C382.772 42.3347 439.894 46.3673 495.386 95.537V95.4662ZM352.722 40.1415C348.824 40 348.753 40 346.344 40C345.989 40 345.635 40 345.352 40C349.108 40 354.848 40.1415 359.526 40.6367C361.439 40.9197 362.786 41.132 363.495 41.6272C363.707 41.6272 363.92 41.6979 364.133 41.7687C363.424 41.3442 361.935 40.566 352.722 40.2122V40.1415Z" fill="#55b2c2"/>
<path d="M493.259 86.1276C501.905 92.7779 505.52 96.3153 506.654 104.876C505.662 99.2159 504.811 94.3343 493.259 86.1983V86.1276ZM409.631 48.2068C433.16 55.0693 472.494 66.4597 502.898 102.046C490.424 88.4623 467.178 63.0638 409.631 48.2068Z" fill="#55b2c2"/>
<path d="M501.905 101.551C457.54 61.0121 417.001 44.3156 352.438 40.1415C383.054 42.3347 440.035 46.3673 495.385 95.4662L501.48 101.338C501.48 101.338 501.764 101.48 501.905 101.551ZM411.19 48.6312C410.694 48.4897 410.127 48.3482 409.631 48.2067C433.16 55.0693 472.494 66.4597 502.898 102.046C503.039 102.117 503.181 102.258 503.323 102.329C491.133 88.8867 468.383 63.9127 411.119 48.5605L411.19 48.6312Z" fill="#55b2c2"/>
<path d="M151.447 132.821C150.172 132.043 148.258 130.982 147.408 129.708C146.982 129.071 147.549 127.798 147.904 127.161C147.478 128.01 147.195 129.496 147.691 130.274C148.4 131.406 150.172 132.184 151.376 132.892L151.447 132.821ZM155.629 128.576C159.172 124.827 162.574 118.671 165.834 114.639C162.716 118.813 158.464 124.261 155.629 128.576ZM164.629 111.101C166.968 109.545 169.945 107.493 172.354 106.008C170.016 107.493 166.897 109.474 164.629 111.101Z" fill="#55b2c2"/>
<path d="M154.92 132.963C157.471 132.538 160.944 131.901 163.495 131.548C160.944 131.972 157.471 132.538 154.92 132.963ZM177.032 127.586C174.244 122.445 172.732 117.469 172.496 112.658C172.921 119.945 172.921 120.087 177.032 127.586ZM156.054 128.222C161.44 122.775 166.755 113.861 171.716 108.059C171.433 108.295 169.472 110.488 165.834 114.639C162.716 118.813 158.463 124.261 155.629 128.576C155.77 128.435 155.912 128.364 156.125 128.222H156.054Z" fill="#55b2c2"/>
<path d="M183.835 125.18C190.001 120.865 198.222 115.134 204.459 110.96C198.222 115.205 190.001 120.794 183.835 125.18ZM177.598 126.949C177.598 126.949 177.598 126.949 177.669 126.878C174.055 120.086 171.149 114.78 174.905 105.512H174.834C173.346 106.857 172.637 111.667 172.566 112.658C172.992 119.945 172.992 120.086 177.102 127.586C177.244 127.444 177.386 127.232 177.669 127.02L177.598 126.949ZM183.693 125.676C208.002 108.625 220.192 100.702 249.249 84.2881C223.877 98.7206 208.427 108.13 183.693 125.605V125.676ZM177.315 103.39C190.143 98.1546 206.372 92.2826 250.241 82.4486C250.312 82.3779 250.454 82.2364 250.525 82.1656C245.635 83.2269 239.044 84.6418 234.225 85.7738C210.483 91.5751 193.686 96.2445 178.024 102.824C177.811 103.036 177.527 103.248 177.386 103.461L177.315 103.39Z" fill="#55b2c2"/>
<path d="M180.291 131.052C188.229 136.783 188.654 137.066 196.166 141.24C186.032 135.368 185.465 135.014 180.291 131.052ZM266.754 168.336C241.028 159.705 202.119 146.688 180.929 130.345C190.922 137.561 205.946 148.456 266.754 168.336ZM279.511 158.998C264.699 135.934 255.556 120.157 253.43 96.386C255.415 113.648 258.179 126.525 279.511 158.998ZM280.22 158.432C265.408 135.368 256.194 119.662 254.068 95.9615C256.053 113.224 258.817 126.029 280.22 158.432Z" fill="#55b2c2"/>
<path d="M240.673 98.7914L248.824 95.1832C248.824 95.1832 248.895 94.971 248.965 94.8295C231.673 102.258 223.026 106.008 196.095 119.591L183.551 126.241C183.551 126.241 183.338 126.666 183.268 126.878C198.292 118.884 212.537 111.314 240.744 98.7914H240.673ZM253.856 89.5941C253.856 89.5941 253.856 89.5941 253.926 89.5941C253.926 88.1792 254.068 86.3397 254.068 84.9248V84.0758C253.856 84.2173 253.714 84.2881 253.501 84.4296C253.43 86.0568 253.289 88.3207 253.218 89.9479C253.289 89.9479 253.501 89.7356 253.785 89.5941H253.856ZM183.693 125.675C208.002 108.625 220.192 100.702 249.249 84.2881C249.249 84.2173 249.249 84.0758 249.32 83.9343C235.712 91.5751 222.885 98.8621 204.458 110.889C198.221 115.134 190 120.723 183.835 125.11C183.835 125.18 183.835 125.322 183.764 125.463C183.764 125.463 183.764 125.605 183.764 125.675H183.693Z" fill="#55b2c2"/>
<path d="M289.858 172.015C289.858 172.015 289.858 172.015 289.929 172.015C287.165 168.124 283.409 163.03 280.645 159.139L279.936 159.634L289.22 172.581C289.22 172.581 289.504 172.298 289.858 172.086V172.015ZM296.095 170.883C301.859 160.13 307.883 148.904 314.167 137.207C304.741 154.753 301.552 160.696 296.095 170.883ZM279.511 158.998L280.219 158.502C265.407 135.439 256.194 119.733 254.068 96.0322H253.997C253.997 96.0322 253.784 96.2444 253.643 96.3152C255.131 112.729 257.682 125.888 279.44 159.068L279.511 158.998ZM312.608 129.354C282.062 114.002 270.368 106.857 255.981 94.4757C269.66 106.149 280.29 113.224 312.608 129.354Z" fill="#55b2c2"/>
<path d="M312.538 129.425C282.276 114.002 271.22 107.564 255.982 94.4758H255.912C255.912 94.4758 255.628 94.8295 255.486 94.971C268.668 106.503 279.228 113.578 312.254 130.062C312.396 129.779 312.467 129.708 312.609 129.496L312.538 129.425ZM317.57 126.454C319.625 109.191 321.609 92.8486 325.72 74.8787C323.027 87.6133 320.546 99.7111 317.57 126.454ZM258.109 91.7166C265.29 89.547 286.93 83.1561 323.027 72.544C323.027 72.544 323.027 72.3317 323.027 72.1902C315.751 74.2655 306.159 77.0247 294.253 80.4677C275.047 86.0568 272.85 86.7643 258.392 91.0799C258.392 91.1506 258.25 91.2921 258.25 91.4336C258.25 91.4336 258.179 91.5751 258.109 91.6459V91.7166Z" fill="#55b2c2"/>
<path d="M323.238 132.043C386.952 136.075 396.732 136.712 429.971 139.047C408.473 137.538 372.896 135.203 323.238 132.043ZM436.562 127.232C436.916 110.253 436.916 108.838 434.436 96.2444C436.987 111.384 437.2 112.587 436.562 127.232Z" fill="#55b2c2"/>
<path d="M323.169 130.769C379.795 114.639 404.671 106.715 431.389 94.122C431.248 93.9805 431.106 93.8391 430.964 93.6976C401.836 106.644 382.63 113.082 323.027 130.062C323.027 130.274 323.098 130.486 323.169 130.699C323.169 130.699 323.169 130.699 323.169 130.769ZM318.278 126.454C320.405 108.201 322.318 92.4241 326.216 74.8787C326.216 74.8787 326.003 74.8787 325.933 74.8787C323.381 86.0568 320.83 97.5179 317.641 126.454C317.995 126.454 318.066 126.454 318.349 126.454H318.278ZM429.334 91.3629C396.591 84.4296 363.707 78.4868 330.894 71.8365L330.327 71.695C363.14 79.831 396.591 84.9956 429.617 91.8581C429.547 91.7166 429.405 91.5044 429.334 91.3629Z" fill="#55b2c2"/>
<path d="M513.316 170.388C487.094 159.139 474.266 154.187 441.098 142.16C474.762 154.328 488.228 159.634 513.316 170.388ZM441.027 141.452C462.998 149.376 472.707 152.913 493.543 161.332C476.534 154.541 467.179 150.862 441.027 141.452ZM438.476 96.4567C463.565 116.903 483.621 133.953 513.316 166.992C496.591 148.739 477.668 128.081 438.476 96.4567ZM436.988 107.635L435.074 96.5982C435.074 96.5982 434.72 96.4567 434.578 96.3859C436.917 111.738 437.129 112.941 436.492 127.232L435.783 134.59C435.783 134.59 436.137 134.802 436.492 134.943C437.626 119.45 437.98 115.276 436.917 107.564L436.988 107.635ZM513.6 166.568C496.874 148.315 477.951 127.656 438.618 96.1737C463.706 116.62 483.763 133.599 513.529 166.568H513.6Z" fill="#55b2c2"/>
<path d="M516.294 165.931C509.915 145.98 506.726 135.934 495.103 117.044C504.954 134.448 509.844 143.221 516.294 165.931ZM513.53 166.568C497.088 148.527 478.377 128.081 438.619 96.103C468.314 121.289 484.685 135.156 513.317 166.992C513.317 166.851 513.459 166.709 513.53 166.568ZM475.117 94.0513L468.526 93.6975C458.463 93.2023 452.935 92.9901 437.201 92.3533L437.343 92.5656C437.414 92.6363 437.485 92.7778 437.626 92.9193C444.43 93.2023 451.305 93.4853 458.108 93.7683C469.306 94.2635 469.944 94.2635 475.684 94.6173C475.684 94.6173 475.543 94.5465 475.543 94.4758C475.472 94.405 475.33 94.2635 475.188 94.122L475.117 94.0513Z" fill="#55b2c2"/>
<path d="M514.945 123.765L517.497 131.689V131.406L514.945 123.765Z" fill="#55b2c2"/>
<path d="M519.269 167.912C521.112 149.376 521.395 143.15 515.725 124.331C515.584 124.261 515.371 124.119 515.3 124.048C515.938 126.312 516.788 129.284 517.426 131.477V131.76C519.978 144.99 521.395 152.277 519.198 167.841C519.198 167.841 519.198 167.841 519.269 167.912ZM512.607 116.903L508.78 109.828C508.78 109.828 508.638 109.757 508.567 109.687C509.56 111.667 510.906 114.356 511.969 116.337C512.182 116.549 512.394 116.691 512.607 116.903ZM514.52 158.149C507.292 138.41 500.984 121.36 482.203 98.9329C482.061 98.9329 481.92 98.8621 481.849 98.7914C485.959 104.168 491.416 111.384 495.102 117.044C504.953 134.448 509.843 143.221 516.292 165.931C516.434 165.931 516.576 166.002 516.647 166.072C516.009 163.667 515.3 160.483 514.52 158.149ZM502.543 104.239C499 101.692 493.117 100.136 489.078 98.5084L481.707 95.6077C481.707 95.6077 481.92 96.0322 482.061 96.103C488.936 99.0744 496.023 101.692 502.898 104.734C502.756 104.593 502.543 104.38 502.401 104.239H502.543Z" fill="#55b2c2"/>
<path d="M544.712 132.326C541.098 129.284 539.893 128.222 528.837 124.331C538.404 127.798 540.885 128.859 544.712 132.326ZM515.796 120.086C529.333 123.765 535.57 125.676 542.231 129.92C536.633 126.525 533.16 124.685 515.796 120.086ZM511.969 116.337L508.568 109.687C508.568 109.687 508.142 109.333 507.93 109.191C508.922 111.172 510.268 113.861 511.332 115.842C511.544 115.983 511.686 116.125 511.969 116.337ZM541.027 128.081C534.223 121.501 530.042 117.61 509.772 107.847C525.222 115.417 532.309 119.308 541.027 128.081Z" fill="#55b2c2"/>
<path d="M541.026 128.081C541.026 128.081 540.601 127.586 540.317 127.303C533.726 121.006 529.332 116.832 509.205 107.21H509.276C509.276 107.21 509.559 107.635 509.701 107.776C512.11 109.333 515.725 110.748 518.276 112.021C531.6 118.601 538.191 125.251 541.026 128.081ZM493.259 86.1276C493.259 86.1276 492.692 85.7738 492.408 85.5616C501.125 92.2119 504.74 95.7493 505.945 104.239C506.157 104.451 506.441 104.663 506.653 104.876C505.59 99.0037 504.811 94.4051 493.259 86.1276Z" fill="#55b2c2"/>
<path d="M81.7796 284.292C81.567 283.16 81 281.604 81.0709 280.472C81.2835 281.604 81.2835 283.231 81.7796 284.292ZM82.7009 278.774C85.0397 267.1 85.6775 250.97 88.3706 239.367C91.2764 226.845 95.316 214.252 100.419 202.083C92.3394 223.873 84.7562 244.461 82.7718 278.703H82.7009V278.774Z" fill="#55b2c2"/>
<path d="M83.4099 286.414C89.7883 285.707 92.3397 285.495 107.435 284.646C92.6232 285.424 89.9301 285.636 83.4099 286.414ZM82.772 278.491C84.3312 272.689 84.1895 264.483 84.8273 258.54C84.9691 257.479 87.5913 232.151 101.553 199.324C101.128 200.244 100.773 201.163 100.348 202.083C92.2688 223.873 84.6856 244.461 82.7012 278.774C82.7012 278.703 82.772 278.561 82.8429 278.491H82.772ZM127.988 152.064C112.963 175.623 103.75 192.603 101.766 230.028C103.679 203.357 106.372 184.821 127.988 152.064Z" fill="#55b2c2"/>
<path d="M110.695 276.227C111.333 234.273 114.735 192.178 149.249 138.481C128.909 171.52 110.625 206.965 110.695 276.227ZM109.136 277.854C109.845 272.972 106.443 266.747 105.309 261.936C102.687 250.97 101.482 226.774 103.041 216.445C107.294 189.136 112.609 175.694 128.839 150.862C128.555 151.286 128.272 151.64 127.988 152.064C112.963 175.623 103.75 192.674 101.766 230.028C102.262 244.249 102.758 257.62 108.711 278.491C108.782 278.278 108.924 278.066 109.065 277.854H109.136ZM151.943 132.184C151.943 132.184 151.943 132.184 152.013 132.114C150.738 131.335 148.824 130.274 148.045 129.001C147.619 128.364 148.186 127.09 148.612 126.454C148.399 126.666 148.186 126.949 147.974 127.161C147.549 128.01 147.336 129.496 147.761 130.274C148.47 131.406 150.242 132.184 151.446 132.892C151.659 132.68 151.801 132.467 152.013 132.255L151.943 132.184Z" fill="#55b2c2"/>
<path d="M111.688 276.156C117.145 248.706 117.215 248.14 121.964 233C114.593 259.459 114.31 260.45 111.688 276.156ZM113.885 279.269C129.547 255.639 138.264 243.966 167.818 214.959C141.666 240.782 131.39 252.385 113.885 279.269ZM113.672 278.491C129.334 254.861 138.052 243.258 167.676 214.252C141.524 240.075 131.248 251.606 113.672 278.491ZM112.113 276.297C120.405 234.273 131.39 191.825 174.338 134.802C143.792 176.331 123.807 212.837 112.113 276.297ZM171.432 204.276C168.456 175.199 168.81 160.271 176.677 134.165C169.873 158.149 167.605 170.388 171.432 204.276ZM177.244 133.741C177.244 133.741 166.329 152.984 172.07 203.64C169.093 174.633 169.448 159.705 177.244 133.741Z" fill="#55b2c2"/>
<path d="M110.696 276.298C111.476 234.203 114.949 191.966 149.321 138.481C129.548 169.822 110.271 206.257 110.342 276.51C110.484 276.51 110.625 276.368 110.696 276.298ZM112.114 276.298C120.406 234.273 131.391 191.895 174.339 134.802C154.778 160.483 138.478 184.042 121.965 233C114.736 258.894 114.311 260.45 111.689 276.156C111.689 276.015 111.972 276.298 112.114 276.298ZM163.496 131.548C166.968 131.052 171.646 130.416 175.189 129.92C175.402 129.637 175.544 129.425 175.685 129.213C173.418 129.496 170.37 129.92 168.102 130.274C164.346 130.84 159.243 131.618 155.487 132.326C155.274 132.609 155.133 132.821 154.92 133.033C157.472 132.609 160.944 131.972 163.496 131.618V131.548Z" fill="#55b2c2"/>
<path d="M206.442 208.238C203.82 204.206 200.205 198.97 197.725 194.867C200.347 198.899 203.678 204.276 206.442 208.238ZM171.998 203.852V203.64C169.093 174.633 169.447 159.705 177.243 133.741H177.172C177.172 133.741 165.549 152.56 171.431 204.276C171.573 204.135 171.857 203.993 171.998 203.852ZM178.022 133.104C178.235 151.428 179.723 165.79 197.937 196.919C185.535 174.987 177.456 158.715 178.022 133.104Z" fill="#55b2c2"/>
<path d="M215.514 210.927C236.705 201.305 250.737 194.938 287.094 180.081C265.408 188.995 243.012 198.263 215.514 210.927ZM215.372 210.078C236.563 200.456 250.595 194.089 286.811 179.232C265.124 188.146 242.658 197.414 215.372 210.078ZM287.378 174.987C287.378 174.987 287.378 174.987 287.378 174.916C281.425 173.077 273.487 170.6 267.534 168.69L266.683 169.327C272.778 171.237 280.928 173.855 287.094 175.765C287.094 175.623 287.236 175.34 287.378 175.057V174.987ZM206.372 208.309C203.749 204.276 200.206 198.97 197.725 194.867C187.52 176.472 177.881 159.068 178.661 132.538C178.661 132.538 178.448 132.75 178.307 132.892C178.023 150.296 179.299 165.082 197.938 196.989L205.805 208.946C205.805 208.946 206.159 208.521 206.372 208.309ZM265.833 168.973L266.683 168.336C240.957 159.705 202.049 146.688 180.858 130.345H180.787C180.787 130.345 180.575 130.699 180.504 130.769C185.465 134.684 190.686 138.151 196.166 141.169C215.302 150.862 228.696 156.522 265.833 168.973Z" fill="#55b2c2"/>
<path d="M373.982 218.567C268.384 215.667 257.328 215.384 215.23 213.969C243.437 214.912 296.355 216.445 373.982 218.567ZM373.982 217.648C268.668 214.747 257.682 214.464 215.443 213.049C243.319 213.992 296.166 215.525 373.982 217.648ZM280.645 159.068C291.276 151.357 301.977 143.645 312.608 135.934C272.424 164.94 248.186 182.486 222.388 203.215C241.524 188.146 243.933 186.236 266.683 169.256L267.534 168.619L279.865 159.564L280.574 159.068H280.645ZM214.734 208.45C246.556 182.91 257.824 174.704 312.183 135.368C311.899 135.58 285.393 154.753 280.22 158.502L279.511 158.998L266.754 168.336L265.904 168.973C244.43 184.962 234.082 192.744 214.805 208.45H214.734Z" fill="#55b2c2"/>
<path d="M215.514 210.927C236.705 201.305 250.737 194.938 287.094 180.01C287.023 179.798 286.952 179.444 286.881 179.232C264.132 188.641 242.587 197.485 215.443 210.078C215.443 210.361 215.514 210.644 215.585 210.927H215.514ZM307.151 151.852L314.876 137.42C314.876 137.42 314.45 137.278 314.167 137.137C305.025 154.045 301.268 161.12 296.095 170.813C296.449 170.954 296.52 170.954 296.804 171.096C299.851 165.294 303.962 157.583 307.08 151.781L307.151 151.852ZM222.388 203.215C251.871 180.01 256.407 176.685 312.537 135.934C312.466 135.792 312.324 135.651 312.253 135.509C253.005 177.392 229.05 196.848 214.734 208.45C214.805 208.592 214.947 208.804 215.018 208.946C217.215 207.248 220.191 204.913 222.388 203.215Z" fill="#55b2c2"/>
<path d="M388.37 218.143C395.953 217.435 406.088 216.516 413.6 215.737C406.017 216.445 395.882 217.435 388.37 218.143ZM376.959 212.271C345.87 171.614 327.09 146.357 320.617 136.5H320.546C320.546 136.5 320.333 136.712 320.191 136.783C328.838 150.131 347.548 175.458 376.322 212.766C376.322 212.766 376.747 212.412 376.959 212.271ZM321.821 135.368C332.594 142.113 354.068 155.036 386.244 174.138C351.706 153.715 330.232 140.792 321.821 135.368ZM442.728 207.601C402.898 182.769 361.935 159.847 322.247 134.802C362.006 159.705 402.969 182.698 442.728 207.601Z" fill="#55b2c2"/>
<path d="M442.8 168.973C441.241 161.969 439.256 152.701 437.484 145.768C439.185 152.701 441.382 161.969 442.8 168.973ZM447.406 204.701C444.43 181.354 442.942 169.681 436.776 145.697C441.737 166.497 444.217 176.968 447.406 204.701ZM442.658 207.672C402.97 182.627 361.936 159.776 322.248 134.731C322.248 134.731 321.964 135.226 321.822 135.368C332.595 142.113 354.069 155.036 386.244 174.138C413.672 190.48 422.814 195.999 442.445 208.38C442.516 208.167 442.658 207.884 442.729 207.672H442.658ZM430.043 139.188C406.018 137.349 402.899 137.137 323.24 132.043C323.24 132.043 323.24 132.538 323.169 132.68C358.888 135.156 394.536 137.278 430.256 139.825C430.256 139.613 430.114 139.33 430.043 139.188Z" fill="#55b2c2"/>
<path d="M519.552 279.835C520.403 273.68 521.607 265.402 522.245 259.247C521.466 265.402 520.474 273.68 519.552 279.835ZM514.024 283.231C494.818 259.389 483.975 246.725 453.5 217.152C479.155 242.339 493.968 257.903 514.024 283.231ZM520.19 280.542C524.017 251.677 527.986 221.892 519.836 178.524C523.875 203.074 527.986 228.472 520.19 280.542ZM453.713 208.804C472.139 199.961 495.031 188.924 514.875 174.067C503.748 181.92 489.928 191.754 453.713 208.804Z" fill="#55b2c2"/>
<path d="M454.21 209.653C472.636 200.81 495.599 189.702 515.443 174.845C515.301 174.633 515.159 174.421 515.017 174.279C500.276 184.325 487.519 192.957 453.714 208.804C453.785 209.016 453.926 209.229 454.068 209.441C454.068 209.441 454.068 209.582 454.139 209.653H454.21ZM442.799 168.973C441.24 161.969 439.256 152.701 437.484 145.768C437.271 145.768 436.988 145.768 436.775 145.768C441.736 166.568 444.217 177.038 447.406 204.771C447.619 204.771 447.831 204.771 448.044 204.771C446.768 194.018 444.926 179.656 442.87 168.973H442.799ZM513.175 169.681C507.292 167.134 499.497 163.738 493.614 161.332C476.605 154.541 467.25 150.862 441.099 141.452C441.099 141.452 441.099 141.877 441.099 142.018C482.275 157.37 487.59 159.351 513.317 170.388C513.317 170.176 513.175 169.893 513.175 169.681Z" fill="#55b2c2"/>
<path d="M523.309 284.221C547.476 265.402 566.966 249.06 578.66 224.722C570.013 241.136 560.446 255.922 523.309 284.221ZM576.817 218.001C572.069 213.332 565.619 207.106 560.588 202.72C565.549 207.248 572.14 213.261 576.817 218.001ZM520.191 280.542C524.018 251.677 527.987 221.892 519.836 178.524C519.695 178.524 519.482 178.383 519.27 178.312C522.955 201.588 525.861 219.912 522.246 259.247C521.467 265.402 520.474 273.68 519.553 279.835L520.191 280.542ZM523.167 175.765C530.184 180.576 539.539 187.014 546.413 192.037C539.539 187.014 530.255 180.505 523.167 175.765Z" fill="#55b2c2"/>
<path d="M576.816 218.143C573.91 212.059 565.618 207.177 560.587 202.72C551.09 195.008 540.317 186.306 523.096 174.987C523.096 174.987 523.096 175.482 523.096 175.623C530.112 180.434 539.467 186.943 546.341 192.037C563.28 205.479 563.988 206.045 576.887 218.85C576.887 218.638 576.887 218.355 576.816 218.143ZM517.497 131.76L514.945 123.836C514.945 123.836 514.591 123.553 514.449 123.482C519.623 141.594 520.473 146.9 518.489 167.346C518.631 167.487 518.843 167.629 518.985 167.77C520.19 154.965 521.182 144.848 517.426 131.831L517.497 131.76Z" fill="#55b2c2"/>
<path d="M605.732 268.869C602.685 254.861 600.629 245.593 583.266 225.005C594.18 238.589 602.118 248.352 605.803 268.869H605.732ZM563.634 157.229C567.249 163.313 571.714 171.662 574.62 178.17C571.643 171.732 567.532 163.172 563.634 157.229ZM562.926 156.168C571.926 171.166 572.493 172.086 577.171 186.236C571.926 171.308 571.005 168.619 562.926 156.168Z" fill="#55b2c2"/>
<path d="M563.636 157.229C563.636 157.229 563.14 156.522 562.927 156.168C571.928 171.237 572.495 172.086 577.172 186.236C580.503 202.225 580.716 203.215 580.361 217.011C580.432 217.152 580.574 217.365 580.645 217.577C580.787 202.578 580.787 195.079 574.621 178.1C571.644 171.662 567.392 163.172 563.636 157.158V157.229ZM577.385 214.959C566.045 190.48 553.218 162.818 518.207 124.827C538.405 148.173 557.47 170.247 577.172 215.171C577.172 215.171 577.314 215.03 577.385 214.959ZM544.713 132.326C544.713 132.326 544.288 131.831 544.075 131.618L542.162 129.92C536.563 126.524 533.09 124.685 515.727 120.086C515.727 120.086 515.939 120.44 528.767 124.331C538.335 127.798 540.815 128.859 544.642 132.326H544.713Z" fill="#55b2c2"/>
<path d="M173.559 311.035C147.266 301.201 133.658 295.824 114.169 285.424V285.565C114.169 285.565 114.027 286.061 114.027 286.344C114.594 286.697 115.373 287.193 115.94 287.546C134.154 296.885 145.565 301.979 173.417 312.025C173.417 311.601 173.488 311.459 173.559 311.176V311.035ZM177.953 305.446C173.701 277.288 170.299 255.002 172.496 216.799C171.504 242.268 170.724 262.431 177.953 305.446ZM113.885 279.269C129.548 255.639 138.265 243.966 167.818 214.959C167.747 214.747 167.676 214.464 167.606 214.252C141.454 240.075 131.178 251.607 113.602 278.491C113.672 278.703 113.743 279.057 113.814 279.269H113.885Z" fill="#55b2c2"/>
<path d="M227.35 352.705C203.608 334.947 203.182 334.594 183.764 318.109C197.56 329.759 212.089 341.291 227.35 352.705ZM180.858 305.799C187.378 276.651 192.197 256.913 206.939 220.336C195.883 248.777 188.087 270.142 180.787 305.799H180.858Z" fill="#55b2c2"/>
<path d="M180.859 305.799C187.379 276.651 192.198 256.913 206.939 220.336C206.798 220.336 206.656 220.265 206.514 220.194C197.584 242.268 188.371 265.119 180.15 305.516C180.292 305.516 180.433 305.658 180.575 305.658C180.575 305.587 180.788 305.729 180.859 305.799ZM177.811 305.446C173.417 275.802 170.299 254.366 172.425 216.799H172.354C172.354 216.799 172.071 216.94 171.929 216.94C170.795 240.853 169.803 261.582 177.173 305.658C177.386 305.658 177.599 305.516 177.811 305.446ZM203.892 212.483C196.238 211.776 186.032 210.785 178.449 210.078H177.74C177.669 210.361 177.599 210.431 177.528 210.785C183.339 211.351 191.064 212.129 196.876 212.695L203.75 213.261C203.75 213.261 203.821 212.766 203.963 212.483H203.892Z" fill="#55b2c2"/>
<path d="M352.933 376.264C316.718 370.746 308.072 369.402 279.51 364.803C310.056 369.685 312.466 370.109 352.933 376.264ZM353.075 375.344C317.71 369.968 287.094 365.298 251.304 359.143C289.149 365.51 293.968 366.218 353.075 375.344ZM355.414 371.453C301.693 320.515 290.495 309.903 253.004 268.374C290.637 309.973 300.488 319.383 355.414 371.453ZM231.53 349.026C223.735 320.02 212.041 276.156 210.056 220.124H209.986C209.986 220.124 209.56 220.265 209.348 220.336C210.482 244.461 212.395 284.929 230.822 349.238C231.034 349.238 231.318 349.097 231.53 349.026Z" fill="#55b2c2"/>
<path d="M361.084 369.543C367.32 329.641 370.084 310.681 375.258 269.576C370.439 307.639 368.313 323.84 361.084 369.543ZM355.343 371.524C309.607 327.613 275.518 293.23 253.076 268.374C234.507 246.866 227.42 238.377 213.175 217.931H213.104C213.104 217.931 212.679 218.426 212.537 218.638C212.962 219.275 213.529 220.053 213.884 220.69C253.572 275.732 296.024 316.199 354.776 372.231C354.989 372.019 355.201 371.807 355.343 371.595V371.524ZM373.982 217.718C321.112 216.091 268.313 214.818 215.443 213.049V213.332V213.403C228.767 214.299 281.637 216.02 374.053 218.567V218.284C374.053 218.284 374.053 217.86 374.053 217.718H373.982Z" fill="#55b2c2"/>
<path d="M367.746 375.274C403.962 364.591 424.089 358.506 455.414 348.106C425.578 357.87 410.269 362.751 367.746 375.274ZM450.453 218.85C454.918 243.046 459.171 265.898 461.297 303.252C459.383 277.217 457.682 254.719 450.453 218.85ZM364.77 370.817C383.267 341.032 421.821 279.057 446.555 218.072C426.428 266.11 404.316 307.497 364.77 370.746V370.817ZM363.99 370.321C382.559 340.466 421.113 278.42 445.776 217.648C425.648 265.615 403.466 307.002 363.99 370.321Z" fill="#55b2c2"/>
<path d="M362.077 369.685C369.873 319.807 375.542 280.259 380.999 225.571C380.716 225.571 380.432 225.501 380.149 225.43C377.668 248.494 376.889 255.427 375.188 269.576C370.369 307.709 368.243 323.84 361.014 369.543C361.226 369.543 361.51 369.543 361.722 369.614C361.722 369.614 361.864 369.614 361.935 369.614L362.077 369.685ZM364.77 370.816C383.267 341.032 421.821 279.057 446.556 218.143C446.343 218.001 446.059 217.86 445.847 217.718C424.656 267.383 403.253 307.356 363.919 370.321C364.132 370.463 364.416 370.604 364.628 370.746C364.628 370.746 364.628 370.746 364.699 370.746L364.77 370.816ZM413.6 215.737C422.247 214.888 433.728 213.756 442.374 212.907C442.374 212.695 442.232 212.412 442.232 212.2C432.877 213.049 420.404 214.11 411.049 215.03C404.174 215.667 395.103 216.516 388.228 217.152C388.228 217.365 388.299 217.648 388.37 217.86C395.953 217.223 406.088 216.445 413.671 215.737H413.6Z" fill="#55b2c2"/>
<path d="M557.965 344.64C544.712 344.852 519.978 345.277 468.171 345.913C493.543 345.63 528.199 345.206 557.965 344.64ZM557.681 336.009C547.263 317.897 542.019 308.771 523.45 285.778C535.026 300.54 546.413 317.284 557.61 336.009H557.681ZM519.198 280.613C501.48 260.874 489.928 248.423 459.312 221.539C481.849 241.702 498.22 256.7 519.127 280.613H519.198ZM462.147 337.777C462.005 327.448 461.792 313.582 461.296 303.252C459.383 277.146 457.682 254.649 450.453 218.85H450.382C450.382 218.85 449.957 218.85 449.744 218.85C456.619 257.196 460.871 284.363 461.438 337.707C461.651 337.707 461.934 337.707 462.218 337.707L462.147 337.777Z" fill="#55b2c2"/>
<path d="M559.17 339.9C555.981 335.018 551.658 328.509 548.256 323.84C551.587 328.651 556.052 335.018 559.17 339.9ZM559.808 338.697C549.106 319.171 544.712 311.105 523.876 284.999L523.309 285.424C524.939 290.73 531.247 295.682 534.649 300.069C539.397 306.153 547.264 317.331 557.611 336.079C548.965 323.533 539.326 311.058 528.695 298.654C542.161 314.289 549.532 322.92 559.595 339.051C559.595 338.909 559.737 338.768 559.808 338.626V338.697ZM523.026 284.434L523.309 284.221L522.104 282.736C522.459 283.302 522.742 283.797 523.026 284.434ZM521.183 281.816C521.183 281.816 521.396 281.957 521.467 282.099C521.112 281.674 520.545 281.038 520.191 280.613L519.553 279.906C497.795 255.71 485.889 243.754 454.21 216.162V216.303C454.21 216.303 453.784 216.869 453.643 217.082C478.022 241.419 492.905 256.488 514.025 283.302C514.167 283.089 514.379 282.806 514.521 282.594C499.284 263.704 488.228 249.979 459.312 221.68C481.849 241.773 498.221 256.771 519.199 280.755C519.836 280.967 520.474 281.179 521.254 281.957L521.183 281.816Z" fill="#55b2c2"/>
<path d="M582.627 346.055C577.596 345.63 570.934 345.135 565.902 344.852C570.934 345.206 577.596 345.701 582.627 346.126V346.055ZM564.98 337.424C573.343 312.52 573.698 311.53 576.887 296.39C570.579 322.071 570.438 322.567 564.98 337.424ZM587.021 338.131C590.069 311.176 593.896 277.571 582.273 229.321C587.659 255.285 594.392 287.617 587.021 338.131ZM570.579 319.1C580.289 281.887 582.769 265.473 580.643 228.26C582.415 262.785 581.281 278.844 570.579 319.1Z" fill="#55b2c2"/>
<path d="M559.524 339.192C549.814 324.406 544.499 316.341 528.695 298.654L523.167 292.711V292.852C523.167 292.852 522.883 293.277 522.812 293.489C537.27 309.761 539.467 312.237 548.184 323.84C551.515 328.651 555.98 335.018 559.099 339.9C559.24 339.546 559.311 339.404 559.453 339.192H559.524ZM576.887 296.39C581.423 269.435 583.124 259.318 581.069 228.684C580.927 228.543 580.785 228.401 580.644 228.26C582.415 262.785 581.281 278.844 570.58 319.1L564.556 336.999C564.556 336.999 564.839 337.353 564.981 337.494C572.423 315.279 574.407 309.337 576.887 296.461V296.39ZM523.946 284.999C548.043 266.181 567.461 249.909 579.084 225.642C579.014 225.43 578.872 225.218 578.801 225.005C570.863 239.438 562.642 254.366 523.379 284.292L523.096 284.504C523.096 284.504 523.309 284.999 523.379 285.212C523.592 285.212 523.876 285.212 524.017 285.07L523.946 284.999Z" fill="#55b2c2"/>
<path d="M588.439 343.508C591.912 340.961 596.519 337.494 599.708 334.664C596.448 337.494 591.912 341.102 588.439 343.508ZM587.022 338.131C590.069 311.176 593.896 277.571 582.273 229.321L584.47 240.358C589.786 272.689 592.479 293.206 586.738 338.06C586.738 337.989 586.951 338.06 587.093 338.131H587.022ZM583.336 226.42C600.204 254.861 604.314 266.464 607.716 295.187C604.385 267.808 600.983 256.134 583.336 226.42Z" fill="#55b2c2"/>
<path d="M608 302.828C608 302.333 608 301.908 608 301.413L607.788 295.187C604.457 267.808 601.055 256.134 583.408 226.42C583.408 227.199 584.046 227.977 584.329 228.614C595.598 248.069 607.221 268.091 608 302.828ZM605.874 270.001C605.874 269.647 605.803 269.223 605.732 268.869C602.685 254.861 600.63 245.664 583.195 225.005V225.147C583.195 225.147 583.195 225.571 583.266 225.784C584.896 229.038 588.582 232.505 590.92 235.335C598.433 244.744 603.465 256.417 605.874 270.072V270.001Z" fill="#55b2c2"/>
<path d="M340.532 40C337.272 40 334.791 40.1415 333.516 40.2122C334.012 40.2122 338.193 40 344.075 40C343.579 40 342.091 40 340.532 40Z" fill="#55b2c2"/>
<path d="M332.311 40.7782C330.752 40.9905 329.122 41.3442 327.562 41.415C327.704 41.2735 330.752 40.7782 334.933 40.4245C334.933 40.4245 335.5 40.4245 335.784 40.4245C336.492 40.4245 337.13 40.3538 337.272 40.3538C335.642 40.566 334.012 40.6368 332.382 40.849L332.311 40.7782Z" fill="#55b2c2"/>
<path d="M346.131 40.6367C345.918 40.566 345.705 40.4245 345.422 40.3537C345.422 40.3537 345.918 40.566 346.06 40.6367H346.131ZM346.272 40.3537C347.052 40.5659 347.123 40.7782 347.052 40.7782C347.052 40.7782 346.981 40.7782 346.91 40.7782C347.123 40.7782 347.052 40.7074 346.981 40.6367C346.839 40.566 346.627 40.4245 346.201 40.283L346.272 40.3537Z" fill="#55b2c2"/>
<path d="M383.054 50.4007L382.982 50.3292L383.054 50.4007Z" fill="#55b2c2"/>
<path d="M382.982 50.33L383.054 50.2584L382.982 50.33Z" fill="#55b2c2"/>
<path d="M391.063 54.7155C388.795 54.5033 383.692 51.5319 383.125 50.4706C383.55 51.0366 384.542 51.6734 385.464 52.3101C386.598 53.0176 389.503 54.6448 391.275 54.7155C391.275 54.7155 391.133 54.7155 391.063 54.7155Z" fill="#55b2c2"/>
<path d="M391.773 54.574L391.701 54.6456L391.773 54.574Z" fill="#55b2c2"/>
<path d="M391.629 54.1495C391.629 54.1495 391.629 54.2203 391.7 54.291C391.7 54.291 391.7 54.2203 391.629 54.1495Z" fill="#55b2c2"/>
<path d="M391.559 54.0081C391.559 54.0081 391.629 54.1496 391.7 54.1496C391.7 54.1496 391.629 54.0081 391.559 54.0081Z" fill="#55b2c2"/>
<path d="M391.133 53.6543C391.133 53.6543 391.275 53.7958 391.345 53.8665C391.345 53.8665 391.204 53.725 391.133 53.6543Z" fill="#55b2c2"/>
<path d="M390.92 53.4421C390.92 53.4421 391.062 53.5836 391.133 53.6543C391.133 53.6543 390.991 53.5128 390.92 53.4421Z" fill="#55b2c2"/>
<path d="M390.637 53.2299C390.637 53.2299 390.849 53.3714 390.92 53.4421C390.849 53.4421 390.708 53.3006 390.637 53.2299Z" fill="#55b2c2"/>
<path d="M390.354 53.0176C390.354 53.0176 390.566 53.1591 390.637 53.2298C390.566 53.2298 390.424 53.0883 390.354 53.0176Z" fill="#55b2c2"/>
<path d="M390 52.8054C390 52.8054 390.213 52.9469 390.354 53.0176C390.284 53.0176 390.142 52.8761 390 52.8054Z" fill="#55b2c2"/>
<path d="M389.646 52.5931C389.646 52.5931 389.929 52.7346 390 52.8054C389.788 52.6639 389.433 52.4516 389.221 52.3101C389.362 52.3809 389.504 52.4516 389.646 52.5224V52.5931Z" fill="#55b2c2"/>
<path d="M346.272 40.3537C346.839 40.566 347.123 40.7075 346.981 40.7782C346.768 40.849 346.13 40.6367 345.351 40.283C345.351 40.283 345.209 40.2122 344.713 40.0707C344.713 40.0707 345.563 40.1415 346.343 40.3537H346.272Z" fill="#55b2c2"/>
<path d="M389.645 52.5931C391.487 53.7251 392.267 54.6448 391.488 54.7863C390.708 54.9278 388.511 54.2203 385.463 52.3809C382.487 50.5414 382.983 50.2584 383.196 50.1877C383.196 50.1877 383.337 50.1877 383.408 50.1877C383.621 50.1877 384.046 50.1877 385.251 50.6122C386.881 51.1782 388.369 51.8856 389.645 52.5931Z" fill="#55b2c2"/>
<path d="M367.817 42.4762C368.242 42.6176 368.809 42.7591 368.951 42.8299C368.951 42.8299 367.061 42.4762 363.281 41.7687C367.014 42.4762 368.904 42.8063 368.951 42.7591C368.951 42.7591 368.809 42.6176 367.604 42.3347C367.604 42.3347 367.746 42.3347 367.817 42.3347V42.4762Z" fill="#55b2c2"/>
<path d="M475.683 94.5465C475.683 94.5465 475.612 94.4758 475.541 94.405L476.037 94.8295C476.037 94.8295 475.825 94.6173 475.754 94.5465H475.683Z" fill="#55b2c2"/>
<path d="M476.038 94.901L475.967 94.8295L476.038 94.901Z" fill="#55b2c2"/>
<path d="M476.462 95.254C476.462 95.254 476.179 94.971 476.037 94.9003L476.533 95.3248C476.533 95.3248 476.533 95.3248 476.462 95.3248V95.254Z" fill="#55b2c2"/>
<path d="M476.533 95.3247L476.605 95.3963L476.533 95.3247Z" fill="#55b2c2"/>
<path d="M476.817 95.6078L476.533 95.3955L477.029 95.82C477.029 95.82 476.888 95.6785 476.817 95.6785V95.6078Z" fill="#55b2c2"/>
<path d="M477.101 95.8208L477.029 95.7493L477.101 95.8208Z" fill="#55b2c2"/>
<path d="M482.7 96.8104C483.834 98.3669 483.834 99.2158 482.7 99.0743C481.496 98.9329 479.299 97.6594 477.102 95.8199C481.141 99.0743 483.622 99.7111 483.551 98.5084C483.551 97.9424 482.913 97.0934 482.559 96.6689C482.559 96.6689 482.63 96.8104 482.7 96.8812V96.8104Z" fill="#55b2c2"/>
<path d="M480.502 94.405C480.502 94.405 481.849 95.6077 482.557 96.5982C481.849 95.7492 481.494 95.3955 480.502 94.405Z" fill="#55b2c2"/>
<path d="M365.196 41.9102C367.109 42.2639 368.81 42.6884 369.023 42.8299C368.668 42.9714 359.03 41.0612 358.959 40.9905C359.384 40.9905 360.731 41.2027 362.077 41.3442C362.077 41.3442 363.211 41.4857 364.203 41.698C364.203 41.698 364.841 41.8395 365.196 41.8395V41.9102Z" fill="#55b2c2"/>
<path d="M344.713 40C345.776 40 349.036 40 352.579 40.1415C348.965 40 348.398 40 344.004 40C344.217 40 344.429 40 344.642 40H344.713Z" fill="#55b2c2"/>
<path d="M178.802 102.046C180.219 100.702 180.999 99.8526 181.141 99.4281C180.999 99.9233 179.652 101.197 178.66 102.187C178.66 102.187 178.802 102.046 178.873 101.975L178.802 102.046Z" fill="#55b2c2"/>
<path d="M178.59 102.258C178.59 102.258 178.448 102.4 178.377 102.47L178.59 102.258Z" fill="#55b2c2"/>
<path d="M178.377 102.47C178.377 102.47 178.235 102.612 178.164 102.683L178.377 102.47Z" fill="#55b2c2"/>
<path d="M177.527 103.248C177.527 103.248 177.952 102.824 178.164 102.682L178.023 102.824C178.023 102.824 177.597 103.248 177.385 103.461C177.385 103.461 177.527 103.319 177.597 103.248H177.527Z" fill="#55b2c2"/>
<path d="M177.244 103.461C177.244 103.461 177.102 103.602 177.031 103.673L177.244 103.461Z" fill="#55b2c2"/>
<path d="M177.031 103.673C177.031 103.673 176.889 103.814 176.818 103.885L177.031 103.673Z" fill="#55b2c2"/>
<path d="M176.606 104.027C176.606 104.027 176.748 103.885 176.819 103.885C176.748 103.956 176.606 104.027 176.535 104.168C176.535 104.168 176.535 104.168 176.606 104.097V104.027Z" fill="#55b2c2"/>
<path d="M173.842 104.593C173.842 104.593 174.268 104.239 174.409 104.097C174.268 104.239 173.984 104.451 173.842 104.593ZM173.275 105.088C173.275 105.088 173.63 104.734 173.842 104.593C173.701 104.734 173.488 104.946 173.275 105.088ZM172.779 105.583C172.779 105.583 173.134 105.229 173.275 105.088C173.134 105.229 172.921 105.442 172.779 105.583ZM172.354 106.008C172.354 106.008 172.708 105.654 172.85 105.583C172.708 105.725 172.496 105.866 172.354 106.008ZM171.858 106.432C171.858 106.432 172.141 106.149 172.283 106.008C172.141 106.149 172 106.291 171.858 106.432ZM171.504 106.857C171.504 106.857 171.787 106.574 171.929 106.432C171.787 106.574 171.645 106.715 171.504 106.857ZM171.149 107.281C171.149 107.281 171.433 106.998 171.504 106.927C171.362 107.069 171.22 107.21 171.149 107.281ZM170.795 107.635C170.795 107.635 171.008 107.423 171.149 107.281C171.078 107.423 170.937 107.564 170.795 107.635ZM170.511 107.918C170.511 107.918 170.724 107.706 170.795 107.564C170.724 107.635 170.582 107.776 170.511 107.918ZM170.299 108.201C170.299 108.201 170.441 107.989 170.511 107.918C170.441 107.989 170.37 108.13 170.299 108.201ZM170.086 108.484C170.086 108.484 170.228 108.342 170.299 108.201C170.299 108.272 170.157 108.342 170.086 108.484ZM169.944 108.696C169.944 108.696 170.015 108.555 170.086 108.484C170.086 108.484 170.015 108.625 169.944 108.696ZM169.874 108.838C169.874 108.838 169.874 108.696 169.944 108.696C169.944 108.696 169.944 108.838 169.874 108.838ZM169.803 108.979C169.803 108.979 169.803 108.908 169.803 108.838C169.803 108.838 169.803 108.908 169.803 108.979ZM169.874 109.05C169.874 109.05 169.874 109.05 169.874 108.979C169.874 108.979 169.874 108.979 169.874 109.05ZM169.944 109.05C169.944 109.05 169.944 109.05 169.874 109.05C169.874 109.05 169.874 109.05 169.944 109.05ZM175.969 104.593C175.969 104.593 176.394 104.239 176.536 104.097C176.394 104.239 176.11 104.451 175.969 104.593C172.779 107.352 170.653 108.908 169.944 109.05C171.078 108.838 175.118 105.3 175.969 104.593ZM181.071 99.3574C181.071 99.3574 181.071 99.3574 181 99.3574H181.071ZM180.859 99.7818C180.859 99.7818 180.93 99.6404 181 99.6404C181 99.7111 180.859 99.7818 180.859 99.8526V99.7818ZM180.221 100.56C180.221 100.56 180.221 100.56 180.221 100.631C180.221 100.631 180.221 100.631 180.221 100.56Z" fill="#55b2c2"/>
<path d="M175.968 104.593C175.401 105.088 170.582 109.262 169.873 109.05C169.59 108.13 177.031 101.551 180.149 99.7111C180.149 99.7111 180.646 99.4281 180.858 99.3574C180.858 99.3574 180.929 99.3574 181 99.3574C181 99.3574 181 99.3574 181.071 99.3574C181.213 99.9233 177.315 103.461 176.535 104.168C176.393 104.31 176.11 104.522 175.968 104.663V104.593Z" fill="#55b2c2"/>
<path d="M249.958 93.0608L250.171 92.8485L249.816 93.273C249.816 93.273 249.887 93.1315 249.958 93.0608Z" fill="#55b2c2"/>
<path d="M249.603 93.4853C249.603 93.4853 249.744 93.3438 249.744 93.2023L249.461 93.6268C249.461 93.6268 249.461 93.4853 249.532 93.4853H249.603Z" fill="#55b2c2"/>
<path d="M249.319 93.9805C249.319 93.9805 249.39 93.7683 249.461 93.6975L249.248 94.0512C249.248 94.0512 249.248 93.9805 249.248 93.9098L249.319 93.9805Z" fill="#55b2c2"/>
<path d="M249.107 94.405C249.107 94.405 249.178 94.1928 249.249 94.122L249.107 94.4757C249.107 94.4757 249.107 94.4757 249.107 94.405Z" fill="#55b2c2"/>
<path d="M248.895 94.9002C248.895 94.9002 248.965 94.6879 249.036 94.6172L248.895 94.9709V94.9002Z" fill="#55b2c2"/>
<path d="M248.824 95.1832C248.824 95.1832 248.824 95.0417 248.824 94.9709V95.3247C248.824 95.3247 248.754 95.2539 248.824 95.1832Z" fill="#55b2c2"/>
<path d="M248.824 96.599V96.5274L248.896 96.599H248.824Z" fill="#55b2c2"/>
<path d="M248.965 96.7396L248.895 96.5981L249.036 96.8104L248.965 96.7396Z" fill="#55b2c2"/>
<path d="M249.037 96.8811L249.179 96.9519C249.179 96.9519 249.179 96.9519 249.108 96.8811H249.037Z" fill="#55b2c2"/>
<path d="M249.319 97.1641C249.319 97.1641 249.178 97.0934 249.178 97.0226L249.39 97.1641H249.319Z" fill="#55b2c2"/>
<path d="M251.234 97.3057C251.234 97.3057 250.95 97.3057 250.809 97.3764C250.95 97.3764 251.092 97.3764 251.234 97.3057Z" fill="#55b2c2"/>
<path d="M251.658 97.1642C251.658 97.1642 251.374 97.2349 251.232 97.3057C251.374 97.3057 251.516 97.2349 251.658 97.1642Z" fill="#55b2c2"/>
<path d="M252.083 97.0226C252.083 97.0226 251.729 97.1641 251.658 97.1641C251.8 97.1641 252.013 97.0226 252.083 97.0226Z" fill="#55b2c2"/>
<path d="M252.58 96.8104C252.58 96.8104 252.226 96.9519 252.084 97.0227C252.226 97.0227 252.438 96.8812 252.58 96.8104Z" fill="#55b2c2"/>
<path d="M253.076 96.5981C253.076 96.5981 252.722 96.7396 252.58 96.8104C252.722 96.8104 252.934 96.6689 253.076 96.5981Z" fill="#55b2c2"/>
<path d="M253.572 96.3152C253.572 96.3152 253.218 96.5274 253.076 96.5982C253.218 96.5274 253.431 96.3859 253.572 96.3152Z" fill="#55b2c2"/>
<path d="M253.998 96.0322C253.998 96.0322 253.644 96.2445 253.502 96.3152C253.644 96.2445 253.856 96.103 253.998 96.0322Z" fill="#55b2c2"/>
<path d="M254.494 95.6785C254.494 95.6785 254.14 95.8907 253.998 96.0322C254.14 95.9615 254.352 95.82 254.494 95.6785Z" fill="#55b2c2"/>
<path d="M254.99 95.3247C254.99 95.3247 254.636 95.6077 254.494 95.6784C254.636 95.6077 254.848 95.4662 254.99 95.3247Z" fill="#55b2c2"/>
<path d="M255.415 94.9709C255.415 94.9709 255.061 95.2539 254.99 95.3247C255.132 95.1832 255.274 95.0417 255.415 94.9709Z" fill="#55b2c2"/>
<path d="M255.839 94.5465C255.839 94.5465 255.556 94.8295 255.414 94.971C255.556 94.8295 255.698 94.688 255.839 94.5465Z" fill="#55b2c2"/>
<path d="M256.265 94.122C256.265 94.122 255.982 94.405 255.84 94.5465C255.982 94.405 256.123 94.2635 256.265 94.122Z" fill="#55b2c2"/>
<path d="M256.691 93.6975C256.691 93.6975 256.407 93.9805 256.266 94.122C256.407 93.9805 256.549 93.839 256.691 93.6975Z" fill="#55b2c2"/>
<path d="M257.116 93.2731C257.116 93.2731 256.833 93.5561 256.762 93.6976C256.974 93.4146 257.258 93.0608 257.47 92.7778C257.329 92.9193 257.258 93.1316 257.116 93.2731Z" fill="#55b2c2"/>
<path d="M256.974 81.812C253.643 85.0664 249.108 86.6936 249.179 84.5711C249.249 82.3779 254.848 77.7086 258.25 77.4256C260.164 77.4256 259.03 79.6895 256.904 81.812H256.974Z" fill="#55b2c2"/>
<path d="M249.816 93.2731L250.171 92.7778C250.171 92.7778 249.958 93.1316 249.816 93.2731Z" fill="#55b2c2"/>
<path d="M249.533 93.6976C249.533 93.6976 249.746 93.4146 249.817 93.2731C249.746 93.4146 249.604 93.5561 249.533 93.6976Z" fill="#55b2c2"/>
<path d="M249.25 94.122C249.25 94.122 249.392 93.839 249.463 93.6975C249.392 93.839 249.321 93.9805 249.25 94.122Z" fill="#55b2c2"/>
<path d="M249.037 94.5465C249.037 94.5465 249.179 94.2635 249.25 94.122C249.25 94.2635 249.108 94.405 249.037 94.5465Z" fill="#55b2c2"/>
<path d="M248.896 94.971C248.896 94.971 249.038 94.688 249.038 94.5465C249.038 94.688 248.896 94.8295 248.896 94.971Z" fill="#55b2c2"/>
<path d="M248.824 95.3247C248.824 95.3247 248.895 95.0418 248.895 94.971C248.895 95.1125 248.824 95.254 248.824 95.3247Z" fill="#55b2c2"/>
<path d="M248.825 96.5982C248.825 96.5982 248.825 96.3859 248.754 96.3152C248.754 96.3859 248.754 96.5274 248.825 96.5982Z" fill="#55b2c2"/>
<path d="M248.966 96.8104C248.966 96.8104 248.895 96.669 248.824 96.5982C248.824 96.5982 248.895 96.7397 248.966 96.8104Z" fill="#55b2c2"/>
<path d="M249.179 97.0227C249.179 97.0227 249.038 96.8812 248.967 96.8104C248.967 96.8104 249.109 96.9519 249.179 97.0227Z" fill="#55b2c2"/>
<path d="M249.392 97.1642C249.392 97.1642 249.251 97.0227 249.18 97.0227C249.18 97.0227 249.321 97.1642 249.392 97.1642Z" fill="#55b2c2"/>
<path d="M249.676 97.3057C249.676 97.3057 249.463 97.2349 249.393 97.1642C249.463 97.1642 249.605 97.2349 249.676 97.3057Z" fill="#55b2c2"/>
<path d="M250.03 97.3764C250.03 97.3764 249.818 97.3764 249.676 97.3057C249.747 97.3057 249.888 97.3057 250.03 97.3764Z" fill="#55b2c2"/>
<path d="M251.234 97.3057C251.234 97.3057 250.95 97.3057 250.809 97.3764C250.95 97.3764 251.092 97.3764 251.234 97.3057Z" fill="#55b2c2"/>
<path d="M251.66 97.1642C251.66 97.1642 251.376 97.2349 251.234 97.3057C251.376 97.3057 251.518 97.2349 251.66 97.1642Z" fill="#55b2c2"/>
<path d="M252.085 97.0227C252.085 97.0227 251.731 97.1642 251.66 97.1642C251.802 97.1642 252.015 97.0227 252.085 97.0227Z" fill="#55b2c2"/>
<path d="M252.58 96.8104C252.58 96.8104 252.226 96.9519 252.084 97.0227C252.226 97.0227 252.438 96.8812 252.58 96.8104Z" fill="#55b2c2"/>
<path d="M253.076 96.5982C253.076 96.5982 252.722 96.7397 252.58 96.8104C252.722 96.8104 252.934 96.669 253.076 96.5982Z" fill="#55b2c2"/>
<path d="M253.572 96.3152C253.572 96.3152 253.218 96.5274 253.076 96.5982C253.218 96.5274 253.431 96.3859 253.572 96.3152Z" fill="#55b2c2"/>
<path d="M253.998 96.0322C253.998 96.0322 253.644 96.2445 253.502 96.3152C253.644 96.2445 253.856 96.103 253.998 96.0322Z" fill="#55b2c2"/>
<path d="M254.494 95.6785C254.494 95.6785 254.14 95.8907 253.998 96.0322C254.14 95.9615 254.352 95.82 254.494 95.6785Z" fill="#55b2c2"/>
<path d="M254.99 95.3247C254.99 95.3247 254.636 95.6077 254.494 95.6784C254.636 95.6077 254.848 95.4662 254.99 95.3247Z" fill="#55b2c2"/>
<path d="M255.415 94.971C255.415 94.971 255.061 95.254 254.99 95.3247C255.132 95.1833 255.274 95.0418 255.415 94.971Z" fill="#55b2c2"/>
<path d="M255.841 94.5465C255.841 94.5465 255.558 94.8295 255.416 94.971C255.558 94.8295 255.699 94.688 255.841 94.5465Z" fill="#55b2c2"/>
<path d="M256.267 94.122C256.267 94.122 255.984 94.405 255.842 94.5465C255.984 94.405 256.125 94.2635 256.267 94.122Z" fill="#55b2c2"/>
<path d="M256.691 93.6975C256.691 93.6975 256.407 93.9805 256.266 94.122C256.407 93.9805 256.549 93.839 256.691 93.6975Z" fill="#55b2c2"/>
<path d="M257.116 93.2731C257.116 93.2731 256.833 93.5561 256.762 93.6976C256.903 93.5561 257.045 93.4146 257.116 93.2731Z" fill="#55b2c2"/>
<path d="M257.117 93.2731L257.472 92.7778C257.472 92.7778 257.259 93.1316 257.117 93.2731Z" fill="#55b2c2"/>
<path d="M257.117 93.2731C253.998 97.1642 248.896 98.7914 248.754 96.0322C248.754 94.8295 249.746 93.4146 250.171 92.8486C250.597 92.2826 251.801 90.7969 253.928 89.5942C254.494 89.2404 255.912 88.4622 257.188 88.4622C257.542 88.4622 257.755 88.4622 257.967 88.6037C257.967 88.6037 258.676 88.9575 258.676 89.8772C258.676 90.7261 258.251 91.7166 257.4 92.8486C257.258 92.9901 257.188 93.2023 257.046 93.3438L257.117 93.2731Z" fill="#55b2c2"/>
<path d="M434.223 96.1737H434.152L434.294 96.2445L434.223 96.1737Z" fill="#55b2c2"/>
<path d="M434.366 96.2444H434.295L434.578 96.3152C434.578 96.3152 434.437 96.3152 434.366 96.2444Z" fill="#55b2c2"/>
<path d="M434.649 96.3859L434.578 96.3152L434.72 96.4567L434.649 96.3859Z" fill="#55b2c2"/>
<path d="M428.908 88.7452C428.483 89.5234 428.908 90.9384 429.971 92.4948C430.751 93.556 432.026 94.971 434.082 96.1737C430.538 94.1928 427.703 90.0894 428.979 88.6037C428.979 88.6037 428.908 88.7452 428.837 88.7452H428.908Z" fill="#55b2c2"/>
<path d="M429.191 88.3915C429.191 88.3915 429.262 88.3915 429.333 88.3207H429.191V88.3915Z" fill="#55b2c2"/>
<path d="M435.782 96.8104H435.641L435.853 96.8812L435.782 96.8104Z" fill="#55b2c2"/>
<path d="M429.404 88.2499C429.404 88.2499 429.546 88.2499 429.617 88.1792H429.404V88.2499Z" fill="#55b2c2"/>
<path d="M330.325 71.5535C329.333 74.7372 324.727 76.0107 323.309 73.4637C322.175 71.412 324.372 67.8747 327.703 67.6624C330.042 67.7332 330.892 69.7141 330.325 71.4828V71.5535Z" fill="#55b2c2"/>
<path d="M430.183 92.7071C430.183 92.7071 430.041 92.5656 430.041 92.4948L430.183 92.7071ZM430.325 92.9193C430.325 92.9193 430.254 92.7778 430.183 92.7778L430.325 92.9901V92.9193ZM430.466 93.0608C430.466 93.0608 430.396 92.9901 430.325 92.9193L430.466 93.1315C430.466 93.1315 430.466 93.1315 430.466 93.0608ZM430.679 93.273C430.679 93.273 430.679 93.2023 430.608 93.1315L430.75 93.273H430.679ZM430.821 93.4853L430.963 93.556C430.963 93.556 430.963 93.556 430.963 93.4853H430.821ZM431.033 93.6975L431.175 93.839C431.175 93.839 431.175 93.7683 431.104 93.6975H431.033ZM431.175 93.839L431.388 93.9805L431.246 93.839H431.175ZM431.742 94.405C431.742 94.405 431.459 94.122 431.317 94.0513C431.459 94.1928 431.6 94.3343 431.742 94.4758V94.405ZM431.955 94.6172L431.813 94.4758L432.026 94.6172H431.955ZM432.167 94.7587H432.026H432.238H432.167ZM432.38 94.9002H432.309L432.522 94.971C432.522 94.971 432.522 94.971 432.451 94.9002H432.38ZM432.593 95.1125H432.522L432.734 95.1832C432.734 95.1832 432.663 95.1832 432.593 95.1125ZM437.058 97.0227C435.357 97.0227 433.585 95.82 432.734 95.1832C434.364 96.3859 435.782 97.0227 437.058 97.0227ZM429.474 91.7166C429.474 91.7166 429.403 91.5751 429.333 91.5044C429.333 91.5044 429.403 91.6458 429.474 91.7166ZM429.403 91.5044C429.403 91.5044 429.403 91.3629 429.333 91.3629V91.5044H429.403ZM429.262 91.2921C429.262 91.2921 429.262 91.2214 429.262 91.1506V91.2921ZM429.191 91.0799C429.191 91.0799 429.191 91.0091 429.191 90.9384V91.0799ZM429.12 90.9384C429.12 90.9384 429.12 90.8676 429.12 90.7969V90.9384ZM429.687 88.1792C429.049 88.3207 428.482 88.8867 428.907 90.4431C428.411 88.6744 429.262 88.25 429.829 88.1792C429.829 88.1792 429.758 88.1792 429.687 88.1792ZM429.829 88.1085C429.829 88.1085 429.9 88.1085 429.97 88.1085H429.829ZM429.97 88.1085C429.97 88.1085 430.041 88.1085 430.112 88.1085H429.97ZM430.112 88.1085C430.112 88.1085 430.183 88.1085 430.254 88.1085H430.112Z" fill="#55b2c2"/>
<path d="M430.467 140.462C430.467 140.462 430.325 140.037 430.254 139.896C430.254 140.108 430.396 140.32 430.467 140.462ZM430.679 141.028C430.679 141.028 430.467 140.603 430.396 140.462C430.467 140.603 430.608 140.886 430.679 141.028ZM431.033 141.594C431.033 141.594 430.821 141.169 430.75 141.028C430.821 141.169 430.963 141.452 431.033 141.594ZM431.388 142.089C431.388 142.089 431.104 141.735 431.033 141.523C431.104 141.665 431.317 141.877 431.388 142.089ZM431.742 142.655C431.742 142.655 431.459 142.301 431.388 142.16C431.53 142.301 431.671 142.514 431.742 142.655ZM432.167 143.15C432.167 143.15 431.884 142.797 431.742 142.655C431.884 142.797 432.026 143.009 432.167 143.15ZM432.664 143.575C432.664 143.575 432.38 143.221 432.238 143.08C432.38 143.221 432.522 143.433 432.664 143.575ZM433.16 143.999C433.16 143.999 432.805 143.716 432.664 143.575C432.805 143.716 433.018 143.858 433.16 143.999ZM433.656 144.353C433.656 144.353 433.301 144.07 433.16 143.999C433.301 144.141 433.514 144.282 433.656 144.353ZM434.152 144.707C434.152 144.707 433.797 144.494 433.656 144.353C433.797 144.424 434.01 144.565 434.152 144.707ZM434.719 145.06C434.719 145.06 434.364 144.848 434.152 144.777C434.294 144.848 434.506 144.99 434.719 145.06ZM435.286 145.273C435.286 145.273 434.931 145.131 434.719 144.99C434.861 145.06 435.073 145.131 435.286 145.273ZM435.853 145.485C435.853 145.485 435.498 145.343 435.286 145.273C435.428 145.273 435.711 145.414 435.853 145.485ZM436.349 145.626C436.349 145.626 435.924 145.556 435.782 145.485C435.924 145.485 436.207 145.556 436.349 145.626ZM436.916 145.697C436.916 145.697 436.491 145.697 436.349 145.626C436.491 145.626 436.774 145.626 436.916 145.697ZM437.483 145.768C437.483 145.768 437.128 145.768 436.916 145.768C437.058 145.768 437.27 145.768 437.483 145.768ZM437.908 145.768C437.908 145.768 437.625 145.768 437.483 145.768C437.625 145.768 437.837 145.768 437.979 145.768C437.979 145.768 437.979 145.768 437.908 145.768ZM438.05 145.697H438.192C438.192 145.697 438.192 145.697 438.121 145.697H438.05ZM438.262 145.697H438.121H438.475C438.475 145.697 438.333 145.697 438.262 145.697ZM439.325 145.343C439.325 145.343 438.688 145.626 438.617 145.626C438.9 145.556 439.184 145.414 439.467 145.273C439.467 145.273 439.467 145.273 439.396 145.273L439.325 145.343ZM439.609 145.202H439.467L439.822 145.06C439.822 145.06 439.68 145.131 439.609 145.202ZM440.318 144.494C440.318 144.494 439.892 144.919 439.751 144.99C439.963 144.848 440.176 144.565 440.389 144.353C440.389 144.353 440.389 144.424 440.318 144.424V144.494ZM440.956 143.292C440.814 143.858 440.53 144.211 440.459 144.424C440.814 143.858 440.814 143.858 441.026 143.221C441.026 143.221 441.026 143.292 441.026 143.363L440.956 143.292ZM441.026 142.938V143.08V142.655C441.026 142.726 441.026 142.867 441.026 142.938ZM441.026 141.099C441.168 141.877 441.097 142.514 441.026 142.655C441.026 142.136 441.026 141.594 441.026 141.028V141.099ZM440.885 140.462C440.885 140.462 440.955 140.886 441.026 141.028L440.885 140.462ZM440.743 140.037C440.743 140.037 440.814 140.32 440.885 140.391L440.672 139.825C440.672 139.825 440.672 139.967 440.672 140.037H440.743ZM433.372 134.024C433.372 134.024 433.585 134.024 433.656 134.024H433.372ZM433.656 134.024C433.656 134.024 433.727 134.024 433.797 134.024H433.656ZM433.939 134.095C433.939 134.095 434.01 134.095 434.081 134.095H433.939ZM434.081 134.095C434.081 134.095 434.152 134.095 434.223 134.095H434.081ZM434.364 134.165C434.364 134.165 434.435 134.165 434.506 134.165H434.364ZM434.506 134.165C434.506 134.165 434.648 134.165 434.719 134.165H434.506ZM434.719 134.236C434.719 134.236 434.719 134.236 434.79 134.236H434.719ZM434.79 134.236C434.79 134.236 434.931 134.236 435.002 134.236H434.79ZM439.963 138.339C439.396 137.42 437.837 135.227 435.002 134.307C437.058 134.944 438.971 136.571 440.105 138.622C440.105 138.552 439.963 138.41 439.963 138.339ZM440.105 138.693C440.105 138.693 440.176 138.905 440.247 138.976L440.105 138.693ZM440.247 138.976C440.247 138.976 440.318 139.188 440.389 139.259L440.247 138.976ZM440.389 139.259C440.389 139.259 440.459 139.401 440.53 139.542L440.389 139.259ZM440.53 139.542C440.53 139.542 440.601 139.754 440.672 139.825C440.672 139.754 440.601 139.613 440.53 139.542Z" fill="#55b2c2"/>
<path d="M437.625 92.9193C439.468 95.537 438.83 97.4472 436.208 96.9519C435.641 96.8104 432.735 96.103 429.971 92.4948C428.483 90.4431 427.987 88.25 430.184 88.1085C430.184 88.1085 430.467 88.1085 430.609 88.1085C432.593 88.3915 435.499 90.2309 437.271 92.4948C437.342 92.6363 437.554 92.7778 437.625 92.9193Z" fill="#55b2c2"/>
<path d="M515.443 119.733C515.443 119.733 515.656 119.945 515.727 120.086C518.136 122.916 518.916 125.11 517.64 125.11C518.987 124.968 518.065 122.846 515.372 119.662C512.608 116.62 509.844 114.568 508.285 114.356C509.277 114.427 510.695 115.276 512.537 116.832C513.034 117.257 514.167 118.247 515.372 119.662L515.443 119.733Z" fill="#55b2c2"/>
<path d="M504.74 106.503L504.314 106.078L504.811 106.574L504.74 106.503Z" fill="#55b2c2"/>
<path d="M504.811 106.574L504.952 106.715C504.952 106.715 504.881 106.644 504.811 106.574Z" fill="#55b2c2"/>
<path d="M505.237 106.927L504.953 106.715L505.307 106.998L505.237 106.927Z" fill="#55b2c2"/>
<path d="M505.379 107.069L505.592 107.21C505.592 107.21 505.521 107.14 505.45 107.069H505.379Z" fill="#55b2c2"/>
<path d="M505.662 107.352L505.449 107.21L505.733 107.493C505.733 107.493 505.662 107.423 505.591 107.352H505.662Z" fill="#55b2c2"/>
<path d="M505.874 107.564H505.803L506.015 107.635C506.015 107.635 506.015 107.635 505.944 107.564H505.874Z" fill="#55b2c2"/>
<path d="M506.157 107.776L506.016 107.635L506.299 107.918C506.299 107.918 506.157 107.776 506.086 107.776H506.157Z" fill="#55b2c2"/>
<path d="M506.441 107.989L506.299 107.918L506.511 108.059L506.441 107.989Z" fill="#55b2c2"/>
<path d="M506.583 108.13H506.512L506.795 108.342C506.724 108.342 506.653 108.201 506.583 108.13Z" fill="#55b2c2"/>
<path d="M506.937 108.484L506.795 108.342L507.008 108.484H506.937Z" fill="#55b2c2"/>
<path d="M507.008 108.484L507.433 108.767C507.291 108.696 507.15 108.555 507.079 108.484H507.008Z" fill="#55b2c2"/>
<path d="M507.929 109.191L507.504 108.908L508 109.262L507.929 109.191Z" fill="#55b2c2"/>
<path d="M508.425 109.545C508.425 109.545 508.142 109.333 508 109.262L508.496 109.616L508.425 109.545Z" fill="#55b2c2"/>
<path d="M508.78 109.828C508.78 109.828 508.567 109.687 508.496 109.616L508.85 109.899H508.78V109.828Z" fill="#55b2c2"/>
<path d="M508.922 109.97H508.852L509.064 110.04C509.064 110.04 508.993 110.04 508.922 109.97Z" fill="#55b2c2"/>
<path d="M509.772 110.465L509.701 110.394L509.843 110.536L509.772 110.465Z" fill="#55b2c2"/>
<path d="M510.198 110.677L510.057 110.606L510.269 110.748L510.198 110.677Z" fill="#55b2c2"/>
<path d="M510.552 110.889L510.41 110.818L510.552 110.889Z" fill="#55b2c2"/>
<path d="M510.835 110.96H510.764L510.835 111.032V110.96Z" fill="#55b2c2"/>
<path d="M511.12 111.102L511.049 111.031L511.12 111.102Z" fill="#55b2c2"/>
<path d="M511.614 110.96C511.614 110.96 511.544 110.96 511.473 111.031C511.473 111.031 511.544 111.031 511.614 110.96Z" fill="#55b2c2"/>
<path d="M511.545 110.253C511.545 110.253 511.545 110.394 511.616 110.535C511.616 110.465 511.545 110.394 511.545 110.253Z" fill="#55b2c2"/>
<path d="M511.332 109.97C511.332 109.97 511.403 110.182 511.474 110.253C511.474 110.182 511.332 110.04 511.332 109.97Z" fill="#55b2c2"/>
<path d="M511.189 109.616C511.189 109.616 511.331 109.828 511.402 109.97C511.402 109.899 511.26 109.757 511.189 109.616Z" fill="#55b2c2"/>
<path d="M510.906 109.262C510.906 109.262 511.048 109.545 511.19 109.616C511.119 109.474 510.977 109.333 510.906 109.262Z" fill="#55b2c2"/>
<path d="M510.623 108.838C510.623 108.838 510.836 109.121 510.907 109.262C510.836 109.121 510.694 108.979 510.623 108.838Z" fill="#55b2c2"/>
<path d="M510.268 108.484C510.268 108.484 510.48 108.767 510.622 108.908C510.551 108.767 510.409 108.625 510.268 108.484Z" fill="#55b2c2"/>
<path d="M509.914 107.989C509.914 107.989 510.198 108.272 510.268 108.413C510.127 108.272 509.985 108.13 509.914 107.989Z" fill="#55b2c2"/>
<path d="M509.488 107.564C509.488 107.564 509.772 107.918 509.914 107.989C509.772 107.847 509.63 107.635 509.488 107.564Z" fill="#55b2c2"/>
<path d="M508.992 107.069C508.992 107.069 509.276 107.423 509.417 107.564C509.276 107.423 509.134 107.21 508.992 107.069Z" fill="#55b2c2"/>
<path d="M508.566 106.574C508.566 106.574 508.921 106.927 509.063 107.069C508.921 106.927 508.708 106.715 508.566 106.574Z" fill="#55b2c2"/>
<path d="M508.567 106.574L508 106.078C508 106.078 508.354 106.432 508.567 106.574Z" fill="#55b2c2"/>
<path d="M480.998 94.9003C483.408 97.2349 484.258 99.0744 482.982 99.0744C482.132 99.0744 479.581 98.1547 475.541 94.4758C475.399 94.3343 475.257 94.1928 475.116 94.0513C471.501 90.3724 472.706 90.0187 473.131 90.0187C474.974 90.1602 478.73 92.7071 481.069 94.971L480.998 94.9003Z" fill="#55b2c2"/>
<path d="M504.811 106.574L504.244 106.078C504.244 106.078 504.598 106.432 504.811 106.574Z" fill="#55b2c2"/>
<path d="M505.378 107.069C505.378 107.069 505.023 106.715 504.811 106.574C504.952 106.715 505.165 106.927 505.378 107.069Z" fill="#55b2c2"/>
<path d="M505.874 107.564C505.874 107.564 505.519 107.21 505.307 107.069C505.448 107.21 505.661 107.423 505.874 107.564Z" fill="#55b2c2"/>
<path d="M506.442 107.989C506.442 107.989 506.088 107.635 505.875 107.564C506.017 107.706 506.229 107.918 506.442 107.989Z" fill="#55b2c2"/>
<path d="M506.938 108.484C506.938 108.484 506.583 108.201 506.441 108.059C506.583 108.201 506.796 108.342 506.938 108.484Z" fill="#55b2c2"/>
<path d="M507.504 108.838C507.504 108.838 507.15 108.555 507.008 108.413C507.15 108.555 507.362 108.696 507.504 108.838Z" fill="#55b2c2"/>
<path d="M508 109.262C508 109.262 507.646 108.979 507.504 108.838C507.646 108.979 507.858 109.121 508 109.262Z" fill="#55b2c2"/>
<path d="M508.496 109.616C508.496 109.616 508.142 109.333 508 109.262C508.142 109.404 508.354 109.545 508.496 109.616Z" fill="#55b2c2"/>
<path d="M508.922 109.97C508.922 109.97 508.568 109.757 508.426 109.616C508.568 109.687 508.78 109.828 508.922 109.97Z" fill="#55b2c2"/>
<path d="M509.417 110.252C509.417 110.252 509.134 110.04 508.992 109.969C509.134 110.04 509.276 110.182 509.417 110.252Z" fill="#55b2c2"/>
<path d="M509.773 110.465C509.773 110.465 509.489 110.323 509.348 110.182C509.489 110.253 509.631 110.323 509.773 110.465Z" fill="#55b2c2"/>
<path d="M510.198 110.677C510.198 110.677 509.915 110.535 509.844 110.465C509.985 110.465 510.127 110.606 510.198 110.677Z" fill="#55b2c2"/>
<path d="M510.552 110.889C510.552 110.889 510.268 110.748 510.197 110.748C510.268 110.748 510.481 110.889 510.552 110.889Z" fill="#55b2c2"/>
<path d="M510.834 110.96C510.834 110.96 510.622 110.889 510.551 110.818C510.622 110.818 510.763 110.889 510.834 110.96Z" fill="#55b2c2"/>
<path d="M511.119 111.101C511.119 111.101 510.907 111.101 510.836 111.031C510.907 111.031 511.049 111.031 511.119 111.101Z" fill="#55b2c2"/>
<path d="M511.614 110.96C511.614 110.96 511.544 110.96 511.473 111.031C511.473 111.031 511.544 111.031 511.614 110.96Z" fill="#55b2c2"/>
<path d="M511.543 110.253C511.543 110.253 511.543 110.394 511.614 110.535C511.614 110.465 511.543 110.394 511.543 110.253Z" fill="#55b2c2"/>
<path d="M511.332 109.969C511.332 109.969 511.403 110.182 511.474 110.252C511.474 110.182 511.332 110.04 511.332 109.969Z" fill="#55b2c2"/>
<path d="M511.189 109.616C511.189 109.616 511.331 109.828 511.402 109.97C511.402 109.899 511.26 109.757 511.189 109.616Z" fill="#55b2c2"/>
<path d="M510.906 109.262C510.906 109.262 511.048 109.545 511.19 109.616C511.119 109.474 510.977 109.333 510.906 109.262Z" fill="#55b2c2"/>
<path d="M510.623 108.838C510.623 108.838 510.836 109.121 510.907 109.262C510.836 109.121 510.694 108.979 510.623 108.838Z" fill="#55b2c2"/>
<path d="M510.268 108.484C510.268 108.484 510.48 108.767 510.622 108.908C510.551 108.767 510.409 108.625 510.268 108.484Z" fill="#55b2c2"/>
<path d="M509.914 107.989C509.914 107.989 510.198 108.272 510.268 108.413C510.127 108.272 509.985 108.13 509.914 107.989Z" fill="#55b2c2"/>
<path d="M509.488 107.564C509.488 107.564 509.772 107.918 509.914 107.989C509.772 107.847 509.63 107.635 509.488 107.564Z" fill="#55b2c2"/>
<path d="M508.992 107.069C508.992 107.069 509.276 107.423 509.417 107.564C509.276 107.423 509.134 107.21 508.992 107.069Z" fill="#55b2c2"/>
<path d="M508.566 106.574C508.566 106.574 508.921 106.927 509.063 107.069C508.921 106.927 508.708 106.715 508.566 106.574Z" fill="#55b2c2"/>
<path d="M508.567 106.574L508 106.078C508 106.078 508.354 106.432 508.567 106.574Z" fill="#55b2c2"/>
<path d="M508.567 106.574C511.118 109.121 512.394 111.101 511.402 111.101C510.835 111.101 508.567 110.04 504.315 106.078C502.401 104.239 501.622 103.178 501.196 102.541C500.346 101.268 500.842 101.197 500.984 101.197C501.338 101.197 501.763 101.338 502.968 102.046C503.89 102.612 505.732 103.885 508.071 106.008C508.213 106.149 508.425 106.361 508.638 106.503L508.567 106.574Z" fill="#55b2c2"/>
<path d="M175.544 129.354C175.544 129.354 175.614 129.213 175.685 129.142L175.473 129.425L175.544 129.354Z" fill="#55b2c2"/>
<path d="M175.544 129.425V129.354L175.473 129.496L175.544 129.425Z" fill="#55b2c2"/>
<path d="M175.33 129.637C175.33 129.637 175.401 129.496 175.472 129.425L175.33 129.637Z" fill="#55b2c2"/>
<path d="M175.189 129.92C175.189 129.92 175.26 129.779 175.331 129.779L175.189 129.92Z" fill="#55b2c2"/>
<path d="M175.119 129.991L175.047 130.063C175.047 130.063 175.047 130.063 175.047 129.991H175.119Z" fill="#55b2c2"/>
<path d="M175.047 130.133V130.062L174.977 130.203L175.047 130.133Z" fill="#55b2c2"/>
<path d="M174.977 130.274V130.203L174.906 130.345L174.977 130.274Z" fill="#55b2c2"/>
<path d="M174.906 130.345L174.834 130.416L174.906 130.345Z" fill="#55b2c2"/>
<path d="M174.622 130.84C174.622 130.84 174.763 130.557 174.834 130.416C174.763 130.557 174.622 130.769 174.551 130.911C174.551 130.911 174.551 130.84 174.551 130.769L174.622 130.84Z" fill="#55b2c2"/>
<path d="M174.552 130.982V130.911L174.48 130.982H174.552Z" fill="#55b2c2"/>
<path d="M174.481 131.052V130.982L174.41 131.123L174.481 131.052Z" fill="#55b2c2"/>
<path d="M174.338 131.335L174.409 131.194L174.338 131.335Z" fill="#55b2c2"/>
<path d="M174.339 131.407V131.335L174.268 131.407H174.339Z" fill="#55b2c2"/>
<path d="M174.127 131.761L174.199 131.689L174.127 131.761Z" fill="#55b2c2"/>
<path d="M174.126 131.831V131.76L174.055 131.901L174.126 131.831Z" fill="#55b2c2"/>
<path d="M173.984 132.043L174.055 131.972L173.984 132.114V132.043Z" fill="#55b2c2"/>
<path d="M173.913 132.255C173.913 132.255 173.913 132.255 173.842 132.397C173.842 132.397 173.842 132.326 173.842 132.255H173.913Z" fill="#55b2c2"/>
<path d="M173.771 132.68L173.843 132.609L173.771 132.68Z" fill="#55b2c2"/>
<path d="M173.772 132.821V132.75L173.701 132.892L173.772 132.821Z" fill="#55b2c2"/>
<path d="M173.771 134.378L173.843 134.449L173.771 134.378Z" fill="#55b2c2"/>
<path d="M173.842 134.448L173.913 134.52L173.842 134.448Z" fill="#55b2c2"/>
<path d="M173.984 134.59L174.056 134.661L173.984 134.59Z" fill="#55b2c2"/>
<path d="M154.848 133.033C151.162 137.49 148.327 139.542 148.115 138.552C147.902 137.773 149.32 135.368 151.446 132.821C153.572 130.274 156.407 127.515 157.682 127.444C159.171 127.657 154.989 132.963 154.918 133.033H154.848Z" fill="#55b2c2"/>
<path d="M177.811 133.316C177.811 133.316 177.881 133.316 177.952 133.246C177.952 133.246 177.881 133.246 177.811 133.316C176.606 134.236 175.614 134.731 174.834 134.802C174.834 134.802 174.834 134.802 174.905 134.802C175.684 134.66 176.677 134.165 177.811 133.316ZM182.913 123.624C182.913 123.624 182.984 123.624 183.055 123.624H182.913ZM183.268 126.737C183.693 125.888 184.472 123.836 183.055 123.624C183.693 123.695 183.976 124.261 183.764 125.18C183.764 125.393 183.764 125.463 183.622 125.676C183.622 125.676 183.409 126.312 183.126 126.949C183.126 126.878 183.197 126.807 183.268 126.737ZM183.197 126.949C183.197 126.949 183.126 127.09 183.055 127.161L183.197 126.949ZM183.055 127.232C183.055 127.232 182.984 127.373 182.913 127.444L183.055 127.232ZM182.913 127.515C182.913 127.515 182.842 127.656 182.772 127.727L182.913 127.515ZM182.772 127.727C182.772 127.727 182.772 127.727 182.772 127.798V127.727ZM182.701 127.798C182.701 127.798 182.63 127.939 182.559 128.01L182.701 127.798ZM182.63 128.01C182.63 128.01 182.63 128.081 182.63 128.152V128.01ZM182.559 128.081C182.559 128.081 182.488 128.222 182.417 128.222L182.559 128.081ZM182.417 128.293C182.417 128.293 182.417 128.364 182.346 128.435V128.293H182.417ZM182.346 128.435C182.346 128.435 182.346 128.505 182.275 128.576V128.435H182.346ZM182.275 128.576C182.275 128.576 182.205 128.718 182.134 128.718L182.275 128.576ZM182.134 128.718C182.134 128.718 182.134 128.788 182.063 128.859V128.718H182.134ZM182.063 128.859C182.063 128.859 181.921 129.071 181.85 129.142C181.85 129.071 181.992 128.93 182.063 128.859Z" fill="#55b2c2"/>
<path d="M175.33 129.708L175.755 129.142C175.755 129.142 175.472 129.567 175.33 129.708Z" fill="#55b2c2"/>
<path d="M174.975 130.274C174.975 130.274 175.258 129.85 175.329 129.708C175.187 129.85 175.045 130.133 174.975 130.274Z" fill="#55b2c2"/>
<path d="M174.621 130.84C174.621 130.84 174.834 130.486 174.975 130.274C174.905 130.416 174.763 130.628 174.621 130.84Z" fill="#55b2c2"/>
<path d="M174.338 131.335C174.338 131.335 174.551 130.982 174.621 130.84C174.551 130.982 174.409 131.194 174.338 131.335Z" fill="#55b2c2"/>
<path d="M174.125 131.831C174.125 131.831 174.267 131.477 174.338 131.335C174.338 131.477 174.196 131.689 174.125 131.831Z" fill="#55b2c2"/>
<path d="M173.912 132.255C173.912 132.255 174.054 131.901 174.125 131.76C174.125 131.901 173.983 132.114 173.912 132.255Z" fill="#55b2c2"/>
<path d="M173.77 132.75C173.77 132.75 173.84 132.467 173.911 132.326C173.911 132.467 173.84 132.609 173.77 132.75Z" fill="#55b2c2"/>
<path d="M173.699 133.104C173.699 133.104 173.699 132.821 173.77 132.68C173.77 132.821 173.77 132.963 173.699 133.104Z" fill="#55b2c2"/>
<path d="M173.77 134.378C173.77 134.378 173.77 134.236 173.699 134.165C173.699 134.236 173.699 134.307 173.77 134.378Z" fill="#55b2c2"/>
<path d="M173.911 134.519C173.911 134.519 173.84 134.378 173.77 134.307C173.77 134.307 173.84 134.448 173.911 134.519Z" fill="#55b2c2"/>
<path d="M174.125 134.66C174.125 134.66 173.983 134.59 173.912 134.519C173.912 134.519 174.054 134.59 174.125 134.66Z" fill="#55b2c2"/>
<path d="M174.338 134.802C174.338 134.802 174.196 134.802 174.125 134.731C174.196 134.731 174.267 134.731 174.338 134.802Z" fill="#55b2c2"/>
<path d="M174.975 134.802H174.904L175.046 134.731L174.975 134.802Z" fill="#55b2c2"/>
<path d="M175.4 134.661L175.258 134.731L175.4 134.661Z" fill="#55b2c2"/>
<path d="M175.754 134.519L175.684 134.59L175.825 134.519H175.754Z" fill="#55b2c2"/>
<path d="M175.826 134.519L176.11 134.377C176.11 134.377 175.968 134.448 175.897 134.519H175.826Z" fill="#55b2c2"/>
<path d="M176.181 134.378H176.109L176.181 134.307V134.378Z" fill="#55b2c2"/>
<path d="M176.25 134.307L176.675 134.094C176.533 134.094 176.392 134.236 176.321 134.307H176.25Z" fill="#55b2c2"/>
<path d="M177.031 133.882C177.031 133.882 176.747 134.095 176.605 134.165L177.031 133.882Z" fill="#55b2c2"/>
<path d="M177.102 133.811L177.243 133.741C177.243 133.741 177.172 133.741 177.102 133.811Z" fill="#55b2c2"/>
<path d="M177.455 133.529L177.242 133.741L177.526 133.529H177.455Z" fill="#55b2c2"/>
<path d="M177.598 133.529L177.739 133.458C177.739 133.458 177.669 133.529 177.598 133.529Z" fill="#55b2c2"/>
<path d="M178.022 133.104C178.022 133.104 177.81 133.245 177.668 133.387L178.022 133.104Z" fill="#55b2c2"/>
<path d="M178.235 133.033C178.235 133.033 178.165 133.104 178.094 133.175L178.448 132.892C178.448 132.892 178.306 133.033 178.235 133.104V133.033Z" fill="#55b2c2"/>
<path d="M178.518 132.75L178.447 132.821L178.589 132.68L178.518 132.75Z" fill="#55b2c2"/>
<path d="M178.66 132.609L179.015 132.326C178.944 132.397 178.802 132.538 178.731 132.609H178.66Z" fill="#55b2c2"/>
<path d="M179.014 132.255L178.943 132.397L179.085 132.255H179.014Z" fill="#55b2c2"/>
<path d="M179.937 131.406C179.441 131.901 179.016 132.326 179.016 132.326C179.299 132.043 179.653 131.689 179.937 131.406Z" fill="#55b2c2"/>
<path d="M180.008 131.335L180.15 131.194C180.15 131.194 180.079 131.265 180.008 131.335Z" fill="#55b2c2"/>
<path d="M180.361 130.911L180.148 131.194L180.432 130.84L180.361 130.911Z" fill="#55b2c2"/>
<path d="M180.504 130.84L180.646 130.699C180.646 130.699 180.575 130.769 180.504 130.84Z" fill="#55b2c2"/>
<path d="M180.786 130.416L180.645 130.699L180.928 130.345L180.786 130.416Z" fill="#55b2c2"/>
<path d="M180.928 130.274L181.069 130.133C181.069 130.133 180.999 130.203 180.928 130.274Z" fill="#55b2c2"/>
<path d="M181.212 129.92L181.07 130.133L181.354 129.779C181.354 129.779 181.354 129.85 181.283 129.92H181.212Z" fill="#55b2c2"/>
<path d="M181.424 129.708H181.354L181.495 129.567C181.495 129.567 181.495 129.637 181.424 129.708Z" fill="#55b2c2"/>
<path d="M181.78 129.142C181.78 129.142 181.567 129.425 181.496 129.567L181.85 129.142H181.78Z" fill="#55b2c2"/>
<path d="M181.426 129.708C178.166 133.953 173.842 136.217 173.63 133.812C173.559 132.75 174.268 131.194 175.756 129.142C177.74 126.525 180.859 123.765 182.914 123.624C184.544 123.765 184.119 125.888 181.851 129.142C181.709 129.284 181.567 129.567 181.426 129.708Z" fill="#55b2c2"/>
<path d="M299.78 177.746C298.575 183.689 290.921 185.953 287.732 181.283C286.243 179.09 286.243 175.34 289.22 172.511C291.275 170.671 293.259 170.6 294.11 170.53C298.362 170.6 300.488 174.35 299.78 177.746Z" fill="#55b2c2"/>
<path d="M322.743 129.354C320.616 124.827 313.6 125.817 311.828 130.911C311.687 131.265 311.616 131.689 311.545 132.043C312.041 129.001 314.451 126.807 317.569 126.454C317.569 126.454 317.852 126.454 317.994 126.454C320.758 126.454 322.388 128.293 322.955 129.85C322.955 129.708 322.813 129.496 322.743 129.354Z" fill="#55b2c2"/>
<path d="M323.239 132.043C323.239 131.052 323.239 130.769 322.955 129.85C323.38 131.052 323.239 132.043 323.239 132.043Z" fill="#55b2c2"/>
<path d="M323.167 132.609C322.175 137.632 315.23 139.613 312.395 135.651C311.332 134.236 311.474 132.75 311.545 132.043C312.182 128.718 314.663 126.595 317.994 126.454C322.317 126.666 323.593 130.203 323.097 132.609H323.167Z" fill="#55b2c2"/>
<path d="M442.232 212.412C442.232 212.412 442.161 211.988 442.09 211.776L442.232 212.483V212.412Z" fill="#55b2c2"/>
<path d="M442.374 212.837C442.374 212.837 442.374 212.624 442.303 212.483L442.444 212.978V212.837H442.374Z" fill="#55b2c2"/>
<path d="M442.443 213.191V212.978L442.514 213.403C442.514 213.403 442.514 213.261 442.443 213.191Z" fill="#55b2c2"/>
<path d="M442.729 213.898V213.756L442.87 214.181C442.87 214.181 442.799 214.039 442.729 213.969V213.898Z" fill="#55b2c2"/>
<path d="M443.012 214.535V214.393L443.153 214.747C443.153 214.747 443.083 214.605 443.012 214.535Z" fill="#55b2c2"/>
<path d="M443.294 214.959L443.152 214.747L443.365 215.03L443.294 214.959Z" fill="#55b2c2"/>
<path d="M443.436 215.171V215.03L443.577 215.384C443.577 215.313 443.436 215.242 443.436 215.171Z" fill="#55b2c2"/>
<path d="M443.72 215.596L443.578 215.384L443.72 215.667V215.596Z" fill="#55b2c2"/>
<path d="M443.791 215.737L444.075 215.95C444.075 215.95 443.933 215.808 443.862 215.737H443.791Z" fill="#55b2c2"/>
<path d="M444.146 216.162L444.004 216.02L444.217 216.233L444.146 216.162Z" fill="#55b2c2"/>
<path d="M444.287 216.303L444.571 216.516C444.571 216.516 444.429 216.374 444.358 216.303H444.287Z" fill="#55b2c2"/>
<path d="M444.642 216.728L444.5 216.516L444.713 216.799L444.642 216.728Z" fill="#55b2c2"/>
<path d="M444.783 216.799L445.067 217.011C444.996 217.011 444.854 216.869 444.783 216.799Z" fill="#55b2c2"/>
<path d="M445.209 217.223L444.996 217.082L445.209 217.223Z" fill="#55b2c2"/>
<path d="M445.279 217.294L445.634 217.506C445.563 217.506 445.421 217.365 445.35 217.294H445.279Z" fill="#55b2c2"/>
<path d="M445.775 217.648C445.775 217.648 445.633 217.577 445.562 217.506L445.775 217.648Z" fill="#55b2c2"/>
<path d="M446.342 218.001L445.846 217.718L446.413 218.072L446.342 218.001Z" fill="#55b2c2"/>
<path d="M446.908 218.284C446.908 218.284 446.625 218.143 446.412 218.072L446.979 218.355L446.908 218.284Z" fill="#55b2c2"/>
<path d="M446.98 218.355L447.052 218.427L446.98 218.355Z" fill="#55b2c2"/>
<path d="M447.263 218.497H447.051L447.618 218.638C447.547 218.638 447.405 218.567 447.263 218.497Z" fill="#55b2c2"/>
<path d="M448.044 218.709C448.044 218.709 447.76 218.638 447.689 218.567L448.256 218.709C448.256 218.709 448.115 218.709 448.044 218.709Z" fill="#55b2c2"/>
<path d="M448.822 218.921C448.822 218.921 448.468 218.921 448.326 218.85H448.893C448.893 218.85 448.893 218.921 448.822 218.921Z" fill="#55b2c2"/>
<path d="M451.304 218.638C451.304 218.638 451.021 218.78 450.879 218.78L451.375 218.638H451.304Z" fill="#55b2c2"/>
<path d="M452.013 218.355L451.871 218.426L452.084 218.355H452.013Z" fill="#55b2c2"/>
<path d="M452.153 218.284H452.082L452.436 218.143C452.436 218.143 452.295 218.284 452.224 218.284H452.153Z" fill="#55b2c2"/>
<path d="M452.509 218.072L452.438 218.144L452.509 218.072Z" fill="#55b2c2"/>
<path d="M452.932 217.789C452.932 217.789 452.649 218.001 452.578 218.072L453.003 217.718L452.932 217.789Z" fill="#55b2c2"/>
<path d="M453.004 217.718H452.934L453.075 217.648L453.004 217.718Z" fill="#55b2c2"/>
<path d="M453.217 217.435L453.004 217.577L453.287 217.294C453.287 217.294 453.287 217.365 453.217 217.435Z" fill="#55b2c2"/>
<path d="M453.359 217.294V217.365L453.43 217.223L453.359 217.294Z" fill="#55b2c2"/>
<path d="M453.713 216.869C453.713 216.869 453.501 217.082 453.43 217.223L453.713 216.869Z" fill="#55b2c2"/>
<path d="M454.067 216.374L453.783 216.799L454.067 216.303V216.374Z" fill="#55b2c2"/>
<path d="M454.208 216.091C454.208 216.091 454.137 216.233 454.066 216.303L454.279 215.879C454.279 215.879 454.279 216.02 454.208 216.091Z" fill="#55b2c2"/>
<path d="M454.352 215.737V215.879L454.422 215.737H454.352Z" fill="#55b2c2"/>
<path d="M454.422 215.596L454.564 215.242C454.564 215.384 454.493 215.525 454.422 215.596Z" fill="#55b2c2"/>
<path d="M454.777 214.605C454.777 214.605 454.706 214.959 454.635 215.171L454.777 214.605Z" fill="#55b2c2"/>
<path d="M454.919 212.483V212.624L454.848 212.412L454.919 212.483Z" fill="#55b2c2"/>
<path d="M454.846 212.342L454.775 211.705C454.775 211.917 454.775 212.129 454.846 212.342Z" fill="#55b2c2"/>
<path d="M440.886 140.462C442.091 144.848 438.335 147.254 434.224 144.777C431.46 143.15 430.539 140.674 430.255 139.896C430.255 139.896 430.114 139.401 430.043 139.118C429.547 136.146 430.822 134.236 433.445 134.095C436.492 134.236 439.327 136.5 440.744 139.896C440.744 140.108 440.886 140.32 440.957 140.462H440.886Z" fill="#55b2c2"/>
<path d="M522.529 172.864C524.088 176.968 522.671 179.727 519.553 178.453C517.285 177.534 514.379 174.421 513.316 170.388C512.82 168.407 513.174 167.417 513.316 166.992C513.812 165.79 514.733 165.719 515.23 165.719C515.655 165.719 516.08 165.719 516.86 166.143C517.214 166.285 518.135 166.78 519.269 167.912C519.836 168.478 521.466 170.176 522.458 172.864H522.529Z" fill="#55b2c2"/>
<path d="M515.867 120.228C518.135 122.916 518.915 125.11 517.639 125.11C514.733 125.11 506.229 115.842 507.93 114.497C508.001 114.427 508.213 114.427 508.284 114.356C509.772 114.497 512.607 116.62 515.371 119.662C515.513 119.803 515.726 120.016 515.867 120.228Z" fill="#55b2c2"/>
<path d="M177.528 210.714C175.685 216.374 170.228 219.133 168.173 215.525C165.905 211.634 169.52 203.215 174.693 202.932C178.308 203.215 178.591 207.672 177.528 210.714Z" fill="#55b2c2"/>
<path d="M204.103 211.846C203.961 212.271 203.819 212.837 203.678 213.261C203.819 212.483 204.032 211.846 204.386 211.139C204.316 211.351 204.174 211.563 204.103 211.776V211.846Z" fill="#55b2c2"/>
<path d="M204.387 211.21L204.458 211.139L204.387 211.21Z" fill="#55b2c2"/>
<path d="M214.309 207.814C212.041 204.984 207.08 205.833 204.387 211.139C204.883 210.007 206.867 206.399 210.907 206.186C212.183 206.257 213.458 206.611 214.592 208.238C214.521 208.097 214.38 207.955 214.309 207.814Z" fill="#55b2c2"/>
<path d="M215.373 213.261C215.656 211.139 215.515 209.795 214.664 208.238C215.231 209.087 215.798 210.573 215.444 212.978C215.444 212.978 215.444 213.12 215.444 213.261H215.373Z" fill="#55b2c2"/>
<path d="M373.982 217.648C373.982 217.648 373.982 218.143 373.982 218.284C373.982 218.284 373.982 217.86 373.982 217.648V217.435C373.982 217.435 373.982 217.577 373.982 217.648ZM373.982 217.435C373.982 217.435 373.982 217.365 373.982 217.294V217.435ZM373.982 217.294C373.982 217.294 373.982 217.152 373.982 217.011V217.294ZM374.053 217.011C374.053 217.011 374.053 216.799 374.053 216.728V217.011ZM374.053 216.657C374.053 216.657 374.053 216.445 374.053 216.374V216.657ZM375.116 214.11C374.479 215.03 374.266 215.879 374.124 216.303C374.408 215.171 374.904 214.322 375.258 213.827C375.258 213.898 375.116 213.969 375.116 214.039V214.11ZM376.038 212.978C375.683 213.332 375.471 213.615 375.258 213.898C375.612 213.403 375.896 213.12 376.25 212.837C376.25 212.837 376.109 212.978 376.038 213.049V212.978ZM376.746 212.412C376.746 212.412 376.392 212.695 376.25 212.766C376.463 212.624 376.746 212.412 376.959 212.2C376.959 212.2 376.817 212.341 376.746 212.341V212.412ZM377.03 212.271C377.03 212.271 377.101 212.271 377.172 212.2H377.03V212.271ZM377.172 212.129L377.313 212.058H377.172V212.129ZM377.313 212.058C377.313 212.058 377.384 212.058 377.455 212.058H377.313ZM377.455 211.988C377.455 211.988 377.597 211.988 377.597 211.917H377.455V211.988ZM377.597 211.917C377.597 211.917 377.668 211.917 377.739 211.917H377.597ZM377.739 211.846C377.739 211.846 377.88 211.846 377.88 211.776H377.739V211.846ZM377.88 211.776C377.88 211.776 377.951 211.776 378.022 211.776H377.88ZM378.022 211.705C378.022 211.705 378.164 211.705 378.235 211.634H378.022V211.705ZM378.164 211.634C378.164 211.634 378.235 211.634 378.306 211.634H378.164ZM378.306 211.563C378.306 211.563 378.447 211.563 378.518 211.493H378.306V211.563ZM378.518 211.493C378.518 211.493 378.589 211.493 378.66 211.493H378.518ZM378.589 211.493C378.589 211.493 378.731 211.493 378.802 211.493H378.589ZM378.802 211.422C378.802 211.422 378.873 211.422 378.943 211.422H378.802ZM378.943 211.422C378.943 211.422 379.085 211.422 379.156 211.422H378.943ZM379.156 211.351C379.156 211.351 379.156 211.351 379.227 211.351H379.156ZM379.227 211.28C379.227 211.28 379.44 211.28 379.581 211.28H379.227ZM382.062 211.21C382.062 211.21 382.274 211.21 382.345 211.21H382.062ZM382.345 211.28C382.345 211.28 382.345 211.28 382.416 211.28H382.345ZM382.487 211.351C382.487 211.351 382.629 211.351 382.7 211.351H382.487ZM382.77 211.422C382.77 211.422 382.912 211.422 382.983 211.422H382.77ZM382.983 211.422C382.983 211.422 383.054 211.422 383.125 211.422H382.983ZM383.054 211.493C383.054 211.493 383.196 211.493 383.267 211.493H383.054ZM383.267 211.563C383.267 211.563 383.267 211.563 383.337 211.563H383.267ZM383.337 211.563C383.337 211.563 383.479 211.563 383.55 211.634H383.337V211.563ZM383.55 211.634C383.55 211.634 383.55 211.634 383.621 211.634H383.55ZM383.621 211.705C383.621 211.705 383.763 211.705 383.834 211.776H383.621V211.705ZM383.834 211.776C383.834 211.776 383.834 211.776 383.904 211.776H383.834ZM383.904 211.846C383.904 211.846 384.046 211.917 384.117 211.988L383.904 211.846ZM384.684 212.271C384.684 212.271 384.33 212.058 384.117 211.988C384.33 212.129 384.684 212.341 384.897 212.483C384.826 212.483 384.684 212.341 384.613 212.341L384.684 212.271ZM384.967 212.412C384.967 212.412 385.109 212.554 385.251 212.554L384.967 212.412ZM385.251 212.624C385.251 212.624 385.393 212.766 385.464 212.837L385.251 212.624ZM388.369 218.284C388.157 216.02 387.235 214.252 385.464 212.837C386.881 213.969 387.731 215.384 388.157 217.223C388.157 217.223 388.298 217.789 388.298 218.143C388.298 218.143 388.298 218.284 388.298 218.355L388.369 218.284Z" fill="#55b2c2"/>
<path d="M215.373 213.261C213.743 220.336 206.94 222.529 204.388 218.355C203.183 216.445 203.538 214.252 203.679 213.261C204.672 209.158 207.577 206.328 210.908 206.186C214.239 206.399 215.94 209.087 215.373 213.261Z" fill="#55b2c2"/>
<path d="M388.369 218.284C388.369 225.43 380.715 227.694 376.321 223.378C374.266 221.397 374.053 219.204 373.982 218.284C373.982 213.403 377.526 211.139 380.857 211.139C384.117 211.139 387.873 213.403 388.44 218.284H388.369Z" fill="#55b2c2"/>
<path d="M448.966 218.921C446.91 218.709 443.154 216.94 442.162 211.776C442.942 216.02 445.847 218.709 449.604 218.921C449.391 218.921 449.108 218.921 448.966 218.921Z" fill="#55b2c2"/>
<path d="M454.919 212.483C455.061 214.747 454.139 218.638 449.604 218.921C453.36 218.709 455.344 215.95 454.777 211.776C454.777 211.988 454.777 212.271 454.848 212.483H454.919Z" fill="#55b2c2"/>
<path d="M454.918 212.483C455.343 218.143 449.744 220.973 445.279 217.294C440.46 213.332 441.31 205.479 446.626 204.772C446.838 204.772 447.193 204.772 447.405 204.772C451.161 204.842 454.563 208.45 454.918 212.554V212.483Z" fill="#55b2c2"/>
<path d="M577.881 222.741L577.668 221.963C577.668 221.963 577.81 222.458 577.881 222.741Z" fill="#55b2c2"/>
<path d="M578.094 223.449C578.094 223.449 577.952 222.954 577.811 222.741C577.881 222.954 577.952 223.237 578.094 223.449Z" fill="#55b2c2"/>
<path d="M578.377 224.156C578.377 224.156 578.165 223.661 578.094 223.449C578.165 223.661 578.306 223.944 578.377 224.156Z" fill="#55b2c2"/>
<path d="M578.66 224.864C578.66 224.864 578.448 224.369 578.377 224.156C578.448 224.369 578.59 224.652 578.66 224.864Z" fill="#55b2c2"/>
<path d="M578.944 225.501C578.944 225.501 578.731 225.076 578.66 224.864C578.731 225.076 578.873 225.288 578.944 225.501Z" fill="#55b2c2"/>
<path d="M579.297 226.067C579.297 226.067 579.085 225.642 579.014 225.43C579.085 225.642 579.226 225.854 579.297 226.067Z" fill="#55b2c2"/>
<path d="M579.582 226.633C579.582 226.633 579.37 226.208 579.299 226.067C579.37 226.208 579.511 226.491 579.582 226.633Z" fill="#55b2c2"/>
<path d="M579.936 227.128C579.936 227.128 579.723 226.774 579.652 226.633C579.723 226.774 579.865 226.986 579.936 227.128Z" fill="#55b2c2"/>
<path d="M580.219 227.623C580.219 227.623 580.006 227.269 579.936 227.128C580.006 227.269 580.148 227.482 580.219 227.623Z" fill="#55b2c2"/>
<path d="M580.575 228.048C580.575 228.048 580.362 227.765 580.291 227.623C580.362 227.765 580.504 227.906 580.575 228.048Z" fill="#55b2c2"/>
<path d="M580.858 228.401C580.858 228.401 580.645 228.118 580.574 228.048C580.645 228.189 580.787 228.331 580.858 228.401Z" fill="#55b2c2"/>
<path d="M581.141 228.755C581.141 228.755 580.928 228.543 580.857 228.472C580.928 228.543 581.07 228.684 581.141 228.755Z" fill="#55b2c2"/>
<path d="M581.494 228.967C581.494 228.967 581.282 228.826 581.211 228.755C581.282 228.826 581.424 228.897 581.494 228.967Z" fill="#55b2c2"/>
<path d="M581.778 229.18C581.778 229.18 581.565 229.038 581.494 228.967C581.565 228.967 581.707 229.109 581.778 229.18Z" fill="#55b2c2"/>
<path d="M582.063 229.25C582.063 229.25 581.85 229.18 581.779 229.109C581.85 229.109 581.992 229.18 582.063 229.25Z" fill="#55b2c2"/>
<path d="M582.771 229.18C582.771 229.18 582.629 229.25 582.559 229.321C582.559 229.321 582.7 229.25 582.771 229.18Z" fill="#55b2c2"/>
<path d="M582.912 228.967C582.912 228.967 582.77 229.109 582.699 229.18C582.699 229.18 582.841 229.038 582.912 228.967Z" fill="#55b2c2"/>
<path d="M583.054 228.755C583.054 228.755 582.983 228.897 582.912 228.967C582.912 228.897 583.054 228.826 583.054 228.755Z" fill="#55b2c2"/>
<path d="M583.196 228.401C583.196 228.401 583.126 228.614 583.055 228.684C583.055 228.614 583.126 228.472 583.196 228.401Z" fill="#55b2c2"/>
<path d="M583.266 228.048C583.266 228.048 583.266 228.331 583.195 228.401C583.195 228.26 583.195 228.118 583.266 228.048Z" fill="#55b2c2"/>
<path d="M583.195 224.864C583.195 224.864 583.195 225.288 583.266 225.501C583.266 225.288 583.266 225.076 583.195 224.864Z" fill="#55b2c2"/>
<path d="M583.055 224.156C583.055 224.156 583.126 224.652 583.196 224.864C583.196 224.652 583.126 224.369 583.055 224.156Z" fill="#55b2c2"/>
<path d="M582.912 223.449C582.912 223.449 583.054 223.944 583.054 224.156C583.054 223.944 582.983 223.661 582.912 223.449Z" fill="#55b2c2"/>
<path d="M582.699 222.741C582.699 222.741 582.841 223.237 582.912 223.449C582.912 223.237 582.77 222.954 582.699 222.741Z" fill="#55b2c2"/>
<path d="M582.699 222.741L582.486 221.963C582.486 221.963 582.628 222.458 582.699 222.741Z" fill="#55b2c2"/>
<path d="M582.699 222.741C583.904 226.986 583.407 230.028 581.707 229.179C578.446 227.552 575.045 215.596 577.596 214.818C577.596 214.818 577.738 214.818 577.809 214.818C579.722 215.101 581.848 219.629 582.699 222.741Z" fill="#55b2c2"/>
</g>
</g>
<defs>
<filter id="filter0_f_474_11237" x="41" y="-178" width="609" height="609" filterUnits="userSpaceOnUse" color-interpolation-filters="sRGB">
<feFlood flood-opacity="0" result="BackgroundImageFix"/>
<feBlend mode="normal" in="SourceGraphic" in2="BackgroundImageFix" result="shape"/>
<feGaussianBlur stdDeviation="100" result="effect1_foregroundBlur_474_11237"/>
</filter>
<clipPath id="clip0_474_11237">
<rect width="690" height="252" fill="#ffffff"/>
</clipPath>
<clipPath id="clip1_474_11237">
<rect width="527" height="527" fill="#ffffff" transform="translate(81 40)"/>
</clipPath>
</defs>
</svg>