<svg width="345px" height="252px" viewBox="0 0 345 252" fill="none" xmlns="http://www.w3.org/2000/svg" transform="rotate(0) scale(1, 1)">
<g clip-path="url(#clip0_490_14190)">
<g filter="url(#filter0_f_490_14190)">
<circle cx="173.5" cy="126.5" r="104.5" fill="#55b2c2" fill-opacity="0.1"/>
</g>
<g clip-path="url(#clip1_490_14190)">
<path d="M152.363 80.023C164.609 79.0511 165.07 79.0511 172.192 79H170.809C165.531 79.1534 158.563 79.5115 153.337 79.9207L152.415 80.023H152.363Z" fill="#55b2c2"/>
<path d="M165.531 79.3069C167.53 79.2557 170.143 79.0511 172.141 79C170.143 79.0511 167.478 79.1023 165.531 79.3069Z" fill="#55b2c2"/>
<path d="M165.482 79.3069C165.482 79.3069 168.812 79.0511 172.143 79C170.042 79.0511 167.224 79.1534 165.123 79.3069C165.226 79.3069 165.379 79.3069 165.482 79.3069Z" fill="#55b2c2"/>
<path d="M166.045 79.3069C169.017 79.1023 171.066 79 172.193 79C168.658 79.1023 168.556 79.1023 166.096 79.3069H166.045Z" fill="#55b2c2"/>
<path d="M166.095 79.3069C167.888 79.2046 170.348 79.0511 172.141 79C170.143 79.0511 167.53 79.2046 165.532 79.3069C165.429 79.3069 165.378 79.3069 165.275 79.3069C165.48 79.3069 165.788 79.3069 165.993 79.2557H166.044L166.095 79.3069ZM166.403 79.2046C168.145 79.1023 170.399 79.0511 172.141 79H169.374L166.146 79.2557C166.249 79.2557 166.351 79.2557 166.403 79.2557V79.2046Z" fill="#55b2c2"/>
<path d="M173.115 79.2046C173.115 79.2046 172.603 79.1534 172.346 79.1023C172.193 79.1023 171.988 79.1023 171.885 79C171.988 79 172.09 79 172.141 79C172.039 79 171.936 79 171.834 79C171.834 79 172.244 79.0682 173.064 79.2046H173.115ZM172.961 79.1534C172.961 79.1534 172.398 79.0511 172.193 79C172.449 79 172.756 79.1023 172.961 79.1534Z" fill="#55b2c2"/>
<path d="M172.911 79.1023C172.911 79.1023 172.501 79.0511 172.347 79H172.193C172.193 79 172.757 79.0511 172.962 79.1023C172.962 79.1023 172.962 79.1023 172.911 79.1023Z" fill="#55b2c2"/>
<path d="M172.706 79C172.706 79 172.348 79 172.194 79H172.757H172.706ZM172.962 79.0511H172.143H172.86C172.86 79.0511 172.911 79.0511 172.962 79.0511Z" fill="#55b2c2"/>
<path d="M200.374 86.3653L197.914 85.24C187.257 81.1482 182.39 79.3069 172.193 79L176.549 79.2046C185.054 80.6879 189.768 81.5062 200.374 86.4164C200.374 86.4164 200.374 86.4164 200.374 86.3653Z" fill="#55b2c2"/>
<path d="M184.03 79.8695C180.494 79.5115 175.729 79.1023 172.194 79C175.729 79.1534 180.494 79.4092 184.03 79.8695ZM183.517 79.8695C180.494 79.4603 176.447 79.1534 173.424 79.0511H172.143C175.627 79.2046 180.289 79.5115 183.722 79.9207C183.62 79.9207 183.568 79.9207 183.466 79.9207L183.517 79.8695Z" fill="#55b2c2"/>
<path d="M185.207 80.023C183.465 79.7672 181.211 79.4092 179.469 79.2557C181.211 79.4603 183.516 79.6649 185.207 80.023ZM186.744 80.2787C186.078 79.9207 185.207 79.4092 178.444 79.1534C182.082 79.3069 185.668 79.5626 186.693 80.2787H186.744ZM173.115 79C175.831 79 179.981 79.1023 183.363 79.4603C181.672 79.3069 179.11 79.0511 173.115 79Z" fill="#55b2c2"/>
<path d="M179.469 79.2557C177.266 79.1534 174.345 79 172.193 79C180.238 79.2557 180.699 79.2557 184.798 79.9718C184.951 79.9718 185.105 79.9718 185.208 80.023C183.466 79.7672 181.211 79.4092 179.469 79.2557ZM184.029 79.8695C180.494 79.5115 175.729 79.1023 172.193 79C175.677 79.1534 180.289 79.358 183.722 79.8184C183.824 79.8184 183.927 79.8184 184.029 79.8184V79.8695Z" fill="#55b2c2"/>
<path d="M50.7617 124.317C51.9914 123.038 53.3236 121.095 54.5533 119.867C53.3748 121.197 51.7865 122.885 50.7617 124.317ZM53.6822 122.169C70.5393 108.052 83.9634 97.9758 116.192 87.337C93.6985 95.1115 77.2001 101.761 53.6822 122.169Z" fill="#55b2c2"/>
<path d="M54.1934 121.913C72.1264 107.95 105.533 82.0689 164.507 79.1534C141.758 81.0459 99.3846 84.4728 54.1934 121.913ZM164.507 79.1534C147.086 79.8695 136.173 82.4269 124.645 85.1889C144.73 80.6879 145.908 80.4321 164.507 79.1534ZM149.7 80.2787C159.486 79.358 160.254 79.2557 167.069 79.0511C167.274 79.0511 167.479 79.0511 167.735 79.0511C157.898 79.4603 157.078 79.5115 150.571 80.2275L149.751 80.3298L149.7 80.2787Z" fill="#55b2c2"/>
<path d="M52.092 124.419C60.956 120.839 69.0515 117.821 92.7231 112.093C75.5586 116.287 63.4154 119.663 52.092 124.419ZM51.6309 124.828C60.9048 121.043 72.6381 116.798 104.354 109.689C91.2885 112.655 67.002 118.128 51.6309 124.828ZM53.3217 123.192C65.7211 115.008 82.6806 103.858 114.858 91.9404C101.177 97.2086 78.2742 106.006 53.3217 123.192ZM110.195 106.057C125.412 93.3214 137.095 84.6263 160.203 79.9718C143.807 83.7567 131.458 87.5928 110.195 106.057ZM90.315 102.068C118.495 89.5364 139.042 83.0918 161.279 79.7672C144.012 82.478 123.517 87.0813 90.3662 102.017L90.315 102.068Z" fill="#55b2c2"/>
<path d="M114.859 91.9404C125.875 88.1043 142.579 82.3758 160.922 79.8184C137.557 83.501 117.114 89.9456 90.3167 102.017C73.5109 110.251 68.4897 112.962 53.6309 122.834C64.5956 115.775 84.988 102.579 114.859 91.9404ZM54.2969 121.862C73.9208 106.62 90.4704 95.0604 124.646 85.1889C141.81 81.3528 145.909 80.4321 164.508 79.1534C141.759 81.0459 99.4369 84.4728 54.1945 121.913H54.2969V121.862ZM163.893 79.4603C163.893 79.4603 163.893 79.4603 163.945 79.4603C164.047 79.358 164.201 79.2557 165.482 79.2046C167.07 79.1023 169.017 79.0511 170.144 79.0511H170.042C165.789 79.0511 163.586 79.2557 163.483 79.5115C163.637 79.5115 163.74 79.5115 163.893 79.5115V79.4603Z" fill="#55b2c2"/>
<path d="M110.453 106.108C125.619 93.3725 137.25 84.6774 160.255 80.0229C143.859 83.7567 131.511 87.5928 110.196 106.108C110.196 106.108 110.35 106.108 110.453 106.108Z" fill="#55b2c2"/>
<path d="M109.274 113.985C122.186 98.0781 134.175 85.4446 160.357 79.9718C143.654 83.9102 128.283 89.2296 109.018 113.985C109.12 113.985 109.223 113.985 109.325 113.985H109.274ZM133.304 95.265C147.138 86.2118 158.052 79.7161 172.193 79C163.688 79.8184 154.875 80.6367 133.304 95.265ZM109.94 114.087C121.571 103.756 148.778 79.5626 172.142 79C164.098 79.7672 145.294 81.5062 109.94 114.087ZM164.917 79.4092C169.273 79.1023 169.836 79.0511 172.193 79C168.606 79.1023 168.555 79.1023 166.045 79.3069H165.327C165.327 79.3069 165.071 79.4092 164.917 79.4092Z" fill="#55b2c2"/>
<path d="M110.248 115.98C121.879 112.451 122.545 112.246 136.174 108.308C122.34 112.348 121.162 112.706 110.248 115.98ZM110.453 115.008C122.75 108.257 123.467 107.847 135.61 101.403C123.314 107.95 119.624 109.944 110.453 115.008ZM166.558 93.7306C175.166 82.6826 175.012 81.7108 173.936 79.5115C174.295 80.5856 174.295 82.2735 173.782 83.2453C172.143 86.4164 171.784 87.1325 166.558 93.7306Z" fill="#55b2c2"/>
<path d="M110.451 115.315C128.128 105.546 146.215 96.5948 163.789 86.6722C173.166 81.3528 173.832 80.2275 173.678 79.4603C172.5 82.0177 169.016 83.859 135.66 101.454C123.363 108.001 119.674 109.996 110.503 115.059C110.503 115.162 110.503 115.264 110.503 115.366L110.451 115.315ZM133.303 95.265C147.137 86.2118 158.051 79.7161 172.192 79C164.148 79.7672 145.344 81.5062 109.99 114.087C117.215 107.899 126.181 100.175 133.303 95.265ZM173.063 79.1534C173.063 79.1534 172.551 79.1023 172.346 79.0511C172.243 79.0511 172.09 79.0511 171.987 79C171.987 79 172.09 79 172.141 79C172.039 79 171.936 79 171.885 79C171.885 79 172.295 79.0682 173.115 79.2046C173.115 79.2046 173.115 79.2046 173.063 79.2046V79.1534Z" fill="#55b2c2"/>
<path d="M234.037 116.491C210.109 111.53 186.079 107.131 162.151 102.221C186.079 107.08 210.109 111.53 234.037 116.491ZM166.557 93.7306C172.962 85.5469 175.216 82.1712 173.935 79.5115C174.755 82.5803 173.116 85.7004 161.434 99.3057C161.485 99.3057 161.587 99.408 161.639 99.408C163.124 97.7201 165.174 95.4696 166.557 93.6794V93.7306ZM174.294 79.4603C175.165 80.023 176.497 80.3298 177.42 80.6879C178.393 81.0459 187.667 84.882 212.568 100.431C202.987 94.4978 185.208 83.501 174.243 79.4603H174.294Z" fill="#55b2c2"/>
<path d="M234.138 113.781C223.839 102.835 219.587 98.3339 206.367 89.6387C217.178 97.0552 221.636 100.124 234.138 113.781ZM233.472 114.343C225.103 108.615 218.152 103.977 212.618 100.431C203.037 94.4978 185.258 83.501 174.293 79.4603C183.311 83.143 200.885 92.1961 233.421 114.599C233.421 114.548 233.421 114.445 233.472 114.394V114.343ZM200.834 87.0302C200.834 87.0302 185.053 81.9666 174.088 79.358C184.387 82.0177 192.38 84.4728 200.987 87.1836C200.936 87.1836 200.834 87.0814 200.782 87.0302H200.834Z" fill="#55b2c2"/>
<path d="M267.341 118.435C259.911 118.077 259.604 118.077 254.634 117.821C262.371 118.179 263.191 118.23 267.341 118.435ZM266.88 118.026L262.166 117.77L266.931 118.026H266.88ZM265.035 115.417C265.035 115.417 252.738 105.648 223.636 92.0427C240.339 99.9706 246.026 102.835 265.035 115.417ZM265.086 115.622C250.381 105.955 233.678 95.0092 207.24 85.7003C221.586 91.0709 237.828 97.1575 265.086 115.622ZM234.805 113.78C226.915 103.193 214.976 87.1325 189.973 81.0459C201.501 84.6262 218.973 90.0479 234.805 113.78Z" fill="#55b2c2"/>
<path d="M234.395 113.78C224.148 102.886 219.946 98.385 206.522 89.6387C206.522 89.6387 206.42 89.6387 206.369 89.6387C217.18 97.0552 221.637 100.124 234.139 113.78C234.19 113.78 234.344 113.78 234.395 113.78ZM235.164 113.832C227.222 103.193 215.233 87.1836 190.075 81.0459C201.603 84.6774 218.973 90.1502 234.754 113.78C234.805 113.78 234.908 113.78 235.01 113.78C235.01 113.78 235.113 113.78 235.164 113.78V113.832ZM201.655 86.4164C196.804 83.6544 192.722 81.8302 189.409 80.9436C189.409 80.9436 189.204 80.9436 189.102 80.8925C195.011 82.9043 199.195 84.7797 201.655 86.5187C201.655 86.5187 201.911 86.5699 202.013 86.621C201.911 86.5699 201.808 86.4676 201.706 86.4164H201.655Z" fill="#55b2c2"/>
<path d="M286.708 125.391C284.095 123.601 279.945 122.476 277.024 121.299C279.945 122.527 283.839 124.112 286.708 125.391ZM285.734 124.215C271.542 114.701 270.978 114.292 259.706 107.898C274.001 116.236 275.179 116.901 285.734 124.215ZM265.034 115.468C248.844 104.83 242.798 101.045 223.635 92.0938C212.055 87.3371 203.704 83.9102 189.921 80.9436C195.147 82.2223 202.064 84.1148 207.188 85.7004C220.817 90.8151 237.776 97.1575 265.034 115.622C265.034 115.571 265.034 115.52 265.034 115.417V115.468ZM285.581 123.908C285.324 123.601 239.826 90.8663 189.613 80.8413C201.91 83.5521 239.262 91.8381 285.581 123.908Z" fill="#55b2c2"/>
<path d="M285.581 123.959C283.788 122.015 237.93 90.5083 189.562 80.8413C214.207 86.4164 232.55 93.526 259.655 107.899C272.772 115.52 275.129 116.901 285.683 124.215C285.683 124.112 285.581 124.01 285.53 123.959H285.581ZM281.584 119.1C265.957 106.057 236.906 81.762 177.983 79.1023C200.168 80.6879 241.466 83.6033 281.584 119.151V119.1ZM178.444 79.1023C175.626 79 175.575 79 173.833 79C173.576 79 173.32 79 173.115 79C175.831 79 179.981 79.1023 183.363 79.4603C184.746 79.6649 185.72 79.8184 186.232 80.1764C186.386 80.1764 186.539 80.2275 186.693 80.2787C186.181 79.9718 185.105 79.4092 178.444 79.1534V79.1023Z" fill="#55b2c2"/>
<path d="M280.048 112.348C286.299 117.156 288.912 119.714 289.732 125.903C289.014 121.811 288.399 118.282 280.048 112.4V112.348ZM219.588 84.9332C236.599 89.8945 265.035 98.1293 287.016 123.857C277.998 114.036 261.193 95.6742 219.588 84.9332Z" fill="#55b2c2"/>
<path d="M286.299 123.499C254.225 94.1909 224.917 82.12 178.24 79.1023C200.374 80.6879 241.569 83.6033 281.585 119.1L285.992 123.345C285.992 123.345 286.197 123.447 286.299 123.499ZM220.715 85.24C220.357 85.1377 219.947 85.0354 219.588 84.9331C236.599 89.8945 265.036 98.1293 287.016 123.857C287.119 123.908 287.221 124.01 287.324 124.061C278.511 114.343 262.064 96.288 220.664 85.1889L220.715 85.24Z" fill="#55b2c2"/>
<path d="M32.9306 146.106C32.0083 145.543 30.6249 144.776 30.0101 143.855C29.7027 143.395 30.1126 142.474 30.3687 142.014C30.0613 142.628 29.8564 143.702 30.215 144.265C30.7274 145.083 32.0083 145.646 32.8794 146.157L32.9306 146.106ZM35.9536 143.037C38.5155 140.326 40.9749 135.876 43.3318 132.961C41.0773 135.979 38.0031 139.917 35.9536 143.037ZM42.4607 130.404C44.1516 129.278 46.3035 127.795 48.0456 126.721C46.3548 127.795 44.1003 129.227 42.4607 130.404Z" fill="#55b2c2"/>
<path d="M35.4414 146.208C37.2859 145.901 39.7966 145.441 41.6411 145.185C39.7966 145.492 37.2859 145.901 35.4414 146.208ZM51.4274 142.321C49.4121 138.604 48.319 135.007 48.1482 131.529C48.4557 136.797 48.4557 136.899 51.4274 142.321ZM36.2612 142.781C40.1552 138.843 43.998 132.398 47.5846 128.204C47.3797 128.375 45.9621 129.96 43.3319 132.961C41.0775 135.979 38.0033 139.917 35.9538 143.037C36.0563 142.935 36.1587 142.884 36.3124 142.781H36.2612Z" fill="#55b2c2"/>
<path d="M56.3459 140.582C60.8036 137.462 66.7471 133.319 71.256 130.301C66.7471 133.37 60.8036 137.411 56.3459 140.582ZM51.8371 141.861C51.8371 141.861 51.8371 141.861 51.8883 141.809C49.2752 136.899 47.1745 133.063 49.89 126.363H49.8388C48.7628 127.335 48.2505 130.813 48.1992 131.529C48.5066 136.797 48.5066 136.899 51.4784 142.321C51.5809 142.219 51.6834 142.065 51.8883 141.912L51.8371 141.861ZM56.2435 140.94C73.8178 128.613 82.6306 122.885 103.638 111.019C85.295 121.453 74.1253 128.255 56.2435 140.889V140.94ZM51.6321 124.828C60.9061 121.043 72.6394 116.798 104.355 109.689C104.406 109.638 104.509 109.535 104.56 109.484C101.025 110.251 96.2597 111.274 92.7756 112.093C75.6111 116.287 63.4679 119.662 52.1445 124.419C51.9908 124.573 51.7858 124.726 51.6834 124.88L51.6321 124.828Z" fill="#55b2c2"/>
<path d="M53.7832 144.827C59.5218 148.97 59.8292 149.175 65.2603 152.193C57.9334 147.947 57.5235 147.692 53.7832 144.827ZM116.293 171.782C97.6935 165.542 69.5643 156.131 54.2443 144.316C61.4688 149.533 72.3311 157.41 116.293 171.782ZM125.515 165.031C114.807 148.356 108.197 136.95 106.66 119.765C108.095 132.245 110.093 141.554 125.515 165.031ZM126.028 164.621C115.319 147.947 108.658 136.592 107.121 119.458C108.556 131.938 110.554 141.196 126.028 164.621Z" fill="#55b2c2"/>
<path d="M97.4377 121.504L103.33 118.895C103.33 118.895 103.381 118.742 103.432 118.64C90.9306 124.01 84.6796 126.721 65.2095 136.541L56.1405 141.349C56.1405 141.349 55.9868 141.656 55.9355 141.809C66.7978 136.03 77.0965 130.557 97.4889 121.504H97.4377ZM106.968 114.855C106.968 114.855 106.968 114.855 107.019 114.855C107.019 113.832 107.122 112.502 107.122 111.479V110.865C106.968 110.967 106.865 111.018 106.712 111.121C106.66 112.297 106.558 113.934 106.507 115.11C106.558 115.11 106.712 114.957 106.917 114.855H106.968ZM56.243 140.94C73.8173 128.613 82.6301 122.885 103.637 111.018C103.637 110.967 103.637 110.865 103.689 110.763C93.8511 116.287 84.5772 121.555 71.2555 130.25C66.7466 133.319 60.8031 137.36 56.3454 140.531C56.3454 140.582 56.3454 140.684 56.2942 140.787C56.2942 140.787 56.2942 140.889 56.2942 140.94H56.243Z" fill="#55b2c2"/>
<path d="M132.997 174.442C132.997 174.442 132.997 174.442 133.048 174.442C131.05 171.629 128.334 167.946 126.336 165.133L125.823 165.491L132.536 174.851C132.536 174.851 132.74 174.646 132.997 174.493V174.442ZM137.506 173.623C141.673 165.849 146.028 157.734 150.571 149.277C143.756 161.962 141.451 166.258 137.506 173.623ZM125.516 165.031L126.028 164.673C115.32 147.998 108.659 136.644 107.122 119.509H107.071C107.071 119.509 106.917 119.662 106.814 119.714C107.89 131.58 109.735 141.093 125.465 165.082L125.516 165.031ZM149.444 143.6C127.361 132.501 118.906 127.335 108.505 118.384C118.394 126.823 126.08 131.938 149.444 143.6Z" fill="#55b2c2"/>
<path d="M149.392 143.651C127.514 132.501 119.521 127.846 108.505 118.384H108.454C108.454 118.384 108.249 118.64 108.146 118.742C117.677 127.079 125.311 132.194 149.188 144.111C149.29 143.907 149.341 143.855 149.444 143.702L149.392 143.651ZM153.03 141.503C154.516 129.023 155.951 117.207 158.923 104.216C156.976 113.422 155.182 122.169 153.03 141.503ZM110.042 116.389C115.234 114.821 130.879 110.2 156.976 102.528C156.976 102.528 156.976 102.375 156.976 102.272C151.715 103.773 144.781 105.767 136.173 108.257C122.288 112.297 120.7 112.809 110.247 115.929C110.247 115.98 110.145 116.082 110.145 116.184C110.145 116.184 110.093 116.287 110.042 116.338V116.389Z" fill="#55b2c2"/>
<path d="M157.129 145.543C203.191 148.459 210.262 148.919 234.292 150.607C218.75 149.516 193.029 147.828 157.129 145.543ZM239.057 142.065C239.313 129.79 239.313 128.767 237.52 119.662C239.365 130.608 239.518 131.478 239.057 142.065Z" fill="#55b2c2"/>
<path d="M157.079 144.623C198.017 132.961 216.001 127.232 235.318 118.128C235.215 118.026 235.113 117.923 235.01 117.821C213.952 127.181 200.067 131.836 156.976 144.111C156.976 144.265 157.027 144.418 157.079 144.571C157.079 144.571 157.079 144.571 157.079 144.623ZM153.543 141.503C155.08 128.306 156.464 116.9 159.282 104.216C159.282 104.216 159.128 104.216 159.077 104.216C157.232 112.297 155.388 120.583 153.082 141.503C153.338 141.503 153.389 141.503 153.594 141.503H153.543ZM233.832 116.133C210.16 111.121 186.386 106.824 162.663 102.016L162.253 101.914C185.976 107.796 210.16 111.53 234.037 116.491C233.986 116.389 233.883 116.236 233.832 116.133Z" fill="#55b2c2"/>
<path d="M294.548 173.265C275.59 165.133 266.316 161.553 242.337 152.857C266.675 161.655 276.41 165.491 294.548 173.265ZM242.286 152.346C258.169 158.074 265.189 160.632 280.252 166.718C267.955 161.808 261.192 159.149 242.286 152.346ZM240.441 119.816C258.579 134.598 273.079 146.924 294.548 170.81C282.456 157.614 268.775 142.679 240.441 119.816ZM239.365 127.897L237.982 119.918C237.982 119.918 237.726 119.816 237.623 119.765C239.314 130.864 239.468 131.733 239.006 142.065L238.494 147.385C238.494 147.385 238.75 147.538 239.006 147.64C239.826 136.439 240.082 133.421 239.314 127.846L239.365 127.897ZM294.753 170.503C282.661 157.307 268.98 142.372 240.544 119.611C258.682 134.393 273.182 146.669 294.701 170.503H294.753Z" fill="#55b2c2"/>
<path d="M296.7 170.043C292.089 155.619 289.783 148.356 281.38 134.7C288.502 147.282 292.038 153.625 296.7 170.043ZM294.702 170.503C282.815 157.461 269.288 142.679 240.544 119.56C262.013 137.769 273.848 147.794 294.548 170.81C294.548 170.708 294.651 170.606 294.702 170.503ZM266.931 118.077L262.166 117.821C254.891 117.463 250.894 117.31 239.52 116.849L239.622 117.003C239.673 117.054 239.724 117.156 239.827 117.259C244.746 117.463 249.716 117.668 254.635 117.872C262.73 118.23 263.191 118.23 267.341 118.486C267.341 118.486 267.239 118.435 267.239 118.384C267.188 118.333 267.085 118.23 266.983 118.128L266.931 118.077Z" fill="#55b2c2"/>
<path d="M295.727 139.559L297.571 145.288V145.083L295.727 139.559Z" fill="#55b2c2"/>
<path d="M298.851 171.475C300.183 158.074 300.388 153.573 296.289 139.968C296.187 139.917 296.033 139.815 295.982 139.764C296.443 141.4 297.058 143.549 297.519 145.134V145.339C299.363 154.903 300.388 160.172 298.8 171.424C298.8 171.424 298.8 171.424 298.851 171.475ZM294.035 134.598L291.268 129.483C291.268 129.483 291.165 129.432 291.114 129.381C291.832 130.813 292.805 132.756 293.574 134.188C293.727 134.342 293.881 134.444 294.035 134.598ZM295.418 164.417C290.192 150.147 285.632 137.82 272.054 121.606C271.951 121.606 271.849 121.555 271.798 121.504C274.77 125.391 278.715 130.608 281.379 134.7C288.501 147.282 292.036 153.625 296.699 170.043C296.802 170.043 296.904 170.094 296.955 170.145C296.494 168.406 295.982 166.105 295.418 164.417ZM286.759 125.442C284.197 123.601 279.945 122.476 277.024 121.299L271.695 119.202C271.695 119.202 271.849 119.509 271.951 119.56C276.922 121.708 282.045 123.601 287.015 125.8C286.913 125.698 286.759 125.544 286.657 125.442H286.759Z" fill="#55b2c2"/>
<path d="M317.246 145.748C314.633 143.549 313.762 142.781 305.769 139.968C312.686 142.474 314.48 143.242 317.246 145.748ZM296.342 136.899C306.128 139.559 310.637 140.94 315.453 144.009C311.405 141.554 308.895 140.224 296.342 136.899ZM293.575 134.189L291.115 129.381C291.115 129.381 290.808 129.125 290.654 129.023C291.372 130.455 292.345 132.398 293.114 133.83C293.267 133.933 293.37 134.035 293.575 134.189ZM314.582 142.679C309.663 137.922 306.64 135.109 291.986 128.051C303.156 133.524 308.28 136.337 314.582 142.679Z" fill="#55b2c2"/>
<path d="M314.58 142.679C314.58 142.679 314.273 142.321 314.068 142.116C309.303 137.564 306.126 134.547 291.575 127.59H291.626C291.626 127.59 291.831 127.897 291.934 128C293.676 129.125 296.289 130.148 298.133 131.068C307.766 135.825 312.531 140.633 314.58 142.679ZM280.046 112.348C280.046 112.348 279.637 112.093 279.432 111.939C285.734 116.747 288.347 119.304 289.218 125.442C289.372 125.596 289.577 125.749 289.73 125.903C288.962 121.657 288.398 118.333 280.046 112.348Z" fill="#55b2c2"/>
<path d="M-16.2572 257.148C-11.6458 256.636 -9.80127 256.483 1.11226 255.869C-9.59632 256.432 -11.5433 256.585 -16.2572 257.148ZM-16.7183 251.419C-15.5911 247.225 -15.6935 241.292 -15.2324 236.996C-15.1299 236.228 -13.2342 217.917 -3.14043 194.185C-3.44785 194.85 -3.70404 195.515 -4.01146 196.18C-9.85251 211.933 -15.3349 226.817 -16.7695 251.624C-16.7695 251.573 -16.7183 251.47 -16.6671 251.419H-16.7183ZM15.9711 160.018C5.10877 177.05 -1.55207 189.326 -2.98672 216.383C-1.60331 197.1 0.343704 183.7 15.9711 160.018Z" fill="#55b2c2"/>
<path d="M3.46956 249.782C3.9307 219.452 6.39008 189.019 31.3426 150.198C16.6375 174.084 3.41832 199.709 3.46956 249.782ZM2.34234 250.959C2.85471 247.43 0.395328 242.929 -0.424467 239.451C-2.32024 231.523 -3.19128 214.03 -2.06406 206.563C1.01017 186.82 4.85297 177.101 16.5863 159.149C16.3813 159.455 16.1764 159.711 15.9714 160.018C5.10915 177.05 -1.55169 189.377 -2.98633 216.383C-2.62767 226.664 -2.26901 236.331 2.03492 251.419C2.08616 251.266 2.18863 251.112 2.29111 250.959H2.34234ZM33.2896 145.646C33.2896 145.646 33.2896 145.646 33.3409 145.594C32.4186 145.032 31.0352 144.265 30.4716 143.344C30.1642 142.884 30.574 141.963 30.8815 141.503C30.7278 141.656 30.574 141.861 30.4203 142.014C30.1129 142.628 29.9592 143.702 30.2666 144.265C30.779 145.083 32.0599 145.646 32.931 146.157C33.0847 146.004 33.1872 145.85 33.3409 145.697L33.2896 145.646Z" fill="#55b2c2"/>
<path d="M4.18555 249.731C8.13081 229.886 8.18205 229.477 11.6149 218.531C6.28627 237.66 6.08132 238.377 4.18555 249.731ZM5.7739 251.982C17.0973 234.898 23.3995 226.459 44.7654 205.488C25.8589 224.157 18.4295 232.546 5.7739 251.982ZM5.62019 251.419C16.9436 234.336 23.2458 225.948 44.663 204.977C25.7564 223.646 18.327 231.983 5.62019 251.419ZM4.49297 249.834C10.4877 219.452 18.4295 188.763 49.4793 147.538C27.396 177.562 12.9471 203.954 4.49297 249.834ZM47.3785 197.765C45.2266 176.743 45.4828 165.951 51.1701 147.078C46.2513 164.417 44.6117 173.265 47.3785 197.765ZM51.58 146.771C51.58 146.771 43.6895 160.683 47.8397 197.305C45.6877 176.334 45.9439 165.542 51.58 146.771Z" fill="#55b2c2"/>
<path d="M3.46922 249.834C4.03283 219.401 6.54345 188.866 31.3935 150.198C17.0983 172.856 3.16179 199.197 3.21303 249.987C3.31551 249.987 3.41798 249.885 3.46922 249.834ZM4.49396 249.834C10.4887 219.452 18.4305 188.814 49.4802 147.538C35.3388 166.105 23.5542 183.137 11.6159 218.531C6.38974 237.251 6.08232 238.377 4.18654 249.731C4.18654 249.629 4.39149 249.834 4.49396 249.834ZM41.641 145.185C44.1516 144.827 47.5332 144.367 50.0951 144.009C50.2488 143.804 50.3513 143.651 50.4538 143.497C48.8142 143.702 46.611 144.009 44.9714 144.265C42.2558 144.674 38.5667 145.236 35.8511 145.748C35.6974 145.953 35.595 146.106 35.4412 146.259C37.2858 145.953 39.7964 145.492 41.641 145.236V145.185Z" fill="#55b2c2"/>
<path d="M72.6904 200.63C70.7947 197.714 68.1815 193.929 66.3882 190.963C68.284 193.878 70.6922 197.765 72.6904 200.63ZM47.7891 197.458V197.305C45.6884 176.334 45.9446 165.542 51.5807 146.771H51.5295C51.5295 146.771 43.1266 160.376 47.3792 197.765C47.4817 197.663 47.6867 197.561 47.7891 197.458ZM52.1443 146.311C52.298 159.558 53.374 169.941 66.542 192.446C57.5754 176.59 51.7344 164.826 52.1443 146.311Z" fill="#55b2c2"/>
<path d="M79.2483 202.573C94.5682 195.617 104.713 191.014 130.998 180.273C115.319 186.717 99.1283 193.418 79.2483 202.573ZM79.1458 201.959C94.4657 195.003 104.611 190.4 130.793 179.659C115.114 186.104 98.8721 192.804 79.1458 201.959ZM131.203 176.59C131.203 176.59 131.203 176.59 131.203 176.539C126.899 175.209 121.16 173.419 116.856 172.038L116.242 172.498C120.648 173.879 126.54 175.772 130.998 177.153C130.998 177.05 131.1 176.846 131.203 176.641V176.59ZM72.6387 200.681C70.7429 197.765 68.1811 193.929 66.3878 190.963C59.0096 177.664 52.0413 165.082 52.6049 145.901C52.6049 145.901 52.4512 146.055 52.3488 146.157C52.1438 158.739 53.0661 169.429 66.5415 192.497L72.2288 201.141C72.2288 201.141 72.485 200.834 72.6387 200.681ZM115.627 172.242L116.242 171.782C97.6425 165.542 69.5132 156.131 54.1933 144.316H54.1421C54.1421 144.316 53.9883 144.572 53.9371 144.623C57.5237 147.453 61.2982 149.959 65.2605 152.141C79.0946 159.149 88.7784 163.24 115.627 172.242Z" fill="#55b2c2"/>
<path d="M193.816 208.097C117.472 206 109.479 205.795 79.0442 204.772C99.4366 205.454 137.694 206.563 193.816 208.097ZM193.816 207.432C117.677 205.335 109.735 205.13 79.1979 204.107C99.3512 204.789 137.557 205.898 193.816 207.432ZM126.336 165.082C134.022 159.507 141.759 153.932 149.444 148.356C120.393 169.327 102.87 182.012 84.2192 196.998C98.0532 186.103 99.7953 184.722 116.242 172.447L116.857 171.987L125.773 165.44L126.285 165.082H126.336ZM78.6855 200.783C101.691 182.319 109.838 176.385 149.137 147.947C148.932 148.101 129.769 161.962 126.029 164.673L125.516 165.031L116.294 171.782L115.679 172.242C100.154 183.802 92.6733 189.428 78.7368 200.783H78.6855Z" fill="#55b2c2"/>
<path d="M79.2491 202.573C94.5691 195.617 104.714 191.014 130.999 180.222C130.948 180.068 130.896 179.812 130.845 179.659C114.398 186.462 98.8218 192.855 79.1979 201.959C79.1979 202.164 79.2492 202.369 79.3004 202.573H79.2491ZM145.499 159.865L151.084 149.431C151.084 149.431 150.776 149.328 150.571 149.226C143.962 161.45 141.246 166.565 137.506 173.572C137.762 173.675 137.813 173.675 138.018 173.777C140.221 169.583 143.193 164.008 145.448 159.814L145.499 159.865ZM84.2192 196.998C105.534 180.222 108.813 177.818 149.393 148.356C149.342 148.254 149.239 148.152 149.188 148.05C106.354 178.329 89.0355 192.395 78.6855 200.783C78.7368 200.885 78.8393 201.039 78.8905 201.141C80.4788 199.913 82.6308 198.226 84.2192 196.998Z" fill="#55b2c2"/>
<path d="M204.216 207.79C209.698 207.279 217.025 206.614 222.456 206.051C216.974 206.563 209.647 207.279 204.216 207.79ZM195.967 203.545C173.491 174.152 159.913 155.892 155.233 148.766H155.182C155.182 148.766 155.028 148.919 154.926 148.97C161.177 158.62 174.703 176.931 195.506 203.903C195.506 203.903 195.813 203.647 195.967 203.545ZM156.104 147.947C163.892 152.823 179.417 162.166 202.679 175.976C177.709 161.212 162.184 151.869 156.104 147.947ZM243.515 200.169C214.72 182.216 185.105 165.644 156.412 147.538C185.156 165.542 214.771 182.165 243.515 200.169Z" fill="#55b2c2"/>
<path d="M243.567 172.242C242.44 167.179 241.006 160.478 239.725 155.466C240.954 160.478 242.543 167.179 243.567 172.242ZM246.898 198.072C244.746 181.193 243.67 172.754 239.212 155.415C242.799 170.452 244.592 178.022 246.898 198.072ZM243.465 200.22C214.772 182.114 185.106 165.593 156.413 147.487C156.413 147.487 156.208 147.845 156.105 147.947C163.894 152.823 179.418 162.166 202.68 175.976C222.509 187.791 229.119 191.781 243.311 200.732C243.362 200.578 243.465 200.374 243.516 200.22H243.465ZM234.345 150.709C216.975 149.379 214.721 149.226 157.13 145.543C157.13 145.543 157.13 145.901 157.079 146.004C182.903 147.794 208.675 149.328 234.498 151.17C234.498 151.016 234.396 150.812 234.345 150.709Z" fill="#55b2c2"/>
<path d="M299.056 252.391C299.671 247.941 300.542 241.957 301.003 237.507C300.439 241.957 299.722 247.941 299.056 252.391ZM295.059 254.846C281.174 237.609 273.335 228.454 251.303 207.074C269.851 225.283 280.559 236.535 295.059 254.846ZM299.517 252.902C302.284 232.034 305.153 210.501 299.261 179.147C302.181 196.896 305.153 215.258 299.517 252.902ZM251.456 201.039C264.778 194.645 281.328 186.666 295.674 175.925C287.63 181.602 277.639 188.712 251.456 201.039Z" fill="#55b2c2"/>
<path d="M251.815 201.652C265.137 195.259 281.738 187.229 296.084 176.488C295.982 176.334 295.879 176.181 295.777 176.079C285.119 183.342 275.897 189.582 251.457 201.039C251.508 201.192 251.61 201.346 251.713 201.499C251.713 201.499 251.713 201.601 251.764 201.652H251.815ZM243.566 172.242C242.439 167.179 241.004 160.478 239.723 155.466C239.57 155.466 239.365 155.466 239.211 155.466C242.798 170.503 244.591 178.073 246.897 198.123C247.05 198.123 247.204 198.123 247.358 198.123C246.435 190.349 245.103 179.966 243.617 172.242H243.566ZM294.445 172.754C290.192 170.913 284.556 168.458 280.303 166.718C268.006 161.808 261.243 159.149 242.336 152.346C242.336 152.346 242.336 152.653 242.336 152.755C272.105 163.854 275.948 165.286 294.547 173.265C294.547 173.112 294.445 172.907 294.445 172.754Z" fill="#55b2c2"/>
<path d="M301.772 255.562C319.244 241.957 333.334 230.142 341.788 212.547C335.537 224.413 328.62 235.103 301.772 255.562ZM340.456 207.688C337.023 204.312 332.361 199.811 328.723 196.64C332.309 199.913 337.075 204.261 340.456 207.688ZM299.518 252.903C302.284 232.034 305.154 210.501 299.261 179.147C299.159 179.147 299.005 179.045 298.852 178.994C301.516 195.822 303.617 209.069 301.004 237.507C300.44 241.957 299.723 247.941 299.057 252.391L299.518 252.903ZM301.67 177.153C306.742 180.631 313.505 185.285 318.475 188.917C313.505 185.285 306.793 180.58 301.67 177.153Z" fill="#55b2c2"/>
<path d="M340.456 207.79C338.355 203.391 332.36 199.862 328.723 196.64C321.857 191.065 314.069 184.774 301.618 176.59C301.618 176.59 301.618 176.948 301.618 177.05C306.691 180.528 313.454 185.234 318.424 188.917C330.67 198.635 331.182 199.044 340.507 208.302C340.507 208.148 340.507 207.944 340.456 207.79ZM297.57 145.339L295.726 139.61C295.726 139.61 295.47 139.406 295.367 139.354C299.108 152.448 299.722 156.284 298.288 171.066C298.39 171.168 298.544 171.271 298.646 171.373C299.517 162.115 300.235 154.801 297.519 145.39L297.57 145.339Z" fill="#55b2c2"/>
<path d="M361.361 244.463C359.158 234.336 357.672 227.636 345.119 212.751C353.01 222.572 358.748 229.63 361.413 244.463H361.361ZM330.926 163.752C333.54 168.151 336.767 174.186 338.868 178.892C336.716 174.237 333.744 168.048 330.926 163.752ZM330.414 162.985C336.921 173.828 337.331 174.493 340.713 184.722C336.921 173.93 336.255 171.987 330.414 162.985Z" fill="#55b2c2"/>
<path d="M330.925 163.752C330.925 163.752 330.567 163.24 330.413 162.985C336.92 173.879 337.33 174.493 340.712 184.722C343.12 196.282 343.274 196.998 343.017 206.972C343.069 207.074 343.171 207.228 343.222 207.381C343.325 196.538 343.325 191.116 338.867 178.84C336.715 174.186 333.641 168.048 330.925 163.701V163.752ZM340.865 205.489C332.667 187.791 323.394 167.793 298.082 140.326C312.685 157.205 326.468 173.163 340.712 205.642C340.712 205.642 340.814 205.54 340.865 205.489ZM317.245 145.748C317.245 145.748 316.938 145.39 316.784 145.236L315.401 144.009C311.353 141.554 308.842 140.224 296.289 136.899C296.289 136.899 296.443 137.155 305.717 139.968C312.634 142.474 314.427 143.242 317.194 145.748H317.245Z" fill="#55b2c2"/>
<path d="M48.917 274.947C29.908 267.838 20.0704 263.95 5.98021 256.432V256.534C5.98021 256.534 5.87774 256.892 5.87774 257.097C6.28763 257.352 6.85124 257.71 7.26114 257.966C20.4291 264.718 28.6783 268.4 48.8145 275.663C48.8145 275.356 48.8658 275.254 48.917 275.05V274.947ZM52.0937 270.907C49.0195 250.55 46.5601 234.438 48.1484 206.818C47.4311 225.232 46.8675 239.809 52.0937 270.907ZM5.77526 251.982C17.0987 234.899 23.4009 226.459 44.7668 205.489C44.7156 205.335 44.6643 205.13 44.6131 204.977C25.7065 223.646 18.2771 231.983 5.57031 251.419C5.62155 251.573 5.67279 251.828 5.72403 251.982H5.77526Z" fill="#55b2c2"/>
<path d="M87.8054 305.073C70.641 292.235 70.3335 291.98 56.2945 280.062C66.2687 288.484 76.7723 296.821 87.8054 305.073ZM54.1938 271.162C58.9076 250.089 62.3918 235.819 73.0491 209.376C65.0561 229.937 59.42 245.384 54.1426 271.162H54.1938Z" fill="#55b2c2"/>
<path d="M54.1942 271.162C58.9081 250.089 62.3922 235.819 73.0495 209.376C72.9471 209.376 72.8446 209.325 72.7421 209.273C66.2862 225.232 59.6254 241.752 53.6819 270.958C53.7843 270.958 53.8868 271.06 53.9893 271.06C53.9893 271.009 54.143 271.111 54.1942 271.162ZM51.991 270.907C48.8143 249.476 46.5599 233.978 48.097 206.818H48.0458C48.0458 206.818 47.8408 206.921 47.7384 206.921C46.9186 224.209 46.2012 239.195 51.5299 271.06C51.6836 271.06 51.8373 270.958 51.991 270.907ZM70.8463 203.698C65.3127 203.187 57.9346 202.471 52.4522 201.959H51.9398C51.8886 202.164 51.8373 202.215 51.7861 202.471C55.9875 202.88 61.5724 203.443 65.7739 203.852L70.7439 204.261C70.7439 204.261 70.7951 203.903 70.8976 203.698H70.8463Z" fill="#55b2c2"/>
<path d="M178.598 322.106C152.415 318.116 146.164 317.144 125.516 313.82C147.599 317.349 149.341 317.656 178.598 322.106ZM178.7 321.441C153.133 317.553 130.998 314.178 105.123 309.728C132.484 314.331 135.968 314.843 178.7 321.441ZM180.391 318.627C141.553 281.801 133.458 274.129 106.353 244.105C133.56 274.18 140.682 280.983 180.391 318.627ZM90.8283 302.414C85.1922 281.443 76.738 249.731 75.3034 209.222H75.2522C75.2522 209.222 74.9447 209.325 74.791 209.376C75.6108 226.817 76.9942 256.074 90.3159 302.567C90.4696 302.567 90.6746 302.465 90.8283 302.414Z" fill="#55b2c2"/>
<path d="M184.491 317.247C189 288.399 190.998 274.692 194.738 244.975C191.254 272.492 189.717 284.205 184.491 317.247ZM180.341 318.679C147.276 286.933 122.63 262.075 106.405 244.105C92.9812 228.556 87.8575 222.418 77.5588 207.637H77.5076C77.5076 207.637 77.2001 207.995 77.0977 208.148C77.4051 208.609 77.815 209.171 78.0712 209.632C106.764 249.425 137.455 278.681 179.931 319.19C180.084 319.037 180.238 318.883 180.341 318.73V318.679ZM193.816 207.483C155.593 206.307 117.421 205.386 79.1984 204.108V204.312V204.363C88.831 205.011 127.054 206.256 193.867 208.097V207.892C193.867 207.892 193.867 207.586 193.867 207.483H193.816Z" fill="#55b2c2"/>
<path d="M189.305 321.389C215.488 313.666 230.039 309.267 252.686 301.749C231.115 308.807 220.048 312.336 189.305 321.389ZM249.099 208.302C252.327 225.794 255.401 242.315 256.939 269.321C255.555 250.499 254.325 234.234 249.099 208.302ZM187.153 318.167C200.526 296.634 228.399 251.828 246.281 207.739C231.73 242.468 215.744 272.39 187.153 318.116V318.167ZM186.59 317.809C200.014 296.225 227.887 251.368 245.718 207.432C231.166 242.11 215.129 272.032 186.59 317.809Z" fill="#55b2c2"/>
<path d="M185.208 317.349C190.844 281.29 194.943 252.698 198.888 213.161C198.683 213.161 198.478 213.11 198.274 213.058C196.48 229.733 195.917 234.745 194.687 244.975C191.203 272.543 189.666 284.205 184.439 317.247C184.593 317.247 184.798 317.247 184.952 317.298C184.952 317.298 185.054 317.298 185.106 317.298L185.208 317.349ZM187.155 318.167C200.528 296.634 228.401 251.828 246.283 207.79C246.129 207.688 245.924 207.586 245.77 207.483C230.45 243.389 214.977 272.288 186.54 317.809C186.694 317.911 186.899 318.014 187.053 318.116C187.053 318.116 187.053 318.116 187.104 318.116L187.155 318.167ZM222.457 206.051C228.708 205.437 237.009 204.619 243.26 204.005C243.26 203.852 243.157 203.647 243.157 203.494C236.394 204.108 227.376 204.875 220.613 205.54C215.643 206 209.085 206.614 204.115 207.074C204.115 207.228 204.166 207.432 204.217 207.586C209.699 207.125 217.026 206.563 222.509 206.051H222.457Z" fill="#55b2c2"/>
<path d="M326.827 299.242C317.246 299.396 299.364 299.703 261.91 300.163C280.253 299.959 305.308 299.652 326.827 299.242ZM326.622 293.002C319.09 279.909 315.299 273.311 301.875 256.687C310.243 267.36 318.475 279.465 326.571 293.002H326.622ZM298.8 252.954C285.991 238.683 277.639 229.681 255.505 210.245C271.798 224.822 283.634 235.666 298.749 252.954H298.8ZM257.554 294.281C257.452 286.814 257.298 276.789 256.94 269.321C255.556 250.447 254.326 234.182 249.1 208.302H249.049C249.049 208.302 248.742 208.302 248.588 208.302C253.558 236.024 256.632 255.665 257.042 294.23C257.196 294.23 257.401 294.23 257.606 294.23L257.554 294.281Z" fill="#55b2c2"/>
<path d="M327.698 295.816C325.393 292.286 322.267 287.581 319.808 284.205C322.216 287.683 325.444 292.286 327.698 295.816ZM328.16 294.946C320.423 280.829 317.246 274.998 302.182 256.125L301.772 256.432C302.951 260.268 307.511 263.848 309.97 267.019C313.403 271.418 319.091 279.499 326.571 293.054C320.32 283.983 313.352 274.964 305.666 265.996C315.402 277.3 320.73 283.54 328.006 295.202C328.006 295.099 328.108 294.997 328.16 294.895V294.946ZM301.567 255.716L301.772 255.562L300.901 254.488C301.158 254.897 301.363 255.255 301.567 255.716ZM300.235 253.823C300.235 253.823 300.389 253.925 300.44 254.028C300.184 253.721 299.774 253.261 299.518 252.954L299.057 252.442C283.327 234.95 274.719 226.306 251.816 206.358V206.46C251.816 206.46 251.509 206.87 251.406 207.023C269.032 224.618 279.792 235.512 295.06 254.897C295.163 254.744 295.317 254.539 295.419 254.386C284.403 240.729 276.41 230.807 255.505 210.348C271.799 224.874 283.634 235.717 298.801 253.056C299.262 253.209 299.723 253.363 300.287 253.925L300.235 253.823Z" fill="#55b2c2"/>
<path d="M344.656 300.265C341.019 299.959 336.202 299.6 332.565 299.396C336.202 299.652 341.019 300.01 344.656 300.317V300.265ZM331.898 294.025C337.944 276.021 338.201 275.305 340.506 264.36C335.946 282.926 335.844 283.284 331.898 294.025ZM347.833 294.537C350.036 275.05 352.803 250.754 344.4 215.872C348.294 234.643 353.162 258.017 347.833 294.537ZM335.946 280.778C342.966 253.874 344.759 242.008 343.222 215.104C344.503 240.064 343.683 251.675 335.946 280.778Z" fill="#55b2c2"/>
<path d="M327.955 295.304C320.935 284.614 317.093 278.783 305.667 265.996L301.67 261.7V261.802C301.67 261.802 301.465 262.109 301.414 262.263C311.866 274.027 313.455 275.817 319.757 284.205C322.165 287.683 325.393 292.286 327.648 295.816C327.75 295.56 327.801 295.458 327.904 295.304H327.955ZM340.508 264.36C343.787 244.872 345.017 237.558 343.531 215.411C343.429 215.309 343.326 215.207 343.224 215.104C344.505 240.064 343.685 251.675 335.948 280.778L331.593 293.718C331.593 293.718 331.798 293.974 331.9 294.077C337.28 278.016 338.715 273.72 340.508 264.411V264.36ZM302.234 256.125C319.655 242.52 333.694 230.756 342.096 213.212C342.045 213.058 341.943 212.905 341.891 212.752C336.153 223.186 330.209 233.978 301.824 255.613L301.619 255.767C301.619 255.767 301.773 256.125 301.824 256.278C301.978 256.278 302.183 256.278 302.285 256.176L302.234 256.125Z" fill="#55b2c2"/>
<path d="M348.858 298.424C351.369 296.583 354.699 294.076 357.005 292.031C354.648 294.076 351.369 296.685 348.858 298.424ZM347.833 294.537C350.036 275.049 352.803 250.754 344.4 215.871L345.989 223.851C349.832 247.225 351.779 262.058 347.628 294.486C347.628 294.435 347.782 294.486 347.885 294.537H347.833ZM345.169 213.774C357.363 234.336 360.335 242.724 362.795 263.49C360.386 243.696 357.927 235.256 345.169 213.774Z" fill="#55b2c2"/>
<path d="M169.631 79C167.274 79 165.481 79.1023 164.559 79.1534C164.917 79.1534 167.94 79 172.193 79C171.834 79 170.758 79 169.631 79Z" fill="#55b2c2"/>
<path d="M163.687 79.5626C162.56 79.7161 161.381 79.9718 160.254 80.023C160.356 79.9207 162.56 79.5626 165.583 79.3069C165.583 79.3069 165.992 79.3069 166.197 79.3069C166.71 79.3069 167.171 79.2557 167.273 79.2557C166.095 79.4092 164.916 79.4603 163.738 79.6138L163.687 79.5626Z" fill="#55b2c2"/>
<path d="M173.678 79.4603C173.525 79.4092 173.371 79.3069 173.166 79.2557C173.166 79.2557 173.525 79.4092 173.627 79.4603H173.678ZM173.781 79.2557C174.344 79.4092 174.396 79.5626 174.344 79.5626C174.344 79.5626 174.293 79.5626 174.242 79.5626C174.396 79.5626 174.344 79.5115 174.293 79.4603C174.191 79.4092 174.037 79.3069 173.73 79.2046L173.781 79.2557Z" fill="#55b2c2"/>
<path d="M200.374 86.5193L200.322 86.4676L200.374 86.5193Z" fill="#55b2c2"/>
<path d="M200.322 86.4682L200.374 86.4164L200.322 86.4682Z" fill="#55b2c2"/>
<path d="M206.162 89.6388C204.523 89.4853 200.834 87.3371 200.424 86.5699C200.731 86.9791 201.449 87.4394 202.115 87.8997C202.934 88.4112 205.035 89.5876 206.316 89.6388C206.316 89.6388 206.214 89.6388 206.162 89.6388Z" fill="#55b2c2"/>
<path d="M206.675 89.5364L206.623 89.5882L206.675 89.5364Z" fill="#55b2c2"/>
<path d="M206.572 89.2296C206.572 89.2296 206.572 89.2807 206.623 89.3318C206.623 89.3318 206.624 89.2807 206.572 89.2296Z" fill="#55b2c2"/>
<path d="M206.521 89.1273C206.521 89.1273 206.573 89.2296 206.624 89.2296C206.624 89.2296 206.573 89.1273 206.521 89.1273Z" fill="#55b2c2"/>
<path d="M206.215 88.8715C206.215 88.8715 206.317 88.9738 206.369 89.025C206.369 89.025 206.266 88.9227 206.215 88.8715Z" fill="#55b2c2"/>
<path d="M206.061 88.7181C206.061 88.7181 206.163 88.8204 206.214 88.8715C206.214 88.8715 206.112 88.7692 206.061 88.7181Z" fill="#55b2c2"/>
<path d="M205.855 88.5646C205.855 88.5646 206.009 88.6669 206.06 88.7181C206.009 88.7181 205.907 88.6158 205.855 88.5646Z" fill="#55b2c2"/>
<path d="M205.65 88.4112C205.65 88.4112 205.804 88.5135 205.855 88.5646C205.804 88.5646 205.702 88.4623 205.65 88.4112Z" fill="#55b2c2"/>
<path d="M205.395 88.2578C205.395 88.2578 205.548 88.36 205.651 88.4112C205.599 88.4112 205.497 88.3089 205.395 88.2578Z" fill="#55b2c2"/>
<path d="M205.137 88.1043C205.137 88.1043 205.342 88.2066 205.394 88.2578C205.24 88.1555 204.984 88.002 204.83 87.8997C204.933 87.9509 205.035 88.002 205.137 88.0532V88.1043Z" fill="#55b2c2"/>
<path d="M173.782 79.2557C174.191 79.4092 174.396 79.5115 174.294 79.5626C174.14 79.6138 173.679 79.4603 173.115 79.2046C173.115 79.2046 173.013 79.1534 172.654 79.0511C172.654 79.0511 173.269 79.1023 173.833 79.2557H173.782Z" fill="#55b2c2"/>
<path d="M205.138 88.1043C206.47 88.9227 207.033 89.5876 206.47 89.6899C205.906 89.7922 204.318 89.2807 202.115 87.9509C199.963 86.621 200.321 86.4164 200.475 86.3653C200.475 86.3653 200.578 86.3653 200.629 86.3653C200.783 86.3653 201.09 86.3653 201.961 86.6722C203.139 87.0814 204.215 87.5928 205.138 88.1043Z" fill="#55b2c2"/>
<path d="M189.357 80.7902C189.665 80.8925 190.075 80.9948 190.177 81.0459C190.177 81.0459 188.811 80.7902 186.078 80.2787C188.777 80.7902 190.143 81.0289 190.177 80.9948C190.177 80.9948 190.075 80.8925 189.204 80.6879C189.204 80.6879 189.306 80.6879 189.357 80.6879V80.7902Z" fill="#55b2c2"/>
<path d="M267.339 118.435C267.339 118.435 267.288 118.384 267.236 118.333L267.595 118.64C267.595 118.64 267.441 118.486 267.39 118.435H267.339Z" fill="#55b2c2"/>
<path d="M267.597 118.691L267.545 118.64L267.597 118.691Z" fill="#55b2c2"/>
<path d="M267.903 118.946C267.903 118.946 267.698 118.742 267.596 118.691L267.954 118.998C267.954 118.998 267.954 118.998 267.903 118.998V118.946Z" fill="#55b2c2"/>
<path d="M267.955 118.998L268.007 119.049L267.955 118.998Z" fill="#55b2c2"/>
<path d="M268.16 119.202L267.955 119.049L268.314 119.356C268.314 119.356 268.211 119.253 268.16 119.253V119.202Z" fill="#55b2c2"/>
<path d="M268.364 119.356L268.312 119.305L268.364 119.356Z" fill="#55b2c2"/>
<path d="M272.413 120.072C273.233 121.197 273.233 121.811 272.413 121.708C271.542 121.606 269.954 120.685 268.365 119.356C271.286 121.708 273.079 122.169 273.028 121.299C273.028 120.89 272.567 120.276 272.311 119.969C272.311 119.969 272.362 120.072 272.413 120.123V120.072Z" fill="#55b2c2"/>
<path d="M270.824 118.333C270.824 118.333 271.798 119.202 272.31 119.918C271.798 119.304 271.542 119.049 270.824 118.333Z" fill="#55b2c2"/>
<path d="M187.462 80.381C188.845 80.6367 190.075 80.9436 190.229 81.0459C189.973 81.1482 183.004 79.7672 182.953 79.7161C183.261 79.7161 184.234 79.8695 185.208 79.9718C185.208 79.9718 186.027 80.0741 186.745 80.2275C186.745 80.2275 187.206 80.3298 187.462 80.3298V80.381Z" fill="#55b2c2"/>
<path d="M172.655 79C173.424 79 175.78 79 178.342 79.1023C175.729 79 175.319 79 172.143 79C172.296 79 172.45 79 172.604 79H172.655Z" fill="#55b2c2"/>
<path d="M52.7079 123.857C53.7327 122.885 54.2963 122.271 54.3988 121.964C54.2963 122.322 53.3228 123.243 52.6055 123.959C52.6055 123.959 52.7079 123.857 52.7592 123.805L52.7079 123.857Z" fill="#55b2c2"/>
<path d="M52.5541 124.01C52.5541 124.01 52.4516 124.112 52.4004 124.164L52.5541 124.01Z" fill="#55b2c2"/>
<path d="M52.3998 124.164C52.3998 124.164 52.2973 124.266 52.2461 124.317L52.3998 124.164Z" fill="#55b2c2"/>
<path d="M51.7861 124.726C51.7861 124.726 52.0935 124.419 52.2472 124.317L52.1447 124.419C52.1447 124.419 51.8373 124.726 51.6836 124.88C51.6836 124.88 51.7861 124.777 51.8373 124.726H51.7861Z" fill="#55b2c2"/>
<path d="M51.5795 124.88C51.5795 124.88 51.477 124.982 51.4258 125.033L51.5795 124.88Z" fill="#55b2c2"/>
<path d="M51.4271 125.033C51.4271 125.033 51.3247 125.135 51.2734 125.186L51.4271 125.033Z" fill="#55b2c2"/>
<path d="M51.1196 125.289C51.1196 125.289 51.2221 125.186 51.2733 125.186C51.2221 125.238 51.1196 125.289 51.0684 125.391C51.0684 125.391 51.0684 125.391 51.1196 125.34V125.289Z" fill="#55b2c2"/>
<path d="M49.1217 125.698C49.1217 125.698 49.4291 125.442 49.5316 125.34C49.4291 125.442 49.2242 125.596 49.1217 125.698ZM48.7118 126.056C48.7118 126.056 48.968 125.8 49.1217 125.698C49.0192 125.8 48.8655 125.954 48.7118 126.056ZM48.3531 126.414C48.3531 126.414 48.6093 126.158 48.7118 126.056C48.6093 126.158 48.4556 126.312 48.3531 126.414ZM48.0457 126.721C48.0457 126.721 48.3019 126.465 48.4044 126.414C48.3019 126.516 48.1482 126.619 48.0457 126.721ZM47.6871 127.028C47.6871 127.028 47.892 126.823 47.9945 126.721C47.892 126.823 47.7895 126.925 47.6871 127.028ZM47.4309 127.335C47.4309 127.335 47.6358 127.13 47.7383 127.028C47.6358 127.13 47.5333 127.232 47.4309 127.335ZM47.1747 127.642C47.1747 127.642 47.3796 127.437 47.4309 127.386C47.3284 127.488 47.2259 127.59 47.1747 127.642ZM46.9185 127.897C46.9185 127.897 47.0722 127.744 47.1747 127.642C47.1234 127.744 47.021 127.846 46.9185 127.897ZM46.7135 128.102C46.7135 128.102 46.8673 127.948 46.9185 127.846C46.8673 127.897 46.7648 128 46.7135 128.102ZM46.5598 128.306C46.5598 128.306 46.6623 128.153 46.7135 128.102C46.6623 128.153 46.6111 128.255 46.5598 128.306ZM46.4061 128.511C46.4061 128.511 46.5086 128.409 46.5598 128.306C46.5598 128.358 46.4574 128.409 46.4061 128.511ZM46.3036 128.664C46.3036 128.664 46.3549 128.562 46.4061 128.511C46.4061 128.511 46.3549 128.613 46.3036 128.664ZM46.2524 128.767C46.2524 128.767 46.2524 128.664 46.3036 128.664C46.3036 128.664 46.3036 128.767 46.2524 128.767ZM46.2012 128.869C46.2012 128.869 46.2012 128.818 46.2012 128.767C46.2012 128.767 46.2012 128.818 46.2012 128.869ZM46.2524 128.92C46.2524 128.92 46.2524 128.92 46.2524 128.869C46.2524 128.869 46.2524 128.869 46.2524 128.92ZM46.3036 128.92C46.3036 128.92 46.3036 128.92 46.2524 128.92C46.2524 128.92 46.2524 128.92 46.3036 128.92ZM50.6588 125.698C50.6588 125.698 50.9662 125.442 51.0687 125.34C50.9662 125.442 50.7613 125.596 50.6588 125.698C48.3531 127.693 46.816 128.818 46.3036 128.92C47.1234 128.767 50.044 126.209 50.6588 125.698ZM54.3479 121.913C54.3479 121.913 54.3479 121.913 54.2967 121.913H54.3479ZM54.1942 122.22C54.1942 122.22 54.2454 122.118 54.2967 122.118C54.2967 122.169 54.1942 122.22 54.1942 122.271V122.22ZM53.733 122.782C53.733 122.782 53.733 122.782 53.733 122.834C53.733 122.834 53.733 122.834 53.733 122.782Z" fill="#55b2c2"/>
<path d="M50.6582 125.698C50.2483 126.056 46.7642 129.074 46.2518 128.92C46.0468 128.255 51.4267 123.499 53.6812 122.169C53.6812 122.169 54.0398 121.964 54.1936 121.913C54.1936 121.913 54.2448 121.913 54.296 121.913C54.296 121.913 54.296 121.913 54.3473 121.913C54.4497 122.322 51.6317 124.88 51.0681 125.391C50.9656 125.493 50.7607 125.647 50.6582 125.749V125.698Z" fill="#55b2c2"/>
<path d="M104.149 117.361L104.303 117.207L104.047 117.514C104.047 117.514 104.098 117.412 104.149 117.361Z" fill="#55b2c2"/>
<path d="M103.893 117.668C103.893 117.668 103.996 117.565 103.996 117.463L103.791 117.77C103.791 117.77 103.791 117.668 103.842 117.668H103.893Z" fill="#55b2c2"/>
<path d="M103.688 118.026C103.688 118.026 103.739 117.872 103.79 117.821L103.637 118.077C103.637 118.077 103.637 118.026 103.637 117.975L103.688 118.026Z" fill="#55b2c2"/>
<path d="M103.535 118.333C103.535 118.333 103.586 118.179 103.638 118.128L103.535 118.384C103.535 118.384 103.535 118.384 103.535 118.333Z" fill="#55b2c2"/>
<path d="M103.381 118.691C103.381 118.691 103.432 118.537 103.483 118.486L103.381 118.742V118.691Z" fill="#55b2c2"/>
<path d="M103.329 118.895C103.329 118.895 103.329 118.793 103.329 118.742V118.998C103.329 118.998 103.278 118.946 103.329 118.895Z" fill="#55b2c2"/>
<path d="M103.33 119.919V119.867L103.382 119.919H103.33Z" fill="#55b2c2"/>
<path d="M103.432 120.021L103.381 119.918L103.483 120.072L103.432 120.021Z" fill="#55b2c2"/>
<path d="M103.484 120.123L103.587 120.174C103.587 120.174 103.587 120.174 103.536 120.123H103.484Z" fill="#55b2c2"/>
<path d="M103.688 120.327C103.688 120.327 103.586 120.276 103.586 120.225L103.74 120.327H103.688Z" fill="#55b2c2"/>
<path d="M105.071 120.43C105.071 120.43 104.866 120.43 104.764 120.481C104.866 120.481 104.969 120.481 105.071 120.43Z" fill="#55b2c2"/>
<path d="M105.38 120.328C105.38 120.328 105.175 120.379 105.072 120.43C105.175 120.43 105.277 120.379 105.38 120.328Z" fill="#55b2c2"/>
<path d="M105.686 120.225C105.686 120.225 105.43 120.327 105.379 120.327C105.481 120.327 105.635 120.225 105.686 120.225Z" fill="#55b2c2"/>
<path d="M106.046 120.072C106.046 120.072 105.79 120.174 105.688 120.225C105.79 120.225 105.944 120.123 106.046 120.072Z" fill="#55b2c2"/>
<path d="M106.404 119.918C106.404 119.918 106.147 120.021 106.045 120.072C106.147 120.072 106.301 119.969 106.404 119.918Z" fill="#55b2c2"/>
<path d="M106.763 119.714C106.763 119.714 106.507 119.867 106.404 119.918C106.507 119.867 106.66 119.765 106.763 119.714Z" fill="#55b2c2"/>
<path d="M107.07 119.509C107.07 119.509 106.813 119.663 106.711 119.714C106.813 119.663 106.967 119.56 107.07 119.509Z" fill="#55b2c2"/>
<path d="M107.429 119.253C107.429 119.253 107.173 119.407 107.07 119.509C107.173 119.458 107.326 119.356 107.429 119.253Z" fill="#55b2c2"/>
<path d="M107.788 118.998C107.788 118.998 107.532 119.202 107.43 119.253C107.532 119.202 107.686 119.1 107.788 118.998Z" fill="#55b2c2"/>
<path d="M108.095 118.742C108.095 118.742 107.838 118.946 107.787 118.998C107.89 118.895 107.992 118.793 108.095 118.742Z" fill="#55b2c2"/>
<path d="M108.403 118.435C108.403 118.435 108.198 118.64 108.096 118.742C108.198 118.64 108.301 118.537 108.403 118.435Z" fill="#55b2c2"/>
<path d="M108.71 118.128C108.71 118.128 108.505 118.333 108.402 118.435C108.505 118.333 108.607 118.23 108.71 118.128Z" fill="#55b2c2"/>
<path d="M109.016 117.821C109.016 117.821 108.811 118.026 108.709 118.128C108.811 118.026 108.914 117.923 109.016 117.821Z" fill="#55b2c2"/>
<path d="M109.325 117.514C109.325 117.514 109.12 117.719 109.068 117.821C109.222 117.617 109.427 117.361 109.581 117.156C109.478 117.259 109.427 117.412 109.325 117.514Z" fill="#55b2c2"/>
<path d="M109.223 109.228C106.814 111.581 103.535 112.758 103.587 111.223C103.638 109.638 107.686 106.262 110.145 106.057C111.528 106.057 110.709 107.694 109.171 109.228H109.223Z" fill="#55b2c2"/>
<path d="M104.049 117.514L104.305 117.156C104.305 117.156 104.151 117.412 104.049 117.514Z" fill="#55b2c2"/>
<path d="M103.844 117.821C103.844 117.821 103.997 117.617 104.049 117.514C103.997 117.617 103.895 117.719 103.844 117.821Z" fill="#55b2c2"/>
<path d="M103.639 118.128C103.639 118.128 103.741 117.924 103.792 117.821C103.741 117.924 103.69 118.026 103.639 118.128Z" fill="#55b2c2"/>
<path d="M103.484 118.435C103.484 118.435 103.587 118.23 103.638 118.128C103.638 118.23 103.536 118.333 103.484 118.435Z" fill="#55b2c2"/>
<path d="M103.381 118.742C103.381 118.742 103.483 118.537 103.483 118.435C103.483 118.537 103.381 118.64 103.381 118.742Z" fill="#55b2c2"/>
<path d="M103.33 118.998C103.33 118.998 103.381 118.793 103.381 118.742C103.381 118.844 103.33 118.946 103.33 118.998Z" fill="#55b2c2"/>
<path d="M103.331 119.918C103.331 119.918 103.331 119.765 103.279 119.714C103.279 119.765 103.279 119.867 103.331 119.918Z" fill="#55b2c2"/>
<path d="M103.433 120.072C103.433 120.072 103.381 119.969 103.33 119.918C103.33 119.918 103.381 120.021 103.433 120.072Z" fill="#55b2c2"/>
<path d="M103.587 120.225C103.587 120.225 103.485 120.123 103.434 120.072C103.434 120.072 103.536 120.174 103.587 120.225Z" fill="#55b2c2"/>
<path d="M103.74 120.327C103.74 120.327 103.637 120.225 103.586 120.225C103.586 120.225 103.688 120.327 103.74 120.327Z" fill="#55b2c2"/>
<path d="M103.945 120.43C103.945 120.43 103.791 120.379 103.74 120.327C103.791 120.327 103.894 120.379 103.945 120.43Z" fill="#55b2c2"/>
<path d="M104.202 120.481C104.202 120.481 104.048 120.481 103.945 120.43C103.997 120.43 104.099 120.43 104.202 120.481Z" fill="#55b2c2"/>
<path d="M105.073 120.43C105.073 120.43 104.868 120.43 104.766 120.481C104.868 120.481 104.971 120.481 105.073 120.43Z" fill="#55b2c2"/>
<path d="M105.38 120.327C105.38 120.327 105.175 120.379 105.072 120.43C105.175 120.43 105.277 120.379 105.38 120.327Z" fill="#55b2c2"/>
<path d="M105.688 120.225C105.688 120.225 105.432 120.327 105.381 120.327C105.483 120.327 105.637 120.225 105.688 120.225Z" fill="#55b2c2"/>
<path d="M106.046 120.072C106.046 120.072 105.79 120.174 105.688 120.225C105.79 120.225 105.944 120.123 106.046 120.072Z" fill="#55b2c2"/>
<path d="M106.406 119.918C106.406 119.918 106.149 120.021 106.047 120.072C106.149 120.072 106.303 119.969 106.406 119.918Z" fill="#55b2c2"/>
<path d="M106.763 119.714C106.763 119.714 106.507 119.867 106.404 119.918C106.507 119.867 106.66 119.765 106.763 119.714Z" fill="#55b2c2"/>
<path d="M107.072 119.509C107.072 119.509 106.815 119.663 106.713 119.714C106.815 119.663 106.969 119.56 107.072 119.509Z" fill="#55b2c2"/>
<path d="M107.429 119.253C107.429 119.253 107.173 119.407 107.07 119.509C107.173 119.458 107.326 119.356 107.429 119.253Z" fill="#55b2c2"/>
<path d="M107.788 118.998C107.788 118.998 107.532 119.202 107.43 119.253C107.532 119.202 107.686 119.1 107.788 118.998Z" fill="#55b2c2"/>
<path d="M108.096 118.742C108.096 118.742 107.84 118.946 107.789 118.998C107.892 118.895 107.994 118.793 108.096 118.742Z" fill="#55b2c2"/>
<path d="M108.403 118.435C108.403 118.435 108.198 118.64 108.096 118.742C108.198 118.64 108.301 118.537 108.403 118.435Z" fill="#55b2c2"/>
<path d="M108.71 118.128C108.71 118.128 108.505 118.333 108.402 118.435C108.505 118.333 108.607 118.23 108.71 118.128Z" fill="#55b2c2"/>
<path d="M109.018 117.821C109.018 117.821 108.813 118.026 108.711 118.128C108.813 118.026 108.916 117.924 109.018 117.821Z" fill="#55b2c2"/>
<path d="M109.325 117.514C109.325 117.514 109.12 117.719 109.068 117.821C109.171 117.719 109.273 117.617 109.325 117.514Z" fill="#55b2c2"/>
<path d="M109.326 117.514L109.582 117.156C109.582 117.156 109.429 117.412 109.326 117.514Z" fill="#55b2c2"/>
<path d="M109.325 117.514C107.071 120.327 103.382 121.504 103.279 119.509C103.279 118.64 103.997 117.617 104.304 117.207C104.611 116.798 105.482 115.724 107.02 114.855C107.43 114.599 108.454 114.036 109.377 114.036C109.633 114.036 109.786 114.036 109.94 114.139C109.94 114.139 110.453 114.394 110.453 115.059C110.453 115.673 110.145 116.389 109.53 117.207C109.428 117.31 109.377 117.463 109.274 117.565L109.325 117.514Z" fill="#55b2c2"/>
<path d="M237.366 119.611H237.314L237.417 119.662L237.366 119.611Z" fill="#55b2c2"/>
<path d="M237.469 119.662H237.418L237.623 119.714C237.623 119.714 237.52 119.714 237.469 119.662Z" fill="#55b2c2"/>
<path d="M237.674 119.765L237.623 119.714L237.726 119.816L237.674 119.765Z" fill="#55b2c2"/>
<path d="M233.523 114.241C233.216 114.803 233.523 115.826 234.292 116.952C234.855 117.719 235.778 118.742 237.264 119.611C234.702 118.179 232.652 115.213 233.574 114.139C233.574 114.139 233.523 114.241 233.472 114.241H233.523Z" fill="#55b2c2"/>
<path d="M233.729 113.985C233.729 113.985 233.78 113.985 233.831 113.934H233.729V113.985Z" fill="#55b2c2"/>
<path d="M238.493 120.072H238.391L238.544 120.123L238.493 120.072Z" fill="#55b2c2"/>
<path d="M233.883 113.883C233.883 113.883 233.985 113.883 234.037 113.832H233.883V113.883Z" fill="#55b2c2"/>
<path d="M162.253 101.812C161.536 104.114 158.206 105.034 157.181 103.193C156.361 101.71 157.949 99.1522 160.357 98.9988C162.048 99.0499 162.663 100.482 162.253 101.761V101.812Z" fill="#55b2c2"/>
<path d="M234.446 117.105C234.446 117.105 234.344 117.003 234.344 116.952L234.446 117.105ZM234.549 117.259C234.549 117.259 234.498 117.156 234.446 117.156L234.549 117.31V117.259ZM234.651 117.361C234.651 117.361 234.6 117.31 234.549 117.259L234.651 117.412C234.651 117.412 234.651 117.412 234.651 117.361ZM234.805 117.514C234.805 117.514 234.805 117.463 234.754 117.412L234.856 117.514H234.805ZM234.908 117.668L235.01 117.719C235.01 117.719 235.01 117.719 235.01 117.668H234.908ZM235.061 117.821L235.164 117.923C235.164 117.923 235.164 117.872 235.112 117.821H235.061ZM235.164 117.923L235.317 118.026L235.215 117.923H235.164ZM235.574 118.333C235.574 118.333 235.369 118.128 235.266 118.077C235.369 118.179 235.471 118.282 235.574 118.384V118.333ZM235.727 118.486L235.625 118.384L235.779 118.486H235.727ZM235.881 118.588H235.779H235.932H235.881ZM236.035 118.691H235.983L236.137 118.742C236.137 118.742 236.137 118.742 236.086 118.691H236.035ZM236.188 118.844H236.137L236.291 118.895C236.291 118.895 236.24 118.895 236.188 118.844ZM239.416 120.225C238.187 120.225 236.906 119.356 236.291 118.895C237.469 119.765 238.494 120.225 239.416 120.225ZM233.934 116.389C233.934 116.389 233.883 116.287 233.832 116.236C233.832 116.236 233.883 116.338 233.934 116.389ZM233.883 116.236C233.883 116.236 233.883 116.133 233.832 116.133V116.236H233.883ZM233.78 116.082C233.78 116.082 233.78 116.031 233.78 115.98V116.082ZM233.729 115.929C233.729 115.929 233.729 115.878 233.729 115.826V115.929ZM233.678 115.826C233.678 115.826 233.678 115.775 233.678 115.724V115.826ZM234.088 113.832C233.627 113.934 233.217 114.343 233.524 115.468C233.165 114.19 233.78 113.883 234.19 113.832C234.19 113.832 234.139 113.832 234.088 113.832ZM234.19 113.781C234.19 113.781 234.241 113.781 234.293 113.781H234.19ZM234.293 113.781C234.293 113.781 234.344 113.781 234.395 113.781H234.293ZM234.395 113.781C234.395 113.781 234.446 113.781 234.498 113.781H234.395Z" fill="#55b2c2"/>
<path d="M234.652 151.63C234.652 151.63 234.549 151.323 234.498 151.221C234.498 151.374 234.601 151.528 234.652 151.63ZM234.805 152.039C234.805 152.039 234.652 151.732 234.601 151.63C234.652 151.732 234.754 151.937 234.805 152.039ZM235.062 152.448C235.062 152.448 234.908 152.141 234.857 152.039C234.908 152.141 235.01 152.346 235.062 152.448ZM235.318 152.806C235.318 152.806 235.113 152.551 235.062 152.397C235.113 152.499 235.267 152.653 235.318 152.806ZM235.574 153.215C235.574 153.215 235.369 152.96 235.318 152.857C235.42 152.96 235.523 153.113 235.574 153.215ZM235.881 153.574C235.881 153.574 235.677 153.318 235.574 153.215C235.677 153.318 235.779 153.471 235.881 153.574ZM236.24 153.88C236.24 153.88 236.035 153.625 235.933 153.522C236.035 153.625 236.138 153.778 236.24 153.88ZM236.599 154.187C236.599 154.187 236.343 153.983 236.24 153.88C236.343 153.983 236.496 154.085 236.599 154.187ZM236.957 154.443C236.957 154.443 236.701 154.238 236.599 154.187C236.701 154.29 236.855 154.392 236.957 154.443ZM237.316 154.699C237.316 154.699 237.06 154.545 236.957 154.443C237.06 154.494 237.214 154.596 237.316 154.699ZM237.726 154.955C237.726 154.955 237.47 154.801 237.316 154.75C237.419 154.801 237.572 154.903 237.726 154.955ZM238.136 155.108C238.136 155.108 237.88 155.006 237.726 154.903C237.828 154.955 237.982 155.006 238.136 155.108ZM238.546 155.261C238.546 155.261 238.29 155.159 238.136 155.108C238.238 155.108 238.443 155.21 238.546 155.261ZM238.904 155.364C238.904 155.364 238.597 155.313 238.495 155.261C238.597 155.261 238.802 155.313 238.904 155.364ZM239.314 155.415C239.314 155.415 239.007 155.415 238.904 155.364C239.007 155.364 239.212 155.364 239.314 155.415ZM239.724 155.466C239.724 155.466 239.468 155.466 239.314 155.466C239.417 155.466 239.571 155.466 239.724 155.466ZM240.032 155.466C240.032 155.466 239.827 155.466 239.724 155.466C239.827 155.466 239.98 155.466 240.083 155.466C240.083 155.466 240.083 155.466 240.032 155.466ZM240.134 155.415H240.237C240.237 155.415 240.237 155.415 240.185 155.415H240.134ZM240.288 155.415H240.185H240.442C240.442 155.415 240.339 155.415 240.288 155.415ZM241.056 155.159C241.056 155.159 240.595 155.364 240.544 155.364C240.749 155.313 240.954 155.21 241.159 155.108C241.159 155.108 241.159 155.108 241.108 155.108L241.056 155.159ZM241.261 155.057H241.159L241.415 154.955C241.415 154.955 241.313 155.006 241.261 155.057ZM241.774 154.545C241.774 154.545 241.466 154.852 241.364 154.903C241.518 154.801 241.671 154.596 241.825 154.443C241.825 154.443 241.825 154.494 241.774 154.494V154.545ZM242.235 153.676C242.132 154.085 241.927 154.341 241.876 154.494C242.132 154.085 242.132 154.085 242.286 153.625C242.286 153.625 242.286 153.676 242.286 153.727L242.235 153.676ZM242.286 153.42V153.522V153.215C242.286 153.267 242.286 153.369 242.286 153.42ZM242.286 152.09C242.389 152.653 242.337 153.113 242.286 153.215C242.286 152.84 242.286 152.448 242.286 152.039V152.09ZM242.184 151.63C242.184 151.63 242.235 151.937 242.286 152.039L242.184 151.63ZM242.081 151.323C242.081 151.323 242.132 151.528 242.184 151.579L242.03 151.17C242.03 151.17 242.03 151.272 242.03 151.323H242.081ZM236.752 146.975C236.752 146.975 236.906 146.975 236.957 146.975H236.752ZM236.957 146.975C236.957 146.975 237.009 146.975 237.06 146.975H236.957ZM237.162 147.027C237.162 147.027 237.214 147.027 237.265 147.027H237.162ZM237.265 147.027C237.265 147.027 237.316 147.027 237.367 147.027H237.265ZM237.47 147.078C237.47 147.078 237.521 147.078 237.572 147.078H237.47ZM237.572 147.078C237.572 147.078 237.675 147.078 237.726 147.078H237.572ZM237.726 147.129C237.726 147.129 237.726 147.129 237.777 147.129H237.726ZM237.777 147.129C237.777 147.129 237.88 147.129 237.931 147.129H237.777ZM241.518 150.095C241.108 149.431 239.98 147.845 237.931 147.18C239.417 147.64 240.8 148.817 241.62 150.3C241.62 150.249 241.518 150.147 241.518 150.095ZM241.62 150.351C241.62 150.351 241.671 150.505 241.722 150.556L241.62 150.351ZM241.722 150.556C241.722 150.556 241.774 150.709 241.825 150.76L241.722 150.556ZM241.825 150.76C241.825 150.76 241.876 150.863 241.927 150.965L241.825 150.76ZM241.927 150.965C241.927 150.965 241.979 151.118 242.03 151.17C242.03 151.118 241.979 151.016 241.927 150.965Z" fill="#55b2c2"/>
<path d="M239.826 117.259C241.159 119.151 240.698 120.532 238.802 120.174C238.392 120.072 236.291 119.56 234.293 116.952C233.217 115.468 232.858 113.883 234.447 113.781C234.447 113.781 234.652 113.781 234.754 113.781C236.189 113.985 238.289 115.315 239.57 116.952C239.622 117.054 239.775 117.156 239.826 117.259Z" fill="#55b2c2"/>
<path d="M296.085 136.644C296.085 136.644 296.239 136.797 296.29 136.899C298.032 138.945 298.596 140.531 297.673 140.531C298.647 140.429 297.981 138.894 296.034 136.592C294.036 134.393 292.037 132.91 290.91 132.756C291.627 132.807 292.652 133.421 293.984 134.547C294.343 134.853 295.163 135.569 296.034 136.592L296.085 136.644Z" fill="#55b2c2"/>
<path d="M288.346 127.079L288.039 126.772L288.398 127.13L288.346 127.079Z" fill="#55b2c2"/>
<path d="M288.398 127.13L288.501 127.232C288.501 127.232 288.45 127.181 288.398 127.13Z" fill="#55b2c2"/>
<path d="M288.707 127.386L288.502 127.232L288.758 127.437L288.707 127.386Z" fill="#55b2c2"/>
<path d="M288.809 127.488L288.962 127.59C288.962 127.59 288.911 127.539 288.86 127.488H288.809Z" fill="#55b2c2"/>
<path d="M289.013 127.693L288.859 127.59L289.064 127.795C289.064 127.795 289.013 127.744 288.962 127.693H289.013Z" fill="#55b2c2"/>
<path d="M289.166 127.846H289.115L289.269 127.897C289.269 127.897 289.269 127.897 289.218 127.846H289.166Z" fill="#55b2c2"/>
<path d="M289.372 128L289.27 127.897L289.474 128.102C289.474 128.102 289.372 128 289.321 128H289.372Z" fill="#55b2c2"/>
<path d="M289.577 128.153L289.475 128.102L289.628 128.204L289.577 128.153Z" fill="#55b2c2"/>
<path d="M289.68 128.255H289.629L289.834 128.409C289.783 128.409 289.731 128.307 289.68 128.255Z" fill="#55b2c2"/>
<path d="M289.936 128.511L289.834 128.409L289.988 128.511H289.936Z" fill="#55b2c2"/>
<path d="M289.986 128.511L290.294 128.716C290.191 128.665 290.089 128.562 290.038 128.511H289.986Z" fill="#55b2c2"/>
<path d="M290.653 129.023L290.346 128.818L290.704 129.074L290.653 129.023Z" fill="#55b2c2"/>
<path d="M291.013 129.278C291.013 129.278 290.808 129.125 290.705 129.074L291.064 129.329L291.013 129.278Z" fill="#55b2c2"/>
<path d="M291.267 129.483C291.267 129.483 291.114 129.381 291.062 129.329L291.319 129.534H291.267V129.483Z" fill="#55b2c2"/>
<path d="M291.37 129.585H291.318L291.472 129.636C291.472 129.636 291.421 129.636 291.37 129.585Z" fill="#55b2c2"/>
<path d="M291.985 129.943L291.934 129.892L292.036 129.994L291.985 129.943Z" fill="#55b2c2"/>
<path d="M292.292 130.097L292.189 130.046L292.343 130.148L292.292 130.097Z" fill="#55b2c2"/>
<path d="M292.55 130.25L292.447 130.199L292.55 130.25Z" fill="#55b2c2"/>
<path d="M292.755 130.301H292.703L292.755 130.353V130.301Z" fill="#55b2c2"/>
<path d="M292.96 130.404L292.908 130.352L292.96 130.404Z" fill="#55b2c2"/>
<path d="M293.317 130.301C293.317 130.301 293.266 130.301 293.215 130.352C293.215 130.352 293.266 130.352 293.317 130.301Z" fill="#55b2c2"/>
<path d="M293.266 129.79C293.266 129.79 293.266 129.892 293.317 129.994C293.317 129.943 293.266 129.892 293.266 129.79Z" fill="#55b2c2"/>
<path d="M293.113 129.585C293.113 129.585 293.165 129.739 293.216 129.79C293.216 129.739 293.113 129.636 293.113 129.585Z" fill="#55b2c2"/>
<path d="M293.01 129.329C293.01 129.329 293.112 129.483 293.163 129.585C293.163 129.534 293.061 129.432 293.01 129.329Z" fill="#55b2c2"/>
<path d="M292.805 129.074C292.805 129.074 292.907 129.278 293.01 129.329C292.958 129.227 292.856 129.125 292.805 129.074Z" fill="#55b2c2"/>
<path d="M292.6 128.767C292.6 128.767 292.753 128.971 292.805 129.074C292.753 128.971 292.651 128.869 292.6 128.767Z" fill="#55b2c2"/>
<path d="M292.344 128.511C292.344 128.511 292.497 128.716 292.6 128.818C292.549 128.716 292.446 128.613 292.344 128.511Z" fill="#55b2c2"/>
<path d="M292.088 128.153C292.088 128.153 292.293 128.358 292.344 128.46C292.242 128.358 292.139 128.255 292.088 128.153Z" fill="#55b2c2"/>
<path d="M291.779 127.846C291.779 127.846 291.984 128.102 292.087 128.153C291.984 128.051 291.882 127.897 291.779 127.846Z" fill="#55b2c2"/>
<path d="M291.422 127.488C291.422 127.488 291.627 127.744 291.729 127.846C291.627 127.744 291.524 127.59 291.422 127.488Z" fill="#55b2c2"/>
<path d="M291.113 127.13C291.113 127.13 291.369 127.386 291.472 127.488C291.369 127.386 291.216 127.232 291.113 127.13Z" fill="#55b2c2"/>
<path d="M291.115 127.13L290.705 126.772C290.705 126.772 290.961 127.028 291.115 127.13Z" fill="#55b2c2"/>
<path d="M271.183 118.691C272.925 120.379 273.54 121.708 272.618 121.708C272.003 121.708 270.159 121.043 267.238 118.384C267.136 118.282 267.033 118.179 266.931 118.077C264.318 115.417 265.189 115.161 265.496 115.161C266.828 115.264 269.544 117.105 271.235 118.742L271.183 118.691Z" fill="#55b2c2"/>
<path d="M288.398 127.13L287.988 126.772C287.988 126.772 288.244 127.028 288.398 127.13Z" fill="#55b2c2"/>
<path d="M288.808 127.488C288.808 127.488 288.552 127.232 288.398 127.13C288.501 127.232 288.655 127.386 288.808 127.488Z" fill="#55b2c2"/>
<path d="M289.166 127.846C289.166 127.846 288.91 127.59 288.756 127.488C288.858 127.59 289.012 127.744 289.166 127.846Z" fill="#55b2c2"/>
<path d="M289.576 128.153C289.576 128.153 289.32 127.897 289.166 127.846C289.268 127.948 289.422 128.102 289.576 128.153Z" fill="#55b2c2"/>
<path d="M289.935 128.511C289.935 128.511 289.679 128.306 289.576 128.204C289.679 128.306 289.832 128.409 289.935 128.511Z" fill="#55b2c2"/>
<path d="M290.345 128.767C290.345 128.767 290.089 128.562 289.986 128.46C290.089 128.562 290.243 128.664 290.345 128.767Z" fill="#55b2c2"/>
<path d="M290.704 129.074C290.704 129.074 290.448 128.869 290.346 128.767C290.448 128.869 290.602 128.971 290.704 129.074Z" fill="#55b2c2"/>
<path d="M291.062 129.329C291.062 129.329 290.806 129.125 290.703 129.074C290.806 129.176 290.959 129.278 291.062 129.329Z" fill="#55b2c2"/>
<path d="M291.37 129.585C291.37 129.585 291.114 129.432 291.012 129.329C291.114 129.381 291.268 129.483 291.37 129.585Z" fill="#55b2c2"/>
<path d="M291.729 129.79C291.729 129.79 291.524 129.636 291.422 129.585C291.524 129.636 291.627 129.739 291.729 129.79Z" fill="#55b2c2"/>
<path d="M291.985 129.943C291.985 129.943 291.78 129.841 291.678 129.739C291.78 129.79 291.883 129.841 291.985 129.943Z" fill="#55b2c2"/>
<path d="M292.291 130.097C292.291 130.097 292.086 129.994 292.035 129.943C292.138 129.943 292.24 130.045 292.291 130.097Z" fill="#55b2c2"/>
<path d="M292.549 130.25C292.549 130.25 292.344 130.148 292.293 130.148C292.344 130.148 292.498 130.25 292.549 130.25Z" fill="#55b2c2"/>
<path d="M292.754 130.301C292.754 130.301 292.6 130.25 292.549 130.199C292.6 130.199 292.703 130.25 292.754 130.301Z" fill="#55b2c2"/>
<path d="M292.959 130.404C292.959 130.404 292.805 130.404 292.754 130.352C292.805 130.352 292.908 130.352 292.959 130.404Z" fill="#55b2c2"/>
<path d="M293.317 130.301C293.317 130.301 293.266 130.301 293.215 130.352C293.215 130.352 293.266 130.352 293.317 130.301Z" fill="#55b2c2"/>
<path d="M293.266 129.79C293.266 129.79 293.266 129.892 293.317 129.994C293.317 129.943 293.266 129.892 293.266 129.79Z" fill="#55b2c2"/>
<path d="M293.111 129.585C293.111 129.585 293.163 129.739 293.214 129.79C293.214 129.739 293.111 129.636 293.111 129.585Z" fill="#55b2c2"/>
<path d="M293.01 129.329C293.01 129.329 293.112 129.483 293.163 129.585C293.163 129.534 293.061 129.432 293.01 129.329Z" fill="#55b2c2"/>
<path d="M292.805 129.074C292.805 129.074 292.907 129.278 293.01 129.329C292.958 129.227 292.856 129.125 292.805 129.074Z" fill="#55b2c2"/>
<path d="M292.6 128.767C292.6 128.767 292.753 128.971 292.805 129.074C292.753 128.971 292.651 128.869 292.6 128.767Z" fill="#55b2c2"/>
<path d="M292.344 128.511C292.344 128.511 292.497 128.716 292.6 128.818C292.549 128.716 292.446 128.613 292.344 128.511Z" fill="#55b2c2"/>
<path d="M292.088 128.153C292.088 128.153 292.293 128.358 292.344 128.46C292.242 128.358 292.139 128.255 292.088 128.153Z" fill="#55b2c2"/>
<path d="M291.779 127.846C291.779 127.846 291.984 128.102 292.087 128.153C291.984 128.051 291.882 127.897 291.779 127.846Z" fill="#55b2c2"/>
<path d="M291.422 127.488C291.422 127.488 291.627 127.744 291.729 127.846C291.627 127.744 291.524 127.59 291.422 127.488Z" fill="#55b2c2"/>
<path d="M291.113 127.13C291.113 127.13 291.369 127.386 291.472 127.488C291.369 127.386 291.216 127.232 291.113 127.13Z" fill="#55b2c2"/>
<path d="M291.113 127.13L290.703 126.772C290.703 126.772 290.959 127.028 291.113 127.13Z" fill="#55b2c2"/>
<path d="M291.115 127.13C292.96 128.971 293.882 130.403 293.165 130.403C292.755 130.403 291.115 129.636 288.041 126.772C286.658 125.442 286.094 124.675 285.787 124.215C285.172 123.294 285.53 123.243 285.633 123.243C285.889 123.243 286.196 123.345 287.067 123.857C287.734 124.266 289.066 125.186 290.757 126.721C290.859 126.823 291.013 126.977 291.166 127.079L291.115 127.13Z" fill="#55b2c2"/>
<path d="M50.3501 143.6C50.3501 143.6 50.4013 143.497 50.4525 143.446L50.2988 143.651L50.3501 143.6Z" fill="#55b2c2"/>
<path d="M50.3501 143.651V143.6L50.2988 143.702L50.3501 143.651Z" fill="#55b2c2"/>
<path d="M50.1953 143.804C50.1953 143.804 50.2465 143.702 50.2978 143.651L50.1953 143.804Z" fill="#55b2c2"/>
<path d="M50.0938 144.009C50.0938 144.009 50.145 143.907 50.1962 143.907L50.0938 144.009Z" fill="#55b2c2"/>
<path d="M50.044 144.06L49.9922 144.112C49.9922 144.112 49.9922 144.112 49.9922 144.06H50.044Z" fill="#55b2c2"/>
<path d="M49.9907 144.162V144.111L49.9395 144.213L49.9907 144.162Z" fill="#55b2c2"/>
<path d="M49.9399 144.265V144.213L49.8887 144.316L49.9399 144.265Z" fill="#55b2c2"/>
<path d="M49.8897 144.316L49.8379 144.367L49.8897 144.316Z" fill="#55b2c2"/>
<path d="M49.6841 144.674C49.6841 144.674 49.7865 144.469 49.8378 144.367C49.7865 144.469 49.684 144.623 49.6328 144.725C49.6328 144.725 49.6328 144.674 49.6328 144.623L49.6841 144.674Z" fill="#55b2c2"/>
<path d="M49.6339 144.777V144.725L49.582 144.777H49.6339Z" fill="#55b2c2"/>
<path d="M49.5805 144.827V144.776L49.5293 144.878L49.5805 144.827Z" fill="#55b2c2"/>
<path d="M49.4785 145.032L49.5298 144.93L49.4785 145.032Z" fill="#55b2c2"/>
<path d="M49.4796 145.084V145.032L49.4277 145.084H49.4796Z" fill="#55b2c2"/>
<path d="M49.3242 145.339L49.376 145.288L49.3242 145.339Z" fill="#55b2c2"/>
<path d="M49.3247 145.39V145.339L49.2734 145.441L49.3247 145.39Z" fill="#55b2c2"/>
<path d="M49.2227 145.543L49.2739 145.492L49.2227 145.594V145.543Z" fill="#55b2c2"/>
<path d="M49.1723 145.697C49.1723 145.697 49.1723 145.697 49.1211 145.799C49.1211 145.799 49.1211 145.748 49.1211 145.697H49.1723Z" fill="#55b2c2"/>
<path d="M49.0684 146.004L49.1202 145.952L49.0684 146.004Z" fill="#55b2c2"/>
<path d="M49.0688 146.106V146.055L49.0176 146.157L49.0688 146.106Z" fill="#55b2c2"/>
<path d="M49.0684 147.231L49.1202 147.283L49.0684 147.231Z" fill="#55b2c2"/>
<path d="M49.1211 147.282L49.1729 147.334L49.1211 147.282Z" fill="#55b2c2"/>
<path d="M49.2227 147.385L49.2745 147.436L49.2227 147.385Z" fill="#55b2c2"/>
<path d="M35.3886 146.259C32.7243 149.482 30.6748 150.965 30.5211 150.249C30.3674 149.686 31.3921 147.947 32.9292 146.106C34.4663 144.265 36.5158 142.27 37.4381 142.219C38.5141 142.372 35.4911 146.208 35.4399 146.259H35.3886Z" fill="#55b2c2"/>
<path d="M51.9899 146.464C51.9899 146.464 52.0411 146.464 52.0923 146.413C52.0923 146.413 52.0411 146.413 51.9899 146.464C51.1188 147.129 50.4015 147.487 49.8379 147.538C49.8379 147.538 49.8379 147.538 49.8891 147.538C50.4527 147.436 51.1701 147.078 51.9899 146.464ZM55.6789 139.457C55.6789 139.457 55.7302 139.457 55.7814 139.457H55.6789ZM55.9351 141.707C56.2425 141.093 56.8062 139.61 55.7814 139.457C56.2425 139.508 56.4475 139.917 56.2938 140.582C56.2938 140.735 56.2938 140.787 56.1913 140.94C56.1913 140.94 56.0376 141.4 55.8326 141.861C55.8326 141.809 55.8839 141.758 55.9351 141.707ZM55.8839 141.861C55.8839 141.861 55.8326 141.963 55.7814 142.014L55.8839 141.861ZM55.7814 142.065C55.7814 142.065 55.7302 142.167 55.6789 142.219L55.7814 142.065ZM55.6789 142.27C55.6789 142.27 55.6277 142.372 55.5765 142.423L55.6789 142.27ZM55.5765 142.423C55.5765 142.423 55.5765 142.423 55.5765 142.474V142.423ZM55.5252 142.474C55.5252 142.474 55.474 142.577 55.4227 142.628L55.5252 142.474ZM55.474 142.628C55.474 142.628 55.474 142.679 55.474 142.73V142.628ZM55.4227 142.679C55.4227 142.679 55.3715 142.781 55.3203 142.781L55.4227 142.679ZM55.3203 142.832C55.3203 142.832 55.3203 142.884 55.269 142.935V142.832H55.3203ZM55.269 142.935C55.269 142.935 55.269 142.986 55.2178 143.037V142.935H55.269ZM55.2178 143.037C55.2178 143.037 55.1666 143.139 55.1153 143.139L55.2178 143.037ZM55.1153 143.139C55.1153 143.139 55.1153 143.19 55.0641 143.242V143.139H55.1153ZM55.0641 143.242C55.0641 143.242 54.9616 143.395 54.9104 143.446C54.9104 143.395 55.0129 143.293 55.0641 143.242Z" fill="#55b2c2"/>
<path d="M50.1973 143.855L50.5047 143.446C50.5047 143.446 50.2997 143.753 50.1973 143.855Z" fill="#55b2c2"/>
<path d="M49.9395 144.265C49.9395 144.265 50.1444 143.958 50.1956 143.855C50.0932 143.958 49.9907 144.162 49.9395 144.265Z" fill="#55b2c2"/>
<path d="M49.6836 144.674C49.6836 144.674 49.8373 144.418 49.9398 144.265C49.8885 144.367 49.7861 144.52 49.6836 144.674Z" fill="#55b2c2"/>
<path d="M49.4785 145.032C49.4785 145.032 49.6322 144.776 49.6835 144.674C49.6322 144.776 49.5298 144.93 49.4785 145.032Z" fill="#55b2c2"/>
<path d="M49.3262 145.39C49.3262 145.39 49.4286 145.134 49.4799 145.032C49.4799 145.134 49.3774 145.288 49.3262 145.39Z" fill="#55b2c2"/>
<path d="M49.1719 145.697C49.1719 145.697 49.2744 145.441 49.3256 145.339C49.3256 145.441 49.2231 145.594 49.1719 145.697Z" fill="#55b2c2"/>
<path d="M49.0684 146.055C49.0684 146.055 49.1196 145.85 49.1708 145.748C49.1708 145.85 49.1196 145.953 49.0684 146.055Z" fill="#55b2c2"/>
<path d="M49.0176 146.311C49.0176 146.311 49.0176 146.106 49.0688 146.004C49.0688 146.106 49.0688 146.208 49.0176 146.311Z" fill="#55b2c2"/>
<path d="M49.0688 147.231C49.0688 147.231 49.0688 147.129 49.0176 147.078C49.0176 147.129 49.0176 147.18 49.0688 147.231Z" fill="#55b2c2"/>
<path d="M49.1708 147.333C49.1708 147.333 49.1196 147.231 49.0684 147.18C49.0684 147.18 49.1196 147.282 49.1708 147.333Z" fill="#55b2c2"/>
<path d="M49.3256 147.436C49.3256 147.436 49.2231 147.385 49.1719 147.333C49.1719 147.333 49.2744 147.385 49.3256 147.436Z" fill="#55b2c2"/>
<path d="M49.4799 147.538C49.4799 147.538 49.3774 147.538 49.3262 147.487C49.3774 147.487 49.4286 147.487 49.4799 147.538Z" fill="#55b2c2"/>
<path d="M49.9399 147.538H49.8887L49.9911 147.487L49.9399 147.538Z" fill="#55b2c2"/>
<path d="M50.247 147.436L50.1445 147.487L50.247 147.436Z" fill="#55b2c2"/>
<path d="M50.5044 147.333L50.4531 147.385L50.5556 147.333H50.5044Z" fill="#55b2c2"/>
<path d="M50.5547 147.333L50.7596 147.231C50.7596 147.231 50.6572 147.282 50.6059 147.333H50.5547Z" fill="#55b2c2"/>
<path d="M50.8116 147.232H50.7598L50.8116 147.18V147.232Z" fill="#55b2c2"/>
<path d="M50.8633 147.18L51.1707 147.027C51.0682 147.027 50.9658 147.129 50.9145 147.18H50.8633Z" fill="#55b2c2"/>
<path d="M51.4266 146.873C51.4266 146.873 51.2216 147.027 51.1191 147.078L51.4266 146.873Z" fill="#55b2c2"/>
<path d="M51.4766 146.822L51.579 146.771C51.579 146.771 51.5278 146.771 51.4766 146.822Z" fill="#55b2c2"/>
<path d="M51.7338 146.617L51.5801 146.771L51.785 146.617H51.7338Z" fill="#55b2c2"/>
<path d="M51.8359 146.617L51.9384 146.566C51.9384 146.566 51.8872 146.617 51.8359 146.617Z" fill="#55b2c2"/>
<path d="M52.1429 146.311C52.1429 146.311 51.9892 146.413 51.8867 146.515L52.1429 146.311Z" fill="#55b2c2"/>
<path d="M52.2978 146.259C52.2978 146.259 52.2465 146.311 52.1953 146.362L52.4515 146.157C52.4515 146.157 52.349 146.259 52.2978 146.311V146.259Z" fill="#55b2c2"/>
<path d="M52.5024 146.055L52.4512 146.106L52.5536 146.004L52.5024 146.055Z" fill="#55b2c2"/>
<path d="M52.6055 145.953L52.8617 145.748C52.8104 145.799 52.7079 145.901 52.6567 145.953H52.6055Z" fill="#55b2c2"/>
<path d="M52.8618 145.697L52.8105 145.799L52.913 145.697H52.8618Z" fill="#55b2c2"/>
<path d="M53.5274 145.083C53.1688 145.441 52.8613 145.748 52.8613 145.748C53.0663 145.543 53.3225 145.288 53.5274 145.083Z" fill="#55b2c2"/>
<path d="M53.5781 145.032L53.6806 144.93C53.6806 144.93 53.6294 144.981 53.5781 145.032Z" fill="#55b2c2"/>
<path d="M53.8334 144.725L53.6797 144.93L53.8846 144.674L53.8334 144.725Z" fill="#55b2c2"/>
<path d="M53.9375 144.674L54.04 144.572C54.04 144.572 53.9887 144.623 53.9375 144.674Z" fill="#55b2c2"/>
<path d="M54.1415 144.367L54.0391 144.572L54.244 144.316L54.1415 144.367Z" fill="#55b2c2"/>
<path d="M54.2441 144.265L54.3466 144.162C54.3466 144.162 54.2954 144.214 54.2441 144.265Z" fill="#55b2c2"/>
<path d="M54.4501 144.009L54.3477 144.162L54.5526 143.907C54.5526 143.907 54.5526 143.958 54.5014 144.009H54.4501Z" fill="#55b2c2"/>
<path d="M54.602 143.855H54.5508L54.6533 143.753C54.6533 143.753 54.6533 143.804 54.602 143.855Z" fill="#55b2c2"/>
<path d="M54.8592 143.446C54.8592 143.446 54.7055 143.651 54.6543 143.753L54.9105 143.446H54.8592Z" fill="#55b2c2"/>
<path d="M54.6044 143.855C52.2475 146.924 49.122 148.561 48.9683 146.822C48.9171 146.055 49.4295 144.929 50.5055 143.446C51.9401 141.554 54.1945 139.559 55.6804 139.457C56.8589 139.559 56.5514 141.093 54.9119 143.446C54.8094 143.548 54.7069 143.753 54.6044 143.855Z" fill="#55b2c2"/>
<path d="M140.169 178.585C139.298 182.881 133.764 184.518 131.459 181.142C130.383 179.557 130.383 176.846 132.535 174.8C134.021 173.47 135.455 173.419 136.07 173.368C139.144 173.419 140.681 176.13 140.169 178.585Z" fill="#55b2c2"/>
<path d="M156.769 143.6C155.232 140.326 150.16 141.042 148.879 144.725C148.776 144.981 148.725 145.288 148.674 145.543C149.032 143.344 150.775 141.758 153.029 141.503C153.029 141.503 153.234 141.503 153.336 141.503C155.335 141.503 156.513 142.832 156.923 143.958C156.923 143.855 156.821 143.702 156.769 143.6Z" fill="#55b2c2"/>
<path d="M157.129 145.543C157.129 144.827 157.129 144.623 156.924 143.958C157.231 144.827 157.129 145.543 157.129 145.543Z" fill="#55b2c2"/>
<path d="M157.079 145.952C156.361 149.584 151.34 151.016 149.291 148.152C148.522 147.129 148.624 146.055 148.676 145.543C149.137 143.139 150.93 141.605 153.338 141.503C156.464 141.656 157.386 144.213 157.027 145.952H157.079Z" fill="#55b2c2"/>
<path d="M243.157 203.647C243.157 203.647 243.106 203.34 243.055 203.187L243.157 203.698V203.647Z" fill="#55b2c2"/>
<path d="M243.26 203.954C243.26 203.954 243.26 203.801 243.209 203.698L243.311 204.056V203.954H243.26Z" fill="#55b2c2"/>
<path d="M243.311 204.21V204.056L243.362 204.363C243.362 204.363 243.362 204.261 243.311 204.21Z" fill="#55b2c2"/>
<path d="M243.516 204.721V204.619L243.618 204.926C243.618 204.926 243.567 204.824 243.516 204.772V204.721Z" fill="#55b2c2"/>
<path d="M243.721 205.182V205.079L243.823 205.335C243.823 205.335 243.772 205.233 243.721 205.182Z" fill="#55b2c2"/>
<path d="M243.925 205.489L243.822 205.335L243.976 205.54L243.925 205.489Z" fill="#55b2c2"/>
<path d="M244.027 205.642V205.54L244.13 205.795C244.13 205.744 244.027 205.693 244.027 205.642Z" fill="#55b2c2"/>
<path d="M244.233 205.949L244.131 205.795L244.233 206V205.949Z" fill="#55b2c2"/>
<path d="M244.283 206.051L244.488 206.205C244.488 206.205 244.386 206.102 244.334 206.051H244.283Z" fill="#55b2c2"/>
<path d="M244.54 206.358L244.438 206.256L244.591 206.409L244.54 206.358Z" fill="#55b2c2"/>
<path d="M244.643 206.46L244.848 206.614C244.848 206.614 244.745 206.511 244.694 206.46H244.643Z" fill="#55b2c2"/>
<path d="M244.899 206.767L244.797 206.614L244.951 206.818L244.899 206.767Z" fill="#55b2c2"/>
<path d="M245.002 206.818L245.207 206.972C245.156 206.972 245.053 206.87 245.002 206.818Z" fill="#55b2c2"/>
<path d="M245.308 207.125L245.154 207.023L245.308 207.125Z" fill="#55b2c2"/>
<path d="M245.359 207.176L245.616 207.33C245.564 207.33 245.462 207.228 245.411 207.176H245.359Z" fill="#55b2c2"/>
<path d="M245.718 207.432C245.718 207.432 245.616 207.381 245.564 207.33L245.718 207.432Z" fill="#55b2c2"/>
<path d="M246.128 207.688L245.77 207.483L246.179 207.739L246.128 207.688Z" fill="#55b2c2"/>
<path d="M246.538 207.892C246.538 207.892 246.333 207.79 246.18 207.739L246.59 207.944L246.538 207.892Z" fill="#55b2c2"/>
<path d="M246.59 207.944L246.642 207.995L246.59 207.944Z" fill="#55b2c2"/>
<path d="M246.794 208.046H246.641L247.051 208.148C246.999 208.148 246.897 208.097 246.794 208.046Z" fill="#55b2c2"/>
<path d="M247.358 208.199C247.358 208.199 247.153 208.148 247.102 208.097L247.511 208.199C247.511 208.199 247.409 208.199 247.358 208.199Z" fill="#55b2c2"/>
<path d="M247.921 208.353C247.921 208.353 247.665 208.353 247.562 208.302H247.972C247.972 208.302 247.972 208.353 247.921 208.353Z" fill="#55b2c2"/>
<path d="M249.716 208.148C249.716 208.148 249.511 208.25 249.408 208.25L249.767 208.148H249.716Z" fill="#55b2c2"/>
<path d="M250.227 207.944L250.125 207.995L250.279 207.944H250.227Z" fill="#55b2c2"/>
<path d="M250.331 207.892H250.279L250.535 207.79C250.535 207.79 250.433 207.892 250.382 207.892H250.331Z" fill="#55b2c2"/>
<path d="M250.587 207.739L250.535 207.791L250.587 207.739Z" fill="#55b2c2"/>
<path d="M250.893 207.534C250.893 207.534 250.688 207.688 250.637 207.739L250.944 207.483L250.893 207.534Z" fill="#55b2c2"/>
<path d="M250.946 207.483H250.895L250.997 207.432L250.946 207.483Z" fill="#55b2c2"/>
<path d="M251.099 207.279L250.945 207.381L251.15 207.176C251.15 207.176 251.15 207.228 251.099 207.279Z" fill="#55b2c2"/>
<path d="M251.201 207.176V207.228L251.252 207.125L251.201 207.176Z" fill="#55b2c2"/>
<path d="M251.457 206.87C251.457 206.87 251.303 207.023 251.252 207.125L251.457 206.87Z" fill="#55b2c2"/>
<path d="M251.713 206.511L251.508 206.818L251.713 206.46V206.511Z" fill="#55b2c2"/>
<path d="M251.815 206.307C251.815 206.307 251.764 206.409 251.713 206.46L251.867 206.153C251.867 206.153 251.867 206.256 251.815 206.307Z" fill="#55b2c2"/>
<path d="M251.918 206.051V206.153L251.969 206.051H251.918Z" fill="#55b2c2"/>
<path d="M251.969 205.949L252.071 205.693C252.071 205.795 252.02 205.898 251.969 205.949Z" fill="#55b2c2"/>
<path d="M252.226 205.233C252.226 205.233 252.174 205.489 252.123 205.642L252.226 205.233Z" fill="#55b2c2"/>
<path d="M252.329 203.698V203.801L252.277 203.647L252.329 203.698Z" fill="#55b2c2"/>
<path d="M252.278 203.596L252.227 203.136C252.227 203.289 252.227 203.443 252.278 203.596Z" fill="#55b2c2"/>
<path d="M242.183 151.63C243.054 154.801 240.339 156.54 237.367 154.75C235.369 153.574 234.702 151.783 234.497 151.221C234.497 151.221 234.395 150.863 234.344 150.658C233.985 148.51 234.907 147.129 236.803 147.027C239.006 147.129 241.056 148.766 242.081 151.221C242.081 151.374 242.183 151.528 242.234 151.63H242.183Z" fill="#55b2c2"/>
<path d="M301.209 175.056C302.336 178.022 301.311 180.017 299.057 179.096C297.417 178.431 295.317 176.181 294.548 173.265C294.189 171.833 294.446 171.117 294.548 170.81C294.907 169.941 295.573 169.89 295.931 169.89C296.239 169.89 296.546 169.89 297.11 170.197C297.366 170.299 298.032 170.657 298.852 171.475C299.262 171.884 300.44 173.112 301.158 175.056H301.209Z" fill="#55b2c2"/>
<path d="M296.392 137.002C298.031 138.945 298.595 140.531 297.673 140.531C295.572 140.531 289.424 133.83 290.653 132.859C290.704 132.807 290.858 132.807 290.909 132.756C291.985 132.859 294.035 134.393 296.033 136.592C296.136 136.695 296.289 136.848 296.392 137.002Z" fill="#55b2c2"/>
<path d="M6.03068 255.971C5.56954 260.063 3.52005 262.365 2.08541 260.421C1.57304 259.705 0.95819 258.273 1.1119 255.358C1.31685 252.186 2.59778 249.731 3.98119 249.68C3.98119 249.68 4.08366 249.68 4.1349 249.68H4.18614C4.18614 249.68 4.33985 249.731 4.49356 249.782C5.87696 250.652 6.28686 253.567 6.03068 255.92V255.971Z" fill="#55b2c2"/>
<path d="M51.786 202.42C50.4539 206.511 46.5086 208.506 45.0227 205.898C43.3831 203.085 45.9962 196.998 49.7365 196.793C52.3496 196.998 52.5546 200.22 51.786 202.42Z" fill="#55b2c2"/>
<path d="M70.9988 203.238C70.8964 203.545 70.7939 203.954 70.6914 204.261C70.7939 203.698 70.9476 203.238 71.2038 202.727C71.1525 202.88 71.0501 203.033 70.9988 203.187V203.238Z" fill="#55b2c2"/>
<path d="M71.2031 202.778L71.2549 202.727L71.2031 202.778Z" fill="#55b2c2"/>
<path d="M78.3763 200.323C76.7367 198.277 73.1501 198.89 71.2031 202.727C71.5618 201.908 72.9964 199.3 75.917 199.146C76.8392 199.197 77.7615 199.453 78.5813 200.629C78.5301 200.527 78.4276 200.425 78.3763 200.323Z" fill="#55b2c2"/>
<path d="M79.1452 204.261C79.3501 202.727 79.2477 201.755 78.6328 200.63C79.0427 201.243 79.4526 202.317 79.1964 204.056C79.1964 204.056 79.1964 204.159 79.1964 204.261H79.1452Z" fill="#55b2c2"/>
<path d="M193.814 207.432C193.814 207.432 193.814 207.79 193.814 207.892C193.814 207.892 193.814 207.586 193.814 207.432V207.279C193.814 207.279 193.814 207.381 193.814 207.432ZM193.814 207.279C193.814 207.279 193.814 207.228 193.814 207.176V207.279ZM193.814 207.176C193.814 207.176 193.814 207.074 193.814 206.972V207.176ZM193.866 206.972C193.866 206.972 193.866 206.818 193.866 206.767V206.972ZM193.866 206.716C193.866 206.716 193.866 206.563 193.866 206.511V206.716ZM194.634 204.875C194.173 205.54 194.019 206.153 193.917 206.46C194.122 205.642 194.481 205.028 194.737 204.67C194.737 204.721 194.634 204.772 194.634 204.824V204.875ZM195.3 204.056C195.044 204.312 194.89 204.517 194.737 204.721C194.993 204.363 195.198 204.159 195.454 203.954C195.454 203.954 195.352 204.056 195.3 204.108V204.056ZM195.813 203.647C195.813 203.647 195.557 203.852 195.454 203.903C195.608 203.801 195.813 203.647 195.966 203.494C195.966 203.494 195.864 203.596 195.813 203.596V203.647ZM196.018 203.545C196.018 203.545 196.069 203.545 196.12 203.494H196.018V203.545ZM196.12 203.443L196.223 203.391H196.12V203.443ZM196.223 203.391C196.223 203.391 196.274 203.391 196.325 203.391H196.223ZM196.325 203.34C196.325 203.34 196.428 203.34 196.428 203.289H196.325V203.34ZM196.428 203.289C196.428 203.289 196.479 203.289 196.53 203.289H196.428ZM196.53 203.238C196.53 203.238 196.632 203.238 196.632 203.187H196.53V203.238ZM196.632 203.187C196.632 203.187 196.684 203.187 196.735 203.187H196.632ZM196.735 203.136C196.735 203.136 196.837 203.136 196.889 203.085H196.735V203.136ZM196.837 203.085C196.837 203.085 196.889 203.085 196.94 203.085H196.837ZM196.94 203.033C196.94 203.033 197.042 203.033 197.094 202.982H196.94V203.033ZM197.094 202.982C197.094 202.982 197.145 202.982 197.196 202.982H197.094ZM197.145 202.982C197.145 202.982 197.247 202.982 197.299 202.982H197.145ZM197.299 202.931C197.299 202.931 197.35 202.931 197.401 202.931H197.299ZM197.401 202.931C197.401 202.931 197.504 202.931 197.555 202.931H197.401ZM197.555 202.88C197.555 202.88 197.555 202.88 197.606 202.88H197.555ZM197.606 202.829C197.606 202.829 197.76 202.829 197.862 202.829H197.606ZM199.655 202.778C199.655 202.778 199.809 202.778 199.86 202.778H199.655ZM199.86 202.829C199.86 202.829 199.86 202.829 199.912 202.829H199.86ZM199.963 202.88C199.963 202.88 200.065 202.88 200.117 202.88H199.963ZM200.168 202.931C200.168 202.931 200.27 202.931 200.322 202.931H200.168ZM200.322 202.931C200.322 202.931 200.373 202.931 200.424 202.931H200.322ZM200.373 202.982C200.373 202.982 200.475 202.982 200.527 202.982H200.373ZM200.527 203.033C200.527 203.033 200.527 203.033 200.578 203.033H200.527ZM200.578 203.033C200.578 203.033 200.68 203.033 200.731 203.085H200.578V203.033ZM200.731 203.085C200.731 203.085 200.731 203.085 200.783 203.085H200.731ZM200.783 203.136C200.783 203.136 200.885 203.136 200.936 203.187H200.783V203.136ZM200.936 203.187C200.936 203.187 200.936 203.187 200.988 203.187H200.936ZM200.988 203.238C200.988 203.238 201.09 203.289 201.141 203.34L200.988 203.238ZM201.551 203.545C201.551 203.545 201.295 203.391 201.141 203.34C201.295 203.443 201.551 203.596 201.705 203.698C201.654 203.698 201.551 203.596 201.5 203.596L201.551 203.545ZM201.756 203.647C201.756 203.647 201.859 203.75 201.961 203.75L201.756 203.647ZM201.961 203.801C201.961 203.801 202.064 203.903 202.115 203.954L201.961 203.801ZM204.216 207.892C204.062 206.256 203.396 204.977 202.115 203.954C203.14 204.772 203.754 205.795 204.062 207.125C204.062 207.125 204.164 207.534 204.164 207.79C204.164 207.79 204.164 207.892 204.164 207.944L204.216 207.892Z" fill="#55b2c2"/>
<path d="M79.1459 204.261C77.9675 209.376 73.0487 210.961 71.2042 207.944C70.3331 206.563 70.5893 204.977 70.6918 204.261C71.4091 201.294 73.5098 199.248 75.918 199.146C78.3261 199.3 79.5558 201.243 79.1459 204.261Z" fill="#55b2c2"/>
<path d="M204.216 207.892C204.216 213.058 198.682 214.695 195.505 211.575C194.019 210.143 193.866 208.557 193.814 207.892C193.814 204.363 196.376 202.727 198.784 202.727C201.141 202.727 203.857 204.363 204.267 207.892H204.216Z" fill="#55b2c2"/>
<path d="M248.024 208.353C246.538 208.199 243.823 206.921 243.105 203.187C243.669 206.256 245.77 208.199 248.485 208.353C248.332 208.353 248.127 208.353 248.024 208.353Z" fill="#55b2c2"/>
<path d="M252.329 203.698C252.432 205.335 251.766 208.148 248.486 208.353C251.202 208.199 252.637 206.205 252.227 203.187C252.227 203.34 252.227 203.545 252.278 203.698H252.329Z" fill="#55b2c2"/>
<path d="M252.328 203.698C252.635 207.79 248.587 209.836 245.359 207.176C241.875 204.312 242.49 198.635 246.333 198.123C246.487 198.123 246.743 198.123 246.897 198.123C249.612 198.174 252.071 200.783 252.328 203.75V203.698Z" fill="#55b2c2"/>
<path d="M341.224 211.115L341.07 210.552C341.07 210.552 341.173 210.91 341.224 211.115Z" fill="#55b2c2"/>
<path d="M341.377 211.626C341.377 211.626 341.274 211.268 341.172 211.115C341.223 211.268 341.274 211.473 341.377 211.626Z" fill="#55b2c2"/>
<path d="M341.582 212.138C341.582 212.138 341.428 211.78 341.377 211.626C341.428 211.78 341.531 211.984 341.582 212.138Z" fill="#55b2c2"/>
<path d="M341.787 212.649C341.787 212.649 341.633 212.291 341.582 212.138C341.633 212.291 341.736 212.496 341.787 212.649Z" fill="#55b2c2"/>
<path d="M341.992 213.11C341.992 213.11 341.838 212.803 341.787 212.649C341.838 212.803 341.941 212.956 341.992 213.11Z" fill="#55b2c2"/>
<path d="M342.248 213.519C342.248 213.519 342.094 213.212 342.043 213.058C342.094 213.212 342.197 213.365 342.248 213.519Z" fill="#55b2c2"/>
<path d="M342.453 213.928C342.453 213.928 342.299 213.621 342.248 213.519C342.299 213.621 342.402 213.826 342.453 213.928Z" fill="#55b2c2"/>
<path d="M342.711 214.286C342.711 214.286 342.557 214.03 342.506 213.928C342.557 214.03 342.66 214.184 342.711 214.286Z" fill="#55b2c2"/>
<path d="M342.914 214.644C342.914 214.644 342.76 214.388 342.709 214.286C342.76 214.388 342.863 214.542 342.914 214.644Z" fill="#55b2c2"/>
<path d="M343.172 214.951C343.172 214.951 343.018 214.746 342.967 214.644C343.018 214.746 343.121 214.849 343.172 214.951Z" fill="#55b2c2"/>
<path d="M343.377 215.207C343.377 215.207 343.223 215.002 343.172 214.951C343.223 215.053 343.326 215.155 343.377 215.207Z" fill="#55b2c2"/>
<path d="M343.582 215.462C343.582 215.462 343.428 215.309 343.377 215.258C343.428 215.309 343.531 215.411 343.582 215.462Z" fill="#55b2c2"/>
<path d="M343.838 215.616C343.838 215.616 343.684 215.513 343.633 215.462C343.684 215.513 343.787 215.565 343.838 215.616Z" fill="#55b2c2"/>
<path d="M344.043 215.769C344.043 215.769 343.889 215.667 343.838 215.616C343.889 215.616 343.992 215.718 344.043 215.769Z" fill="#55b2c2"/>
<path d="M344.248 215.82C344.248 215.82 344.094 215.769 344.043 215.718C344.094 215.718 344.197 215.769 344.248 215.82Z" fill="#55b2c2"/>
<path d="M344.759 215.769C344.759 215.769 344.657 215.82 344.605 215.872C344.605 215.872 344.708 215.82 344.759 215.769Z" fill="#55b2c2"/>
<path d="M344.863 215.616C344.863 215.616 344.76 215.718 344.709 215.769C344.709 215.769 344.811 215.667 344.863 215.616Z" fill="#55b2c2"/>
<path d="M344.964 215.462C344.964 215.462 344.913 215.565 344.861 215.616C344.861 215.565 344.964 215.513 344.964 215.462Z" fill="#55b2c2"/>
<path d="M345.067 215.207C345.067 215.207 345.016 215.36 344.965 215.411C344.965 215.36 345.016 215.258 345.067 215.207Z" fill="#55b2c2"/>
<path d="M344.965 212.138C344.965 212.138 345.016 212.496 345.067 212.649C345.067 212.496 345.016 212.291 344.965 212.138Z" fill="#55b2c2"/>
<path d="M344.861 211.626C344.861 211.626 344.964 211.984 344.964 212.138C344.964 211.984 344.913 211.78 344.861 211.626Z" fill="#55b2c2"/>
<path d="M344.709 211.115C344.709 211.115 344.811 211.473 344.863 211.626C344.863 211.473 344.76 211.268 344.709 211.115Z" fill="#55b2c2"/>
<path d="M344.708 211.115L344.555 210.552C344.555 210.552 344.657 210.91 344.708 211.115Z" fill="#55b2c2"/>
<path d="M344.71 211.115C345.581 214.184 345.222 216.383 343.992 215.769C341.635 214.593 339.176 205.949 341.021 205.386C341.021 205.386 341.123 205.386 341.174 205.386C342.558 205.591 344.095 208.864 344.71 211.115Z" fill="#55b2c2"/>
</g>
</g>
<defs>
<filter id="filter0_f_490_14190" x="-131" y="-178" width="609" height="609" filterUnits="userSpaceOnUse" color-interpolation-filters="sRGB">
<feFlood flood-opacity="0" result="BackgroundImageFix"/>
<feBlend mode="normal" in="SourceGraphic" in2="BackgroundImageFix" result="shape"/>
<feGaussianBlur stdDeviation="100" result="effect1_foregroundBlur_490_14190"/>
</filter>
<clipPath id="clip0_490_14190">
<rect width="345" height="252" fill="#ffffff"/>
</clipPath>
<clipPath id="clip1_490_14190">
<rect width="381" height="381" fill="#ffffff" transform="translate(-18 79)"/>
</clipPath>
</defs>
</svg>