<svg width="345px" height="252px" viewBox="0 0 345 252" fill="none" xmlns="http://www.w3.org/2000/svg" transform="rotate(0) scale(1, 1)">
<path d="M103 88L242 88" stroke="url(#paint0_linear_490_15235)" stroke-linejoin="round" stroke-dasharray="4 4"/>
<path d="M154 177H190" stroke="url(#paint1_linear_490_15235)" stroke-linejoin="round" stroke-dasharray="4 4"/>
<g clip-path="url(#clip0_490_15235)">
<path d="M98.3562 74.5231H43.6426V120.325H98.3562V74.5231Z" fill="#001810"/>
<path d="M103 72.8392C103 73.7661 102.254 74.523 101.342 74.523H40.6579C39.7456 74.5231 39 73.7661 39 72.8392V58.3592C39 57.4323 39.7456 56.6748 40.6579 56.6748H101.342C102.254 56.6748 103 57.4327 103 58.3592V72.8392Z" fill="#55b2c2"/>
<path d="M45.3005 61.3892H43.6426V63.0729H45.3005V61.3892Z" fill="#001012"/>
<path d="M48.6169 61.3892H46.959V63.0729H48.6169V61.3892Z" fill="#001012"/>
<path d="M51.9319 61.3892H50.2734V63.0729H51.9319V61.3892Z" fill="#001012"/>
<path d="M55.2497 61.3892H53.5918V63.0729H55.2497V61.3892Z" fill="#001012"/>
<path d="M58.5661 61.3892H56.9082V63.0729H58.5661V61.3892Z" fill="#001012"/>
<path d="M61.8812 61.3892H60.2227V63.0729H61.8812V61.3892Z" fill="#001012"/>
<path d="M65.1989 61.3892H63.541V63.0729H65.1989V61.3892Z" fill="#001012"/>
<path d="M68.5153 61.3892H66.8574V63.0729H68.5153V61.3892Z" fill="#001012"/>
<path d="M45.3005 64.7568H43.6426V66.4406H45.3005V64.7568Z" fill="#001012"/>
<path d="M48.6169 64.7568H46.959V66.4406H48.6169V64.7568Z" fill="#001012"/>
<path d="M51.9319 64.7568H50.2734V66.4406H51.9319V64.7568Z" fill="#001012"/>
<path d="M55.2497 64.7568H53.5918V66.4406H55.2497V64.7568Z" fill="#001012"/>
<path d="M58.5661 64.7568H56.9082V66.4406H58.5661V64.7568Z" fill="#001012"/>
<path d="M61.8812 64.7568H60.2227V66.4406H61.8812V64.7568Z" fill="#001012"/>
<path d="M65.1989 64.7568H63.541V66.4406H65.1989V64.7568Z" fill="#001012"/>
<path d="M68.5153 64.7568H66.8574V66.4406H68.5153V64.7568Z" fill="#001012"/>
<path d="M45.3005 68.1265H43.6426V69.8109H45.3005V68.1265Z" fill="#001012"/>
<path d="M48.6169 68.1265H46.959V69.8109H48.6169V68.1265Z" fill="#001012"/>
<path d="M51.9319 68.1265H50.2734V69.8109H51.9319V68.1265Z" fill="#001012"/>
<path d="M55.2497 68.1265H53.5918V69.8109H55.2497V68.1265Z" fill="#001012"/>
<path d="M58.5661 68.1265H56.9082V69.8109H58.5661V68.1265Z" fill="#001012"/>
<path d="M61.8812 68.1265H60.2227V69.8109H61.8812V68.1265Z" fill="#001012"/>
<path d="M65.1989 68.1265H63.541V69.8109H65.1989V68.1265Z" fill="#001012"/>
<path d="M68.5153 68.1265H66.8574V69.8109H68.5153V68.1265Z" fill="#001012"/>
<path d="M98.3563 63.9156H95.041V67.2833H98.3563V63.9156Z" fill="#ffd748"/>
<path d="M91.7237 63.9156H88.4082V67.2833H91.7237V63.9156Z" fill="#001810"/>
<path d="M85.0912 63.9156H81.7773V67.2833H85.0912V63.9156Z" fill="#001810"/>
<path d="M103 94.0579C103 94.9847 102.254 95.742 101.342 95.742H40.6579C39.7456 95.7416 39 94.9844 39 94.0579V79.5758C39 78.6489 39.7456 77.8906 40.6579 77.8906H101.342C102.254 77.8906 103 78.6488 103 79.5758V94.0579Z" fill="#55b2c2"/>
<path d="M45.3005 82.6084H43.6426V84.2922H45.3005V82.6084Z" fill="#001012"/>
<path d="M48.6169 82.6084H46.959V84.2922H48.6169V82.6084Z" fill="#001012"/>
<path d="M51.9319 82.6084H50.2734V84.2922H51.9319V82.6084Z" fill="#001012"/>
<path d="M55.2497 82.6084H53.5918V84.2922H55.2497V82.6084Z" fill="#001012"/>
<path d="M58.5661 82.6084H56.9082V84.2922H58.5661V82.6084Z" fill="#001012"/>
<path d="M61.8812 82.6084H60.2227V84.2922H61.8812V82.6084Z" fill="#001012"/>
<path d="M65.1989 82.6084H63.541V84.2922H65.1989V82.6084Z" fill="#001012"/>
<path d="M68.5153 82.6084H66.8574V84.2922H68.5153V82.6084Z" fill="#001012"/>
<path d="M45.3005 85.9755H43.6426V87.659H45.3005V85.9755Z" fill="#001012"/>
<path d="M48.6169 85.9755H46.959V87.659H48.6169V85.9755Z" fill="#001012"/>
<path d="M51.9319 85.9755H50.2734V87.659H51.9319V85.9755Z" fill="#001012"/>
<path d="M55.2497 85.9755H53.5918V87.659H55.2497V85.9755Z" fill="#001012"/>
<path d="M58.5661 85.9755H56.9082V87.659H58.5661V85.9755Z" fill="#001012"/>
<path d="M61.8812 85.9755H60.2227V87.659H61.8812V85.9755Z" fill="#001012"/>
<path d="M65.1989 85.9755H63.541V87.659H65.1989V85.9755Z" fill="#001012"/>
<path d="M68.5153 85.9755H66.8574V87.659H68.5153V85.9755Z" fill="#001012"/>
<path d="M45.3005 89.3424H43.6426V91.0262H45.3005V89.3424Z" fill="#001012"/>
<path d="M48.6169 89.3424H46.959V91.0262H48.6169V89.3424Z" fill="#001012"/>
<path d="M51.9319 89.3424H50.2734V91.0262H51.9319V89.3424Z" fill="#001012"/>
<path d="M55.2497 89.3424H53.5918V91.0262H55.2497V89.3424Z" fill="#001012"/>
<path d="M58.5661 89.3424H56.9082V91.0262H58.5661V89.3424Z" fill="#001012"/>
<path d="M61.8812 89.3424H60.2227V91.0262H61.8812V89.3424Z" fill="#001012"/>
<path d="M65.1989 89.3424H63.541V91.0262H65.1989V89.3424Z" fill="#001012"/>
<path d="M68.5153 89.3424H66.8574V91.0262H68.5153V89.3424Z" fill="#001012"/>
<path d="M98.3563 85.1337H95.041V88.5014H98.3563V85.1337Z" fill="#001810"/>
<path d="M91.7237 85.1337H88.4082V88.5014H91.7237V85.1337Z" fill="#001810"/>
<path d="M85.0912 85.1337H81.7773V88.5014H85.0912V85.1337Z" fill="#ffd748"/>
<path d="M103 115.274C103 116.201 102.254 116.959 101.342 116.959H40.6579C39.7456 116.959 39 116.2 39 115.274V100.794C39 99.8675 39.7456 99.1102 40.6579 99.1102H101.342C102.254 99.1102 103 99.8675 103 100.794V115.274Z" fill="#55b2c2"/>
<path d="M45.3005 103.824H43.6426V105.509H45.3005V103.824Z" fill="#001012"/>
<path d="M48.6169 103.824H46.959V105.509H48.6169V103.824Z" fill="#001012"/>
<path d="M51.9319 103.824H50.2734V105.509H51.9319V103.824Z" fill="#001012"/>
<path d="M55.2497 103.824H53.5918V105.509H55.2497V103.824Z" fill="#001012"/>
<path d="M58.5661 103.824H56.9082V105.509H58.5661V103.824Z" fill="#001012"/>
<path d="M61.8812 103.824H60.2227V105.509H61.8812V103.824Z" fill="#001012"/>
<path d="M65.1989 103.824H63.541V105.509H65.1989V103.824Z" fill="#001012"/>
<path d="M68.5153 103.824H66.8574V105.509H68.5153V103.824Z" fill="#001012"/>
<path d="M45.3005 107.191H43.6426V108.877H45.3005V107.191Z" fill="#001012"/>
<path d="M48.6169 107.191H46.959V108.877H48.6169V107.191Z" fill="#001012"/>
<path d="M51.9319 107.191H50.2734V108.877H51.9319V107.191Z" fill="#001012"/>
<path d="M55.2497 107.191H53.5918V108.877H55.2497V107.191Z" fill="#001012"/>
<path d="M58.5661 107.191H56.9082V108.877H58.5661V107.191Z" fill="#001012"/>
<path d="M61.8812 107.191H60.2227V108.877H61.8812V107.191Z" fill="#001012"/>
<path d="M65.1989 107.191H63.541V108.877H65.1989V107.191Z" fill="#001012"/>
<path d="M68.5153 107.191H66.8574V108.877H68.5153V107.191Z" fill="#001012"/>
<path d="M45.3005 110.562H43.6426V112.246H45.3005V110.562Z" fill="#001012"/>
<path d="M48.6169 110.562H46.959V112.246H48.6169V110.562Z" fill="#001012"/>
<path d="M51.9319 110.562H50.2734V112.246H51.9319V110.562Z" fill="#001012"/>
<path d="M55.2497 110.562H53.5918V112.246H55.2497V110.562Z" fill="#001012"/>
<path d="M58.5661 110.562H56.9082V112.246H58.5661V110.562Z" fill="#001012"/>
<path d="M61.8812 110.562H60.2227V112.246H61.8812V110.562Z" fill="#001012"/>
<path d="M65.1989 110.562H63.541V112.246H65.1989V110.562Z" fill="#001012"/>
<path d="M68.5153 110.562H66.8574V112.246H68.5153V110.562Z" fill="#001012"/>
<path d="M98.3563 106.353H95.041V109.719H98.3563V106.353Z" fill="#001810"/>
<path d="M91.7237 106.353H88.4082V109.719H91.7237V106.353Z" fill="#ffd748"/>
<path d="M85.0912 106.353H81.7773V109.719H85.0912V106.353Z" fill="#001810"/>
</g>
<g clip-path="url(#clip1_490_15235)">
<path d="M199.283 74.5231H143.715V120.325H199.283V74.5231Z" fill="#001810"/>
<path d="M204 72.8392C204 73.7661 203.242 74.523 202.316 74.523H140.684C139.757 74.5231 139 73.7661 139 72.8392V58.3592C139 57.4323 139.757 56.6748 140.684 56.6748H202.316C203.242 56.6748 204 57.4327 204 58.3592V72.8392Z" fill="#55b2c2"/>
<path d="M145.399 61.3892H143.715V63.0729H145.399V61.3892Z" fill="#001012"/>
<path d="M148.766 61.3892H147.082V63.0729H148.766V61.3892Z" fill="#001012"/>
<path d="M152.136 61.3892H150.451V63.0729H152.136V61.3892Z" fill="#001012"/>
<path d="M155.502 61.3892H153.818V63.0729H155.502V61.3892Z" fill="#001012"/>
<path d="M158.871 61.3892H157.188V63.0729H158.871V61.3892Z" fill="#001012"/>
<path d="M162.239 61.3892H160.555V63.0729H162.239V61.3892Z" fill="#001012"/>
<path d="M165.608 61.3892H163.924V63.0729H165.608V61.3892Z" fill="#001012"/>
<path d="M168.975 61.3892H167.291V63.0729H168.975V61.3892Z" fill="#001012"/>
<path d="M145.399 64.7568H143.715V66.4406H145.399V64.7568Z" fill="#001012"/>
<path d="M148.766 64.7568H147.082V66.4406H148.766V64.7568Z" fill="#001012"/>
<path d="M152.136 64.7568H150.451V66.4406H152.136V64.7568Z" fill="#001012"/>
<path d="M155.502 64.7568H153.818V66.4406H155.502V64.7568Z" fill="#001012"/>
<path d="M158.871 64.7568H157.188V66.4406H158.871V64.7568Z" fill="#001012"/>
<path d="M162.239 64.7568H160.555V66.4406H162.239V64.7568Z" fill="#001012"/>
<path d="M165.608 64.7568H163.924V66.4406H165.608V64.7568Z" fill="#001012"/>
<path d="M168.975 64.7568H167.291V66.4406H168.975V64.7568Z" fill="#001012"/>
<path d="M145.399 68.1265H143.715V69.8109H145.399V68.1265Z" fill="#001012"/>
<path d="M148.766 68.1265H147.082V69.8109H148.766V68.1265Z" fill="#001012"/>
<path d="M152.136 68.1265H150.451V69.8109H152.136V68.1265Z" fill="#001012"/>
<path d="M155.502 68.1265H153.818V69.8109H155.502V68.1265Z" fill="#001012"/>
<path d="M158.871 68.1265H157.188V69.8109H158.871V68.1265Z" fill="#001012"/>
<path d="M162.239 68.1265H160.555V69.8109H162.239V68.1265Z" fill="#001012"/>
<path d="M165.608 68.1265H163.924V69.8109H165.608V68.1265Z" fill="#001012"/>
<path d="M168.975 68.1265H167.291V69.8109H168.975V68.1265Z" fill="#001012"/>
<path d="M199.285 63.9156H195.918V67.2833H199.285V63.9156Z" fill="#ffd748"/>
<path d="M192.547 63.9156H189.18V67.2833H192.547V63.9156Z" fill="#001810"/>
<path d="M185.811 63.9156H182.445V67.2833H185.811V63.9156Z" fill="#001810"/>
<path d="M204 94.0579C204 94.9847 203.242 95.742 202.316 95.742H140.684C139.757 95.7416 139 94.9844 139 94.0579V79.5758C139 78.6489 139.757 77.8906 140.684 77.8906H202.316C203.242 77.8906 204 78.6488 204 79.5758V94.0579Z" fill="#55b2c2"/>
<path d="M145.399 82.6084H143.715V84.2922H145.399V82.6084Z" fill="#001012"/>
<path d="M148.766 82.6084H147.082V84.2922H148.766V82.6084Z" fill="#001012"/>
<path d="M152.136 82.6084H150.451V84.2922H152.136V82.6084Z" fill="#001012"/>
<path d="M155.502 82.6084H153.818V84.2922H155.502V82.6084Z" fill="#001012"/>
<path d="M158.871 82.6084H157.188V84.2922H158.871V82.6084Z" fill="#001012"/>
<path d="M162.239 82.6084H160.555V84.2922H162.239V82.6084Z" fill="#001012"/>
<path d="M165.608 82.6084H163.924V84.2922H165.608V82.6084Z" fill="#001012"/>
<path d="M168.975 82.6084H167.291V84.2922H168.975V82.6084Z" fill="#001012"/>
<path d="M145.399 85.9755H143.715V87.659H145.399V85.9755Z" fill="#001012"/>
<path d="M148.766 85.9755H147.082V87.659H148.766V85.9755Z" fill="#001012"/>
<path d="M152.136 85.9755H150.451V87.659H152.136V85.9755Z" fill="#001012"/>
<path d="M155.502 85.9755H153.818V87.659H155.502V85.9755Z" fill="#001012"/>
<path d="M158.871 85.9755H157.188V87.659H158.871V85.9755Z" fill="#001012"/>
<path d="M162.239 85.9755H160.555V87.659H162.239V85.9755Z" fill="#001012"/>
<path d="M165.608 85.9755H163.924V87.659H165.608V85.9755Z" fill="#001012"/>
<path d="M168.975 85.9755H167.291V87.659H168.975V85.9755Z" fill="#001012"/>
<path d="M145.399 89.3424H143.715V91.0262H145.399V89.3424Z" fill="#001012"/>
<path d="M148.766 89.3424H147.082V91.0262H148.766V89.3424Z" fill="#001012"/>
<path d="M152.136 89.3424H150.451V91.0262H152.136V89.3424Z" fill="#001012"/>
<path d="M155.502 89.3424H153.818V91.0262H155.502V89.3424Z" fill="#001012"/>
<path d="M158.871 89.3424H157.188V91.0262H158.871V89.3424Z" fill="#001012"/>
<path d="M162.239 89.3424H160.555V91.0262H162.239V89.3424Z" fill="#001012"/>
<path d="M165.608 89.3424H163.924V91.0262H165.608V89.3424Z" fill="#001012"/>
<path d="M168.975 89.3424H167.291V91.0262H168.975V89.3424Z" fill="#001012"/>
<path d="M199.283 85.1337H195.916V88.5014H199.283V85.1337Z" fill="#001810"/>
<path d="M192.547 85.1337H189.18V88.5014H192.547V85.1337Z" fill="#001810"/>
<path d="M185.811 85.1337H182.445V88.5014H185.811V85.1337Z" fill="#ffd748"/>
<path d="M204 115.274C204 116.201 203.242 116.959 202.316 116.959H140.684C139.757 116.959 139 116.2 139 115.274V100.794C139 99.8675 139.757 99.1102 140.684 99.1102H202.316C203.242 99.1102 204 99.8675 204 100.794V115.274Z" fill="#55b2c2"/>
<path d="M145.399 103.824H143.715V105.509H145.399V103.824Z" fill="#001012"/>
<path d="M148.766 103.824H147.082V105.509H148.766V103.824Z" fill="#001012"/>
<path d="M152.136 103.824H150.451V105.509H152.136V103.824Z" fill="#001012"/>
<path d="M155.502 103.824H153.818V105.509H155.502V103.824Z" fill="#001012"/>
<path d="M158.871 103.824H157.188V105.509H158.871V103.824Z" fill="#001012"/>
<path d="M162.239 103.824H160.555V105.509H162.239V103.824Z" fill="#001012"/>
<path d="M165.608 103.824H163.924V105.509H165.608V103.824Z" fill="#001012"/>
<path d="M168.975 103.824H167.291V105.509H168.975V103.824Z" fill="#001012"/>
<path d="M145.399 107.191H143.715V108.877H145.399V107.191Z" fill="#001012"/>
<path d="M148.766 107.191H147.082V108.877H148.766V107.191Z" fill="#001012"/>
<path d="M152.136 107.191H150.451V108.877H152.136V107.191Z" fill="#001012"/>
<path d="M155.502 107.191H153.818V108.877H155.502V107.191Z" fill="#001012"/>
<path d="M158.871 107.191H157.188V108.877H158.871V107.191Z" fill="#001012"/>
<path d="M162.239 107.191H160.555V108.877H162.239V107.191Z" fill="#001012"/>
<path d="M165.608 107.191H163.924V108.877H165.608V107.191Z" fill="#001012"/>
<path d="M168.975 107.191H167.291V108.877H168.975V107.191Z" fill="#001012"/>
<path d="M145.399 110.562H143.715V112.246H145.399V110.562Z" fill="#001012"/>
<path d="M148.766 110.562H147.082V112.246H148.766V110.562Z" fill="#001012"/>
<path d="M152.136 110.562H150.451V112.246H152.136V110.562Z" fill="#001012"/>
<path d="M155.502 110.562H153.818V112.246H155.502V110.562Z" fill="#001012"/>
<path d="M158.871 110.562H157.188V112.246H158.871V110.562Z" fill="#001012"/>
<path d="M162.239 110.562H160.555V112.246H162.239V110.562Z" fill="#001012"/>
<path d="M165.608 110.562H163.924V112.246H165.608V110.562Z" fill="#001012"/>
<path d="M168.975 110.562H167.291V112.246H168.975V110.562Z" fill="#001012"/>
<path d="M199.285 106.353H195.918V109.719H199.285V106.353Z" fill="#001810"/>
<path d="M192.547 106.353H189.18V109.719H192.547V106.353Z" fill="#ffd748"/>
<path d="M185.811 106.353H182.445V109.719H185.811V106.353Z" fill="#001810"/>
</g>
<g clip-path="url(#clip2_490_15235)">
<path d="M301.356 74.5231H246.643V120.325H301.356V74.5231Z" fill="#001810"/>
<path d="M306 72.8392C306 73.7661 305.254 74.523 304.342 74.523H243.658C242.746 74.5231 242 73.7661 242 72.8392V58.3592C242 57.4323 242.746 56.6748 243.658 56.6748H304.342C305.254 56.6748 306 57.4327 306 58.3592V72.8392Z" fill="#55b2c2"/>
<path d="M248.3 61.3892H246.643V63.0729H248.3V61.3892Z" fill="#001012"/>
<path d="M251.617 61.3892H249.959V63.0729H251.617V61.3892Z" fill="#001012"/>
<path d="M254.932 61.3892H253.273V63.0729H254.932V61.3892Z" fill="#001012"/>
<path d="M258.25 61.3892H256.592V63.0729H258.25V61.3892Z" fill="#001012"/>
<path d="M261.566 61.3892H259.908V63.0729H261.566V61.3892Z" fill="#001012"/>
<path d="M264.881 61.3892H263.223V63.0729H264.881V61.3892Z" fill="#001012"/>
<path d="M268.199 61.3892H266.541V63.0729H268.199V61.3892Z" fill="#001012"/>
<path d="M271.515 61.3892H269.857V63.0729H271.515V61.3892Z" fill="#001012"/>
<path d="M248.3 64.7568H246.643V66.4406H248.3V64.7568Z" fill="#001012"/>
<path d="M251.617 64.7568H249.959V66.4406H251.617V64.7568Z" fill="#001012"/>
<path d="M254.932 64.7568H253.273V66.4406H254.932V64.7568Z" fill="#001012"/>
<path d="M258.25 64.7568H256.592V66.4406H258.25V64.7568Z" fill="#001012"/>
<path d="M261.566 64.7568H259.908V66.4406H261.566V64.7568Z" fill="#001012"/>
<path d="M264.881 64.7568H263.223V66.4406H264.881V64.7568Z" fill="#001012"/>
<path d="M268.199 64.7568H266.541V66.4406H268.199V64.7568Z" fill="#001012"/>
<path d="M271.515 64.7568H269.857V66.4406H271.515V64.7568Z" fill="#001012"/>
<path d="M248.3 68.1265H246.643V69.8109H248.3V68.1265Z" fill="#001012"/>
<path d="M251.617 68.1265H249.959V69.8109H251.617V68.1265Z" fill="#001012"/>
<path d="M254.932 68.1265H253.273V69.8109H254.932V68.1265Z" fill="#001012"/>
<path d="M258.25 68.1265H256.592V69.8109H258.25V68.1265Z" fill="#001012"/>
<path d="M261.566 68.1265H259.908V69.8109H261.566V68.1265Z" fill="#001012"/>
<path d="M264.881 68.1265H263.223V69.8109H264.881V68.1265Z" fill="#001012"/>
<path d="M268.199 68.1265H266.541V69.8109H268.199V68.1265Z" fill="#001012"/>
<path d="M271.515 68.1265H269.857V69.8109H271.515V68.1265Z" fill="#001012"/>
<path d="M301.356 63.9156H298.041V67.2833H301.356V63.9156Z" fill="#ffd748"/>
<path d="M294.724 63.9156H291.408V67.2833H294.724V63.9156Z" fill="#001810"/>
<path d="M288.091 63.9156H284.777V67.2833H288.091V63.9156Z" fill="#001810"/>
<path d="M306 94.0579C306 94.9847 305.254 95.742 304.342 95.742H243.658C242.746 95.7416 242 94.9844 242 94.0579V79.5758C242 78.6489 242.746 77.8906 243.658 77.8906H304.342C305.254 77.8906 306 78.6488 306 79.5758V94.0579Z" fill="#55b2c2"/>
<path d="M248.3 82.6084H246.643V84.2922H248.3V82.6084Z" fill="#001012"/>
<path d="M251.617 82.6084H249.959V84.2922H251.617V82.6084Z" fill="#001012"/>
<path d="M254.932 82.6084H253.273V84.2922H254.932V82.6084Z" fill="#001012"/>
<path d="M258.25 82.6084H256.592V84.2922H258.25V82.6084Z" fill="#001012"/>
<path d="M261.566 82.6084H259.908V84.2922H261.566V82.6084Z" fill="#001012"/>
<path d="M264.881 82.6084H263.223V84.2922H264.881V82.6084Z" fill="#001012"/>
<path d="M268.199 82.6084H266.541V84.2922H268.199V82.6084Z" fill="#001012"/>
<path d="M271.515 82.6084H269.857V84.2922H271.515V82.6084Z" fill="#001012"/>
<path d="M248.3 85.9755H246.643V87.659H248.3V85.9755Z" fill="#001012"/>
<path d="M251.617 85.9755H249.959V87.659H251.617V85.9755Z" fill="#001012"/>
<path d="M254.932 85.9755H253.273V87.659H254.932V85.9755Z" fill="#001012"/>
<path d="M258.25 85.9755H256.592V87.659H258.25V85.9755Z" fill="#001012"/>
<path d="M261.566 85.9755H259.908V87.659H261.566V85.9755Z" fill="#001012"/>
<path d="M264.881 85.9755H263.223V87.659H264.881V85.9755Z" fill="#001012"/>
<path d="M268.199 85.9755H266.541V87.659H268.199V85.9755Z" fill="#001012"/>
<path d="M271.515 85.9755H269.857V87.659H271.515V85.9755Z" fill="#001012"/>
<path d="M248.3 89.3424H246.643V91.0262H248.3V89.3424Z" fill="#001012"/>
<path d="M251.617 89.3424H249.959V91.0262H251.617V89.3424Z" fill="#001012"/>
<path d="M254.932 89.3424H253.273V91.0262H254.932V89.3424Z" fill="#001012"/>
<path d="M258.25 89.3424H256.592V91.0262H258.25V89.3424Z" fill="#001012"/>
<path d="M261.566 89.3424H259.908V91.0262H261.566V89.3424Z" fill="#001012"/>
<path d="M264.881 89.3424H263.223V91.0262H264.881V89.3424Z" fill="#001012"/>
<path d="M268.199 89.3424H266.541V91.0262H268.199V89.3424Z" fill="#001012"/>
<path d="M271.515 89.3424H269.857V91.0262H271.515V89.3424Z" fill="#001012"/>
<path d="M301.356 85.1337H298.041V88.5014H301.356V85.1337Z" fill="#001810"/>
<path d="M294.724 85.1337H291.408V88.5014H294.724V85.1337Z" fill="#001810"/>
<path d="M288.091 85.1337H284.777V88.5014H288.091V85.1337Z" fill="#ffd748"/>
<path d="M306 115.274C306 116.201 305.254 116.959 304.342 116.959H243.658C242.746 116.959 242 116.2 242 115.274V100.794C242 99.8675 242.746 99.1102 243.658 99.1102H304.342C305.254 99.1102 306 99.8675 306 100.794V115.274Z" fill="#55b2c2"/>
<path d="M248.3 103.824H246.643V105.509H248.3V103.824Z" fill="#001012"/>
<path d="M251.617 103.824H249.959V105.509H251.617V103.824Z" fill="#001012"/>
<path d="M254.932 103.824H253.273V105.509H254.932V103.824Z" fill="#001012"/>
<path d="M258.25 103.824H256.592V105.509H258.25V103.824Z" fill="#001012"/>
<path d="M261.566 103.824H259.908V105.509H261.566V103.824Z" fill="#001012"/>
<path d="M264.881 103.824H263.223V105.509H264.881V103.824Z" fill="#001012"/>
<path d="M268.199 103.824H266.541V105.509H268.199V103.824Z" fill="#001012"/>
<path d="M271.515 103.824H269.857V105.509H271.515V103.824Z" fill="#001012"/>
<path d="M248.3 107.191H246.643V108.877H248.3V107.191Z" fill="#001012"/>
<path d="M251.617 107.191H249.959V108.877H251.617V107.191Z" fill="#001012"/>
<path d="M254.932 107.191H253.273V108.877H254.932V107.191Z" fill="#001012"/>
<path d="M258.25 107.191H256.592V108.877H258.25V107.191Z" fill="#001012"/>
<path d="M261.566 107.191H259.908V108.877H261.566V107.191Z" fill="#001012"/>
<path d="M264.881 107.191H263.223V108.877H264.881V107.191Z" fill="#001012"/>
<path d="M268.199 107.191H266.541V108.877H268.199V107.191Z" fill="#001012"/>
<path d="M271.515 107.191H269.857V108.877H271.515V107.191Z" fill="#001012"/>
<path d="M248.3 110.562H246.643V112.246H248.3V110.562Z" fill="#001012"/>
<path d="M251.617 110.562H249.959V112.246H251.617V110.562Z" fill="#001012"/>
<path d="M254.932 110.562H253.273V112.246H254.932V110.562Z" fill="#001012"/>
<path d="M258.25 110.562H256.592V112.246H258.25V110.562Z" fill="#001012"/>
<path d="M261.566 110.562H259.908V112.246H261.566V110.562Z" fill="#001012"/>
<path d="M264.881 110.562H263.223V112.246H264.881V110.562Z" fill="#001012"/>
<path d="M268.199 110.562H266.541V112.246H268.199V110.562Z" fill="#001012"/>
<path d="M271.515 110.562H269.857V112.246H271.515V110.562Z" fill="#001012"/>
<path d="M301.356 106.353H298.041V109.719H301.356V106.353Z" fill="#001810"/>
<path d="M294.724 106.353H291.408V109.719H294.724V106.353Z" fill="#ffd748"/>
<path d="M288.091 106.353H284.777V109.719H288.091V106.353Z" fill="#001810"/>
</g>
<g clip-path="url(#clip3_490_15235)">
<path d="M152.429 168.523H98.5703V214.325H152.429V168.523Z" fill="#001810"/>
<path d="M157 166.839C157 167.766 156.266 168.523 155.368 168.523H95.632C94.734 168.523 94 167.766 94 166.839V152.359C94 151.432 94.734 150.675 95.632 150.675H155.368C156.266 150.675 157 151.433 157 152.359V166.839Z" fill="#55b2c2"/>
<path d="M100.202 155.389H98.5703V157.073H100.202V155.389Z" fill="#001012"/>
<path d="M103.466 155.389H101.834V157.073H103.466V155.389Z" fill="#001012"/>
<path d="M106.73 155.389H105.098V157.073H106.73V155.389Z" fill="#001012"/>
<path d="M109.995 155.389H108.363V157.073H109.995V155.389Z" fill="#001012"/>
<path d="M113.261 155.389H111.629V157.073H113.261V155.389Z" fill="#001012"/>
<path d="M116.525 155.389H114.893V157.073H116.525V155.389Z" fill="#001012"/>
<path d="M119.79 155.389H118.158V157.073H119.79V155.389Z" fill="#001012"/>
<path d="M123.054 155.389H121.422V157.073H123.054V155.389Z" fill="#001012"/>
<path d="M100.202 158.757H98.5703V160.441H100.202V158.757Z" fill="#001012"/>
<path d="M103.466 158.757H101.834V160.441H103.466V158.757Z" fill="#001012"/>
<path d="M106.73 158.757H105.098V160.441H106.73V158.757Z" fill="#001012"/>
<path d="M109.995 158.757H108.363V160.441H109.995V158.757Z" fill="#001012"/>
<path d="M113.261 158.757H111.629V160.441H113.261V158.757Z" fill="#001012"/>
<path d="M116.525 158.757H114.893V160.441H116.525V158.757Z" fill="#001012"/>
<path d="M119.79 158.757H118.158V160.441H119.79V158.757Z" fill="#001012"/>
<path d="M123.054 158.757H121.422V160.441H123.054V158.757Z" fill="#001012"/>
<path d="M100.202 162.126H98.5703V163.811H100.202V162.126Z" fill="#001012"/>
<path d="M103.466 162.126H101.834V163.811H103.466V162.126Z" fill="#001012"/>
<path d="M106.73 162.126H105.098V163.811H106.73V162.126Z" fill="#001012"/>
<path d="M109.995 162.126H108.363V163.811H109.995V162.126Z" fill="#001012"/>
<path d="M113.261 162.126H111.629V163.811H113.261V162.126Z" fill="#001012"/>
<path d="M116.525 162.126H114.893V163.811H116.525V162.126Z" fill="#001012"/>
<path d="M119.79 162.126H118.158V163.811H119.79V162.126Z" fill="#001012"/>
<path d="M123.054 162.126H121.422V163.811H123.054V162.126Z" fill="#001012"/>
<path d="M152.429 157.916H149.166V161.283H152.429V157.916Z" fill="#ffd748"/>
<path d="M145.9 157.916H142.637V161.283H145.9V157.916Z" fill="#001810"/>
<path d="M139.371 157.916H136.109V161.283H139.371V157.916Z" fill="#001810"/>
<path d="M157 188.058C157 188.985 156.266 189.742 155.368 189.742H95.632C94.734 189.742 94 188.984 94 188.058V173.576C94 172.649 94.734 171.891 95.632 171.891H155.368C156.266 171.891 157 172.649 157 173.576V188.058Z" fill="#55b2c2"/>
<path d="M100.202 176.608H98.5703V178.292H100.202V176.608Z" fill="#001012"/>
<path d="M103.466 176.608H101.834V178.292H103.466V176.608Z" fill="#001012"/>
<path d="M106.73 176.608H105.098V178.292H106.73V176.608Z" fill="#001012"/>
<path d="M109.995 176.608H108.363V178.292H109.995V176.608Z" fill="#001012"/>
<path d="M113.261 176.608H111.629V178.292H113.261V176.608Z" fill="#001012"/>
<path d="M116.525 176.608H114.893V178.292H116.525V176.608Z" fill="#001012"/>
<path d="M119.79 176.608H118.158V178.292H119.79V176.608Z" fill="#001012"/>
<path d="M123.054 176.608H121.422V178.292H123.054V176.608Z" fill="#001012"/>
<path d="M100.202 179.975H98.5703V181.659H100.202V179.975Z" fill="#001012"/>
<path d="M103.466 179.975H101.834V181.659H103.466V179.975Z" fill="#001012"/>
<path d="M106.73 179.975H105.098V181.659H106.73V179.975Z" fill="#001012"/>
<path d="M109.995 179.975H108.363V181.659H109.995V179.975Z" fill="#001012"/>
<path d="M113.261 179.975H111.629V181.659H113.261V179.975Z" fill="#001012"/>
<path d="M116.525 179.975H114.893V181.659H116.525V179.975Z" fill="#001012"/>
<path d="M119.79 179.975H118.158V181.659H119.79V179.975Z" fill="#001012"/>
<path d="M123.054 179.975H121.422V181.659H123.054V179.975Z" fill="#001012"/>
<path d="M100.202 183.342H98.5703V185.026H100.202V183.342Z" fill="#001012"/>
<path d="M103.466 183.342H101.834V185.026H103.466V183.342Z" fill="#001012"/>
<path d="M106.73 183.342H105.098V185.026H106.73V183.342Z" fill="#001012"/>
<path d="M109.995 183.342H108.363V185.026H109.995V183.342Z" fill="#001012"/>
<path d="M113.261 183.342H111.629V185.026H113.261V183.342Z" fill="#001012"/>
<path d="M116.525 183.342H114.893V185.026H116.525V183.342Z" fill="#001012"/>
<path d="M119.79 183.342H118.158V185.026H119.79V183.342Z" fill="#001012"/>
<path d="M123.054 183.342H121.422V185.026H123.054V183.342Z" fill="#001012"/>
<path d="M152.429 179.134H149.166V182.501H152.429V179.134Z" fill="#001810"/>
<path d="M145.9 179.134H142.637V182.501H145.9V179.134Z" fill="#001810"/>
<path d="M139.371 179.134H136.109V182.501H139.371V179.134Z" fill="#ffd748"/>
<path d="M157 209.274C157 210.201 156.266 210.959 155.368 210.959H95.632C94.734 210.959 94 210.2 94 209.274V194.794C94 193.868 94.734 193.11 95.632 193.11H155.368C156.266 193.11 157 193.868 157 194.794V209.274Z" fill="#55b2c2"/>
<path d="M100.202 197.824H98.5703V199.509H100.202V197.824Z" fill="#001012"/>
<path d="M103.466 197.824H101.834V199.509H103.466V197.824Z" fill="#001012"/>
<path d="M106.73 197.824H105.098V199.509H106.73V197.824Z" fill="#001012"/>
<path d="M109.995 197.824H108.363V199.509H109.995V197.824Z" fill="#001012"/>
<path d="M113.261 197.824H111.629V199.509H113.261V197.824Z" fill="#001012"/>
<path d="M116.525 197.824H114.893V199.509H116.525V197.824Z" fill="#001012"/>
<path d="M119.79 197.824H118.158V199.509H119.79V197.824Z" fill="#001012"/>
<path d="M123.054 197.824H121.422V199.509H123.054V197.824Z" fill="#001012"/>
<path d="M100.202 201.191H98.5703V202.877H100.202V201.191Z" fill="#001012"/>
<path d="M103.466 201.191H101.834V202.877H103.466V201.191Z" fill="#001012"/>
<path d="M106.73 201.191H105.098V202.877H106.73V201.191Z" fill="#001012"/>
<path d="M109.995 201.191H108.363V202.877H109.995V201.191Z" fill="#001012"/>
<path d="M113.261 201.191H111.629V202.877H113.261V201.191Z" fill="#001012"/>
<path d="M116.525 201.191H114.893V202.877H116.525V201.191Z" fill="#001012"/>
<path d="M119.79 201.191H118.158V202.877H119.79V201.191Z" fill="#001012"/>
<path d="M123.054 201.191H121.422V202.877H123.054V201.191Z" fill="#001012"/>
<path d="M100.202 204.562H98.5703V206.246H100.202V204.562Z" fill="#001012"/>
<path d="M103.466 204.562H101.834V206.246H103.466V204.562Z" fill="#001012"/>
<path d="M106.73 204.562H105.098V206.246H106.73V204.562Z" fill="#001012"/>
<path d="M109.995 204.562H108.363V206.246H109.995V204.562Z" fill="#001012"/>
<path d="M113.261 204.562H111.629V206.246H113.261V204.562Z" fill="#001012"/>
<path d="M116.525 204.562H114.893V206.246H116.525V204.562Z" fill="#001012"/>
<path d="M119.79 204.562H118.158V206.246H119.79V204.562Z" fill="#001012"/>
<path d="M123.054 204.562H121.422V206.246H123.054V204.562Z" fill="#001012"/>
<path d="M152.429 200.353H149.166V203.719H152.429V200.353Z" fill="#001810"/>
<path d="M145.9 200.353H142.637V203.719H145.9V200.353Z" fill="#ffd748"/>
<path d="M139.371 200.353H136.109V203.719H139.371V200.353Z" fill="#001810"/>
</g>
<g clip-path="url(#clip4_490_15235)">
<rect x="242" y="56" width="34" height="62" rx="5" fill="url(#paint2_linear_490_15235)"/>
<path d="M259 71.5C254.313 71.5 250.5 78.4539 250.5 87C250.5 95.5461 254.313 102.5 259 102.5C263.687 102.5 267.5 95.5461 267.5 87C267.5 78.4539 263.687 71.5 259 71.5ZM262.719 88.2923H259.709V93.7812C259.709 94.4941 259.391 95.0735 259 95.0735C258.609 95.0735 258.291 94.4941 258.291 93.7812V88.2923H255.281C254.89 88.2923 254.573 87.7128 254.573 87C254.573 86.2872 254.89 85.7077 255.281 85.7077H258.291V80.2188C258.291 79.5059 258.609 78.9265 259 78.9265C259.391 78.9265 259.709 79.5059 259.709 80.2188V85.7077H262.719C263.11 85.7077 263.427 86.2872 263.427 87C263.427 87.7128 263.11 88.2923 262.719 88.2923Z" fill="#55b2c2"/>
</g>
<g clip-path="url(#clip5_490_15235)">
<rect x="191" y="149" width="63" height="62" rx="5" fill="url(#paint3_linear_490_15235)"/>
<path d="M222.5 164.5C213.816 164.5 206.75 171.454 206.75 180C206.75 188.546 213.816 195.5 222.5 195.5C231.184 195.5 238.25 188.546 238.25 180C238.25 171.454 231.184 164.5 222.5 164.5ZM229.391 181.292H223.813V186.781C223.813 187.494 223.224 188.074 222.5 188.074C221.776 188.074 221.187 187.494 221.187 186.781V181.292H215.609C214.885 181.292 214.296 180.713 214.296 180C214.296 179.287 214.885 178.708 215.609 178.708H221.187V173.219C221.187 172.506 221.776 171.926 222.5 171.926C223.224 171.926 223.813 172.506 223.813 173.219V178.708H229.391C230.115 178.708 230.704 179.287 230.704 180C230.704 180.713 230.115 181.292 229.391 181.292Z" fill="#55b2c2"/>
</g>
<defs>
<linearGradient id="paint0_linear_490_15235" x1="111.928" y1="88.0708" x2="117.498" y2="106.535" gradientUnits="userSpaceOnUse">
<stop stop-color="#ffffff" stop-opacity="0.12" data-originalstopcolor="#ffffff"/>
<stop offset="0.527508" stop-color="#ffffff" stop-opacity="0.17" data-originalstopcolor="#ffffff"/>
<stop offset="1" stop-color="#ffffff" stop-opacity="0.2" data-originalstopcolor="#ffffff"/>
</linearGradient>
<linearGradient id="paint1_linear_490_15235" x1="156.312" y1="177.071" x2="166.268" y2="185.619" gradientUnits="userSpaceOnUse">
<stop stop-color="#ffffff" stop-opacity="0.12" data-originalstopcolor="#ffffff"/>
<stop offset="0.527508" stop-color="#ffffff" stop-opacity="0.17" data-originalstopcolor="#ffffff"/>
<stop offset="1" stop-color="#ffffff" stop-opacity="0.2" data-originalstopcolor="#ffffff"/>
</linearGradient>
<linearGradient id="paint2_linear_490_15235" x1="243.371" y1="116.5" x2="293.995" y2="88.2719" gradientUnits="userSpaceOnUse">
<stop stop-color="#55b2c2" stop-opacity="0.27" data-originalstopcolor="#55b2c2"/>
<stop offset="1" stop-color="#55b2c2" stop-opacity="0" data-originalstopcolor="#55b2c2"/>
</linearGradient>
<linearGradient id="paint3_linear_490_15235" x1="193.54" y1="209.5" x2="253.017" y2="148.048" gradientUnits="userSpaceOnUse">
<stop stop-color="#55b2c2" stop-opacity="0.27" data-originalstopcolor="#55b2c2"/>
<stop offset="1" stop-color="#55b2c2" stop-opacity="0" data-originalstopcolor="#55b2c2"/>
</linearGradient>
<clipPath id="clip0_490_15235">
<rect width="64" height="65" fill="#ffffff" transform="translate(39 56)"/>
</clipPath>
<clipPath id="clip1_490_15235">
<rect width="65" height="65" fill="#ffffff" transform="translate(139 56)"/>
</clipPath>
<clipPath id="clip2_490_15235">
<rect width="64" height="65" fill="#ffffff" transform="translate(242 56)"/>
</clipPath>
<clipPath id="clip3_490_15235">
<rect width="63" height="65" fill="#ffffff" transform="translate(94 150)"/>
</clipPath>
<clipPath id="clip4_490_15235">
<rect width="34" height="62" fill="#ffffff" transform="translate(242 56)"/>
</clipPath>
<clipPath id="clip5_490_15235">
<rect width="63" height="62" fill="#ffffff" transform="translate(191 149)"/>
</clipPath>
</defs>
</svg>