<svg width="588px" height="252px" viewBox="0 0 588 252" fill="none" xmlns="http://www.w3.org/2000/svg" transform="rotate(0) scale(1, 1)">
<path d="M121 126L471 126" stroke="url(#paint0_linear_474_12361)" stroke-linejoin="round" stroke-dasharray="4 4"/>
<g clip-path="url(#clip0_474_12361)">
<path d="M116.211 111.808H59.7871V158.315H116.211V111.808Z" fill="#001810"/>
<path d="M121 110.098C121 111.039 120.231 111.808 119.291 111.808H56.7097C55.7689 111.808 55 111.039 55 110.098V95.3955C55 94.4543 55.7689 93.6851 56.7097 93.6851H119.291C120.231 93.6851 121 94.4547 121 95.3955V110.098Z" fill="#55b2c2"/>
<path d="M61.4968 98.4721H59.7871V100.182H61.4968V98.4721Z" fill="#001012"/>
<path d="M64.9167 98.4721H63.207V100.182H64.9167V98.4721Z" fill="#001012"/>
<path d="M68.3373 98.4721H66.627V100.182H68.3373V98.4721Z" fill="#001012"/>
<path d="M71.7566 98.4721H70.0469V100.182H71.7566V98.4721Z" fill="#001012"/>
<path d="M75.1765 98.4721H73.4668V100.182H75.1765V98.4721Z" fill="#001012"/>
<path d="M78.597 98.4721H76.8867V100.182H78.597V98.4721Z" fill="#001012"/>
<path d="M82.0183 98.4721H80.3086V100.182H82.0183V98.4721Z" fill="#001012"/>
<path d="M85.4362 98.4721H83.7266V100.182H85.4362V98.4721Z" fill="#001012"/>
<path d="M61.4968 101.892H59.7871V103.601H61.4968V101.892Z" fill="#001012"/>
<path d="M64.9167 101.892H63.207V103.601H64.9167V101.892Z" fill="#001012"/>
<path d="M68.3373 101.892H66.627V103.601H68.3373V101.892Z" fill="#001012"/>
<path d="M71.7566 101.892H70.0469V103.601H71.7566V101.892Z" fill="#001012"/>
<path d="M75.1765 101.892H73.4668V103.601H75.1765V101.892Z" fill="#001012"/>
<path d="M78.597 101.892H76.8867V103.601H78.597V101.892Z" fill="#001012"/>
<path d="M82.0183 101.892H80.3086V103.601H82.0183V101.892Z" fill="#001012"/>
<path d="M85.4362 101.892H83.7266V103.601H85.4362V101.892Z" fill="#001012"/>
<path d="M61.4968 105.313H59.7871V107.023H61.4968V105.313Z" fill="#001012"/>
<path d="M64.9167 105.313H63.207V107.023H64.9167V105.313Z" fill="#001012"/>
<path d="M68.3373 105.313H66.627V107.023H68.3373V105.313Z" fill="#001012"/>
<path d="M71.7566 105.313H70.0469V107.023H71.7566V105.313Z" fill="#001012"/>
<path d="M75.1765 105.313H73.4668V107.023H75.1765V105.313Z" fill="#001012"/>
<path d="M78.597 105.313H76.8867V107.023H78.597V105.313Z" fill="#001012"/>
<path d="M82.0183 105.313H80.3086V107.023H82.0183V105.313Z" fill="#001012"/>
<path d="M85.4362 105.313H83.7266V107.023H85.4362V105.313Z" fill="#001012"/>
<path d="M116.212 101.037H112.793V104.457H116.212V101.037Z" fill="#ffd748"/>
<path d="M109.372 101.037H105.953V104.457H109.372V101.037Z" fill="#001810"/>
<path d="M102.533 101.037H99.1152V104.457H102.533V101.037Z" fill="#001810"/>
<path d="M121 131.643C121 132.585 120.231 133.353 119.291 133.353H56.7097C55.7689 133.353 55 132.584 55 131.643V116.939C55 115.997 55.7689 115.227 56.7097 115.227H119.291C120.231 115.227 121 115.997 121 116.939V131.643Z" fill="#55b2c2"/>
<path d="M61.4968 120.018H59.7871V121.727H61.4968V120.018Z" fill="#001012"/>
<path d="M64.9167 120.018H63.207V121.727H64.9167V120.018Z" fill="#001012"/>
<path d="M68.3373 120.018H66.627V121.727H68.3373V120.018Z" fill="#001012"/>
<path d="M71.7566 120.018H70.0469V121.727H71.7566V120.018Z" fill="#001012"/>
<path d="M75.1765 120.018H73.4668V121.727H75.1765V120.018Z" fill="#001012"/>
<path d="M78.597 120.018H76.8867V121.727H78.597V120.018Z" fill="#001012"/>
<path d="M82.0183 120.018H80.3086V121.727H82.0183V120.018Z" fill="#001012"/>
<path d="M85.4362 120.018H83.7266V121.727H85.4362V120.018Z" fill="#001012"/>
<path d="M61.4968 123.437H59.7871V125.146H61.4968V123.437Z" fill="#001012"/>
<path d="M64.9167 123.437H63.207V125.146H64.9167V123.437Z" fill="#001012"/>
<path d="M68.3373 123.437H66.627V125.146H68.3373V123.437Z" fill="#001012"/>
<path d="M71.7566 123.437H70.0469V125.146H71.7566V123.437Z" fill="#001012"/>
<path d="M75.1765 123.437H73.4668V125.146H75.1765V123.437Z" fill="#001012"/>
<path d="M78.597 123.437H76.8867V125.146H78.597V123.437Z" fill="#001012"/>
<path d="M82.0183 123.437H80.3086V125.146H82.0183V123.437Z" fill="#001012"/>
<path d="M85.4362 123.437H83.7266V125.146H85.4362V123.437Z" fill="#001012"/>
<path d="M61.4968 126.855H59.7871V128.565H61.4968V126.855Z" fill="#001012"/>
<path d="M64.9167 126.855H63.207V128.565H64.9167V126.855Z" fill="#001012"/>
<path d="M68.3373 126.855H66.627V128.565H68.3373V126.855Z" fill="#001012"/>
<path d="M71.7566 126.855H70.0469V128.565H71.7566V126.855Z" fill="#001012"/>
<path d="M75.1765 126.855H73.4668V128.565H75.1765V126.855Z" fill="#001012"/>
<path d="M78.597 126.855H76.8867V128.565H78.597V126.855Z" fill="#001012"/>
<path d="M82.0183 126.855H80.3086V128.565H82.0183V126.855Z" fill="#001012"/>
<path d="M85.4362 126.855H83.7266V128.565H85.4362V126.855Z" fill="#001012"/>
<path d="M116.212 122.582H112.793V126.001H116.212V122.582Z" fill="#001810"/>
<path d="M109.37 122.582H105.951V126.001H109.37V122.582Z" fill="#001810"/>
<path d="M102.533 122.582H99.1152V126.001H102.533V122.582Z" fill="#ffd748"/>
<path d="M121 153.186C121 154.127 120.231 154.897 119.291 154.897H56.7097C55.7689 154.896 55 154.127 55 153.186V138.484C55 137.542 55.7689 136.773 56.7097 136.773H119.291C120.231 136.773 121 137.542 121 138.484V153.186Z" fill="#55b2c2"/>
<path d="M61.4968 141.56H59.7871V143.27H61.4968V141.56Z" fill="#001012"/>
<path d="M64.9167 141.56H63.207V143.27H64.9167V141.56Z" fill="#001012"/>
<path d="M68.3373 141.56H66.627V143.27H68.3373V141.56Z" fill="#001012"/>
<path d="M71.7566 141.56H70.0469V143.27H71.7566V141.56Z" fill="#001012"/>
<path d="M75.1765 141.56H73.4668V143.27H75.1765V141.56Z" fill="#001012"/>
<path d="M78.597 141.56H76.8867V143.27H78.597V141.56Z" fill="#001012"/>
<path d="M82.0183 141.56H80.3086V143.27H82.0183V141.56Z" fill="#001012"/>
<path d="M85.4362 141.56H83.7266V143.27H85.4362V141.56Z" fill="#001012"/>
<path d="M61.4968 144.979H59.7871V146.69H61.4968V144.979Z" fill="#001012"/>
<path d="M64.9167 144.979H63.207V146.69H64.9167V144.979Z" fill="#001012"/>
<path d="M68.3373 144.979H66.627V146.69H68.3373V144.979Z" fill="#001012"/>
<path d="M71.7566 144.979H70.0469V146.69H71.7566V144.979Z" fill="#001012"/>
<path d="M75.1765 144.979H73.4668V146.69H75.1765V144.979Z" fill="#001012"/>
<path d="M78.597 144.979H76.8867V146.69H78.597V144.979Z" fill="#001012"/>
<path d="M82.0183 144.979H80.3086V146.69H82.0183V144.979Z" fill="#001012"/>
<path d="M85.4362 144.979H83.7266V146.69H85.4362V144.979Z" fill="#001012"/>
<path d="M61.4968 148.401H59.7871V150.111H61.4968V148.401Z" fill="#001012"/>
<path d="M64.9167 148.401H63.207V150.111H64.9167V148.401Z" fill="#001012"/>
<path d="M68.3373 148.401H66.627V150.111H68.3373V148.401Z" fill="#001012"/>
<path d="M71.7566 148.401H70.0469V150.111H71.7566V148.401Z" fill="#001012"/>
<path d="M75.1765 148.401H73.4668V150.111H75.1765V148.401Z" fill="#001012"/>
<path d="M78.597 148.401H76.8867V150.111H78.597V148.401Z" fill="#001012"/>
<path d="M82.0183 148.401H80.3086V150.111H82.0183V148.401Z" fill="#001012"/>
<path d="M85.4362 148.401H83.7266V150.111H85.4362V148.401Z" fill="#001012"/>
<path d="M116.212 144.128H112.793V147.546H116.212V144.128Z" fill="#001810"/>
<path d="M109.37 144.128H105.951V147.546H109.37V144.128Z" fill="#ffd748"/>
<path d="M102.533 144.128H99.1152V147.546H102.533V144.128Z" fill="#001810"/>
</g>
<g clip-path="url(#clip1_474_12361)">
<path d="M220.211 111.808H163.787V158.315H220.211V111.808Z" fill="#001810"/>
<path d="M225 110.098C225 111.039 224.231 111.808 223.291 111.808H160.71C159.769 111.808 159 111.039 159 110.098V95.3955C159 94.4543 159.769 93.6851 160.71 93.6851H223.291C224.231 93.6851 225 94.4547 225 95.3955V110.098Z" fill="#55b2c2"/>
<path d="M165.497 98.4721H163.787V100.182H165.497V98.4721Z" fill="#001012"/>
<path d="M168.917 98.4721H167.207V100.182H168.917V98.4721Z" fill="#001012"/>
<path d="M172.337 98.4721H170.627V100.182H172.337V98.4721Z" fill="#001012"/>
<path d="M175.757 98.4721H174.047V100.182H175.757V98.4721Z" fill="#001012"/>
<path d="M179.176 98.4721H177.467V100.182H179.176V98.4721Z" fill="#001012"/>
<path d="M182.597 98.4721H180.887V100.182H182.597V98.4721Z" fill="#001012"/>
<path d="M186.018 98.4721H184.309V100.182H186.018V98.4721Z" fill="#001012"/>
<path d="M189.436 98.4721H187.727V100.182H189.436V98.4721Z" fill="#001012"/>
<path d="M165.497 101.892H163.787V103.601H165.497V101.892Z" fill="#001012"/>
<path d="M168.917 101.892H167.207V103.601H168.917V101.892Z" fill="#001012"/>
<path d="M172.337 101.892H170.627V103.601H172.337V101.892Z" fill="#001012"/>
<path d="M175.757 101.892H174.047V103.601H175.757V101.892Z" fill="#001012"/>
<path d="M179.176 101.892H177.467V103.601H179.176V101.892Z" fill="#001012"/>
<path d="M182.597 101.892H180.887V103.601H182.597V101.892Z" fill="#001012"/>
<path d="M186.018 101.892H184.309V103.601H186.018V101.892Z" fill="#001012"/>
<path d="M189.436 101.892H187.727V103.601H189.436V101.892Z" fill="#001012"/>
<path d="M165.497 105.313H163.787V107.023H165.497V105.313Z" fill="#001012"/>
<path d="M168.917 105.313H167.207V107.023H168.917V105.313Z" fill="#001012"/>
<path d="M172.337 105.313H170.627V107.023H172.337V105.313Z" fill="#001012"/>
<path d="M175.757 105.313H174.047V107.023H175.757V105.313Z" fill="#001012"/>
<path d="M179.176 105.313H177.467V107.023H179.176V105.313Z" fill="#001012"/>
<path d="M182.597 105.313H180.887V107.023H182.597V105.313Z" fill="#001012"/>
<path d="M186.018 105.313H184.309V107.023H186.018V105.313Z" fill="#001012"/>
<path d="M189.436 105.313H187.727V107.023H189.436V105.313Z" fill="#001012"/>
<path d="M220.212 101.037H216.793V104.457H220.212V101.037Z" fill="#ffd748"/>
<path d="M213.372 101.037H209.953V104.457H213.372V101.037Z" fill="#001810"/>
<path d="M206.533 101.037H203.115V104.457H206.533V101.037Z" fill="#001810"/>
<path d="M225 131.643C225 132.585 224.231 133.353 223.291 133.353H160.71C159.769 133.353 159 132.584 159 131.643V116.939C159 115.997 159.769 115.227 160.71 115.227H223.291C224.231 115.227 225 115.997 225 116.939V131.643Z" fill="#55b2c2"/>
<path d="M165.497 120.018H163.787V121.727H165.497V120.018Z" fill="#001012"/>
<path d="M168.917 120.018H167.207V121.727H168.917V120.018Z" fill="#001012"/>
<path d="M172.337 120.018H170.627V121.727H172.337V120.018Z" fill="#001012"/>
<path d="M175.757 120.018H174.047V121.727H175.757V120.018Z" fill="#001012"/>
<path d="M179.176 120.018H177.467V121.727H179.176V120.018Z" fill="#001012"/>
<path d="M182.597 120.018H180.887V121.727H182.597V120.018Z" fill="#001012"/>
<path d="M186.018 120.018H184.309V121.727H186.018V120.018Z" fill="#001012"/>
<path d="M189.436 120.018H187.727V121.727H189.436V120.018Z" fill="#001012"/>
<path d="M165.497 123.437H163.787V125.146H165.497V123.437Z" fill="#001012"/>
<path d="M168.917 123.437H167.207V125.146H168.917V123.437Z" fill="#001012"/>
<path d="M172.337 123.437H170.627V125.146H172.337V123.437Z" fill="#001012"/>
<path d="M175.757 123.437H174.047V125.146H175.757V123.437Z" fill="#001012"/>
<path d="M179.176 123.437H177.467V125.146H179.176V123.437Z" fill="#001012"/>
<path d="M182.597 123.437H180.887V125.146H182.597V123.437Z" fill="#001012"/>
<path d="M186.018 123.437H184.309V125.146H186.018V123.437Z" fill="#001012"/>
<path d="M189.436 123.437H187.727V125.146H189.436V123.437Z" fill="#001012"/>
<path d="M165.497 126.855H163.787V128.565H165.497V126.855Z" fill="#001012"/>
<path d="M168.917 126.855H167.207V128.565H168.917V126.855Z" fill="#001012"/>
<path d="M172.337 126.855H170.627V128.565H172.337V126.855Z" fill="#001012"/>
<path d="M175.757 126.855H174.047V128.565H175.757V126.855Z" fill="#001012"/>
<path d="M179.176 126.855H177.467V128.565H179.176V126.855Z" fill="#001012"/>
<path d="M182.597 126.855H180.887V128.565H182.597V126.855Z" fill="#001012"/>
<path d="M186.018 126.855H184.309V128.565H186.018V126.855Z" fill="#001012"/>
<path d="M189.436 126.855H187.727V128.565H189.436V126.855Z" fill="#001012"/>
<path d="M220.212 122.582H216.793V126.001H220.212V122.582Z" fill="#001810"/>
<path d="M213.37 122.582H209.951V126.001H213.37V122.582Z" fill="#001810"/>
<path d="M206.533 122.582H203.115V126.001H206.533V122.582Z" fill="#ffd748"/>
<path d="M225 153.186C225 154.127 224.231 154.897 223.291 154.897H160.71C159.769 154.896 159 154.127 159 153.186V138.484C159 137.542 159.769 136.773 160.71 136.773H223.291C224.231 136.773 225 137.542 225 138.484V153.186Z" fill="#55b2c2"/>
<path d="M165.497 141.56H163.787V143.27H165.497V141.56Z" fill="#001012"/>
<path d="M168.917 141.56H167.207V143.27H168.917V141.56Z" fill="#001012"/>
<path d="M172.337 141.56H170.627V143.27H172.337V141.56Z" fill="#001012"/>
<path d="M175.757 141.56H174.047V143.27H175.757V141.56Z" fill="#001012"/>
<path d="M179.176 141.56H177.467V143.27H179.176V141.56Z" fill="#001012"/>
<path d="M182.597 141.56H180.887V143.27H182.597V141.56Z" fill="#001012"/>
<path d="M186.018 141.56H184.309V143.27H186.018V141.56Z" fill="#001012"/>
<path d="M189.436 141.56H187.727V143.27H189.436V141.56Z" fill="#001012"/>
<path d="M165.497 144.979H163.787V146.69H165.497V144.979Z" fill="#001012"/>
<path d="M168.917 144.979H167.207V146.69H168.917V144.979Z" fill="#001012"/>
<path d="M172.337 144.979H170.627V146.69H172.337V144.979Z" fill="#001012"/>
<path d="M175.757 144.979H174.047V146.69H175.757V144.979Z" fill="#001012"/>
<path d="M179.176 144.979H177.467V146.69H179.176V144.979Z" fill="#001012"/>
<path d="M182.597 144.979H180.887V146.69H182.597V144.979Z" fill="#001012"/>
<path d="M186.018 144.979H184.309V146.69H186.018V144.979Z" fill="#001012"/>
<path d="M189.436 144.979H187.727V146.69H189.436V144.979Z" fill="#001012"/>
<path d="M165.497 148.401H163.787V150.111H165.497V148.401Z" fill="#001012"/>
<path d="M168.917 148.401H167.207V150.111H168.917V148.401Z" fill="#001012"/>
<path d="M172.337 148.401H170.627V150.111H172.337V148.401Z" fill="#001012"/>
<path d="M175.757 148.401H174.047V150.111H175.757V148.401Z" fill="#001012"/>
<path d="M179.176 148.401H177.467V150.111H179.176V148.401Z" fill="#001012"/>
<path d="M182.597 148.401H180.887V150.111H182.597V148.401Z" fill="#001012"/>
<path d="M186.018 148.401H184.309V150.111H186.018V148.401Z" fill="#001012"/>
<path d="M189.436 148.401H187.727V150.111H189.436V148.401Z" fill="#001012"/>
<path d="M220.212 144.128H216.793V147.546H220.212V144.128Z" fill="#001810"/>
<path d="M213.37 144.128H209.951V147.546H213.37V144.128Z" fill="#ffd748"/>
<path d="M206.533 144.128H203.115V147.546H206.533V144.128Z" fill="#001810"/>
</g>
<g clip-path="url(#clip2_474_12361)">
<path d="M324.211 111.808H267.787V158.315H324.211V111.808Z" fill="#001810"/>
<path d="M329 110.098C329 111.039 328.231 111.808 327.291 111.808H264.71C263.769 111.808 263 111.039 263 110.098V95.3955C263 94.4543 263.769 93.6851 264.71 93.6851H327.291C328.231 93.6851 329 94.4547 329 95.3955V110.098Z" fill="#55b2c2"/>
<path d="M269.497 98.4721H267.787V100.182H269.497V98.4721Z" fill="#001012"/>
<path d="M272.917 98.4721H271.207V100.182H272.917V98.4721Z" fill="#001012"/>
<path d="M276.337 98.4721H274.627V100.182H276.337V98.4721Z" fill="#001012"/>
<path d="M279.757 98.4721H278.047V100.182H279.757V98.4721Z" fill="#001012"/>
<path d="M283.176 98.4721H281.467V100.182H283.176V98.4721Z" fill="#001012"/>
<path d="M286.597 98.4721H284.887V100.182H286.597V98.4721Z" fill="#001012"/>
<path d="M290.018 98.4721H288.309V100.182H290.018V98.4721Z" fill="#001012"/>
<path d="M293.436 98.4721H291.727V100.182H293.436V98.4721Z" fill="#001012"/>
<path d="M269.497 101.892H267.787V103.601H269.497V101.892Z" fill="#001012"/>
<path d="M272.917 101.892H271.207V103.601H272.917V101.892Z" fill="#001012"/>
<path d="M276.337 101.892H274.627V103.601H276.337V101.892Z" fill="#001012"/>
<path d="M279.757 101.892H278.047V103.601H279.757V101.892Z" fill="#001012"/>
<path d="M283.176 101.892H281.467V103.601H283.176V101.892Z" fill="#001012"/>
<path d="M286.597 101.892H284.887V103.601H286.597V101.892Z" fill="#001012"/>
<path d="M290.018 101.892H288.309V103.601H290.018V101.892Z" fill="#001012"/>
<path d="M293.436 101.892H291.727V103.601H293.436V101.892Z" fill="#001012"/>
<path d="M269.497 105.313H267.787V107.023H269.497V105.313Z" fill="#001012"/>
<path d="M272.917 105.313H271.207V107.023H272.917V105.313Z" fill="#001012"/>
<path d="M276.337 105.313H274.627V107.023H276.337V105.313Z" fill="#001012"/>
<path d="M279.757 105.313H278.047V107.023H279.757V105.313Z" fill="#001012"/>
<path d="M283.176 105.313H281.467V107.023H283.176V105.313Z" fill="#001012"/>
<path d="M286.597 105.313H284.887V107.023H286.597V105.313Z" fill="#001012"/>
<path d="M290.018 105.313H288.309V107.023H290.018V105.313Z" fill="#001012"/>
<path d="M293.436 105.313H291.727V107.023H293.436V105.313Z" fill="#001012"/>
<path d="M324.212 101.037H320.793V104.457H324.212V101.037Z" fill="#ffd748"/>
<path d="M317.372 101.037H313.953V104.457H317.372V101.037Z" fill="#001810"/>
<path d="M310.533 101.037H307.115V104.457H310.533V101.037Z" fill="#001810"/>
<path d="M329 131.643C329 132.585 328.231 133.353 327.291 133.353H264.71C263.769 133.353 263 132.584 263 131.643V116.939C263 115.997 263.769 115.227 264.71 115.227H327.291C328.231 115.227 329 115.997 329 116.939V131.643Z" fill="#55b2c2"/>
<path d="M269.497 120.018H267.787V121.727H269.497V120.018Z" fill="#001012"/>
<path d="M272.917 120.018H271.207V121.727H272.917V120.018Z" fill="#001012"/>
<path d="M276.337 120.018H274.627V121.727H276.337V120.018Z" fill="#001012"/>
<path d="M279.757 120.018H278.047V121.727H279.757V120.018Z" fill="#001012"/>
<path d="M283.176 120.018H281.467V121.727H283.176V120.018Z" fill="#001012"/>
<path d="M286.597 120.018H284.887V121.727H286.597V120.018Z" fill="#001012"/>
<path d="M290.018 120.018H288.309V121.727H290.018V120.018Z" fill="#001012"/>
<path d="M293.436 120.018H291.727V121.727H293.436V120.018Z" fill="#001012"/>
<path d="M269.497 123.437H267.787V125.146H269.497V123.437Z" fill="#001012"/>
<path d="M272.917 123.437H271.207V125.146H272.917V123.437Z" fill="#001012"/>
<path d="M276.337 123.437H274.627V125.146H276.337V123.437Z" fill="#001012"/>
<path d="M279.757 123.437H278.047V125.146H279.757V123.437Z" fill="#001012"/>
<path d="M283.176 123.437H281.467V125.146H283.176V123.437Z" fill="#001012"/>
<path d="M286.597 123.437H284.887V125.146H286.597V123.437Z" fill="#001012"/>
<path d="M290.018 123.437H288.309V125.146H290.018V123.437Z" fill="#001012"/>
<path d="M293.436 123.437H291.727V125.146H293.436V123.437Z" fill="#001012"/>
<path d="M269.497 126.855H267.787V128.565H269.497V126.855Z" fill="#001012"/>
<path d="M272.917 126.855H271.207V128.565H272.917V126.855Z" fill="#001012"/>
<path d="M276.337 126.855H274.627V128.565H276.337V126.855Z" fill="#001012"/>
<path d="M279.757 126.855H278.047V128.565H279.757V126.855Z" fill="#001012"/>
<path d="M283.176 126.855H281.467V128.565H283.176V126.855Z" fill="#001012"/>
<path d="M286.597 126.855H284.887V128.565H286.597V126.855Z" fill="#001012"/>
<path d="M290.018 126.855H288.309V128.565H290.018V126.855Z" fill="#001012"/>
<path d="M293.436 126.855H291.727V128.565H293.436V126.855Z" fill="#001012"/>
<path d="M324.212 122.582H320.793V126.001H324.212V122.582Z" fill="#001810"/>
<path d="M317.37 122.582H313.951V126.001H317.37V122.582Z" fill="#001810"/>
<path d="M310.533 122.582H307.115V126.001H310.533V122.582Z" fill="#ffd748"/>
<path d="M329 153.186C329 154.127 328.231 154.897 327.291 154.897H264.71C263.769 154.896 263 154.127 263 153.186V138.484C263 137.542 263.769 136.773 264.71 136.773H327.291C328.231 136.773 329 137.542 329 138.484V153.186Z" fill="#55b2c2"/>
<path d="M269.497 141.56H267.787V143.27H269.497V141.56Z" fill="#001012"/>
<path d="M272.917 141.56H271.207V143.27H272.917V141.56Z" fill="#001012"/>
<path d="M276.337 141.56H274.627V143.27H276.337V141.56Z" fill="#001012"/>
<path d="M279.757 141.56H278.047V143.27H279.757V141.56Z" fill="#001012"/>
<path d="M283.176 141.56H281.467V143.27H283.176V141.56Z" fill="#001012"/>
<path d="M286.597 141.56H284.887V143.27H286.597V141.56Z" fill="#001012"/>
<path d="M290.018 141.56H288.309V143.27H290.018V141.56Z" fill="#001012"/>
<path d="M293.436 141.56H291.727V143.27H293.436V141.56Z" fill="#001012"/>
<path d="M269.497 144.979H267.787V146.69H269.497V144.979Z" fill="#001012"/>
<path d="M272.917 144.979H271.207V146.69H272.917V144.979Z" fill="#001012"/>
<path d="M276.337 144.979H274.627V146.69H276.337V144.979Z" fill="#001012"/>
<path d="M279.757 144.979H278.047V146.69H279.757V144.979Z" fill="#001012"/>
<path d="M283.176 144.979H281.467V146.69H283.176V144.979Z" fill="#001012"/>
<path d="M286.597 144.979H284.887V146.69H286.597V144.979Z" fill="#001012"/>
<path d="M290.018 144.979H288.309V146.69H290.018V144.979Z" fill="#001012"/>
<path d="M293.436 144.979H291.727V146.69H293.436V144.979Z" fill="#001012"/>
<path d="M269.497 148.401H267.787V150.111H269.497V148.401Z" fill="#001012"/>
<path d="M272.917 148.401H271.207V150.111H272.917V148.401Z" fill="#001012"/>
<path d="M276.337 148.401H274.627V150.111H276.337V148.401Z" fill="#001012"/>
<path d="M279.757 148.401H278.047V150.111H279.757V148.401Z" fill="#001012"/>
<path d="M283.176 148.401H281.467V150.111H283.176V148.401Z" fill="#001012"/>
<path d="M286.597 148.401H284.887V150.111H286.597V148.401Z" fill="#001012"/>
<path d="M290.018 148.401H288.309V150.111H290.018V148.401Z" fill="#001012"/>
<path d="M293.436 148.401H291.727V150.111H293.436V148.401Z" fill="#001012"/>
<path d="M324.212 144.128H320.793V147.546H324.212V144.128Z" fill="#001810"/>
<path d="M317.37 144.128H313.951V147.546H317.37V144.128Z" fill="#ffd748"/>
<path d="M310.533 144.128H307.115V147.546H310.533V144.128Z" fill="#001810"/>
</g>
<g clip-path="url(#clip3_474_12361)">
<path d="M428.211 111.808H371.787V158.315H428.211V111.808Z" fill="#001810"/>
<path d="M433 110.098C433 111.039 432.231 111.808 431.291 111.808H368.71C367.769 111.808 367 111.039 367 110.098V95.3955C367 94.4543 367.769 93.6851 368.71 93.6851H431.291C432.231 93.6851 433 94.4547 433 95.3955V110.098Z" fill="#55b2c2"/>
<path d="M373.497 98.4721H371.787V100.182H373.497V98.4721Z" fill="#001012"/>
<path d="M376.917 98.4721H375.207V100.182H376.917V98.4721Z" fill="#001012"/>
<path d="M380.337 98.4721H378.627V100.182H380.337V98.4721Z" fill="#001012"/>
<path d="M383.757 98.4721H382.047V100.182H383.757V98.4721Z" fill="#001012"/>
<path d="M387.176 98.4721H385.467V100.182H387.176V98.4721Z" fill="#001012"/>
<path d="M390.597 98.4721H388.887V100.182H390.597V98.4721Z" fill="#001012"/>
<path d="M394.018 98.4721H392.309V100.182H394.018V98.4721Z" fill="#001012"/>
<path d="M397.436 98.4721H395.727V100.182H397.436V98.4721Z" fill="#001012"/>
<path d="M373.497 101.892H371.787V103.601H373.497V101.892Z" fill="#001012"/>
<path d="M376.917 101.892H375.207V103.601H376.917V101.892Z" fill="#001012"/>
<path d="M380.337 101.892H378.627V103.601H380.337V101.892Z" fill="#001012"/>
<path d="M383.757 101.892H382.047V103.601H383.757V101.892Z" fill="#001012"/>
<path d="M387.176 101.892H385.467V103.601H387.176V101.892Z" fill="#001012"/>
<path d="M390.597 101.892H388.887V103.601H390.597V101.892Z" fill="#001012"/>
<path d="M394.018 101.892H392.309V103.601H394.018V101.892Z" fill="#001012"/>
<path d="M397.436 101.892H395.727V103.601H397.436V101.892Z" fill="#001012"/>
<path d="M373.497 105.313H371.787V107.023H373.497V105.313Z" fill="#001012"/>
<path d="M376.917 105.313H375.207V107.023H376.917V105.313Z" fill="#001012"/>
<path d="M380.337 105.313H378.627V107.023H380.337V105.313Z" fill="#001012"/>
<path d="M383.757 105.313H382.047V107.023H383.757V105.313Z" fill="#001012"/>
<path d="M387.176 105.313H385.467V107.023H387.176V105.313Z" fill="#001012"/>
<path d="M390.597 105.313H388.887V107.023H390.597V105.313Z" fill="#001012"/>
<path d="M394.018 105.313H392.309V107.023H394.018V105.313Z" fill="#001012"/>
<path d="M397.436 105.313H395.727V107.023H397.436V105.313Z" fill="#001012"/>
<path d="M428.212 101.037H424.793V104.457H428.212V101.037Z" fill="#ffd748"/>
<path d="M421.372 101.037H417.953V104.457H421.372V101.037Z" fill="#001810"/>
<path d="M414.533 101.037H411.115V104.457H414.533V101.037Z" fill="#001810"/>
<path d="M433 131.643C433 132.585 432.231 133.353 431.291 133.353H368.71C367.769 133.353 367 132.584 367 131.643V116.939C367 115.997 367.769 115.227 368.71 115.227H431.291C432.231 115.227 433 115.997 433 116.939V131.643Z" fill="#55b2c2"/>
<path d="M373.497 120.018H371.787V121.727H373.497V120.018Z" fill="#001012"/>
<path d="M376.917 120.018H375.207V121.727H376.917V120.018Z" fill="#001012"/>
<path d="M380.337 120.018H378.627V121.727H380.337V120.018Z" fill="#001012"/>
<path d="M383.757 120.018H382.047V121.727H383.757V120.018Z" fill="#001012"/>
<path d="M387.176 120.018H385.467V121.727H387.176V120.018Z" fill="#001012"/>
<path d="M390.597 120.018H388.887V121.727H390.597V120.018Z" fill="#001012"/>
<path d="M394.018 120.018H392.309V121.727H394.018V120.018Z" fill="#001012"/>
<path d="M397.436 120.018H395.727V121.727H397.436V120.018Z" fill="#001012"/>
<path d="M373.497 123.437H371.787V125.146H373.497V123.437Z" fill="#001012"/>
<path d="M376.917 123.437H375.207V125.146H376.917V123.437Z" fill="#001012"/>
<path d="M380.337 123.437H378.627V125.146H380.337V123.437Z" fill="#001012"/>
<path d="M383.757 123.437H382.047V125.146H383.757V123.437Z" fill="#001012"/>
<path d="M387.176 123.437H385.467V125.146H387.176V123.437Z" fill="#001012"/>
<path d="M390.597 123.437H388.887V125.146H390.597V123.437Z" fill="#001012"/>
<path d="M394.018 123.437H392.309V125.146H394.018V123.437Z" fill="#001012"/>
<path d="M397.436 123.437H395.727V125.146H397.436V123.437Z" fill="#001012"/>
<path d="M373.497 126.855H371.787V128.565H373.497V126.855Z" fill="#001012"/>
<path d="M376.917 126.855H375.207V128.565H376.917V126.855Z" fill="#001012"/>
<path d="M380.337 126.855H378.627V128.565H380.337V126.855Z" fill="#001012"/>
<path d="M383.757 126.855H382.047V128.565H383.757V126.855Z" fill="#001012"/>
<path d="M387.176 126.855H385.467V128.565H387.176V126.855Z" fill="#001012"/>
<path d="M390.597 126.855H388.887V128.565H390.597V126.855Z" fill="#001012"/>
<path d="M394.018 126.855H392.309V128.565H394.018V126.855Z" fill="#001012"/>
<path d="M397.436 126.855H395.727V128.565H397.436V126.855Z" fill="#001012"/>
<path d="M428.212 122.582H424.793V126.001H428.212V122.582Z" fill="#001810"/>
<path d="M421.37 122.582H417.951V126.001H421.37V122.582Z" fill="#001810"/>
<path d="M414.533 122.582H411.115V126.001H414.533V122.582Z" fill="#ffd748"/>
<path d="M433 153.186C433 154.127 432.231 154.897 431.291 154.897H368.71C367.769 154.896 367 154.127 367 153.186V138.484C367 137.542 367.769 136.773 368.71 136.773H431.291C432.231 136.773 433 137.542 433 138.484V153.186Z" fill="#55b2c2"/>
<path d="M373.497 141.56H371.787V143.27H373.497V141.56Z" fill="#001012"/>
<path d="M376.917 141.56H375.207V143.27H376.917V141.56Z" fill="#001012"/>
<path d="M380.337 141.56H378.627V143.27H380.337V141.56Z" fill="#001012"/>
<path d="M383.757 141.56H382.047V143.27H383.757V141.56Z" fill="#001012"/>
<path d="M387.176 141.56H385.467V143.27H387.176V141.56Z" fill="#001012"/>
<path d="M390.597 141.56H388.887V143.27H390.597V141.56Z" fill="#001012"/>
<path d="M394.018 141.56H392.309V143.27H394.018V141.56Z" fill="#001012"/>
<path d="M397.436 141.56H395.727V143.27H397.436V141.56Z" fill="#001012"/>
<path d="M373.497 144.979H371.787V146.69H373.497V144.979Z" fill="#001012"/>
<path d="M376.917 144.979H375.207V146.69H376.917V144.979Z" fill="#001012"/>
<path d="M380.337 144.979H378.627V146.69H380.337V144.979Z" fill="#001012"/>
<path d="M383.757 144.979H382.047V146.69H383.757V144.979Z" fill="#001012"/>
<path d="M387.176 144.979H385.467V146.69H387.176V144.979Z" fill="#001012"/>
<path d="M390.597 144.979H388.887V146.69H390.597V144.979Z" fill="#001012"/>
<path d="M394.018 144.979H392.309V146.69H394.018V144.979Z" fill="#001012"/>
<path d="M397.436 144.979H395.727V146.69H397.436V144.979Z" fill="#001012"/>
<path d="M373.497 148.401H371.787V150.111H373.497V148.401Z" fill="#001012"/>
<path d="M376.917 148.401H375.207V150.111H376.917V148.401Z" fill="#001012"/>
<path d="M380.337 148.401H378.627V150.111H380.337V148.401Z" fill="#001012"/>
<path d="M383.757 148.401H382.047V150.111H383.757V148.401Z" fill="#001012"/>
<path d="M387.176 148.401H385.467V150.111H387.176V148.401Z" fill="#001012"/>
<path d="M390.597 148.401H388.887V150.111H390.597V148.401Z" fill="#001012"/>
<path d="M394.018 148.401H392.309V150.111H394.018V148.401Z" fill="#001012"/>
<path d="M397.436 148.401H395.727V150.111H397.436V148.401Z" fill="#001012"/>
<path d="M428.212 144.128H424.793V147.546H428.212V144.128Z" fill="#001810"/>
<path d="M421.37 144.128H417.951V147.546H421.37V144.128Z" fill="#ffd748"/>
<path d="M414.533 144.128H411.115V147.546H414.533V144.128Z" fill="#001810"/>
</g>
<g clip-path="url(#clip4_474_12361)">
<rect x="471" y="93" width="62" height="62" rx="5" fill="url(#paint1_linear_474_12361)"/>
<path d="M502 108.5C493.454 108.5 486.5 115.454 486.5 124C486.5 132.546 493.454 139.5 502 139.5C510.546 139.5 517.5 132.546 517.5 124C517.5 115.454 510.546 108.5 502 108.5ZM508.781 125.292H503.292V130.781C503.292 131.494 502.713 132.074 502 132.074C501.287 132.074 500.708 131.494 500.708 130.781V125.292H495.219C494.506 125.292 493.926 124.713 493.926 124C493.926 123.287 494.506 122.708 495.219 122.708H500.708V117.219C500.708 116.506 501.287 115.926 502 115.926C502.713 115.926 503.292 116.506 503.292 117.219V122.708H508.781C509.494 122.708 510.074 123.287 510.074 124C510.074 124.713 509.494 125.292 508.781 125.292Z" fill="#55b2c2"/>
</g>
<defs>
<linearGradient id="paint0_linear_474_12361" x1="143.48" y1="126.071" x2="145.859" y2="145.93" gradientUnits="userSpaceOnUse">
<stop stop-color="#ffffff" stop-opacity="0.12" data-originalstopcolor="#ffffff"/>
<stop offset="0.527508" stop-color="#ffffff" stop-opacity="0.17" data-originalstopcolor="#ffffff"/>
<stop offset="1" stop-color="#ffffff" stop-opacity="0.2" data-originalstopcolor="#ffffff"/>
</linearGradient>
<linearGradient id="paint1_linear_474_12361" x1="473.5" y1="153.5" x2="533" y2="93" gradientUnits="userSpaceOnUse">
<stop stop-color="#55b2c2" stop-opacity="0.27" data-originalstopcolor="#55b2c2"/>
<stop offset="1" stop-color="#55b2c2" stop-opacity="0" data-originalstopcolor="#55b2c2"/>
</linearGradient>
<clipPath id="clip0_474_12361">
<rect width="66" height="66" fill="#ffffff" transform="translate(55 93)"/>
</clipPath>
<clipPath id="clip1_474_12361">
<rect width="66" height="66" fill="#ffffff" transform="translate(159 93)"/>
</clipPath>
<clipPath id="clip2_474_12361">
<rect width="66" height="66" fill="#ffffff" transform="translate(263 93)"/>
</clipPath>
<clipPath id="clip3_474_12361">
<rect width="66" height="66" fill="#ffffff" transform="translate(367 93)"/>
</clipPath>
<clipPath id="clip4_474_12361">
<rect width="62" height="62" fill="#ffffff" transform="translate(471 93)"/>
</clipPath>
</defs>
</svg>