<svg width="345px" height="252px" viewBox="0 0 345 252" fill="none" xmlns="http://www.w3.org/2000/svg" transform="rotate(0) scale(1, 1)">
<g clip-path="url(#clip0_490_15609)">
<path d="M56 126L288 126" stroke="url(#paint0_linear_490_15609)" stroke-linejoin="round" stroke-dasharray="4 4"/>
<g filter="url(#filter0_f_490_15609)">
<circle cx="172.5" cy="126.5" r="104.5" fill="#55b2c2" fill-opacity="0.1"/>
</g>
<g clip-path="url(#clip1_490_15609)">
<path d="M45.6621 111.413L50.9268 108.378C51.1997 108.221 51.2933 107.872 51.136 107.599C50.9786 107.327 50.6296 107.232 50.3569 107.39L45.0922 110.425C44.8193 110.582 44.7256 110.931 44.883 111.204C45.0405 111.477 45.3898 111.57 45.6621 111.413Z" fill="#55b2c2"/>
<path d="M69.8844 118.403C69.7271 118.13 69.3778 118.036 69.1054 118.193L67.0065 119.403C66.7336 119.56 66.6397 119.909 66.7969 120.182C66.9548 120.455 67.3032 120.548 67.5759 120.391L69.6747 119.182C69.9477 119.025 70.0415 118.676 69.8844 118.403Z" fill="#55b2c2"/>
<path d="M63.8402 108.378L69.105 111.413C69.3783 111.57 69.7268 111.476 69.884 111.204C70.0414 110.931 69.9478 110.582 69.6748 110.425L64.4101 107.39C64.1358 107.232 63.7882 107.327 63.6311 107.599C63.4737 107.872 63.5673 108.221 63.8402 108.378Z" fill="#55b2c2"/>
<path d="M45.0924 119.182L47.1913 120.391C47.4644 120.548 47.8127 120.454 47.9703 120.182C48.1274 119.909 48.0335 119.56 47.7606 119.403L45.6618 118.193C45.3889 118.036 45.0401 118.13 44.8827 118.403C44.7257 118.676 44.8195 119.025 45.0924 119.182Z" fill="#55b2c2"/>
<path d="M45.6618 133.111L47.7607 131.902C48.0336 131.744 48.1275 131.396 47.9704 131.123C47.8127 130.849 47.4643 130.756 47.1913 130.913L45.0925 132.122C44.8196 132.28 44.7256 132.628 44.8828 132.901C45.0407 133.175 45.3891 133.268 45.6618 133.111Z" fill="#55b2c2"/>
<path d="M69.111 139.891L63.8405 142.925C63.5676 143.082 63.4737 143.431 63.6308 143.704C63.7878 143.977 64.1363 144.071 64.4099 143.914L69.6804 140.88C69.9533 140.723 70.0472 140.374 69.8901 140.101C69.7327 139.828 69.3837 139.734 69.111 139.891Z" fill="#55b2c2"/>
<path d="M50.9264 142.925L45.6559 139.891C45.383 139.735 45.0342 139.828 44.8769 140.101C44.7198 140.373 44.8137 140.722 45.0866 140.88L50.3571 143.914C50.6307 144.071 50.9792 143.977 51.1361 143.704C51.2933 143.431 51.1994 143.082 50.9264 142.925Z" fill="#55b2c2"/>
<path d="M69.6747 132.122L67.5758 130.913C67.3029 130.756 66.954 130.849 66.7968 131.123C66.6398 131.395 66.7336 131.744 67.0065 131.902L69.1053 133.111C69.3785 133.268 69.7268 133.174 69.8844 132.901C70.0415 132.628 69.9477 132.28 69.6747 132.122Z" fill="#55b2c2"/>
<path d="M49.1621 130.078C49.1621 130.282 49.271 130.47 49.4475 130.572L57.0976 134.982C57.2529 135.071 57.4777 135.091 57.6675 134.982L65.3176 130.572C65.4943 130.47 65.6031 130.282 65.6031 130.078V121.226C65.6031 121.028 65.474 120.822 65.3176 120.732L57.6675 116.322C57.4909 116.22 57.2743 116.22 57.0976 116.322L49.4475 120.732C49.2781 120.83 49.1621 121.046 49.1621 121.226V130.078ZM50.303 122.215L56.8123 125.967V133.501L50.303 129.748V122.215ZM57.9531 133.501V125.967L64.4624 122.215V129.748L57.9531 133.501ZM57.3826 117.475L63.8922 121.227L57.3826 124.979L50.8731 121.227L57.3826 117.475Z" fill="#55b2c2"/>
<path d="M52.637 107.073L57.0991 109.645C57.2608 109.738 57.4786 109.755 57.6689 109.645L62.131 107.073C62.3076 106.971 62.4164 106.783 62.4164 106.579V101.416C62.4164 101.218 62.2883 101.012 62.131 100.922L57.6689 98.3495C57.4923 98.2476 57.2757 98.2476 57.0991 98.3495L52.637 100.922C52.4806 101.012 52.3516 101.22 52.3516 101.416V106.579C52.3516 106.783 52.4605 106.971 52.637 107.073ZM53.4923 102.404L56.8135 104.318V108.164L53.4923 106.249V102.404ZM57.9544 108.164V104.318L61.2756 102.404V106.249L57.9544 108.164ZM57.3839 99.502L60.7049 101.416L57.3839 103.33L54.063 101.416L57.3839 99.502Z" fill="#55b2c2"/>
<path d="M43.3813 111.741L38.9189 109.169C38.7423 109.067 38.5257 109.067 38.3491 109.169L33.887 111.741C33.7319 111.83 33.6016 112.037 33.6016 112.235V117.398C33.6016 117.602 33.7105 117.79 33.887 117.892L38.3493 120.464C38.5112 120.557 38.7287 120.574 38.9192 120.464L43.3812 117.892C43.5579 117.79 43.6667 117.602 43.6667 117.398V112.235C43.6668 112.038 43.5386 111.832 43.3813 111.741ZM38.6341 110.321L41.9553 112.236L38.6344 114.15L35.3132 112.236L38.6341 110.321ZM34.7424 113.223L38.064 115.138V118.983L34.7424 117.069V113.223ZM39.2048 118.983V115.138L42.526 113.223V117.069L39.2048 118.983Z" fill="#55b2c2"/>
<path d="M80.8792 111.741L76.4172 109.169C76.2406 109.067 76.0239 109.067 75.8473 109.169L71.385 111.741C71.2294 111.831 71.0996 112.037 71.0996 112.235V117.398C71.0996 117.602 71.2085 117.79 71.385 117.892L75.8473 120.464C76.0091 120.557 76.2269 120.574 76.4172 120.464L80.8793 117.892C81.0559 117.79 81.1647 117.602 81.1647 117.398V112.235C81.1647 112.039 81.038 111.832 80.8792 111.741ZM76.1323 110.321L79.4532 112.236L76.1323 114.15L72.8111 112.236L76.1323 110.321ZM72.2403 113.223L75.5619 115.138V118.983L72.2403 117.069V113.223ZM76.7026 118.983V115.138L80.0239 113.223V117.069L76.7026 118.983Z" fill="#55b2c2"/>
<path d="M43.3812 133.402L38.9189 130.83C38.7423 130.728 38.5257 130.728 38.3491 130.83L33.887 133.402C33.7155 133.5 33.6016 133.718 33.6016 133.896V139.059C33.6016 139.263 33.7105 139.451 33.887 139.553L38.3493 142.125C38.5112 142.218 38.7287 142.235 38.9192 142.125L43.3812 139.553C43.5579 139.451 43.6667 139.262 43.6667 139.059V133.896C43.6667 133.699 43.5387 133.492 43.3812 133.402ZM38.6339 131.982L41.9552 133.896L38.6343 135.81L35.313 133.896L38.6339 131.982ZM34.7423 134.884L38.0638 136.798V140.644L34.7423 138.729V134.884ZM39.2047 140.644V136.798L42.5259 134.884V138.729L39.2047 140.644Z" fill="#55b2c2"/>
<path d="M80.8793 133.402L76.4172 130.83C76.2406 130.728 76.0239 130.728 75.8473 130.83L71.385 133.402C71.2294 133.491 71.0996 133.699 71.0996 133.896V139.059C71.0996 139.263 71.2085 139.451 71.385 139.553L75.8473 142.125C76.0091 142.218 76.2269 142.234 76.4172 142.125L80.8793 139.553C81.0559 139.451 81.1647 139.262 81.1647 139.059V133.896C81.1648 133.697 81.0356 133.492 80.8793 133.402ZM76.1324 131.982L79.4533 133.896L76.1324 135.81L72.8112 133.896L76.1324 131.982ZM72.2405 134.884L75.562 136.798V140.644L72.2405 138.729V134.884ZM76.7027 140.644V136.798L80.024 134.884V138.729L76.7027 140.644Z" fill="#55b2c2"/>
<path d="M62.131 144.231L57.6689 141.659C57.4923 141.557 57.2757 141.557 57.0991 141.659L52.637 144.231C52.4804 144.322 52.3516 144.53 52.3516 144.725V149.888C52.3516 150.092 52.4605 150.281 52.637 150.382L57.0991 152.954C57.2893 153.064 57.5101 153.046 57.6689 152.954L62.131 150.382C62.3076 150.281 62.4164 150.092 62.4164 149.888V144.725C62.4165 144.527 62.2874 144.321 62.131 144.231ZM57.3841 142.812L60.705 144.726L57.3841 146.64L54.0632 144.726L57.3841 142.812ZM53.4924 145.714L56.8136 147.628V151.473L53.4924 149.559V145.714ZM57.9545 151.473V147.628L61.2757 145.714V149.559L57.9545 151.473Z" fill="#55b2c2"/>
</g>
<g clip-path="url(#clip2_490_15609)">
<path d="M275.662 111.413L280.927 108.378C281.2 108.221 281.293 107.872 281.136 107.599C280.979 107.327 280.63 107.232 280.357 107.39L275.092 110.425C274.819 110.582 274.726 110.931 274.883 111.204C275.04 111.477 275.39 111.57 275.662 111.413Z" fill="#55b2c2"/>
<path d="M299.884 118.403C299.727 118.13 299.378 118.036 299.105 118.193L297.007 119.403C296.734 119.56 296.64 119.909 296.797 120.182C296.955 120.455 297.303 120.548 297.576 120.391L299.675 119.182C299.948 119.025 300.041 118.676 299.884 118.403Z" fill="#55b2c2"/>
<path d="M293.84 108.378L299.105 111.413C299.378 111.57 299.727 111.476 299.884 111.204C300.041 110.931 299.948 110.582 299.675 110.425L294.41 107.39C294.136 107.232 293.788 107.327 293.631 107.599C293.474 107.872 293.567 108.221 293.84 108.378Z" fill="#55b2c2"/>
<path d="M275.092 119.182L277.191 120.391C277.464 120.548 277.813 120.454 277.97 120.182C278.127 119.909 278.034 119.56 277.761 119.403L275.662 118.193C275.389 118.036 275.04 118.13 274.883 118.403C274.726 118.676 274.82 119.025 275.092 119.182Z" fill="#55b2c2"/>
<path d="M275.662 133.111L277.761 131.902C278.034 131.744 278.128 131.396 277.97 131.123C277.813 130.849 277.464 130.756 277.191 130.913L275.092 132.122C274.82 132.28 274.726 132.628 274.883 132.901C275.041 133.175 275.389 133.268 275.662 133.111Z" fill="#55b2c2"/>
<path d="M299.111 139.891L293.841 142.925C293.568 143.082 293.474 143.431 293.631 143.704C293.788 143.977 294.136 144.071 294.41 143.914L299.68 140.88C299.953 140.723 300.047 140.374 299.89 140.101C299.733 139.828 299.384 139.734 299.111 139.891Z" fill="#55b2c2"/>
<path d="M280.926 142.925L275.656 139.891C275.383 139.735 275.034 139.828 274.877 140.101C274.72 140.373 274.814 140.722 275.087 140.88L280.357 143.914C280.631 144.071 280.979 143.977 281.136 143.704C281.293 143.431 281.199 143.082 280.926 142.925Z" fill="#55b2c2"/>
<path d="M299.675 132.122L297.576 130.913C297.303 130.756 296.954 130.849 296.797 131.123C296.64 131.395 296.734 131.744 297.006 131.902L299.105 133.111C299.378 133.268 299.727 133.174 299.884 132.901C300.042 132.628 299.948 132.28 299.675 132.122Z" fill="#55b2c2"/>
<path d="M279.162 130.078C279.162 130.282 279.271 130.47 279.448 130.572L287.098 134.982C287.253 135.071 287.478 135.091 287.668 134.982L295.318 130.572C295.494 130.47 295.603 130.282 295.603 130.078V121.226C295.603 121.028 295.474 120.822 295.318 120.732L287.668 116.322C287.491 116.22 287.274 116.22 287.098 116.322L279.448 120.732C279.278 120.83 279.162 121.046 279.162 121.226V130.078ZM280.303 122.215L286.812 125.967V133.501L280.303 129.748V122.215ZM287.953 133.501V125.967L294.462 122.215V129.748L287.953 133.501ZM287.383 117.475L293.892 121.227L287.383 124.979L280.873 121.227L287.383 117.475Z" fill="#55b2c2"/>
<path d="M282.637 107.073L287.099 109.645C287.261 109.738 287.479 109.755 287.669 109.645L292.131 107.073C292.308 106.971 292.416 106.783 292.416 106.579V101.416C292.416 101.218 292.288 101.012 292.131 100.922L287.669 98.3495C287.492 98.2476 287.276 98.2476 287.099 98.3495L282.637 100.922C282.481 101.012 282.352 101.22 282.352 101.416V106.579C282.352 106.783 282.46 106.971 282.637 107.073ZM283.492 102.404L286.814 104.318V108.164L283.492 106.249V102.404ZM287.954 108.164V104.318L291.276 102.404V106.249L287.954 108.164ZM287.384 99.502L290.705 101.416L287.384 103.33L284.063 101.416L287.384 99.502Z" fill="#55b2c2"/>
<path d="M273.381 111.741L268.919 109.169C268.742 109.067 268.526 109.067 268.349 109.169L263.887 111.741C263.732 111.83 263.602 112.037 263.602 112.235V117.398C263.602 117.602 263.71 117.79 263.887 117.892L268.349 120.464C268.511 120.557 268.729 120.574 268.919 120.464L273.381 117.892C273.558 117.79 273.667 117.602 273.667 117.398V112.235C273.667 112.038 273.539 111.832 273.381 111.741ZM268.634 110.321L271.955 112.236L268.634 114.15L265.313 112.236L268.634 110.321ZM264.742 113.223L268.064 115.138V118.983L264.742 117.069V113.223ZM269.205 118.983V115.138L272.526 113.223V117.069L269.205 118.983Z" fill="#55b2c2"/>
<path d="M310.879 111.741L306.417 109.169C306.241 109.067 306.024 109.067 305.847 109.169L301.385 111.741C301.229 111.831 301.1 112.037 301.1 112.235V117.398C301.1 117.602 301.209 117.79 301.385 117.892L305.847 120.464C306.009 120.557 306.227 120.574 306.417 120.464L310.879 117.892C311.056 117.79 311.165 117.602 311.165 117.398V112.235C311.165 112.039 311.038 111.832 310.879 111.741ZM306.132 110.321L309.453 112.236L306.132 114.15L302.811 112.236L306.132 110.321ZM302.24 113.223L305.562 115.138V118.983L302.24 117.069V113.223ZM306.703 118.983V115.138L310.024 113.223V117.069L306.703 118.983Z" fill="#55b2c2"/>
<path d="M273.381 133.402L268.919 130.83C268.742 130.728 268.526 130.728 268.349 130.83L263.887 133.402C263.715 133.5 263.602 133.718 263.602 133.896V139.059C263.602 139.263 263.71 139.451 263.887 139.553L268.349 142.125C268.511 142.218 268.729 142.235 268.919 142.125L273.381 139.553C273.558 139.451 273.667 139.262 273.667 139.059V133.896C273.667 133.699 273.539 133.492 273.381 133.402ZM268.634 131.982L271.955 133.896L268.634 135.81L265.313 133.896L268.634 131.982ZM264.742 134.884L268.064 136.798V140.644L264.742 138.729V134.884ZM269.205 140.644V136.798L272.526 134.884V138.729L269.205 140.644Z" fill="#55b2c2"/>
<path d="M310.879 133.402L306.417 130.83C306.241 130.728 306.024 130.728 305.847 130.83L301.385 133.402C301.229 133.491 301.1 133.699 301.1 133.896V139.059C301.1 139.263 301.209 139.451 301.385 139.553L305.847 142.125C306.009 142.218 306.227 142.234 306.417 142.125L310.879 139.553C311.056 139.451 311.165 139.262 311.165 139.059V133.896C311.165 133.697 311.036 133.492 310.879 133.402ZM306.132 131.982L309.453 133.896L306.132 135.81L302.811 133.896L306.132 131.982ZM302.24 134.884L305.562 136.798V140.644L302.24 138.729V134.884ZM306.703 140.644V136.798L310.024 134.884V138.729L306.703 140.644Z" fill="#55b2c2"/>
<path d="M292.131 144.231L287.669 141.659C287.492 141.557 287.276 141.557 287.099 141.659L282.637 144.231C282.48 144.322 282.352 144.53 282.352 144.725V149.888C282.352 150.092 282.46 150.281 282.637 150.382L287.099 152.954C287.289 153.064 287.51 153.046 287.669 152.954L292.131 150.382C292.308 150.281 292.416 150.092 292.416 149.888V144.725C292.417 144.527 292.287 144.321 292.131 144.231ZM287.384 142.812L290.705 144.726L287.384 146.64L284.063 144.726L287.384 142.812ZM283.492 145.714L286.814 147.628V151.473L283.492 149.559V145.714ZM287.954 151.473V147.628L291.276 145.714V149.559L287.954 151.473Z" fill="#55b2c2"/>
</g>
<path d="M207.228 98.4577V122.205C207.228 143.832 192.714 162.69 171.982 168C151.285 162.707 136.771 143.832 136.771 122.205V98.4577C153.069 96.6 162.301 90.3258 172 83C181.698 90.3258 190.93 96.6 207.228 98.4577Z" fill="#55b2c2"/>
<path d="M172 158.624C156.395 153.611 145.674 138.96 145.674 122.205V106.117C156.637 103.698 164.691 99.2289 172 94.1289C179.464 99.3691 187.362 103.751 198.325 106.134V122.223C198.325 138.96 187.605 153.611 172 158.624Z" fill="#001810" fill-opacity="0.27"/>
<path d="M166.163 140.029L157.486 131.248L161.886 126.779L166.163 131.091L182.115 114.967L186.514 119.419L166.163 140.029Z" fill="#ffffff"/>
</g>
<defs>
<filter id="filter0_f_490_15609" x="-132" y="-178" width="609" height="609" filterUnits="userSpaceOnUse" color-interpolation-filters="sRGB">
<feFlood flood-opacity="0" result="BackgroundImageFix"/>
<feBlend mode="normal" in="SourceGraphic" in2="BackgroundImageFix" result="shape"/>
<feGaussianBlur stdDeviation="100" result="effect1_foregroundBlur_490_15609"/>
</filter>
<linearGradient id="paint0_linear_490_15609" x1="70.9012" y1="126.071" x2="74.4268" y2="145.578" gradientUnits="userSpaceOnUse">
<stop stop-color="#ffffff" stop-opacity="0.12" data-originalstopcolor="#ffffff"/>
<stop offset="0.527508" stop-color="#ffffff" stop-opacity="0.17" data-originalstopcolor="#ffffff"/>
<stop offset="1" stop-color="#ffffff" stop-opacity="0.2" data-originalstopcolor="#ffffff"/>
</linearGradient>
<clipPath id="clip0_490_15609">
<rect width="345" height="252" fill="#ffffff"/>
</clipPath>
<clipPath id="clip1_490_15609">
<rect width="55" height="55" fill="#ffffff" transform="translate(30 98)"/>
</clipPath>
<clipPath id="clip2_490_15609">
<rect width="55" height="55" fill="#ffffff" transform="translate(260 98)"/>
</clipPath>
</defs>
</svg>