<svg width="588px" height="252px" viewBox="0 0 588 252" fill="none" xmlns="http://www.w3.org/2000/svg" transform="rotate(0) scale(1, 1)">
<g clip-path="url(#clip0_483_13967)">
<path d="M119 126L469 126" stroke="url(#paint0_linear_483_13967)" stroke-linejoin="round" stroke-dasharray="4 4"/>
<g filter="url(#filter0_f_483_13967)">
<circle cx="294.5" cy="126.5" r="104.5" fill="#55b2c2" fill-opacity="0.1"/>
</g>
<g clip-path="url(#clip1_483_13967)">
<path d="M103.633 104.241L111.578 99.662C111.99 99.425 112.131 98.8984 111.893 98.4864C111.656 98.0749 111.129 97.9325 110.718 98.1708L102.773 102.75C102.361 102.987 102.22 103.514 102.457 103.926C102.695 104.337 103.222 104.479 103.633 104.241Z" fill="#55b2c2"/>
<path d="M140.188 114.79C139.951 114.378 139.424 114.237 139.013 114.473L135.845 116.298C135.434 116.536 135.292 117.062 135.529 117.474C135.767 117.887 136.293 118.027 136.705 117.79L139.872 115.965C140.284 115.728 140.425 115.202 140.188 114.79Z" fill="#55b2c2"/>
<path d="M131.068 99.662L139.013 104.241C139.425 104.479 139.951 104.337 140.188 103.926C140.426 103.514 140.284 102.987 139.873 102.75L131.928 98.1708C131.514 97.9325 130.989 98.0749 130.752 98.4864C130.514 98.8982 130.656 99.4249 131.068 99.662Z" fill="#55b2c2"/>
<path d="M102.773 115.965L105.94 117.79C106.353 118.027 106.878 117.886 107.116 117.474C107.353 117.062 107.211 116.536 106.8 116.298L103.632 114.473C103.22 114.237 102.694 114.377 102.457 114.79C102.22 115.202 102.361 115.728 102.773 115.965Z" fill="#55b2c2"/>
<path d="M103.632 136.985L106.8 135.16C107.212 134.923 107.353 134.397 107.116 133.985C106.878 133.573 106.353 133.432 105.941 133.668L102.773 135.493C102.361 135.731 102.22 136.257 102.457 136.669C102.695 137.082 103.221 137.222 103.632 136.985Z" fill="#55b2c2"/>
<path d="M139.022 147.217L131.068 151.796C130.656 152.033 130.514 152.56 130.752 152.972C130.988 153.383 131.514 153.526 131.927 153.288L139.881 148.709C140.293 148.472 140.435 147.946 140.197 147.534C139.96 147.122 139.433 146.981 139.022 147.217Z" fill="#55b2c2"/>
<path d="M111.578 151.796L103.624 147.217C103.213 146.981 102.686 147.122 102.449 147.534C102.212 147.945 102.353 148.472 102.765 148.709L110.719 153.288C111.132 153.526 111.658 153.383 111.895 152.972C112.132 152.56 111.99 152.033 111.578 151.796Z" fill="#55b2c2"/>
<path d="M139.872 135.493L136.705 133.668C136.293 133.431 135.766 133.573 135.529 133.985C135.292 134.397 135.433 134.923 135.845 135.16L139.013 136.985C139.425 137.222 139.951 137.081 140.188 136.669C140.426 136.257 140.284 135.731 139.872 135.493Z" fill="#55b2c2"/>
<path d="M108.918 132.408C108.918 132.716 109.082 133.001 109.349 133.154L120.893 139.809C121.128 139.944 121.467 139.974 121.753 139.809L133.298 133.154C133.565 133.001 133.729 132.716 133.729 132.408V119.05C133.729 118.751 133.534 118.441 133.298 118.305L121.753 111.65C121.487 111.496 121.16 111.496 120.893 111.65L109.349 118.305C109.093 118.452 108.918 118.778 108.918 119.05V132.408ZM110.64 120.543L120.463 126.205V137.574L110.64 131.911V120.543ZM122.184 137.574V126.205L132.008 120.543V131.911L122.184 137.574ZM121.323 113.389L131.147 119.052L121.323 124.714L111.5 119.052L121.323 113.389Z" fill="#55b2c2"/>
<path d="M114.159 97.6916L120.893 101.573C121.137 101.714 121.466 101.739 121.753 101.573L128.487 97.6916C128.753 97.5382 128.917 97.2536 128.917 96.946V89.1544C128.917 88.8559 128.724 88.5456 128.487 88.4089L121.753 84.5274C121.486 84.3736 121.159 84.3736 120.893 84.5274L114.159 88.4089C113.923 88.5447 113.729 88.8585 113.729 89.1544V96.9459C113.729 97.2536 113.893 97.5382 114.159 97.6916ZM115.45 90.6458L120.462 93.5349V99.3377L115.45 96.4488V90.6458ZM122.184 99.3377V93.5349L127.196 90.6458V96.4488L122.184 99.3377ZM121.323 86.2667L126.334 89.1554L121.323 92.0441L116.311 89.1554L121.323 86.2667Z" fill="#55b2c2"/>
<path d="M100.192 104.736L93.458 100.855C93.1915 100.701 92.8645 100.701 92.598 100.855L85.8643 104.736C85.6302 104.871 85.4336 105.184 85.4336 105.482V113.273C85.4336 113.581 85.5979 113.865 85.8643 114.019L92.5983 117.9C92.8427 118.041 93.171 118.066 93.4583 117.9L100.192 114.019C100.459 113.865 100.623 113.581 100.623 113.273V105.482C100.623 105.184 100.429 104.873 100.192 104.736ZM93.0281 102.594L98.0401 105.483L93.0286 108.371L88.0165 105.483L93.0281 102.594ZM87.1552 106.973L92.1677 109.862V115.665L87.1552 112.776V106.973ZM93.8894 115.665V109.862L98.9014 106.973V112.776L93.8894 115.665Z" fill="#55b2c2"/>
<path d="M156.782 104.736L150.048 100.855C149.782 100.701 149.455 100.701 149.188 100.855L142.454 104.736C142.219 104.871 142.023 105.184 142.023 105.482V113.273C142.023 113.581 142.188 113.865 142.454 114.019L149.188 117.9C149.432 118.041 149.761 118.066 150.048 117.9L156.782 114.019C157.048 113.865 157.213 113.581 157.213 113.273V105.482C157.213 105.187 157.021 104.874 156.782 104.736ZM149.618 102.594L154.63 105.483L149.618 108.371L144.606 105.483L149.618 102.594ZM143.745 106.973L148.757 109.862V115.665L143.745 112.776V106.973ZM150.479 115.665V109.862L155.491 106.973V112.776L150.479 115.665Z" fill="#55b2c2"/>
<path d="M100.192 137.424L93.458 133.543C93.1915 133.389 92.8645 133.389 92.598 133.543L85.8643 137.424C85.6055 137.573 85.4336 137.901 85.4336 138.17V145.961C85.4336 146.269 85.5979 146.553 85.8643 146.707L92.5983 150.588C92.8427 150.729 93.171 150.754 93.4583 150.588L100.192 146.707C100.459 146.553 100.623 146.269 100.623 145.961V138.17C100.623 137.873 100.43 137.561 100.192 137.424ZM93.0279 135.282L98.04 138.171L93.0284 141.059L88.0164 138.171L93.0279 135.282ZM87.1551 139.661L92.1676 142.55V148.353L87.1551 145.464V139.661ZM93.8892 148.353V142.55L98.9013 139.661V145.464L93.8892 148.353Z" fill="#55b2c2"/>
<path d="M156.78 137.424L150.046 133.543C149.78 133.389 149.453 133.389 149.186 133.543L142.452 137.424C142.217 137.559 142.021 137.873 142.021 138.17V145.961C142.021 146.269 142.186 146.553 142.452 146.707L149.186 150.588C149.43 150.729 149.759 150.754 150.046 150.588L156.78 146.707C157.046 146.553 157.211 146.269 157.211 145.961V138.17C157.211 137.87 157.016 137.56 156.78 137.424ZM149.616 135.282L154.628 138.171L149.616 141.059L144.604 138.171L149.616 135.282ZM143.743 139.661L148.756 142.55V148.353L143.743 145.464V139.661ZM150.477 148.353V142.55L155.489 139.661V145.464L150.477 148.353Z" fill="#55b2c2"/>
<path d="M128.487 153.767L121.753 149.886C121.486 149.732 121.159 149.732 120.893 149.886L114.159 153.767C113.923 153.903 113.729 154.217 113.729 154.513V162.304C113.729 162.612 113.893 162.896 114.159 163.05L120.893 166.931C121.18 167.097 121.513 167.069 121.753 166.931L128.487 163.05C128.753 162.896 128.917 162.612 128.917 162.304V154.513C128.917 154.214 128.723 153.903 128.487 153.767ZM121.323 151.625L126.335 154.514L121.323 157.402L116.311 154.514L121.323 151.625ZM115.45 156.004L120.462 158.893V164.696L115.45 161.807V156.004ZM122.184 164.696V158.893L127.196 156.004V161.807L122.184 164.696Z" fill="#55b2c2"/>
</g>
<g clip-path="url(#clip2_483_13967)">
<path d="M449.633 104.241L457.578 99.662C457.99 99.425 458.131 98.8984 457.893 98.4864C457.656 98.0749 457.129 97.9325 456.718 98.1708L448.773 102.75C448.361 102.987 448.22 103.514 448.457 103.926C448.695 104.337 449.222 104.479 449.633 104.241Z" fill="#55b2c2"/>
<path d="M486.188 114.79C485.951 114.378 485.424 114.237 485.013 114.473L481.845 116.298C481.434 116.536 481.292 117.062 481.529 117.474C481.767 117.887 482.293 118.027 482.705 117.79L485.872 115.965C486.284 115.728 486.425 115.202 486.188 114.79Z" fill="#55b2c2"/>
<path d="M477.068 99.662L485.013 104.241C485.425 104.479 485.951 104.337 486.188 103.926C486.426 103.514 486.284 102.987 485.873 102.75L477.928 98.1708C477.514 97.9325 476.989 98.0749 476.752 98.4864C476.514 98.8982 476.656 99.4249 477.068 99.662Z" fill="#55b2c2"/>
<path d="M448.773 115.965L451.94 117.79C452.353 118.027 452.878 117.886 453.116 117.474C453.353 117.062 453.211 116.536 452.8 116.298L449.632 114.473C449.22 114.237 448.694 114.377 448.457 114.79C448.22 115.202 448.361 115.728 448.773 115.965Z" fill="#55b2c2"/>
<path d="M449.632 136.985L452.8 135.16C453.212 134.923 453.353 134.397 453.116 133.985C452.878 133.573 452.353 133.432 451.941 133.668L448.773 135.493C448.361 135.731 448.22 136.257 448.457 136.669C448.695 137.082 449.221 137.222 449.632 136.985Z" fill="#55b2c2"/>
<path d="M485.022 147.217L477.068 151.796C476.656 152.033 476.514 152.56 476.752 152.972C476.988 153.383 477.514 153.526 477.927 153.288L485.881 148.709C486.293 148.472 486.435 147.946 486.197 147.534C485.96 147.122 485.433 146.981 485.022 147.217Z" fill="#55b2c2"/>
<path d="M457.578 151.796L449.624 147.217C449.213 146.981 448.686 147.122 448.449 147.534C448.212 147.945 448.353 148.472 448.765 148.709L456.719 153.288C457.132 153.526 457.658 153.383 457.895 152.972C458.132 152.56 457.99 152.033 457.578 151.796Z" fill="#55b2c2"/>
<path d="M485.872 135.493L482.705 133.668C482.293 133.431 481.766 133.573 481.529 133.985C481.292 134.397 481.433 134.923 481.845 135.16L485.013 136.985C485.425 137.222 485.951 137.081 486.188 136.669C486.426 136.257 486.284 135.731 485.872 135.493Z" fill="#55b2c2"/>
<path d="M454.918 132.408C454.918 132.716 455.082 133.001 455.349 133.154L466.893 139.809C467.128 139.944 467.467 139.974 467.753 139.809L479.298 133.154C479.565 133.001 479.729 132.716 479.729 132.408V119.05C479.729 118.751 479.534 118.441 479.298 118.305L467.753 111.65C467.487 111.496 467.16 111.496 466.893 111.65L455.349 118.305C455.093 118.452 454.918 118.778 454.918 119.05V132.408ZM456.64 120.543L466.463 126.205V137.574L456.64 131.911V120.543ZM468.184 137.574V126.205L478.008 120.543V131.911L468.184 137.574ZM467.323 113.389L477.147 119.052L467.323 124.714L457.5 119.052L467.323 113.389Z" fill="#55b2c2"/>
<path d="M460.159 97.6916L466.893 101.573C467.137 101.714 467.466 101.739 467.753 101.573L474.487 97.6916C474.753 97.5382 474.917 97.2536 474.917 96.946V89.1544C474.917 88.8559 474.724 88.5456 474.487 88.4089L467.753 84.5274C467.486 84.3736 467.159 84.3736 466.893 84.5274L460.159 88.4089C459.923 88.5447 459.729 88.8585 459.729 89.1544V96.9459C459.729 97.2536 459.893 97.5382 460.159 97.6916ZM461.45 90.6458L466.462 93.5349V99.3377L461.45 96.4488V90.6458ZM468.184 99.3377V93.5349L473.196 90.6458V96.4488L468.184 99.3377ZM467.323 86.2667L472.334 89.1554L467.323 92.0441L462.311 89.1554L467.323 86.2667Z" fill="#55b2c2"/>
<path d="M446.192 104.736L439.458 100.855C439.191 100.701 438.865 100.701 438.598 100.855L431.864 104.736C431.63 104.871 431.434 105.184 431.434 105.482V113.273C431.434 113.581 431.598 113.865 431.864 114.019L438.598 117.9C438.843 118.041 439.171 118.066 439.458 117.9L446.192 114.019C446.459 113.865 446.623 113.581 446.623 113.273V105.482C446.623 105.184 446.429 104.873 446.192 104.736ZM439.028 102.594L444.04 105.483L439.029 108.371L434.017 105.483L439.028 102.594ZM433.155 106.973L438.168 109.862V115.665L433.155 112.776V106.973ZM439.889 115.665V109.862L444.901 106.973V112.776L439.889 115.665Z" fill="#55b2c2"/>
<path d="M502.782 104.736L496.048 100.855C495.782 100.701 495.455 100.701 495.188 100.855L488.454 104.736C488.219 104.871 488.023 105.184 488.023 105.482V113.273C488.023 113.581 488.188 113.865 488.454 114.019L495.188 117.9C495.432 118.041 495.761 118.066 496.048 117.9L502.782 114.019C503.048 113.865 503.213 113.581 503.213 113.273V105.482C503.213 105.187 503.021 104.874 502.782 104.736ZM495.618 102.594L500.63 105.483L495.618 108.371L490.606 105.483L495.618 102.594ZM489.745 106.973L494.757 109.862V115.665L489.745 112.776V106.973ZM496.479 115.665V109.862L501.491 106.973V112.776L496.479 115.665Z" fill="#55b2c2"/>
<path d="M446.192 137.424L439.458 133.543C439.191 133.389 438.865 133.389 438.598 133.543L431.864 137.424C431.606 137.573 431.434 137.901 431.434 138.17V145.961C431.434 146.269 431.598 146.553 431.864 146.707L438.598 150.588C438.843 150.729 439.171 150.754 439.458 150.588L446.192 146.707C446.459 146.553 446.623 146.269 446.623 145.961V138.17C446.623 137.873 446.43 137.561 446.192 137.424ZM439.028 135.282L444.04 138.171L439.028 141.059L434.016 138.171L439.028 135.282ZM433.155 139.661L438.168 142.55V148.353L433.155 145.464V139.661ZM439.889 148.353V142.55L444.901 139.661V145.464L439.889 148.353Z" fill="#55b2c2"/>
<path d="M502.78 137.424L496.046 133.543C495.78 133.389 495.453 133.389 495.186 133.543L488.452 137.424C488.217 137.559 488.021 137.873 488.021 138.17V145.961C488.021 146.269 488.186 146.553 488.452 146.707L495.186 150.588C495.43 150.729 495.759 150.754 496.046 150.588L502.78 146.707C503.046 146.553 503.211 146.269 503.211 145.961V138.17C503.211 137.87 503.016 137.56 502.78 137.424ZM495.616 135.282L500.628 138.171L495.616 141.059L490.604 138.171L495.616 135.282ZM489.743 139.661L494.756 142.55V148.353L489.743 145.464V139.661ZM496.477 148.353V142.55L501.489 139.661V145.464L496.477 148.353Z" fill="#55b2c2"/>
<path d="M474.487 153.767L467.753 149.886C467.486 149.732 467.159 149.732 466.893 149.886L460.159 153.767C459.923 153.903 459.729 154.217 459.729 154.513V162.304C459.729 162.612 459.893 162.896 460.159 163.05L466.893 166.931C467.18 167.097 467.513 167.069 467.753 166.931L474.487 163.05C474.753 162.896 474.917 162.612 474.917 162.304V154.513C474.917 154.214 474.723 153.903 474.487 153.767ZM467.323 151.625L472.335 154.514L467.323 157.402L462.311 154.514L467.323 151.625ZM461.45 156.004L466.462 158.893V164.696L461.45 161.807V156.004ZM468.184 164.696V158.893L473.196 156.004V161.807L468.184 164.696Z" fill="#55b2c2"/>
</g>
<path d="M346.761 85.0957V120.577C346.761 152.89 324.818 181.066 293.474 189C262.182 181.092 240.238 152.89 240.238 120.577V85.0957C264.879 82.32 278.836 72.9456 293.5 62C308.164 72.9456 322.121 82.32 346.761 85.0957Z" fill="#55b2c2"/>
<path d="M293.499 174.991C269.906 167.502 253.697 145.611 253.697 120.577V96.5388C270.273 92.9252 282.449 86.2478 293.499 78.6278C304.785 86.4573 316.726 93.0037 333.301 96.565V120.603C333.301 145.611 317.093 167.502 293.499 174.991Z" fill="#001810" fill-opacity="0.27"/>
<path d="M284.676 147.208L271.557 134.089L278.208 127.412L284.676 133.853L308.793 109.762L315.444 116.414L284.676 147.208Z" fill="#ffffff"/>
</g>
<defs>
<filter id="filter0_f_483_13967" x="-10" y="-178" width="609" height="609" filterUnits="userSpaceOnUse" color-interpolation-filters="sRGB">
<feFlood flood-opacity="0" result="BackgroundImageFix"/>
<feBlend mode="normal" in="SourceGraphic" in2="BackgroundImageFix" result="shape"/>
<feGaussianBlur stdDeviation="100" result="effect1_foregroundBlur_483_13967"/>
</filter>
<linearGradient id="paint0_linear_483_13967" x1="141.48" y1="126.071" x2="143.859" y2="145.93" gradientUnits="userSpaceOnUse">
<stop stop-color="#ffffff" stop-opacity="0.12" data-originalstopcolor="#ffffff"/>
<stop offset="0.527508" stop-color="#ffffff" stop-opacity="0.17" data-originalstopcolor="#ffffff"/>
<stop offset="1" stop-color="#ffffff" stop-opacity="0.2" data-originalstopcolor="#ffffff"/>
</linearGradient>
<clipPath id="clip0_483_13967">
<rect width="588" height="252" fill="#ffffff"/>
</clipPath>
<clipPath id="clip1_483_13967">
<rect width="83" height="83" fill="#ffffff" transform="translate(80 84)"/>
</clipPath>
<clipPath id="clip2_483_13967">
<rect width="83" height="83" fill="#ffffff" transform="translate(426 84)"/>
</clipPath>
</defs>
</svg>