<svg width="71" height="71" viewBox="0 0 71 71" fill="none" xmlns="http://www.w3.org/2000/svg">
<path d="M35.5 0.5C44.7826 0.5 53.685 4.18749 60.2487 10.7513C66.8125 17.315 70.5 26.2174 70.5 35.5C70.5 44.7826 66.8125 53.685 60.2487 60.2487C53.685 66.8125 44.7826 70.5 35.5 70.5C26.2174 70.5 17.315 66.8125 10.7513 60.2487C4.18749 53.685 0.5 44.7826 0.5 35.5C0.5 26.2174 4.18749 17.315 10.7513 10.7513C17.315 4.18749 26.2174 0.5 35.5 0.5ZM31.14 42.405L23.365 34.625C23.0863 34.3463 22.7554 34.1252 22.3912 33.9743C22.027 33.8235 21.6367 33.7458 21.2425 33.7458C20.8483 33.7458 20.458 33.8235 20.0938 33.9743C19.7296 34.1252 19.3987 34.3463 19.12 34.625C18.5571 35.1879 18.2408 35.9514 18.2408 36.7475C18.2408 37.5436 18.5571 38.3071 19.12 38.87L29.02 48.77C29.2979 49.0501 29.6286 49.2725 29.9929 49.4242C30.3572 49.5759 30.7479 49.654 31.1425 49.654C31.5371 49.654 31.9278 49.5759 32.2921 49.4242C32.6564 49.2725 32.9871 49.0501 33.265 48.77L53.765 28.265C54.0475 27.9874 54.2722 27.6567 54.4261 27.2918C54.5801 26.927 54.6604 26.5352 54.6622 26.1392C54.664 25.7432 54.5875 25.3508 54.4369 24.9845C54.2863 24.6182 54.0647 24.2854 53.7848 24.0052C53.505 23.725 53.1724 23.503 52.8063 23.352C52.4402 23.201 52.0478 23.1239 51.6518 23.1253C51.2558 23.1267 50.864 23.2064 50.499 23.36C50.1339 23.5136 49.8029 23.7379 49.525 24.02L31.14 42.405Z" fill="#00E62C"/>
</svg>
