<svg width="345px" height="164px" viewBox="0 0 345 164" fill="none" xmlns="http://www.w3.org/2000/svg" transform="rotate(0) scale(1, 1)">
<g clip-path="url(#clip0_490_14044)">
<rect width="345" height="164" rx="20" fill="url(#paint0_linear_490_14044)" fill-opacity="0.04"/>
<circle cx="172.76" cy="82.2258" r="54.3093" fill="#55b2c2" fill-opacity="0.02"/>
<circle cx="172.76" cy="82.2258" r="53.8093" stroke="url(#paint1_linear_490_14044)" stroke-opacity="0.1"/>
<circle cx="173.539" cy="83.0053" r="41.0568" fill="#55b2c2" fill-opacity="0.04"/>
<circle cx="173.539" cy="83.0053" r="40.5568" stroke="url(#paint2_linear_490_14044)" stroke-opacity="0.1"/>
<circle cx="172.5" cy="81.9659" r="28.5838" fill="#55b2c2"/>
<circle cx="172.5" cy="81.9659" r="28.0838" stroke="url(#paint3_linear_490_14044)" stroke-opacity="0.4"/>
<path fill-rule="evenodd" clip-rule="evenodd" d="M187.971 70.9221C187.971 70.2992 187.724 69.7017 187.282 69.2614C186.842 68.8197 186.244 68.5726 185.621 68.5726C181.038 68.5726 166.039 68.5726 161.455 68.5726C160.832 68.5726 160.235 68.8197 159.794 69.2614C159.353 69.7017 159.105 70.2992 159.105 70.9221V74.9499C159.105 75.5728 159.353 76.1703 159.794 76.6106C160.235 77.0523 160.832 77.2994 161.455 77.2994H185.621C186.244 77.2994 186.842 77.0523 187.282 76.6106C187.724 76.1703 187.971 75.5728 187.971 74.9499V70.9221ZM164.811 71.5934C165.553 71.5934 166.154 72.1949 166.154 72.936C166.154 73.6771 165.553 74.2786 164.811 74.2786C164.07 74.2786 163.469 73.6771 163.469 72.936C163.469 72.1949 164.07 71.5934 164.811 71.5934ZM169.51 71.5934C170.252 71.5934 170.853 72.1949 170.853 72.936C170.853 73.6771 170.252 74.2786 169.51 74.2786C168.769 74.2786 168.168 73.6771 168.168 72.936C168.168 72.1949 168.769 71.5934 169.51 71.5934ZM183.607 71.9291H179.58C179.024 71.9291 178.573 72.3802 178.573 72.936C178.573 73.4918 179.024 73.9429 179.58 73.9429H183.607C184.163 73.9429 184.614 73.4918 184.614 72.936C184.614 72.3802 184.163 71.9291 183.607 71.9291Z" fill="#001012"/>
<path fill-rule="evenodd" clip-rule="evenodd" d="M187.971 80.9915C187.971 80.3685 187.724 79.7711 187.282 79.3307C186.842 78.889 186.244 78.642 185.621 78.642C181.038 78.642 166.039 78.642 161.455 78.642C160.832 78.642 160.235 78.889 159.794 79.3307C159.353 79.7711 159.105 80.3685 159.105 80.9915V85.0192C159.105 85.6421 159.353 86.2396 159.794 86.68C160.235 87.1217 160.832 87.3687 161.455 87.3687H185.621C186.244 87.3687 186.842 87.1217 187.282 86.68C187.724 86.2396 187.971 85.6421 187.971 85.0192V80.9915ZM164.811 81.6628C165.553 81.6628 166.154 82.2642 166.154 83.0053C166.154 83.7464 165.553 84.3479 164.811 84.3479C164.07 84.3479 163.469 83.7464 163.469 83.0053C163.469 82.2642 164.07 81.6628 164.811 81.6628ZM169.51 81.6628C170.252 81.6628 170.853 82.2642 170.853 83.0053C170.853 83.7464 170.252 84.3479 169.51 84.3479C168.769 84.3479 168.168 83.7464 168.168 83.0053C168.168 82.2642 168.769 81.6628 169.51 81.6628ZM183.607 81.9984H179.58C179.024 81.9984 178.573 82.4495 178.573 83.0053C178.573 83.5612 179.024 84.0123 179.58 84.0123H183.607C184.163 84.0123 184.614 83.5612 184.614 83.0053C184.614 82.4495 184.163 81.9984 183.607 81.9984Z" fill="#001012"/>
<path fill-rule="evenodd" clip-rule="evenodd" d="M187.971 91.0607C187.971 90.4377 187.724 89.8403 187.282 89.3999C186.842 88.9582 186.244 88.7112 185.621 88.7112C181.038 88.7112 166.039 88.7112 161.455 88.7112C160.832 88.7112 160.235 88.9582 159.794 89.3999C159.353 89.8403 159.105 90.4377 159.105 91.0607V95.0884C159.105 95.7114 159.353 96.3088 159.794 96.7492C160.235 97.1909 160.832 97.4379 161.455 97.4379H185.621C186.244 97.4379 186.842 97.1909 187.282 96.7492C187.724 96.3088 187.971 95.7114 187.971 95.0884V91.0607ZM164.811 91.732C165.553 91.732 166.154 92.3334 166.154 93.0745C166.154 93.8156 165.553 94.4171 164.811 94.4171C164.07 94.4171 163.469 93.8156 163.469 93.0745C163.469 92.3334 164.07 91.732 164.811 91.732ZM169.51 91.732C170.252 91.732 170.853 92.3334 170.853 93.0745C170.853 93.8156 170.252 94.4171 169.51 94.4171C168.769 94.4171 168.168 93.8156 168.168 93.0745C168.168 92.3334 168.769 91.732 169.51 91.732ZM183.607 92.0676H179.58C179.024 92.0676 178.573 92.5187 178.573 93.0745C178.573 93.6304 179.024 94.0815 179.58 94.0815H183.607C184.163 94.0815 184.614 93.6304 184.614 93.0745C184.614 92.5187 184.163 92.0676 183.607 92.0676Z" fill="#001012"/>
<path d="M141.837 80.9265H131.667C127.249 80.9265 123.667 77.3448 123.667 72.9265V33.8377C123.667 29.4194 120.085 25.8377 115.667 25.8377H98.1816" stroke="url(#paint4_linear_490_14044)" stroke-linejoin="round" stroke-dasharray="4 4"/>
<path d="M203.163 80.9265H213.333C217.751 80.9265 221.333 77.3448 221.333 72.9265V33.8377C221.333 29.4194 224.915 25.8377 229.333 25.8377H246.818" stroke="url(#paint5_linear_490_14044)" stroke-linejoin="round" stroke-dasharray="4 4"/>
<path d="M141.837 84.5646H131.667C127.249 84.5646 123.667 88.1463 123.667 92.5646V131.653C123.667 136.072 120.085 139.653 115.667 139.653H98.1816" stroke="url(#paint6_linear_490_14044)" stroke-linejoin="round" stroke-dasharray="4 4"/>
<path d="M203.163 84.5646H213.333C217.751 84.5646 221.333 88.1463 221.333 92.5646V131.653C221.333 136.072 224.915 139.653 229.333 139.653H246.818" stroke="url(#paint7_linear_490_14044)" stroke-linejoin="round" stroke-dasharray="4 4"/>
<circle cx="81.5537" cy="138.094" r="14.5518" fill="#55b2c2" fill-opacity="0.04"/>
<circle cx="81.5537" cy="138.094" r="14.0518" stroke="url(#paint8_linear_490_14044)" stroke-opacity="0.2"/>
<g clip-path="url(#clip1_490_14044)">
<path d="M81.5532 138.549C82.5415 138.549 83.4146 138.785 84.124 139.095C84.7789 139.386 85.1912 140.041 85.1912 140.75V141.732H77.9153V140.756C77.9153 140.041 78.3276 139.386 78.9824 139.101C79.6918 138.785 80.5649 138.549 81.5532 138.549ZM76.7026 138.701C77.3696 138.701 77.9153 138.155 77.9153 137.488C77.9153 136.821 77.3696 136.275 76.7026 136.275C76.0357 136.275 75.49 136.821 75.49 137.488C75.49 138.155 76.0357 138.701 76.7026 138.701ZM77.3878 139.368C77.1634 139.331 76.9391 139.307 76.7026 139.307C76.1024 139.307 75.5324 139.434 75.0171 139.659C74.5684 139.853 74.2773 140.289 74.2773 140.78V141.732H77.0058V140.756C77.0058 140.253 77.1453 139.78 77.3878 139.368ZM86.4038 138.701C87.0708 138.701 87.6165 138.155 87.6165 137.488C87.6165 136.821 87.0708 136.275 86.4038 136.275C85.7369 136.275 85.1912 136.821 85.1912 137.488C85.1912 138.155 85.7369 138.701 86.4038 138.701ZM88.8291 140.78C88.8291 140.289 88.5381 139.853 88.0894 139.659C87.574 139.434 87.0041 139.307 86.4038 139.307C86.1674 139.307 85.943 139.331 85.7187 139.368C85.9612 139.78 86.1007 140.253 86.1007 140.756V141.732H88.8291V140.78ZM81.5532 134.456C82.5597 134.456 83.3722 135.269 83.3722 136.275C83.3722 137.282 82.5597 138.094 81.5532 138.094C80.5467 138.094 79.7343 137.282 79.7343 136.275C79.7343 135.269 80.5467 134.456 81.5532 134.456Z" fill="#d2d4d5"/>
</g>
<circle cx="81.5537" cy="25.8377" r="14.5518" fill="#55b2c2" fill-opacity="0.04"/>
<circle cx="81.5537" cy="25.8377" r="14.0518" stroke="url(#paint9_linear_490_14044)" stroke-opacity="0.2"/>
<path fill-rule="evenodd" clip-rule="evenodd" d="M81.5541 25.8373C82.9779 25.8373 84.131 24.6842 84.131 23.2605C84.131 21.8367 82.9779 20.6836 81.5541 20.6836C80.1304 20.6836 78.9773 21.8367 78.9773 23.2605C78.9773 24.6842 80.1304 25.8373 81.5541 25.8373ZM81.5541 27.1258C79.8341 27.1258 76.4004 27.989 76.4004 29.7027V30.3469C76.4004 30.7012 76.6903 30.9911 77.0446 30.9911H86.0637C86.418 30.9911 86.7079 30.7012 86.7079 30.3469V29.7027C86.7079 27.989 83.2742 27.1258 81.5541 27.1258Z" fill="#d2d4d5"/>
<circle cx="263.45" cy="138.094" r="14.5518" fill="#55b2c2" fill-opacity="0.04"/>
<circle cx="263.45" cy="138.094" r="14.0518" stroke="url(#paint10_linear_490_14044)" stroke-opacity="0.2"/>
<path fill-rule="evenodd" clip-rule="evenodd" d="M263.451 138.094C264.874 138.094 266.028 136.941 266.028 135.517C266.028 134.094 264.874 132.941 263.451 132.941C262.027 132.941 260.874 134.094 260.874 135.517C260.874 136.941 262.027 138.094 263.451 138.094ZM263.451 139.383C261.731 139.383 258.297 140.246 258.297 141.96V142.604C258.297 142.958 258.587 143.248 258.941 143.248H267.96C268.314 143.248 268.604 142.958 268.604 142.604V141.96C268.604 140.246 265.171 139.383 263.451 139.383Z" fill="#d2d4d5"/>
<circle cx="263.45" cy="25.8377" r="14.5518" fill="#55b2c2" fill-opacity="0.04"/>
<circle cx="263.45" cy="25.8377" r="14.0518" stroke="url(#paint11_linear_490_14044)" stroke-opacity="0.2"/>
<g clip-path="url(#clip2_490_14044)">
<path d="M263.45 26.2921C264.438 26.2921 265.311 26.5286 266.021 26.8378C266.675 27.1289 267.088 27.7837 267.088 28.4931V29.4753H259.812V28.4992C259.812 27.7837 260.224 27.1289 260.879 26.8439C261.588 26.5286 262.461 26.2921 263.45 26.2921ZM258.599 26.4437C259.266 26.4437 259.812 25.898 259.812 25.2311C259.812 24.5641 259.266 24.0184 258.599 24.0184C257.932 24.0184 257.386 24.5641 257.386 25.2311C257.386 25.898 257.932 26.4437 258.599 26.4437ZM259.284 27.1107C259.06 27.0743 258.836 27.0501 258.599 27.0501C257.999 27.0501 257.429 27.1774 256.914 27.4017C256.465 27.5957 256.174 28.0323 256.174 28.5234V29.4753H258.902V28.4992C258.902 27.9959 259.042 27.523 259.284 27.1107ZM268.3 26.4437C268.967 26.4437 269.513 25.898 269.513 25.2311C269.513 24.5641 268.967 24.0184 268.3 24.0184C267.633 24.0184 267.088 24.5641 267.088 25.2311C267.088 25.898 267.633 26.4437 268.3 26.4437ZM270.726 28.5234C270.726 28.0323 270.435 27.5957 269.986 27.4017C269.471 27.1774 268.901 27.0501 268.3 27.0501C268.064 27.0501 267.839 27.0743 267.615 27.1107C267.858 27.523 267.997 27.9959 267.997 28.4992V29.4753H270.726V28.5234ZM263.45 22.1995C264.456 22.1995 265.269 23.0119 265.269 24.0184C265.269 25.0249 264.456 25.8374 263.45 25.8374C262.443 25.8374 261.631 25.0249 261.631 24.0184C261.631 23.0119 262.443 22.1995 263.45 22.1995Z" fill="#d2d4d5"/>
</g>
<circle cx="263.45" cy="83.0055" r="14.5518" fill="#55b2c2" fill-opacity="0.04"/>
<circle cx="263.45" cy="83.0055" r="14.0518" stroke="url(#paint12_linear_490_14044)" stroke-opacity="0.2"/>
<path fill-rule="evenodd" clip-rule="evenodd" d="M265.874 82.3992C266.881 82.3992 267.687 81.5867 267.687 80.5802C267.687 79.5737 266.881 78.7612 265.874 78.7612C264.868 78.7612 264.055 79.5737 264.055 80.5802C264.055 81.5867 264.868 82.3992 265.874 82.3992ZM261.024 82.3992C262.03 82.3992 262.836 81.5867 262.836 80.5802C262.836 79.5737 262.03 78.7612 261.024 78.7612C260.017 78.7612 259.205 79.5737 259.205 80.5802C259.205 81.5867 260.017 82.3992 261.024 82.3992ZM261.024 83.6118C259.611 83.6118 256.779 84.3212 256.779 85.734V86.6434C256.779 86.9769 257.052 87.2498 257.386 87.2498H264.662C264.995 87.2498 265.268 86.9769 265.268 86.6434V85.734C265.268 84.3212 262.436 83.6118 261.024 83.6118ZM265.874 83.6118C265.698 83.6118 265.498 83.6239 265.286 83.6421C265.298 83.6482 265.304 83.6603 265.31 83.6664C266.001 84.1696 266.48 84.8427 266.48 85.734V86.6434C266.48 86.8557 266.438 87.0618 266.371 87.2498H269.512C269.846 87.2498 270.118 86.9769 270.118 86.6434V85.734C270.118 84.3212 267.287 83.6118 265.874 83.6118Z" fill="#d2d4d5"/>
<circle cx="81.5537" cy="83.0055" r="14.5518" fill="#55b2c2" fill-opacity="0.04"/>
<circle cx="81.5537" cy="83.0055" r="14.0518" stroke="url(#paint13_linear_490_14044)" stroke-opacity="0.2"/>
<path fill-rule="evenodd" clip-rule="evenodd" d="M83.9777 82.3992C84.9842 82.3992 85.7906 81.5867 85.7906 80.5802C85.7906 79.5737 84.9842 78.7612 83.9777 78.7612C82.9712 78.7612 82.1587 79.5737 82.1587 80.5802C82.1587 81.5867 82.9712 82.3992 83.9777 82.3992ZM79.1271 82.3992C80.1336 82.3992 80.94 81.5867 80.94 80.5802C80.94 79.5737 80.1336 78.7612 79.1271 78.7612C78.1206 78.7612 77.3081 79.5737 77.3081 80.5802C77.3081 81.5867 78.1206 82.3992 79.1271 82.3992ZM79.1271 83.6118C77.7143 83.6118 74.8828 84.3212 74.8828 85.734V86.6434C74.8828 86.9769 75.1557 87.2498 75.4891 87.2498H82.765C83.0985 87.2498 83.3713 86.9769 83.3713 86.6434V85.734C83.3713 84.3212 80.5398 83.6118 79.1271 83.6118ZM83.9777 83.6118C83.8018 83.6118 83.6017 83.6239 83.3895 83.6421C83.4017 83.6482 83.4077 83.6603 83.4138 83.6664C84.105 84.1696 84.584 84.8427 84.584 85.734V86.6434C84.584 86.8557 84.5415 87.0618 84.4749 87.2498H87.6156C87.9491 87.2498 88.2219 86.9769 88.2219 86.6434V85.734C88.2219 84.3212 85.3904 83.6118 83.9777 83.6118Z" fill="#d2d4d5"/>
<path d="M96.1055 83.0055L141.84 83.0055" stroke="url(#paint14_linear_490_14044)" stroke-linejoin="round" stroke-dasharray="4 4"/>
<path d="M203.164 83.0055H248.898" stroke="url(#paint15_linear_490_14044)" stroke-linejoin="round" stroke-dasharray="4 4"/>
<g filter="url(#filter0_f_490_14044)">
<circle cx="173.5" cy="77.5" r="104.5" fill="#55b2c2" fill-opacity="0.2"/>
</g>
</g>
<rect x="0.5" y="0.5" width="344" height="163" rx="19.5" stroke="url(#paint16_linear_490_14044)"/>
<defs>
<filter id="filter0_f_490_14044" x="-131" y="-227" width="609" height="609" filterUnits="userSpaceOnUse" color-interpolation-filters="sRGB">
<feFlood flood-opacity="0" result="BackgroundImageFix"/>
<feBlend mode="normal" in="SourceGraphic" in2="BackgroundImageFix" result="shape"/>
<feGaussianBlur stdDeviation="100" result="effect1_foregroundBlur_490_14044"/>
</filter>
<linearGradient id="paint0_linear_490_14044" x1="411.728" y1="-40.18" x2="287.994" y2="312.227" gradientUnits="userSpaceOnUse">
<stop stop-color="#ffffff" data-originalstopcolor="#ffffff"/>
<stop offset="0.56821" stop-color="#ffffff" stop-opacity="0.51" data-originalstopcolor="#ffffff"/>
<stop offset="1" stop-color="#ffffff" stop-opacity="0" data-originalstopcolor="#ffffff"/>
</linearGradient>
<linearGradient id="paint1_linear_490_14044" x1="126.937" y1="136.535" x2="219.008" y2="136.535" gradientUnits="userSpaceOnUse">
<stop stop-color="#55b2c2" stop-opacity="0" data-originalstopcolor="#55b2c2"/>
<stop offset="0.515" stop-color="#55b2c2" stop-opacity="0.52" data-originalstopcolor="#55b2c2"/>
<stop offset="1" stop-color="#22d3ee" stop-opacity="0" data-originalstopcolor="#22d3ee"/>
</linearGradient>
<linearGradient id="paint2_linear_490_14044" x1="138.898" y1="124.062" x2="208.502" y2="124.062" gradientUnits="userSpaceOnUse">
<stop stop-color="#55b2c2" stop-opacity="0" data-originalstopcolor="#55b2c2"/>
<stop offset="0.515" stop-color="#55b2c2" stop-opacity="0.52" data-originalstopcolor="#55b2c2"/>
<stop offset="1" stop-color="#55b2c2" stop-opacity="0" data-originalstopcolor="#55b2c2"/>
</linearGradient>
<linearGradient id="paint3_linear_490_14044" x1="148.382" y1="110.55" x2="196.841" y2="110.55" gradientUnits="userSpaceOnUse">
<stop stop-color="#55b2c2" stop-opacity="0" data-originalstopcolor="#55b2c2"/>
<stop offset="0.515" stop-color="#55b2c2" stop-opacity="0.52" data-originalstopcolor="#55b2c2"/>
<stop offset="1" stop-color="#55b2c2" stop-opacity="0" data-originalstopcolor="#55b2c2"/>
</linearGradient>
<linearGradient id="paint4_linear_490_14044" x1="100.986" y1="77.0249" x2="121.951" y2="76.6287" gradientUnits="userSpaceOnUse">
<stop stop-color="#ffffff" stop-opacity="0.12" data-originalstopcolor="#ffffff"/>
<stop offset="0.527508" stop-color="#ffffff" stop-opacity="0.17" data-originalstopcolor="#ffffff"/>
<stop offset="1" stop-color="#ffffff" stop-opacity="0.2" data-originalstopcolor="#ffffff"/>
</linearGradient>
<linearGradient id="paint5_linear_490_14044" x1="244.014" y1="77.0249" x2="223.049" y2="76.6287" gradientUnits="userSpaceOnUse">
<stop stop-color="#ffffff" stop-opacity="0.12" data-originalstopcolor="#ffffff"/>
<stop offset="0.527508" stop-color="#ffffff" stop-opacity="0.17" data-originalstopcolor="#ffffff"/>
<stop offset="1" stop-color="#ffffff" stop-opacity="0.2" data-originalstopcolor="#ffffff"/>
</linearGradient>
<linearGradient id="paint6_linear_490_14044" x1="100.986" y1="88.4661" x2="121.951" y2="88.8624" gradientUnits="userSpaceOnUse">
<stop stop-color="#ffffff" stop-opacity="0.12" data-originalstopcolor="#ffffff"/>
<stop offset="0.527508" stop-color="#ffffff" stop-opacity="0.17" data-originalstopcolor="#ffffff"/>
<stop offset="1" stop-color="#ffffff" stop-opacity="0.2" data-originalstopcolor="#ffffff"/>
</linearGradient>
<linearGradient id="paint7_linear_490_14044" x1="244.014" y1="88.4661" x2="223.049" y2="88.8624" gradientUnits="userSpaceOnUse">
<stop stop-color="#ffffff" stop-opacity="0.12" data-originalstopcolor="#ffffff"/>
<stop offset="0.527508" stop-color="#ffffff" stop-opacity="0.17" data-originalstopcolor="#ffffff"/>
<stop offset="1" stop-color="#ffffff" stop-opacity="0.2" data-originalstopcolor="#ffffff"/>
</linearGradient>
<linearGradient id="paint8_linear_490_14044" x1="85.2655" y1="158.814" x2="107.14" y2="141.474" gradientUnits="userSpaceOnUse">
<stop stop-color="#55b2c2" stop-opacity="0" data-originalstopcolor="#55b2c2"/>
<stop offset="0.515" stop-color="#55b2c2" stop-opacity="0.52" data-originalstopcolor="#55b2c2"/>
<stop offset="1" stop-color="#55b2c2" stop-opacity="0" data-originalstopcolor="#55b2c2"/>
</linearGradient>
<linearGradient id="paint9_linear_490_14044" x1="85.2655" y1="46.5573" x2="107.14" y2="29.2177" gradientUnits="userSpaceOnUse">
<stop stop-color="#55b2c2" stop-opacity="0" data-originalstopcolor="#55b2c2"/>
<stop offset="0.515" stop-color="#55b2c2" stop-opacity="0.52" data-originalstopcolor="#55b2c2"/>
<stop offset="1" stop-color="#55b2c2" stop-opacity="0" data-originalstopcolor="#55b2c2"/>
</linearGradient>
<linearGradient id="paint10_linear_490_14044" x1="267.162" y1="158.814" x2="289.036" y2="141.474" gradientUnits="userSpaceOnUse">
<stop stop-color="#55b2c2" stop-opacity="0" data-originalstopcolor="#55b2c2"/>
<stop offset="0.515" stop-color="#55b2c2" stop-opacity="0.52" data-originalstopcolor="#55b2c2"/>
<stop offset="1" stop-color="#55b2c2" stop-opacity="0" data-originalstopcolor="#55b2c2"/>
</linearGradient>
<linearGradient id="paint11_linear_490_14044" x1="267.162" y1="46.5573" x2="289.036" y2="29.2177" gradientUnits="userSpaceOnUse">
<stop stop-color="#55b2c2" stop-opacity="0" data-originalstopcolor="#55b2c2"/>
<stop offset="0.515" stop-color="#55b2c2" stop-opacity="0.52" data-originalstopcolor="#55b2c2"/>
<stop offset="1" stop-color="#55b2c2" stop-opacity="0" data-originalstopcolor="#55b2c2"/>
</linearGradient>
<linearGradient id="paint12_linear_490_14044" x1="267.162" y1="103.725" x2="289.036" y2="86.3855" gradientUnits="userSpaceOnUse">
<stop stop-color="#55b2c2" stop-opacity="0" data-originalstopcolor="#55b2c2"/>
<stop offset="0.515" stop-color="#55b2c2" stop-opacity="0.52" data-originalstopcolor="#55b2c2"/>
<stop offset="1" stop-color="#55b2c2" stop-opacity="0" data-originalstopcolor="#55b2c2"/>
</linearGradient>
<linearGradient id="paint13_linear_490_14044" x1="85.2655" y1="103.725" x2="107.14" y2="86.3855" gradientUnits="userSpaceOnUse">
<stop stop-color="#55b2c2" stop-opacity="0" data-originalstopcolor="#55b2c2"/>
<stop offset="0.515" stop-color="#55b2c2" stop-opacity="0.52" data-originalstopcolor="#55b2c2"/>
<stop offset="1" stop-color="#55b2c2" stop-opacity="0" data-originalstopcolor="#55b2c2"/>
</linearGradient>
<linearGradient id="paint14_linear_490_14044" x1="99.0429" y1="83.0763" x2="109.077" y2="94.0207" gradientUnits="userSpaceOnUse">
<stop stop-color="#ffffff" stop-opacity="0.12" data-originalstopcolor="#ffffff"/>
<stop offset="0.527508" stop-color="#ffffff" stop-opacity="0.17" data-originalstopcolor="#ffffff"/>
<stop offset="1" stop-color="#ffffff" stop-opacity="0.2" data-originalstopcolor="#ffffff"/>
</linearGradient>
<linearGradient id="paint15_linear_490_14044" x1="206.102" y1="83.0763" x2="216.136" y2="94.0207" gradientUnits="userSpaceOnUse">
<stop stop-color="#ffffff" stop-opacity="0.12" data-originalstopcolor="#ffffff"/>
<stop offset="0.527508" stop-color="#ffffff" stop-opacity="0.17" data-originalstopcolor="#ffffff"/>
<stop offset="1" stop-color="#ffffff" stop-opacity="0.2" data-originalstopcolor="#ffffff"/>
</linearGradient>
<linearGradient id="paint16_linear_490_14044" x1="216.5" y1="198.756" x2="328.182" y2="12.5205" gradientUnits="userSpaceOnUse">
<stop stop-color="#55b2c2" stop-opacity="0" data-originalstopcolor="#55b2c2"/>
<stop offset="0.515" stop-color="#55b2c2" stop-opacity="0.52" data-originalstopcolor="#55b2c2"/>
<stop offset="1" stop-color="#55b2c2" stop-opacity="0" data-originalstopcolor="#55b2c2"/>
</linearGradient>
<clipPath id="clip0_490_14044">
<rect width="345" height="164" rx="20" fill="#ffffff"/>
</clipPath>
<clipPath id="clip1_490_14044">
<rect width="14.5518" height="14.5518" fill="#ffffff" transform="translate(74.2773 130.818)"/>
</clipPath>
<clipPath id="clip2_490_14044">
<rect width="14.5518" height="14.5518" fill="#ffffff" transform="translate(256.174 18.5615)"/>
</clipPath>
</defs>
</svg>