<svg width="588px" height="715px" viewBox="0 0 588 715" fill="none" xmlns="http://www.w3.org/2000/svg" transform="rotate(0) scale(1, 1)">
<g clip-path="url(#clip0_1831_5256)">
<path d="M0 20C0 8.95432 8.95431 0 20 0H568C579.046 0 588 8.9543 588 20V695C588 706.046 579.046 715 568 715H20C8.95432 715 0 706.046 0 695V20Z" fill="url(#paint0_linear_1831_5256)" fill-opacity="0.04"/>
<g style="mix-blend-mode:screen" opacity="0.4">
<path d="M822.009 615.053C933.405 334.131 795.976 16.0942 515.053 -95.3011C234.131 -206.696 -83.9057 -69.2673 -195.301 211.655C-306.696 492.578 -169.267 810.614 111.655 922.009C392.578 1033.4 710.614 895.976 822.009 615.053Z" fill="url(#paint1_radial_1831_5256)" style="mix-blend-mode:screen"/>
<path d="M822.009 615.053C933.405 334.131 795.976 16.0942 515.053 -95.3011C234.131 -206.696 -83.9057 -69.2673 -195.301 211.655C-306.696 492.578 -169.267 810.614 111.655 922.009C392.578 1033.4 710.614 895.976 822.009 615.053Z" fill="#55b2c2" style="mix-blend-mode:hue"/>
</g>
<path d="M219 440H437C445.837 440 453 447.163 453 456V542" stroke="#55b2c2" stroke-width="4"/>
<path d="M218 108H437C445.837 108 453 115.163 453 124V210" stroke="#55b2c2" stroke-width="4"/>
<path d="M389 274H168C159.163 274 152 281.163 152 290V376" stroke="#55b2c2" stroke-width="4"/>
<rect x="91" y="43.5" width="126" height="128" rx="63" fill="#55b2c2"/>
<rect x="91" y="43.5" width="126" height="128" rx="63" stroke="#55b2c2" stroke-width="4"/>
<path fill-rule="evenodd" clip-rule="evenodd" d="M134.263 68.5707C139.523 67.4018 145.903 67 153.5 67C161.097 67 167.477 67.4018 172.737 68.5707C178.043 69.7498 182.453 71.7628 185.845 75.155C189.237 78.5472 191.25 82.9571 192.429 88.2628C193.598 93.5226 194 99.9034 194 107.5C194 115.097 193.598 121.477 192.429 126.737C191.25 132.043 189.237 136.453 185.845 139.845C182.453 143.237 178.043 145.25 172.737 146.429C167.477 147.598 161.097 148 153.5 148C145.903 148 139.523 147.598 134.263 146.429C128.957 145.25 124.547 143.237 121.155 139.845C117.763 136.453 115.75 132.043 114.571 126.737C113.402 121.477 113 115.097 113 107.5C113 99.9034 113.402 93.5226 114.571 88.2628C115.75 82.9571 117.763 78.5472 121.155 75.155C124.547 71.7628 128.957 69.7498 134.263 68.5707ZM153.5 83.2C144.553 83.2 137.3 90.453 137.3 99.4C137.3 108.347 144.553 115.6 153.5 115.6C162.447 115.6 169.7 108.347 169.7 99.4C169.7 90.453 162.447 83.2 153.5 83.2ZM179.329 128.942C180.758 131.271 180.252 134.352 177.949 135.824C175.856 137.163 173.409 137.982 170.979 138.522C166.59 139.497 160.911 139.9 153.499 139.9C146.088 139.9 140.408 139.497 136.019 138.522C133.635 137.992 131.233 137.194 129.165 135.899C126.821 134.43 126.305 131.308 127.769 128.961C129.455 126.259 131.779 124.135 134.906 122.624C139.65 120.332 145.869 119.65 153.498 119.65C161.102 119.65 167.314 120.277 172.052 122.504C175.259 124.012 177.627 126.166 179.329 128.942Z" fill="#003724"/>
<rect x="391" y="210.5" width="126" height="128" rx="63" fill="#55b2c2"/>
<rect x="391" y="210.5" width="126" height="128" rx="63" stroke="#55b2c2" stroke-width="4"/>
<g clip-path="url(#clip1_1831_5256)">
<path fill-rule="evenodd" clip-rule="evenodd" d="M484.461 244.35C488.722 242.556 493.29 246.159 492.538 250.721L483.651 304.601C482.794 309.796 477.089 312.777 472.322 310.188C468.334 308.022 462.417 304.688 457.084 301.203C454.421 299.463 446.267 293.883 447.269 289.911C448.126 286.515 461.834 273.755 469.667 266.167C472.744 263.186 471.343 261.464 467.709 264.208C458.694 271.017 444.221 281.368 439.435 284.281C435.213 286.851 433.008 287.29 430.378 286.851C425.576 286.051 421.123 284.812 417.489 283.305C412.576 281.269 412.815 274.517 417.485 272.551L484.461 244.35Z" fill="#003724"/>
</g>
<rect x="91" y="377.5" width="126" height="127" rx="63" fill="#55b2c2"/>
<rect x="91" y="377.5" width="126" height="127" rx="63" stroke="#55b2c2" stroke-width="4"/>
<path d="M173.299 477.687H158.5V470.099C158.502 469.397 158.362 468.702 158.089 468.056C157.815 467.41 157.414 466.825 156.908 466.339C155.635 465.084 153.782 464.378 151.833 464.406C150.099 464.423 148.427 465.05 147.11 466.178C146.246 466.941 145.219 468.263 145.219 470.232V477.687H130.546C128.098 477.685 125.751 476.711 124.02 474.98C122.289 473.249 121.315 470.902 121.313 468.454V453.781H128.901C130.422 453.781 131.901 453.13 133.066 451.955C133.715 451.301 134.228 450.526 134.575 449.674C134.923 448.821 135.098 447.908 135.092 446.988C135.042 443.47 132.147 440.5 128.768 440.5H121.313V425.668C121.308 424.459 121.549 423.262 122.02 422.149C122.492 421.036 123.185 420.031 124.057 419.194C125.798 417.514 128.127 416.581 130.546 416.594H141.045V414.19C141.045 412.745 141.333 411.315 141.892 409.983C142.45 408.65 143.269 407.443 144.299 406.43C145.33 405.417 146.552 404.62 147.894 404.085C149.236 403.55 150.671 403.287 152.115 403.312C158.007 403.415 162.8 408.356 162.8 414.324V416.594H173.299C174.498 416.581 175.688 416.808 176.799 417.261C177.91 417.714 178.919 418.384 179.767 419.233C180.616 420.081 181.286 421.09 181.739 422.201C182.192 423.312 182.419 424.502 182.406 425.701V436.2H184.674C190.747 436.2 195.688 441.015 195.688 446.931C195.688 453.009 190.808 457.955 184.81 457.955H182.406V468.454C182.406 473.545 178.321 477.687 173.299 477.687Z" fill="#003724"/>
<rect x="389" y="541.5" width="130" height="132" rx="65" fill="#55b2c2"/>
<g clip-path="url(#clip2_1831_5256)">
<path d="M436.064 587.253L443.818 582.785C444.22 582.553 444.358 582.039 444.126 581.637C443.894 581.236 443.38 581.097 442.979 581.329L435.225 585.798C434.823 586.029 434.685 586.543 434.917 586.945C435.149 587.347 435.664 587.485 436.064 587.253Z" fill="#003724"/>
<path d="M471.737 597.548C471.506 597.146 470.991 597.008 470.59 597.239L467.499 599.02C467.097 599.252 466.959 599.765 467.19 600.167C467.423 600.57 467.936 600.707 468.338 600.476L471.429 598.695C471.831 598.463 471.969 597.95 471.737 597.548Z" fill="#003724"/>
<path d="M462.837 582.785L470.59 587.253C470.993 587.485 471.506 587.347 471.737 586.945C471.969 586.544 471.831 586.03 471.429 585.798L463.676 581.329C463.272 581.097 462.76 581.236 462.528 581.637C462.297 582.039 462.435 582.553 462.837 582.785Z" fill="#003724"/>
<path d="M435.226 598.695L438.317 600.476C438.719 600.707 439.232 600.569 439.464 600.167C439.695 599.765 439.557 599.252 439.155 599.02L436.064 597.239C435.662 597.008 435.149 597.146 434.917 597.548C434.685 597.95 434.824 598.463 435.226 598.695Z" fill="#003724"/>
<path d="M436.064 619.209L439.155 617.428C439.557 617.196 439.695 616.682 439.464 616.28C439.232 615.878 438.719 615.741 438.317 615.972L435.226 617.753C434.824 617.984 434.685 618.498 434.917 618.9C435.149 619.303 435.663 619.439 436.064 619.209Z" fill="#003724"/>
<path d="M470.599 629.194L462.837 633.663C462.435 633.894 462.297 634.408 462.528 634.81C462.759 635.211 463.273 635.35 463.675 635.119L471.438 630.65C471.839 630.419 471.978 629.905 471.746 629.503C471.515 629.101 471.001 628.963 470.599 629.194Z" fill="#003724"/>
<path d="M443.816 633.663L436.054 629.194C435.652 628.964 435.139 629.101 434.907 629.503C434.676 629.905 434.814 630.418 435.216 630.65L442.978 635.119C443.381 635.35 443.894 635.211 444.125 634.81C444.357 634.408 444.218 633.894 443.816 633.663Z" fill="#003724"/>
<path d="M471.429 617.753L468.338 615.972C467.936 615.74 467.422 615.878 467.19 616.28C466.959 616.682 467.097 617.196 467.499 617.428L470.59 619.209C470.992 619.44 471.505 619.302 471.737 618.9C471.969 618.498 471.831 617.984 471.429 617.753Z" fill="#003724"/>
<path d="M441.221 614.742C441.221 615.042 441.381 615.32 441.641 615.469L452.908 621.964C453.136 622.096 453.467 622.125 453.747 621.964L465.013 615.469C465.274 615.32 465.434 615.042 465.434 614.742V601.706C465.434 601.413 465.244 601.111 465.013 600.978L453.747 594.484C453.487 594.333 453.168 594.333 452.908 594.484L441.641 600.978C441.391 601.122 441.221 601.44 441.221 601.706V614.742ZM442.901 603.162L452.487 608.688V619.783L442.901 614.257V603.162ZM454.167 619.783V608.688L463.754 603.162V614.257L454.167 619.783ZM453.327 596.181L462.914 601.707L453.327 607.233L443.74 601.707L453.327 596.181Z" fill="#003724"/>
<path d="M446.336 580.862L452.908 584.65C453.146 584.787 453.467 584.811 453.747 584.65L460.318 580.862C460.579 580.712 460.739 580.434 460.739 580.134V572.53C460.739 572.239 460.55 571.936 460.318 571.803L453.747 568.015C453.487 567.865 453.168 567.865 452.908 568.015L446.336 571.803C446.106 571.935 445.916 572.241 445.916 572.53V580.134C445.916 580.434 446.076 580.712 446.336 580.862ZM447.596 573.986L452.487 576.805V582.468L447.596 579.649V573.986ZM454.167 582.468V576.805L459.059 573.986V579.649L454.167 582.468ZM453.327 569.712L458.218 572.531L453.327 575.35L448.437 572.531L453.327 569.712Z" fill="#003724"/>
<path d="M432.706 587.736L426.134 583.949C425.874 583.798 425.555 583.798 425.294 583.949L418.723 587.736C418.495 587.868 418.303 588.173 418.303 588.464V596.068C418.303 596.368 418.463 596.646 418.723 596.795L425.295 600.583C425.533 600.721 425.854 600.745 426.134 600.583L432.706 596.795C432.966 596.646 433.126 596.368 433.126 596.068V588.464C433.126 588.174 432.937 587.87 432.706 587.736ZM425.714 585.646L430.605 588.465L425.715 591.284L420.823 588.465L425.714 585.646ZM419.983 589.92L424.875 592.739V598.402L419.983 595.583V589.92ZM426.555 598.402V592.739L431.446 589.92V595.583L426.555 598.402Z" fill="#003724"/>
<path d="M487.93 587.736L481.359 583.949C481.099 583.798 480.78 583.798 480.519 583.949L473.948 587.736C473.718 587.868 473.527 588.173 473.527 588.464V596.068C473.527 596.368 473.688 596.646 473.948 596.795L480.519 600.583C480.758 600.721 481.078 600.745 481.359 600.583L487.93 596.795C488.19 596.646 488.35 596.368 488.35 596.068V588.464C488.35 588.176 488.164 587.871 487.93 587.736ZM480.939 585.646L485.83 588.465L480.939 591.284L476.048 588.465L480.939 585.646ZM475.207 589.92L480.099 592.739V598.402L475.207 595.583V589.92ZM481.779 598.402V592.739L486.67 589.92V595.583L481.779 598.402Z" fill="#003724"/>
<path d="M432.706 619.637L426.134 615.849C425.874 615.699 425.555 615.699 425.295 615.849L418.723 619.637C418.471 619.782 418.303 620.102 418.303 620.364V627.968C418.303 628.268 418.463 628.546 418.723 628.696L425.295 632.484C425.533 632.621 425.854 632.645 426.134 632.484L432.706 628.696C432.966 628.546 433.126 628.268 433.126 627.968V620.364C433.126 620.074 432.937 619.77 432.706 619.637ZM425.714 617.546L430.605 620.365L425.715 623.184L420.823 620.365L425.714 617.546ZM419.983 621.82L424.874 624.639V630.302L419.983 627.483V621.82ZM426.555 630.302V624.639L431.446 621.82V627.483L426.555 630.302Z" fill="#003724"/>
<path d="M487.93 619.637L481.359 615.849C481.099 615.699 480.78 615.699 480.519 615.849L473.948 619.637C473.718 619.769 473.527 620.075 473.527 620.364V627.968C473.527 628.268 473.688 628.546 473.948 628.696L480.519 632.484C480.758 632.621 481.078 632.645 481.359 632.484L487.93 628.696C488.19 628.546 488.35 628.268 488.35 627.968V620.364C488.351 620.072 488.16 619.769 487.93 619.637ZM480.939 617.546L485.83 620.365L480.939 623.184L476.048 620.365L480.939 617.546ZM475.207 621.82L480.099 624.639V630.302L475.207 627.483V621.82ZM481.779 630.302V624.639L486.67 621.82V627.483L481.779 630.302Z" fill="#003724"/>
<path d="M460.318 635.586L453.747 631.798C453.487 631.648 453.168 631.648 452.908 631.798L446.336 635.586C446.106 635.719 445.916 636.025 445.916 636.314V643.917C445.916 644.218 446.076 644.495 446.336 644.645L452.908 648.433C453.188 648.594 453.513 648.568 453.747 648.433L460.318 644.645C460.579 644.495 460.739 644.217 460.739 643.917V636.314C460.739 636.022 460.549 635.718 460.318 635.586ZM453.328 633.495L458.218 636.314L453.328 639.134L448.437 636.314L453.328 633.495ZM447.596 637.769L452.487 640.588V646.251L447.596 643.432V637.769ZM454.168 646.251V640.588L459.059 637.769V643.432L454.168 646.251Z" fill="#003724"/>
</g>
</g>
<path d="M0.5 20C0.5 9.23046 9.23045 0.5 20 0.5H568C578.77 0.5 587.5 9.23045 587.5 20V695C587.5 705.77 578.77 714.5 568 714.5H20C9.23046 714.5 0.5 705.77 0.5 695V20Z" stroke="url(#paint2_linear_1831_5256)"/>
<defs>
<linearGradient id="paint0_linear_1831_5256" x1="701.728" y1="-175.175" x2="-156.226" y2="780.065" gradientUnits="userSpaceOnUse">
<stop stop-color="#ffffff" data-originalstopcolor="#ffffff"/>
<stop offset="0.56821" stop-color="#ffffff" stop-opacity="0.51" data-originalstopcolor="#ffffff"/>
<stop offset="1" stop-color="#ffffff" stop-opacity="0" data-originalstopcolor="#ffffff"/>
</linearGradient>
<radialGradient id="paint1_radial_1831_5256" cx="0" cy="0" r="1" gradientUnits="userSpaceOnUse" gradientTransform="translate(304.549 417.013) scale(544.33 544.33)">
<stop stop-color="#018bbd" data-originalstopcolor="#018bbd"/>
<stop offset="0.28" stop-color="#02487c" data-originalstopcolor="#02487c"/>
<stop offset="0.5" stop-color="#021d52" data-originalstopcolor="#021d52"/>
<stop offset="0.61" stop-color="#030d42" data-originalstopcolor="#030d42"/>
<stop offset="1"/>
</radialGradient>
<linearGradient id="paint2_linear_1831_5256" x1="368.991" y1="866.529" x2="874.018" y2="537.307" gradientUnits="userSpaceOnUse">
<stop stop-color="#00cc83" stop-opacity="0" data-originalstopcolor="#00cc83"/>
<stop offset="0.515" stop-color="#00cc83" stop-opacity="0.52" data-originalstopcolor="#00cc83"/>
<stop offset="1" stop-color="#00cc83" stop-opacity="0" data-originalstopcolor="#00cc83"/>
</linearGradient>
<clipPath id="clip0_1831_5256">
<path d="M0 20C0 8.95432 8.95431 0 20 0H568C579.046 0 588 8.9543 588 20V695C588 706.046 579.046 715 568 715H20C8.95432 715 0 706.046 0 695V20Z" fill="#ffffff"/>
</clipPath>
<clipPath id="clip1_1831_5256">
<rect width="94" height="94" fill="#ffffff" transform="translate(407 227)"/>
</clipPath>
<clipPath id="clip2_1831_5256">
<rect width="81" height="81" fill="#ffffff" transform="translate(413 567.5)"/>
</clipPath>
</defs>
</svg>